<svg xmlns="http://www.w3.org/2000/svg" viewBox="0 0 325 28"><path fill="#FFF" d="M-176.6 2.9c-.7.4-1.1.9-1.1 1.4 0 2.3 9.2 4.2 20.6 4.2 2.3 0 4.4-.1 6.5-.2 1.6 3.4 15.2 6 31.6 6 3.2 0 6.4-.1 9.3-.3 7.2 2.9 22 5 39 5C-46.5 19-27 14.9-27 9.9c0-.5-.2-1.1-.7-1.6 4.1.1 8.5.1 13 .1 5.5 0 10.8-.1 15.8-.2 5.6 1.4 15.5 2.3 26.7 2.3h3.8c-1.9 1-2.9 2.2-2.9 3.3 0 6.1 27.9 11 62.3 11 31.7 0 57.9-4.2 61.8-9.6 3.2.1 6.5.2 9.9.2 23.6 0 42.8-3 42.8-6.8 0-1.3-2.3-2.5-6.2-3.5C250.6 4 250 0 250 0H-207.8s1.4 2.1 31.2 2.9z"/><path fill="#FFF" d="M146.7 2.9c-.7.4-1.1.9-1.1 1.4 0 2.3 9.2 4.2 20.6 4.2 2.3 0 4.4-.1 6.5-.2 1.6 3.4 15.2 6 31.6 6 3.2 0 6.4-.1 9.3-.3 7.2 2.9 22 5 39 5 24.2 0 43.8-4.1 43.8-9.1 0-.5-.2-1.1-.7-1.6 4.1.1 8.5.1 13 .1 5.5 0 10.8-.1 15.8-.2 5.6 1.4 15.5 2.3 26.7 2.3h3.8c-1.9 1-2.9 2.2-2.9 3.3 0 6.1 27.9 11 62.3 11 31.7 0 57.9-4.2 61.8-9.6 3.2.1 6.5.2 9.9.2 23.6 0 42.8-3 42.8-6.8 0-1.3-2.3-2.5-6.2-3.5C573.9 4 573.2 0 573.2 0H115.5s1.4 2.1 31.2 2.9z"/></svg>