<svg xmlns="http://www.w3.org/2000/svg" viewBox="0 0 206 60"><path opacity=".7" fill="#FFF" d="M192.5 53.3c.3-1 .5-2.1.5-3.3 0-5.7-4.2-10.3-9.3-10.3-1 0-2 .2-2.9.5-.7-8.3-6.8-14.7-14.3-14.7-1.5 0-2.9.3-4.2.7-3.3-7.1-9.9-12-17.6-12-10.9 0-19.8 9.9-19.8 22.1 0 1.3.1 2.6.3 3.8-1.9-.2-3.8-.4-5.9-.4-2.5 0-4.9.2-7.1.5-2.5-3.3-7-5.6-12-5.6-.6 0-1.1 0-1.7.1.8-2.5 1.3-5.2 1.3-8C99.9 12 87.3 0 71.7 0 57.4 0 45.6 10.2 43.9 23.3c-1.4-.3-2.9-.4-4.4-.4-10.7 0-19.3 7.4-19.3 16.4 0 3.1 1 6 2.8 8.5C-.3 50.5 0 60.3 0 60.3h206.6s-.6-5.1-14.1-7z"/></svg>