<svg xmlns="http://www.w3.org/2000/svg" viewBox="0 0 787 368"><g class="laptop-container device laptop"><path fill="#4D4D4D" d="M716 339H204V11.3C204 4.4 210.4 0 217.2 0h487.9C712 0 716 4.4 716 11.3V339z"/><path fill="#F2F3F3" d="M224 25h475v289H224z"/><path fill="#818181" d="M757.7 365H167.8c-9.3 0-24.7-11-24.7-11h639.3s-15.5 11-24.7 11z"/><path fill="#B3B3B3" d="M781 354H143v-15.4c0-3.4 2.9-4.6 6.3-4.6h626.9c3.4 0 4.8 1.2 4.8 4.6V354z"/><path fill="#E6E7E7" d="M518.3 344H407.1c-9.3 0-9.3-10-9.3-10h129.7c.1 0 .1 10-9.2 10z"/><path fill="#B3B3B3" d="M224 25h475v25H224z"/><circle fill="#963" cx="238.4" cy="36.7" r="6.1"/><circle fill="#FFCD36" cx="257.9" cy="36.7" r="6.1"/><circle fill="#EB6668" cx="277.4" cy="36.7" r="6.1"/><path fill="#FFCD36" d="M507.5 95.9h4.2v60.9h-4.2z"/><path fill="#EB6668" d="M513.8 72.4h4.2v84.4h-4.2z"/><path fill="#FFCD36" d="M520.1 103.9h4.2v52.9h-4.2zM526.4 86.5h4.2v70.3h-4.2zM539 139.5h4.2v17.3H539z"/><path fill="#EB6668" d="M545.3 117.5h4.2v39.4h-4.2z"/><path fill="#FFCD36" d="M551.6 124.8h4.2v32.1h-4.2zM557.9 98.7h4.2v58.1h-4.2zM570.6 136.1h4.2v20.7h-4.2z"/><path fill="#EB6668" d="M576.9 139.8h4.2v17h-4.2z"/><path fill="#FFCD36" d="M583.2 108.5h4.2v48.4h-4.2zM589.5 123.2h4.2v33.6h-4.2zM602.1 79.3h4.2v77.6h-4.2z"/><path fill="#EB6668" d="M608.4 103.6h4.2v53.2h-4.2z"/><path fill="#FFCD36" d="M614.7 127.2h4.2v29.7h-4.2zM621 91.3h4.2v65.5H621zM638.7 91.7c-1.9 0-3.4 1.6-3.4 3.4 0 1.9 1.5 3.4 3.4 3.4s3.4-1.5 3.4-3.4c0-1.8-1.5-3.4-3.4-3.4z"/><path fill="#EB6668" d="M638.7 111.2c-1.9 0-3.4 1.5-3.4 3.4s1.5 3.4 3.4 3.4 3.4-1.6 3.4-3.4c0-1.8-1.5-3.4-3.4-3.4z"/><path fill="#FFCD36" d="M638.7 130.8c-1.9 0-3.4 1.5-3.4 3.4s1.5 3.4 3.4 3.4 3.4-1.5 3.4-3.4-1.5-3.4-3.4-3.4zM638.7 150.3c-1.9 0-3.4 1.6-3.4 3.4 0 1.9 1.5 3.4 3.4 3.4s3.4-1.6 3.4-3.4c0-1.9-1.5-3.4-3.4-3.4z"/><path fill="#51677F" d="M503.4 156.8V68.4H501v.8h1.7v11.9H501v.7h1.7v11.9H501v.7h1.7v11.9H501v.8h1.7V119H501v.7h1.7v11.9H501v.7h1.7v11.9H501v.7h1.7v12.7H632v-.8z"/><g><path fill="#FFCD36" d="M576.3 246.3v-53.6c-26.2 1.7-47 23.5-47 50.2 0 27.8 22.6 50.4 50.4 50.4 26.7 0 48.5-20.8 50.2-47h-53.6z"/><path fill="#EB6668" d="M585 239.6h41.6c-1.1-16.1-10.4-30-23.8-37.5L585 239.6z"/><path fill="#FFCD36" d="M583 196v32l13.7-28.9c-4.3-1.7-8.9-2.8-13.7-3.1z"/></g><g><path fill="#FFCD36" d="M268.5 88h32.3v25.5h-32.3z"/><g fill="#D2D4D5"><path d="M307.5 88h63v2.9h-63zM307.5 95.3h63v2.9h-63zM307.5 102.6H339v2.9h-31.5z"/></g><g fill="#D2D4D5"><path d="M268.5 123h102v2.9h-102zM268.5 130.3h102v2.9h-102zM268.5 137.6h51v2.9h-51z"/></g></g><g><path fill="#FFCD36" d="M378.7 88H411v25.5h-32.3z"/><g fill="#D2D4D5"><path d="M417.8 88h63v2.9h-63zM417.8 95.3h63v2.9h-63zM417.8 102.6h31.5v2.9h-31.5z"/></g><g fill="#D2D4D5"><path d="M378.7 123h102v2.9h-102zM378.7 130.3h102v2.9h-102zM378.7 137.6h51v2.9h-51z"/></g></g><path fill="#EB6668" d="M268.5 64.7h212.3v12.7H268.5z"/><g><g fill="#D2D4D5"><path d="M399.5 156.2h80.6v4.2h-80.6zM399.5 173.5h80.6v4.2h-80.6zM399.5 190.9h80.6v4.2h-80.6zM399.5 208.3h80.6v4.2h-80.6z"/></g><path fill="#EB6668" d="M384.5 163.3c-.5 0-1-.2-1.4-.6l-3.2-3.3c-.7-.8-.7-2 .1-2.7.8-.7 2-.7 2.7.1l1.7 1.8 5.6-6.9c.7-.8 1.9-.9 2.7-.3.8.7.9 1.9.3 2.7l-7 8.5c-.3.4-.8.6-1.5.7.1 0 .1 0 0 0zM384.5 180c-.5 0-1-.2-1.4-.6L380 176c-.7-.8-.7-2 .1-2.7.8-.7 2-.7 2.7.1l1.7 1.7 5.6-6.9c.7-.8 1.9-.9 2.7-.3.8.7.9 1.9.3 2.7l-7 8.5c-.4.6-.9.8-1.6.9.1 0 .1 0 0 0zM384.5 196.7c-.5 0-1-.2-1.4-.6l-3.2-3.3c-.7-.8-.7-2 .1-2.7.8-.7 2-.7 2.7.1l1.7 1.8 5.6-6.9c.7-.8 1.9-.9 2.7-.3.8.7.9 1.9.3 2.7l-7 8.5c-.3.4-.8.6-1.5.7.1 0 .1 0 0 0z"/></g><path fill="#D2D4D5" d="M379.4 231.3h48.4v14h-48.4zM432.2 231.3h48.4v14h-48.4zM379.4 248.5h48.4v14h-48.4zM432.2 248.5h48.4v14h-48.4zM379.4 266h48.4v14h-48.4zM432.2 266h48.4v14h-48.4zM379.4 283h48.4v14h-48.4zM432.2 283h48.4v14h-48.4z"/><g><path fill="#FFCD36" d="M337.9 209.6h26.4v86.8h-26.4zM266.6 247.4H293v48.9h-26.4zM302.3 223.6h26.4v72.8h-26.4z"/></g><path fill="#D2D4D5" d="M268.4 150.6h102.1v6.8H268.4zM268.4 160.9h102.1v6.8H268.4zM268.4 171.2h102.1v6.8H268.4zM268.4 181.4h102.1v6.8H268.4z"/><path opacity=".3" fill="#FFF" d="M577.1 365h180.6c9.3 0 24.7-11 24.7-11H781v-15.4c0-3.4-1.4-4.6-4.8-4.6H716V11.3C716 4.4 712 0 705.2 0H395.9l181.2 365z"/></g><g class="mobile-container device mobile"><path fill="#4D4D4D" d="M787 343.9c0 9-8.9 17.1-18 17.1H665.6c-9 0-17.6-8.1-17.6-17.1V120.7c0-9 8.6-17.7 17.6-17.7H769c9 0 18 8.7 18 17.7v223.2z"/><path fill="#4D4D4D" d="M787 343.9c0 9-8.9 17.1-18 17.1H665.6c-9 0-17.6-8.1-17.6-17.1V120.7c0-9 8.6-17.7 17.6-17.7H769c9 0 18 8.7 18 17.7v223.2z"/><path fill="#F2F3F3" d="M659 136h118v188H659z"/><path fill="#B3B3B3" d="M727.2 341.8c0 5.5-4.4 9.9-9.9 9.9s-9.9-4.4-9.9-9.9 4.4-9.9 9.9-9.9 9.9 4.5 9.9 9.9zM740 122.7c0 1.3-1 2.3-2.3 2.3h-49.5c-1.3 0-2.3-1-2.3-2.3v-.5c0-1.3 1-2.3 2.3-2.3h49.5c1.3 0 2.3 1 2.3 2.3v.5z"/><g><path fill="#EB6668" d="M674.6 176h2.9v41.3h-2.9zM678.8 160.1h2.9v57.2h-2.9z"/><path fill="#FFCD36" d="M683.1 181.5h2.9v35.9h-2.9z"/><path fill="#EB6668" d="M687.4 169.7h2.9v47.7h-2.9zM696 205.6h2.9v11.7H696zM700.2 190.6h2.9v26.7h-2.9z"/><path fill="#FFCD36" d="M704.5 195.6h2.9v21.7h-2.9z"/><path fill="#EB6668" d="M708.8 178h2.9v39.4h-2.9zM717.3 203.3h2.9v14h-2.9zM721.6 205.8h2.9v11.5h-2.9z"/><path fill="#FFCD36" d="M725.9 184.6h2.9v32.8h-2.9z"/><path fill="#EB6668" d="M730.1 194.6h2.9v22.8h-2.9zM738.7 164.7h2.9v52.6h-2.9zM743 181.3h2.9v36.1H743z"/><path fill="#FFCD36" d="M747.3 197.2h2.9v20.1h-2.9z"/><path fill="#EB6668" d="M751.5 172.9h2.9v44.4h-2.9zM763.5 173.2c-1.3 0-2.3 1.1-2.3 2.3 0 1.3 1 2.3 2.3 2.3 1.3 0 2.3-1 2.3-2.3 0-1.3-1-2.3-2.3-2.3zM763.5 186.4c-1.3 0-2.3 1-2.3 2.3 0 1.3 1 2.3 2.3 2.3 1.3 0 2.3-1.1 2.3-2.3 0-1.2-1-2.3-2.3-2.3z"/><path fill="#FFCD36" d="M763.5 199.7c-1.3 0-2.3 1-2.3 2.3 0 1.3 1 2.3 2.3 2.3 1.3 0 2.3-1 2.3-2.3 0-1.3-1-2.3-2.3-2.3z"/><path fill="#EB6668" d="M763.5 212.9c-1.3 0-2.3 1.1-2.3 2.3 0 1.3 1 2.3 2.3 2.3 1.3 0 2.3-1.1 2.3-2.3 0-1.3-1-2.3-2.3-2.3z"/><path fill="#51677F" d="M671.8 217.3v-59.9h-1.6v.5h1.1v8.1h-1.1v.5h1.1v8h-1.1v.5h1.1v8.1h-1.1v.5h1.1v8.1h-1.1v.4h1.1v8.1h-1.1v.5h1.1v8.1h-1.1v.5h1.1v8.5H759v-.5z"/></g><g><path fill="#F59815" d="M715.1 269.1v-36.3c-17.8 1.2-31.9 15.9-31.9 34 0 18.9 15.3 34.1 34.1 34.1 18.1 0 32.9-14.1 34-31.9h-36.2z"/><path fill="#FFCD36" d="M721 264.6h28.2c-.8-10.9-7.1-20.3-16.1-25.4L721 264.6z"/><path fill="#F59815" d="M719.7 235.1v21.7l9.3-19.6c-3-1.2-6.1-1.9-9.3-2.1z"/></g><path opacity=".3" fill="#FFF" d="M693.1 103H769c9 0 18 8.7 18 17.7v223.2c0 9-8.9 17.1-18 17.1h-24.1l-51.8-258z"/></g><g class="tablet-container device tablet"><path fill="#4D4D4D" d="M19.9 368C9.1 368-1 359.2-1 348.5V147.6C-1 136.8 9.1 128 19.9 128H298c10.8 0 19 8.8 19 19.6v200.9c0 10.8-8.2 19.5-19 19.5H19.9z"/><path fill="#F2F3F3" d="M51 148h243v201H51z"/><path fill="#B3B3B3" d="M25.4 259.5c-6.4 0-11.5-5.1-11.5-11.5s5.1-11.5 11.5-11.5 11.5 5.1 11.5 11.5-5.1 11.5-11.5 11.5z"/><path fill="#EB6668" d="M171.7 183.6h3.1v44.7h-3.1z"/><path fill="#FFCD36" d="M176.3 166.4h3.1v62h-3.1zM181 189.5h3.1v38.9H181zM185.6 176.7h3.1v51.7h-3.1z"/><path fill="#EB6668" d="M194.9 215.7h3.1v12.7h-3.1z"/><path fill="#FFCD36" d="M199.5 199.5h3.1v28.9h-3.1zM204.1 204.8h3.1v23.6h-3.1zM208.8 185.7h3.1v42.7h-3.1z"/><path fill="#EB6668" d="M218.1 213.2h3.1v15.2h-3.1z"/><path fill="#FFCD36" d="M222.7 215.9h3.1v12.5h-3.1zM227.3 192.9h3.1v35.5h-3.1zM231.9 203.7h3.1v24.7h-3.1z"/><path fill="#EB6668" d="M241.2 171.4h3.1v57h-3.1z"/><path fill="#FFCD36" d="M245.9 189.3h3.1v39.1h-3.1zM250.5 206.6h3.1v21.8h-3.1zM255.1 180.2h3.1v48.2h-3.1z"/><path fill="#EB6668" d="M268.1 180.5c-1.4 0-2.5 1.1-2.5 2.5s1.1 2.5 2.5 2.5 2.5-1.1 2.5-2.5c0-1.3-1.1-2.5-2.5-2.5z"/><path fill="#FFCD36" d="M268.1 194.9c-1.4 0-2.5 1.1-2.5 2.5s1.1 2.5 2.5 2.5 2.5-1.1 2.5-2.5-1.1-2.5-2.5-2.5zM268.1 209.2c-1.4 0-2.5 1.1-2.5 2.5s1.1 2.5 2.5 2.5 2.5-1.1 2.5-2.5c0-1.3-1.1-2.5-2.5-2.5zM268.1 223.6c-1.4 0-2.5 1.1-2.5 2.5s1.1 2.5 2.5 2.5 2.5-1.1 2.5-2.5-1.1-2.5-2.5-2.5z"/><path fill="#51677F" d="M168.7 228.4v-65h-1.8v.6h1.3v8.7h-1.3v.6h1.3v8.7h-1.3v.5h1.3v8.8h-1.3v.5h1.3v8.8h-1.3v.5h1.3v8.7h-1.3v.6h1.3v8.7h-1.3v.5h1.3v9.3h95v-.5z"/><g><path fill="#EB6668" d="M215.7 294.5v-39.4c-19.3 1.3-34.5 17.3-34.5 36.9 0 20.4 16.6 37 37 37 19.6 0 35.6-15.3 36.9-34.5h-39.4z"/><path fill="#FFCD36" d="M222 289.6h30.6c-.8-11.8-7.7-22-17.4-27.6L222 289.6z"/><path fill="#EB6668" d="M220.6 257.6v23.5l10.1-21.2c-3.2-1.3-6.6-2-10.1-2.3z"/></g><g><path fill="#EB6668" d="M77.1 177.8h23.7v18.7H77.1z"/><g fill="#D2D4D5"><path d="M105.8 177.8h46.3v2.1h-46.3zM105.8 183.1h46.3v2.2h-46.3zM105.8 188.5h23.1v2.1h-23.1z"/></g><g fill="#D2D4D5"><path d="M77.1 203.5H152v2.1H77.1zM77.1 208.9H152v2.1H77.1zM77.1 214.2h37.5v2.1H77.1z"/></g></g><path fill="#963" d="M77.1 160.7H152v9.4H77.1z"/><g><g fill="#D2D4D5"><path d="M92.4 230.8h59.2v3.1H92.4zM92.4 243.6h59.2v3.1H92.4zM92.4 256.4h59.2v3.1H92.4zM92.4 269.1h59.2v3.1H92.4z"/></g><path fill="#FFCD36" d="M81.4 236c-.4 0-.8-.2-1-.4l-2.3-2.4c-.5-.6-.5-1.5 0-2 .6-.5 1.5-.5 2 0l1.2 1.3 4.1-5c.5-.6 1.4-.7 2-.2.6.5.7 1.4.2 2l-5.1 6.3c-.2.2-.6.4-1.1.4zM81.4 248.3c-.4 0-.8-.2-1-.4l-2.3-2.4c-.5-.6-.5-1.5 0-2 .6-.5 1.5-.5 2 0l1.2 1.3 4.1-5c.5-.6 1.4-.7 2-.2.6.5.7 1.4.2 2l-5.1 6.3c-.2.2-.6.4-1.1.4zM81.4 260.6c-.4 0-.8-.2-1-.4l-2.3-2.4c-.5-.6-.5-1.5 0-2 .6-.5 1.5-.5 2 0l1.2 1.3 4.1-5c.5-.6 1.4-.7 2-.2.6.5.7 1.4.2 2l-5.1 6.3c-.2.2-.6.4-1.1.4z"/></g><path fill="#D2D4D5" d="M77.7 283h35.5v10.3H77.7zM116.4 283h35.5v10.3h-35.5zM77.7 295.7h35.5V306H77.7zM116.4 295.7h35.5V306h-35.5zM77.7 308.6h35.5v10.3H77.7zM116.4 308.6h35.5v10.3h-35.5zM77.7 321.1h35.5v10.3H77.7zM116.4 321.1h35.5v10.3h-35.5z"/><path opacity=".3" fill="#FFF" d="M83.8 128H298c10.8 0 19 8.8 19 19.6v200.9c0 10.8-8.2 19.5-19 19.5h-85.4L83.8 128z"/></g></svg>