<svg xmlns="http://www.w3.org/2000/svg" viewBox="402 380.9 1400 80"><path fill="#009967" d="M655.1 404.6c-9.1-6-21.8-9.7-35.9-9.7-14.1 0-26.8 3.7-35.9 9.7-1.5 1-2.9 2-4.2 3.2-8.7 6.2-28.9 19.5-43.7 19.5H703c-14.8 0-35-13.2-43.7-19.5-1.2-1.2-2.7-2.3-4.2-3.2z"/><path fill="#009967" d="M565 397.2c-12.1-7.9-29-12.8-47.7-12.8-18.7 0-35.6 4.9-47.7 12.8-2 1.3-3.9 2.7-5.6 4.2-11.5 8.3-38.4 25.8-58 25.8h222.6c-19.6 0-46.4-17.6-58-25.8-1.7-1.5-3.6-2.9-5.6-4.2zM1374 404.6c-9.1-6-21.8-9.7-35.9-9.7s-26.8 3.7-35.9 9.7c-1.5 1-2.9 2-4.2 3.2-8.7 6.2-28.9 19.5-43.7 19.5h167.6c-14.8 0-35-13.2-43.7-19.5-1.2-1.2-2.7-2.3-4.2-3.2z"/><path fill="#009967" d="M1546.8 399.2c-11.3-7.4-27.1-12-44.5-12s-33.2 4.6-44.5 12c-1.9 1.2-3.6 2.5-5.3 3.9-10.8 7.7-35.8 24.1-54.1 24.1h207.7c-18.3 0-43.3-16.4-54.1-24.1-1.6-1.4-3.3-2.7-5.2-3.9z"/><path fill="#009967" d="M402 424.9h1400v36H402z"/><path fill="#096" d="M1102.7 418.3c-5.2-3.4-12.4-5.5-20.4-5.5s-15.2 2.1-20.4 5.5c-.9.6-1.7 1.2-2.4 1.8-4.9 3.5-16.4 11-24.7 11h95c-8.4 0-19.8-7.5-24.7-11-.7-.7-1.5-1.3-2.4-1.8z"/><path fill="#096" d="M1051.6 414.1c-6.9-4.5-16.4-7.3-27-7.3s-20.2 2.8-27 7.3c-1.1.7-2.2 1.5-3.2 2.4-6.5 4.7-21.7 14.6-32.8 14.6H1087.7c-11.1 0-26.3-10-32.8-14.6-1.1-.9-2.1-1.7-3.3-2.4z"/><path fill="#096" d="M960.6 424.8c-11.6-1.1-27.6-1.8-45.5-1.8-17.8 0-33.9.7-45.5 1.8-2 .2-3.8.4-5.3.6-10.9 1.2-36.6 3.7-55.1 3.7H1020.8c-18.7 0-44.1-2.5-55.1-3.7-1.3-.2-3.1-.4-5.1-.6z"/><path fill="#096" d="M832.7 423.4c-15.4-1.5-36.6-2.4-60.2-2.4s-45 .9-60.2 2.4c-2.5.2-4.9.5-7.1.8-14.5 1.6-48.4 4.9-73.1 4.9H913.2c-24.7 0-58.6-3.4-73.1-4.9-2.5-.3-4.7-.6-7.4-.8zM1242.8 423.4c-15.4-1.5-36.6-2.4-60.2-2.4s-45 .9-60.2 2.4c-2.5.2-4.9.5-7.1.8-14.5 1.6-48.4 4.9-73.1 4.9H1323.3c-24.7 0-58.6-3.4-73.1-4.9-2.5-.3-4.7-.6-7.4-.8zM1740.1 424.8c-11.6-1.1-27.6-1.8-45.5-1.8s-33.9.7-45.5 1.8c-2 .2-3.8.4-5.3.6-10.9 1.2-36.6 3.7-55.1 3.7H1800.3c-18.7 0-44.1-2.5-55.1-3.7-1.3-.2-3-.4-5.1-.6z"/><path fill="#096" d="M1612.3 423.4c-15.4-1.5-36.6-2.4-60.2-2.4s-45 .9-60.2 2.4c-2.5.2-4.9.5-7.1.8-14.5 1.6-48.4 4.9-73.1 4.9H1692.8c-24.7 0-58.6-3.4-73.1-4.9-2.5-.3-4.8-.6-7.4-.8z"/></svg>