<svg xmlns="http://www.w3.org/2000/svg" xmlns:xlink="http://www.w3.org/1999/xlink" viewBox="0 0 99 19"><path fill="#963" d="M47.5 4.9l-.2-.4S45.7.9 45.6.6c-.2-.3-.2-.6.4-.6h2.9c.8 0 1.1.4 1.1.4L51.7 2l1.4 1.3 2.5 2.4h-7.7l-.4-.8z"/><path fill="#FFF" d="M55.6 5.7l.1.1h15.5l-.1-.1h7.5l.2.1h9.1c4.9 0 8.3 2.2 9.9 3.5 1.5.9 4 5-2.6 5-4.3 0-16.6-.2-16.6-.2l-.3.1H66.9l.1-.1h-6c-.9.1-7.4 0-9.4-.3l-2-4.5L48.5 7l-.2-.4-.4-.9h7.7z"/><circle fill="#963" cx="82.6" cy="9.9" r="1.2"/><circle fill="#963" cx="77.8" cy="9.9" r="1.2"/><circle fill="#963" cx="73.1" cy="9.9" r="1.2"/><circle fill="#963" cx="68.4" cy="9.9" r="1.2"/><circle fill="#963" cx="63.6" cy="9.9" r="1.2"/><circle fill="#963" cx="58.9" cy="9.9" r="1.2"/><g><defs><path id="a" d="M47.3 4.5L51.7 2l1.4 1.3 2.6 2.5h15.5l-1.8-3.2h4.5l4.9 3.2h9.1c4.9 0 8.3 2.2 9.9 3.5 1.5.9 4 5-2.6 5-4.3 0-16.6-.2-16.6-.2L66 19.9h-6.1l7.2-5.8H61c-.9.1-7.4 0-9.4-.3l-2-4.5L48.5 7l-1-2.1-.2-.4z"/></defs><clipPath id="b"><use xlink:href="#a" overflow="visible"/></clipPath><path clip-path="url(#b)" fill="#EB6668" d="M91.2 10H103c.6 0 1.1-.5 1.1-1.1v-.4c0-.6-.5-1.1-1.1-1.1H91.2c-.6 0-1.1.4-1.1 1.3s.5 1.3 1.1 1.3z"/></g><g><path fill="#EC6E5E" d="M59.2 11.7c-.3.4-.4 1.1-.4 1.8v.6c.1.5.2 1 .4 1.3-3.6-.1-6.2-.6-7.3-1.3-.1-.1-.3-.2-.3-.2-.1-.1-.2-.2-.2-.3.1-.9 3.2-1.8 7.8-1.9z"/><path fill="#B65345" d="M58.6 14.1v-.6c0-.9.2-1.5.5-1.7.1-.1.1-.1.2-.1s.1.1.2.2c.2.3.4.9.4 1.7v.6c-.1.5-.2.9-.4 1.1l-.2.2c-.1 0-.1 0-.2-.1-.2-.3-.4-.7-.5-1.3z"/></g><path fill="#963" d="M70.1 2.7h3.1c1 0 1.3.3 1.3.3l4.4 2.8h-7.6S70 3.5 69.8 3.1c-.3-.3.3-.4.3-.4zM64.8 19.9h-3.9c-1 0 .3-1 .3-1l5.9-4.7h11.5l-11.3 5.2c-.1-.1-1 .5-2.5.5z"/><linearGradient id="c" gradientUnits="userSpaceOnUse" y1="8.195" x2="50.573" y2="8.195"><stop offset="0" stop-color="#fff" stop-opacity="0"/><stop offset="1" stop-color="#fff"/></linearGradient><path fill="url(#c)" d="M0 7.5h50.6V9H0z"/><linearGradient id="d" gradientUnits="userSpaceOnUse" x1="1.633" y1="10.917" x2="52.206" y2="10.917"><stop offset="0" stop-color="#fff" stop-opacity="0"/><stop offset="1" stop-color="#fff"/></linearGradient><path fill="url(#d)" d="M1.6 10.2h50.6v1.5H1.6z"/></svg>