<?xml version="1.0" encoding="utf-8"?>
<!-- Generator: Adobe Illustrator 19.1.0, SVG Export Plug-In . SVG Version: 6.00 Build 0)  -->
<svg version="1.1" id="Layer_1" xmlns="http://www.w3.org/2000/svg" xmlns:xlink="http://www.w3.org/1999/xlink" x="0px" y="0px"
	 viewBox="0 0 140 140" enable-background="new 0 0 140 140" xml:space="preserve">
<g>
	<g>
		<path fill="#FFCC33" d="M70,0C31.3,0,0,31.3,0,70c0,23.8,11.9,44.8,30,57.4c11.3,7.9,25.1,12.6,40,12.6c14.9,0,28.7-4.7,40-12.6
			c18.1-12.7,30-33.6,30-57.4C140,31.3,108.7,0,70,0z"/>
	</g>
	<g>
		<path fill="#FFFFFF" d="M55.7,110.6c-1.8,0-3.5-0.7-4.9-2L26.1,84c-2.7-2.7-2.7-7,0-9.7c2.7-2.7,7-2.7,9.7,0L55.7,94l50.9-50.9
			c2.7-2.7,7-2.7,9.7,0c2.7,2.7,2.7,7,0,9.7l-55.8,55.8C59.2,110,57.4,110.6,55.7,110.6z"/>
	</g>
</g>
</svg>
