<?xml version="1.0" encoding="utf-8"?>
<!-- Generator: Adobe Illustrator 19.1.0, SVG Export Plug-In . SVG Version: 6.00 Build 0)  -->
<svg version="1.1" id="Layer_1" xmlns="http://www.w3.org/2000/svg" xmlns:xlink="http://www.w3.org/1999/xlink" x="0px" y="0px"
	 viewBox="0 0 325 28" enable-background="new 0 0 325 28" xml:space="preserve">
<path fill="#FFFFFF" d="M-176.6,2.9c-0.7,0.4-1.1,0.9-1.1,1.4c0,2.3,9.2,4.2,20.6,4.2c2.3,0,4.4-0.1,6.5-0.2c1.6,3.4,15.2,6,31.6,6
	c3.2,0,6.4-0.1,9.3-0.3c7.2,2.9,22,5,39,5C-46.5,19-27,14.9-27,9.9c0-0.5-0.2-1.1-0.7-1.6c4.1,0.1,8.5,0.1,13,0.1
	c5.5,0,10.8-0.1,15.8-0.2c5.6,1.4,15.5,2.3,26.7,2.3c1.3,0,2.5,0,3.8,0c-1.9,1-2.9,2.2-2.9,3.3c0,6.1,27.9,11,62.3,11
	c31.7,0,57.9-4.2,61.8-9.6c3.2,0.1,6.5,0.2,9.9,0.2c23.6,0,42.8-3,42.8-6.8c0-1.3-2.3-2.5-6.2-3.5C250.6,4,250,0,250,0L91,0L60.8,0
	v0L-70.1,0l-6.8,0l-130.9,0C-207.8,0-206.4,2.1-176.6,2.9z"/>
<path fill="#FFFFFF" d="M146.7,2.9c-0.7,0.4-1.1,0.9-1.1,1.4c0,2.3,9.2,4.2,20.6,4.2c2.3,0,4.4-0.1,6.5-0.2c1.6,3.4,15.2,6,31.6,6
	c3.2,0,6.4-0.1,9.3-0.3c7.2,2.9,22,5,39,5c24.2,0,43.8-4.1,43.8-9.1c0-0.5-0.2-1.1-0.7-1.6c4.1,0.1,8.5,0.1,13,0.1
	c5.5,0,10.8-0.1,15.8-0.2c5.6,1.4,15.5,2.3,26.7,2.3c1.3,0,2.5,0,3.8,0c-1.9,1-2.9,2.2-2.9,3.3c0,6.1,27.9,11,62.3,11
	c31.7,0,57.9-4.2,61.8-9.6c3.2,0.1,6.5,0.2,9.9,0.2c23.6,0,42.8-3,42.8-6.8c0-1.3-2.3-2.5-6.2-3.5C573.9,4,573.2,0,573.2,0l-159,0
	l-30.2,0v0L253.2,0l-6.8,0L115.5,0C115.5,0,116.9,2.1,146.7,2.9z"/>
</svg>
