<?xml version="1.0" encoding="utf-8"?>
<!-- Generator: Adobe Illustrator 19.1.0, SVG Export Plug-In . SVG Version: 6.00 Build 0)  -->
<svg version="1.1" id="Layer_1" xmlns="http://www.w3.org/2000/svg" xmlns:xlink="http://www.w3.org/1999/xlink" x="0px" y="0px"
	 viewBox="0 0 206 60" enable-background="new 0 0 206 60" xml:space="preserve">
<path opacity="0.7" fill="#FFFFFF" d="M192.5,53.3c0.3-1,0.5-2.1,0.5-3.3c0-5.7-4.2-10.3-9.3-10.3c-1,0-2,0.2-2.9,0.5
	c-0.7-8.3-6.8-14.7-14.3-14.7c-1.5,0-2.9,0.3-4.2,0.7c-3.3-7.1-9.9-12-17.6-12c-10.9,0-19.8,9.9-19.8,22.1c0,1.3,0.1,2.6,0.3,3.8
	c-1.9-0.2-3.8-0.4-5.9-0.4c-2.5,0-4.9,0.2-7.1,0.5c-2.5-3.3-7-5.6-12-5.6c-0.6,0-1.1,0-1.7,0.1c0.8-2.5,1.3-5.2,1.3-8
	C99.9,12,87.3,0,71.7,0C57.4,0,45.6,10.2,43.9,23.3c-1.4-0.3-2.9-0.4-4.4-0.4c-10.7,0-19.3,7.4-19.3,16.4c0,3.1,1,6,2.8,8.5
	C-0.3,50.5,0,60.3,0,60.3h71.7h13.6v0h59.1h3.1h59.1C206.6,60.3,206,55.2,192.5,53.3z"/>
</svg>
