<?xml version="1.0" encoding="utf-8"?>
<!-- Generator: Adobe Illustrator 19.1.0, SVG Export Plug-In . SVG Version: 6.00 Build 0)  -->
<svg version="1.1" id="Layer_1" xmlns="http://www.w3.org/2000/svg" xmlns:xlink="http://www.w3.org/1999/xlink" x="0px" y="0px"
	 viewBox="0 0 76.4 32.7" enable-background="new 0 0 76.4 32.7" xml:space="preserve">
<path opacity="0.7" fill="#FFFFFF" d="M0,32.7h76.4c0,0-5.6-9.2-16.5-10.2c-0.5-3.5-3.5-6.2-7.1-6.2c-0.3,0-0.7,0-1,0.1
	c0.4-1.2,0.6-2.4,0.6-3.8C52.3,5.6,46.7,0,39.7,0c-6.4,0-11.6,4.7-12.4,10.8c-1.2-0.7-2.6-1-4.1-1c-4.8,0-8.7,3.9-8.7,8.7
	c0,1.7,0.5,3.3,1.3,4.6C11.6,24.4,3.5,27.4,0,32.7z"/>
</svg>
