<?xml version="1.0" encoding="utf-8"?>
<!-- Generator: Adobe Illustrator 19.1.0, SVG Export Plug-In . SVG Version: 6.00 Build 0)  -->
<svg version="1.1" id="Layer_1" xmlns="http://www.w3.org/2000/svg" xmlns:xlink="http://www.w3.org/1999/xlink" x="0px" y="0px"
	 viewBox="0 0 787 368" enable-background="new 0 0 787 368" xml:space="preserve">
<g class="laptop-container device">
	<g class="laptop">
		<g>
			<path fill="#4D4D4D" d="M716,339H204V11.3C204,4.4,210.4,0,217.2,0h487.9C712,0,716,4.4,716,11.3V339z"/>
			<rect x="224" y="25" fill="#F2F3F3" width="475" height="289"/>
			<path fill="#818181" d="M757.7,365H167.8c-9.3,0-24.7-11-24.7-11h639.3C782.4,354,766.9,365,757.7,365z"/>
			<path fill="#B3B3B3" d="M781,354H143v-15.4c0-3.4,2.9-4.6,6.3-4.6h626.9c3.4,0,4.8,1.2,4.8,4.6V354z"/>
			<path fill="#E6E7E7" d="M518.3,344H407.1c-9.3,0-9.3-10-9.3-10h129.7C527.6,334,527.6,344,518.3,344z"/>
		</g>
		<g>
			<rect x="224" y="25" fill="#B3B3B3" width="475" height="25"/>
			<circle fill="#996633" cx="238.4" cy="36.7" r="6.1"/>
			<circle fill="#FFCD36" cx="257.9" cy="36.7" r="6.1"/>
			<circle fill="#EB6668" cx="277.4" cy="36.7" r="6.1"/>
		</g>
		<g>
			<rect x="507.5" y="95.9" fill="#FFCD36" width="4.2" height="60.9"/>
			<rect x="513.8" y="72.4" fill="#EB6668" width="4.2" height="84.4"/>
			<rect x="520.1" y="103.9" fill="#FFCD36" width="4.2" height="52.9"/>
			<rect x="526.4" y="86.5" fill="#FFCD36" width="4.2" height="70.3"/>
			<rect x="539" y="139.5" fill="#FFCD36" width="4.2" height="17.3"/>
			<rect x="545.3" y="117.5" fill="#EB6668" width="4.2" height="39.4"/>
			<rect x="551.6" y="124.8" fill="#FFCD36" width="4.2" height="32.1"/>
			<rect x="557.9" y="98.7" fill="#FFCD36" width="4.2" height="58.1"/>
			<rect x="570.6" y="136.1" fill="#FFCD36" width="4.2" height="20.7"/>
			<rect x="576.9" y="139.8" fill="#EB6668" width="4.2" height="17"/>
			<rect x="583.2" y="108.5" fill="#FFCD36" width="4.2" height="48.4"/>
			<rect x="589.5" y="123.2" fill="#FFCD36" width="4.2" height="33.6"/>
			<rect x="602.1" y="79.3" fill="#FFCD36" width="4.2" height="77.6"/>
			<rect x="608.4" y="103.6" fill="#EB6668" width="4.2" height="53.2"/>
			<rect x="614.7" y="127.2" fill="#FFCD36" width="4.2" height="29.7"/>
			<rect x="621" y="91.3" fill="#FFCD36" width="4.2" height="65.5"/>
			<path fill="#FFCD36" d="M638.7,91.7c-1.9,0-3.4,1.6-3.4,3.4c0,1.9,1.5,3.4,3.4,3.4c1.9,0,3.4-1.5,3.4-3.4
				C642.1,93.3,640.6,91.7,638.7,91.7z"/>
			<path fill="#EB6668" d="M638.7,111.2c-1.9,0-3.4,1.5-3.4,3.4c0,1.9,1.5,3.4,3.4,3.4c1.9,0,3.4-1.6,3.4-3.4
				C642.1,112.8,640.6,111.2,638.7,111.2z"/>
			<path fill="#FFCD36" d="M638.7,130.8c-1.9,0-3.4,1.5-3.4,3.4c0,1.9,1.5,3.4,3.4,3.4c1.9,0,3.4-1.5,3.4-3.4
				C642.1,132.3,640.6,130.8,638.7,130.8z"/>
			<path fill="#FFCD36" d="M638.7,150.3c-1.9,0-3.4,1.6-3.4,3.4c0,1.9,1.5,3.4,3.4,3.4c1.9,0,3.4-1.6,3.4-3.4
				C642.1,151.8,640.6,150.3,638.7,150.3z"/>
			<polygon fill="#51677F" points="503.4,156.8 503.4,68.4 501,68.4 501,69.2 502.7,69.2 502.7,81.1 501,81.1 501,81.8 502.7,81.8 
				502.7,93.7 501,93.7 501,94.4 502.7,94.4 502.7,106.3 501,106.3 501,107.1 502.7,107.1 502.7,119 501,119 501,119.7 502.7,119.7 
				502.7,131.6 501,131.6 501,132.3 502.7,132.3 502.7,144.2 501,144.2 501,144.9 502.7,144.9 502.7,157.6 632,157.6 632,156.8 			
				"/>
		</g>
		<g>
			<path fill="#FFCD36" d="M576.3,246.3v-53.6c-26.2,1.7-47,23.5-47,50.2c0,27.8,22.6,50.4,50.4,50.4c26.7,0,48.5-20.8,50.2-47
				H576.3z"/>
			<path fill="#EB6668" d="M585,239.6h41.6c-1.1-16.1-10.4-30-23.8-37.5L585,239.6z"/>
			<path fill="#FFCD36" d="M583,196v32l13.7-28.9C592.4,197.4,587.8,196.3,583,196L583,196z"/>
		</g>
		<g>
			<rect x="268.5" y="88" fill="#FFCD36" width="32.3" height="25.5"/>
			<g>
				<rect x="307.5" y="88" fill="#D2D4D5" width="63" height="2.9"/>
				<rect x="307.5" y="95.3" fill="#D2D4D5" width="63" height="2.9"/>
				<rect x="307.5" y="102.6" fill="#D2D4D5" width="31.5" height="2.9"/>
			</g>
			<g>
				<rect x="268.5" y="123" fill="#D2D4D5" width="102" height="2.9"/>
				<rect x="268.5" y="130.3" fill="#D2D4D5" width="102" height="2.9"/>
				<rect x="268.5" y="137.6" fill="#D2D4D5" width="51" height="2.9"/>
			</g>
		</g>
		<g>
			<rect x="378.7" y="88" fill="#FFCD36" width="32.3" height="25.5"/>
			<g>
				<rect x="417.8" y="88" fill="#D2D4D5" width="63" height="2.9"/>
				<rect x="417.8" y="95.3" fill="#D2D4D5" width="63" height="2.9"/>
				<rect x="417.8" y="102.6" fill="#D2D4D5" width="31.5" height="2.9"/>
			</g>
			<g>
				<rect x="378.7" y="123" fill="#D2D4D5" width="102" height="2.9"/>
				<rect x="378.7" y="130.3" fill="#D2D4D5" width="102" height="2.9"/>
				<rect x="378.7" y="137.6" fill="#D2D4D5" width="51" height="2.9"/>
			</g>
		</g>
		<rect x="268.5" y="64.7" fill="#EB6668" width="212.3" height="12.7"/>
		<g>
			<g>
				<rect x="399.5" y="156.2" fill="#D2D4D5" width="80.6" height="4.2"/>
				<rect x="399.5" y="173.5" fill="#D2D4D5" width="80.6" height="4.2"/>
				<rect x="399.5" y="190.9" fill="#D2D4D5" width="80.6" height="4.2"/>
				<rect x="399.5" y="208.3" fill="#D2D4D5" width="80.6" height="4.2"/>
			</g>
			<g>
				<path fill="#EB6668" d="M384.5,163.3c-0.5,0-1-0.2-1.4-0.6l-3.2-3.3c-0.7-0.8-0.7-2,0.1-2.7c0.8-0.7,2-0.7,2.7,0.1l1.7,1.8
					l5.6-6.9c0.7-0.8,1.9-0.9,2.7-0.3c0.8,0.7,0.9,1.9,0.3,2.7l-7,8.5C385.7,163,385.2,163.2,384.5,163.3
					C384.6,163.3,384.6,163.3,384.5,163.3L384.5,163.3z"/>
			</g>
			<g>
				<path fill="#EB6668" d="M384.5,180c-0.5,0-1-0.2-1.4-0.6L380,176c-0.7-0.8-0.7-2,0.1-2.7c0.8-0.7,2-0.7,2.7,0.1l1.7,1.7l5.6-6.9
					c0.7-0.8,1.9-0.9,2.7-0.3c0.8,0.7,0.9,1.9,0.3,2.7l-7,8.5C385.7,179.7,385.2,179.9,384.5,180C384.6,180,384.6,180,384.5,180
					L384.5,180z"/>
			</g>
			<g>
				<path fill="#EB6668" d="M384.5,196.7c-0.5,0-1-0.2-1.4-0.6l-3.2-3.3c-0.7-0.8-0.7-2,0.1-2.7c0.8-0.7,2-0.7,2.7,0.1l1.7,1.8
					l5.6-6.9c0.7-0.8,1.9-0.9,2.7-0.3c0.8,0.7,0.9,1.9,0.3,2.7l-7,8.5C385.7,196.4,385.2,196.6,384.5,196.7
					C384.6,196.7,384.6,196.7,384.5,196.7L384.5,196.7z"/>
			</g>
		</g>
		<rect x="379.4" y="231.3" fill="#D2D4D5" width="48.4" height="14"/>
		<rect x="432.2" y="231.3" fill="#D2D4D5" width="48.4" height="14"/>
		<rect x="379.4" y="248.5" fill="#D2D4D5" width="48.4" height="14"/>
		<rect x="432.2" y="248.5" fill="#D2D4D5" width="48.4" height="14"/>
		<rect x="379.4" y="266" fill="#D2D4D5" width="48.4" height="14"/>
		<rect x="432.2" y="266" fill="#D2D4D5" width="48.4" height="14"/>
		<rect x="379.4" y="283" fill="#D2D4D5" width="48.4" height="14"/>
		<rect x="432.2" y="283" fill="#D2D4D5" width="48.4" height="14"/>
		<g>
			<g>
				<rect x="337.9" y="209.6" fill="#FFCD36" width="26.4" height="86.8"/>
			</g>
			<g>
				<rect x="266.6" y="247.4" fill="#FFCD36" width="26.4" height="48.9"/>
			</g>
			<g>
				<rect x="302.3" y="223.6" fill="#FFCD36" width="26.4" height="72.8"/>
			</g>
		</g>
		<rect x="268.4" y="150.6" fill="#D2D4D5" width="102.1" height="6.8"/>
		<rect x="268.4" y="160.9" fill="#D2D4D5" width="102.1" height="6.8"/>
		<rect x="268.4" y="171.2" fill="#D2D4D5" width="102.1" height="6.8"/>
		<rect x="268.4" y="181.4" fill="#D2D4D5" width="102.1" height="6.8"/>
		<path opacity="0.3" fill="#FFFFFF" d="M577.1,365h180.6c9.3,0,24.7-11,24.7-11H781v-15.4c0-3.4-1.4-4.6-4.8-4.6H716V11.3
			C716,4.4,712,0,705.2,0H395.9L577.1,365z"/>
	</g>
</g>
<g class="mobile-container device">
	<g class="mobile">
		<path fill="#4D4D4D" d="M787,343.9c0,9-8.9,17.1-18,17.1H665.6c-9,0-17.6-8.1-17.6-17.1V120.7c0-9,8.6-17.7,17.6-17.7H769
			c9,0,18,8.7,18,17.7V343.9z"/>
		<g>
			<path fill="#4D4D4D" d="M787,343.9c0,9-8.9,17.1-18,17.1H665.6c-9,0-17.6-8.1-17.6-17.1V120.7c0-9,8.6-17.7,17.6-17.7H769
				c9,0,18,8.7,18,17.7V343.9z"/>
			<rect x="659" y="136" fill="#F2F3F3" width="118" height="188"/>
			<path fill="#B3B3B3" d="M727.2,341.8c0,5.5-4.4,9.9-9.9,9.9c-5.5,0-9.9-4.4-9.9-9.9c0-5.5,4.4-9.9,9.9-9.9
				C722.8,331.9,727.2,336.4,727.2,341.8z"/>
			<path fill="#B3B3B3" d="M740,122.7c0,1.3-1,2.3-2.3,2.3h-49.5c-1.3,0-2.3-1-2.3-2.3v-0.5c0-1.3,1-2.3,2.3-2.3h49.5
				c1.3,0,2.3,1,2.3,2.3V122.7z"/>
		</g>
		<g>
			<rect x="674.6" y="176" fill="#EB6668" width="2.9" height="41.3"/>
			<rect x="678.8" y="160.1" fill="#EB6668" width="2.9" height="57.2"/>
			<rect x="683.1" y="181.5" fill="#FFCD36" width="2.9" height="35.9"/>
			<rect x="687.4" y="169.7" fill="#EB6668" width="2.9" height="47.7"/>
			<rect x="696" y="205.6" fill="#EB6668" width="2.9" height="11.7"/>
			<rect x="700.2" y="190.6" fill="#EB6668" width="2.9" height="26.7"/>
			<rect x="704.5" y="195.6" fill="#FFCD36" width="2.9" height="21.7"/>
			<rect x="708.8" y="178" fill="#EB6668" width="2.9" height="39.4"/>
			<rect x="717.3" y="203.3" fill="#EB6668" width="2.9" height="14"/>
			<rect x="721.6" y="205.8" fill="#EB6668" width="2.9" height="11.5"/>
			<rect x="725.9" y="184.6" fill="#FFCD36" width="2.9" height="32.8"/>
			<rect x="730.1" y="194.6" fill="#EB6668" width="2.9" height="22.8"/>
			<rect x="738.7" y="164.7" fill="#EB6668" width="2.9" height="52.6"/>
			<rect x="743" y="181.3" fill="#EB6668" width="2.9" height="36.1"/>
			<rect x="747.3" y="197.2" fill="#FFCD36" width="2.9" height="20.1"/>
			<rect x="751.5" y="172.9" fill="#EB6668" width="2.9" height="44.4"/>
			<path fill="#EB6668" d="M763.5,173.2c-1.3,0-2.3,1.1-2.3,2.3c0,1.3,1,2.3,2.3,2.3c1.3,0,2.3-1,2.3-2.3
				C765.8,174.2,764.8,173.2,763.5,173.2z"/>
			<path fill="#EB6668" d="M763.5,186.4c-1.3,0-2.3,1-2.3,2.3c0,1.3,1,2.3,2.3,2.3c1.3,0,2.3-1.1,2.3-2.3
				C765.8,187.5,764.8,186.4,763.5,186.4z"/>
			<path fill="#FFCD36" d="M763.5,199.7c-1.3,0-2.3,1-2.3,2.3c0,1.3,1,2.3,2.3,2.3c1.3,0,2.3-1,2.3-2.3
				C765.8,200.7,764.8,199.7,763.5,199.7z"/>
			<path fill="#EB6668" d="M763.5,212.9c-1.3,0-2.3,1.1-2.3,2.3c0,1.3,1,2.3,2.3,2.3c1.3,0,2.3-1.1,2.3-2.3
				C765.8,213.9,764.8,212.9,763.5,212.9z"/>
			<polygon fill="#51677F" points="671.8,217.3 671.8,157.4 670.2,157.4 670.2,157.9 671.3,157.9 671.3,166 670.2,166 670.2,166.5 
				671.3,166.5 671.3,174.5 670.2,174.5 670.2,175 671.3,175 671.3,183.1 670.2,183.1 670.2,183.6 671.3,183.6 671.3,191.7 
				670.2,191.7 670.2,192.1 671.3,192.1 671.3,200.2 670.2,200.2 670.2,200.7 671.3,200.7 671.3,208.8 670.2,208.8 670.2,209.3 
				671.3,209.3 671.3,217.8 759,217.8 759,217.3 			"/>
		</g>
		<g>
			<path fill="#F59815" d="M715.1,269.1v-36.3c-17.8,1.2-31.9,15.9-31.9,34c0,18.9,15.3,34.1,34.1,34.1c18.1,0,32.9-14.1,34-31.9
				H715.1z"/>
			<path fill="#FFCD36" d="M721,264.6h28.2c-0.8-10.9-7.1-20.3-16.1-25.4L721,264.6z"/>
			<path fill="#F59815" d="M719.7,235.1v21.7l9.3-19.6C726,236,722.9,235.3,719.7,235.1L719.7,235.1z"/>
		</g>
		<path opacity="0.3" fill="#FFFFFF" d="M693.1,103H769c9,0,18,8.7,18,17.7v223.2c0,9-8.9,17.1-18,17.1h-24.1L693.1,103z"/>
	</g>
</g>
<g class="tablet-container device">
	<g class="tablet">
		<g>
			<path fill="#4D4D4D" d="M19.9,368C9.1,368-1,359.2-1,348.5V147.6C-1,136.8,9.1,128,19.9,128H298c10.8,0,19,8.8,19,19.6v200.9
				c0,10.8-8.2,19.5-19,19.5H19.9z"/>
			<rect x="51" y="148" fill="#F2F3F3" width="243" height="201"/>
			<path fill="#B3B3B3" d="M25.4,259.5c-6.4,0-11.5-5.1-11.5-11.5c0-6.4,5.1-11.5,11.5-11.5c6.4,0,11.5,5.1,11.5,11.5
				C36.9,254.4,31.8,259.5,25.4,259.5z"/>
		</g>
		<g>
			<rect x="171.7" y="183.6" fill="#EB6668" width="3.1" height="44.7"/>
			<rect x="176.3" y="166.4" fill="#FFCD36" width="3.1" height="62"/>
			<rect x="181" y="189.5" fill="#FFCD36" width="3.1" height="38.9"/>
			<rect x="185.6" y="176.7" fill="#FFCD36" width="3.1" height="51.7"/>
			<rect x="194.9" y="215.7" fill="#EB6668" width="3.1" height="12.7"/>
			<rect x="199.5" y="199.5" fill="#FFCD36" width="3.1" height="28.9"/>
			<rect x="204.1" y="204.8" fill="#FFCD36" width="3.1" height="23.6"/>
			<rect x="208.8" y="185.7" fill="#FFCD36" width="3.1" height="42.7"/>
			<rect x="218.1" y="213.2" fill="#EB6668" width="3.1" height="15.2"/>
			<rect x="222.7" y="215.9" fill="#FFCD36" width="3.1" height="12.5"/>
			<rect x="227.3" y="192.9" fill="#FFCD36" width="3.1" height="35.5"/>
			<rect x="231.9" y="203.7" fill="#FFCD36" width="3.1" height="24.7"/>
			<rect x="241.2" y="171.4" fill="#EB6668" width="3.1" height="57"/>
			<rect x="245.9" y="189.3" fill="#FFCD36" width="3.1" height="39.1"/>
			<rect x="250.5" y="206.6" fill="#FFCD36" width="3.1" height="21.8"/>
			<rect x="255.1" y="180.2" fill="#FFCD36" width="3.1" height="48.2"/>
			<path fill="#EB6668" d="M268.1,180.5c-1.4,0-2.5,1.1-2.5,2.5c0,1.4,1.1,2.5,2.5,2.5c1.4,0,2.5-1.1,2.5-2.5
				C270.6,181.7,269.5,180.5,268.1,180.5z"/>
			<path fill="#FFCD36" d="M268.1,194.9c-1.4,0-2.5,1.1-2.5,2.5c0,1.4,1.1,2.5,2.5,2.5c1.4,0,2.5-1.1,2.5-2.5
				C270.6,196,269.5,194.9,268.1,194.9z"/>
			<path fill="#FFCD36" d="M268.1,209.2c-1.4,0-2.5,1.1-2.5,2.5c0,1.4,1.1,2.5,2.5,2.5c1.4,0,2.5-1.1,2.5-2.5
				C270.6,210.4,269.5,209.2,268.1,209.2z"/>
			<path fill="#FFCD36" d="M268.1,223.6c-1.4,0-2.5,1.1-2.5,2.5c0,1.4,1.1,2.5,2.5,2.5c1.4,0,2.5-1.1,2.5-2.5
				C270.6,224.7,269.5,223.6,268.1,223.6z"/>
			<polygon fill="#51677F" points="168.7,228.4 168.7,163.4 166.9,163.4 166.9,164 168.2,164 168.2,172.7 166.9,172.7 166.9,173.3 
				168.2,173.3 168.2,182 166.9,182 166.9,182.5 168.2,182.5 168.2,191.3 166.9,191.3 166.9,191.8 168.2,191.8 168.2,200.6 
				166.9,200.6 166.9,201.1 168.2,201.1 168.2,209.8 166.9,209.8 166.9,210.4 168.2,210.4 168.2,219.1 166.9,219.1 166.9,219.6 
				168.2,219.6 168.2,228.9 263.2,228.9 263.2,228.4 			"/>
		</g>
		<g>
			<path fill="#EB6668" d="M215.7,294.5v-39.4c-19.3,1.3-34.5,17.3-34.5,36.9c0,20.4,16.6,37,37,37c19.6,0,35.6-15.3,36.9-34.5
				H215.7z"/>
			<path fill="#FFCD36" d="M222,289.6h30.6c-0.8-11.8-7.7-22-17.4-27.6L222,289.6z"/>
			<path fill="#EB6668" d="M220.6,257.6v23.5l10.1-21.2C227.5,258.6,224.1,257.9,220.6,257.6L220.6,257.6z"/>
		</g>
		<g>
			<rect x="77.1" y="177.8" fill="#EB6668" width="23.7" height="18.7"/>
			<g>
				<rect x="105.8" y="177.8" fill="#D2D4D5" width="46.3" height="2.1"/>
				<rect x="105.8" y="183.1" fill="#D2D4D5" width="46.3" height="2.2"/>
				<rect x="105.8" y="188.5" fill="#D2D4D5" width="23.1" height="2.1"/>
			</g>
			<g>
				<rect x="77.1" y="203.5" fill="#D2D4D5" width="74.9" height="2.1"/>
				<rect x="77.1" y="208.9" fill="#D2D4D5" width="74.9" height="2.1"/>
				<rect x="77.1" y="214.2" fill="#D2D4D5" width="37.5" height="2.1"/>
			</g>
		</g>
		<rect x="77.1" y="160.7" fill="#996633" width="74.9" height="9.4"/>
		<g>
			<g>
				<rect x="92.4" y="230.8" fill="#D2D4D5" width="59.2" height="3.1"/>
				<rect x="92.4" y="243.6" fill="#D2D4D5" width="59.2" height="3.1"/>
				<rect x="92.4" y="256.4" fill="#D2D4D5" width="59.2" height="3.1"/>
				<rect x="92.4" y="269.1" fill="#D2D4D5" width="59.2" height="3.1"/>
			</g>
			<g>
				<path fill="#FFCD36" d="M81.4,236c-0.4,0-0.8-0.2-1-0.4l-2.3-2.4c-0.5-0.6-0.5-1.5,0-2c0.6-0.5,1.5-0.5,2,0l1.2,1.3l4.1-5
					c0.5-0.6,1.4-0.7,2-0.2c0.6,0.5,0.7,1.4,0.2,2l-5.1,6.3C82.3,235.8,81.9,236,81.4,236C81.4,236,81.4,236,81.4,236L81.4,236z"/>
			</g>
			<g>
				<path fill="#FFCD36" d="M81.4,248.3c-0.4,0-0.8-0.2-1-0.4l-2.3-2.4c-0.5-0.6-0.5-1.5,0-2c0.6-0.5,1.5-0.5,2,0l1.2,1.3l4.1-5
					c0.5-0.6,1.4-0.7,2-0.2c0.6,0.5,0.7,1.4,0.2,2l-5.1,6.3C82.3,248.1,81.9,248.3,81.4,248.3C81.4,248.3,81.4,248.3,81.4,248.3
					L81.4,248.3z"/>
			</g>
			<g>
				<path fill="#FFCD36" d="M81.4,260.6c-0.4,0-0.8-0.2-1-0.4l-2.3-2.4c-0.5-0.6-0.5-1.5,0-2c0.6-0.5,1.5-0.5,2,0l1.2,1.3l4.1-5
					c0.5-0.6,1.4-0.7,2-0.2c0.6,0.5,0.7,1.4,0.2,2l-5.1,6.3C82.3,260.4,81.9,260.6,81.4,260.6C81.4,260.6,81.4,260.6,81.4,260.6
					L81.4,260.6z"/>
			</g>
		</g>
		<rect x="77.7" y="283" fill="#D2D4D5" width="35.5" height="10.3"/>
		<rect x="116.4" y="283" fill="#D2D4D5" width="35.5" height="10.3"/>
		<rect x="77.7" y="295.7" fill="#D2D4D5" width="35.5" height="10.3"/>
		<rect x="116.4" y="295.7" fill="#D2D4D5" width="35.5" height="10.3"/>
		<rect x="77.7" y="308.6" fill="#D2D4D5" width="35.5" height="10.3"/>
		<rect x="116.4" y="308.6" fill="#D2D4D5" width="35.5" height="10.3"/>
		<rect x="77.7" y="321.1" fill="#D2D4D5" width="35.5" height="10.3"/>
		<rect x="116.4" y="321.1" fill="#D2D4D5" width="35.5" height="10.3"/>
		<path opacity="0.3" fill="#FFFFFF" d="M83.8,128H298c10.8,0,19,8.8,19,19.6v200.9c0,10.8-8.2,19.5-19,19.5h-85.4L83.8,128z"/>
	</g>
</g>
</svg>
