<?xml version="1.0" encoding="utf-8"?>
<!-- Generator: Adobe Illustrator 19.1.0, SVG Export Plug-In . SVG Version: 6.00 Build 0)  -->
<svg version="1.1" id="Layer_1" xmlns="http://www.w3.org/2000/svg" xmlns:xlink="http://www.w3.org/1999/xlink" x="0px" y="0px"
	 viewBox="402 380 1400 80" enable-background="new 402 380 1400 80" xml:space="preserve">
<g>
	<g>
		<path fill="#009967" d="M655.1,404.6L655.1,404.6L655.1,404.6c-9.1-6-21.8-9.7-35.9-9.7c-14.1,0-26.8,3.7-35.9,9.7l0,0l0,0
			c-1.5,1-2.9,2-4.2,3.2c-8.7,6.2-28.9,19.5-43.7,19.5h33.5h100.6H703c-14.8,0-35-13.2-43.7-19.5
			C658.1,406.6,656.6,405.5,655.1,404.6z"/>
	</g>
	<g>
		<path fill="#009967" d="M565,397.2L565,397.2L565,397.2c-12.1-7.9-29-12.8-47.7-12.8c-18.7,0-35.6,4.9-47.7,12.8l0,0l0,0
			c-2,1.3-3.9,2.7-5.6,4.2c-11.5,8.3-38.4,25.8-58,25.8h44.5h133.6h44.5c-19.6,0-46.4-17.6-58-25.8C568.9,399.9,567,398.5,565,397.2
			z"/>
	</g>
	<g>
		<path fill="#009967" d="M1374,404.6L1374,404.6L1374,404.6c-9.1-6-21.8-9.7-35.9-9.7s-26.8,3.7-35.9,9.7l0,0l0,0
			c-1.5,1-2.9,2-4.2,3.2c-8.7,6.2-28.9,19.5-43.7,19.5h33.5h100.6h33.5c-14.8,0-35-13.2-43.7-19.5
			C1377,406.6,1375.5,405.5,1374,404.6z"/>
	</g>
	<g>
		<path fill="#009967" d="M1546.8,399.2L1546.8,399.2L1546.8,399.2c-11.3-7.4-27.1-12-44.5-12s-33.2,4.6-44.5,12l0,0l0,0
			c-1.9,1.2-3.6,2.5-5.3,3.9c-10.8,7.7-35.8,24.1-54.1,24.1h41.5h124.7h41.5c-18.3,0-43.3-16.4-54.1-24.1
			C1550.4,401.7,1548.7,400.4,1546.8,399.2z"/>
	</g>
	<rect x="402" y="424.9" fill="#009967" width="1400" height="36"/>
	<g>
		<path fill="#009966" d="M1102.7,418.3L1102.7,418.3L1102.7,418.3c-5.2-3.4-12.4-5.5-20.4-5.5s-15.2,2.1-20.4,5.5l0,0l0,0
			c-0.9,0.6-1.7,1.2-2.4,1.8c-4.9,3.5-16.4,11-24.7,11h19h57h19c-8.4,0-19.8-7.5-24.7-11C1104.4,419.4,1103.6,418.8,1102.7,418.3z"
			/>
	</g>
	<g>
		<path fill="#009966" d="M1051.6,414.1L1051.6,414.1L1051.6,414.1c-6.9-4.5-16.4-7.3-27-7.3s-20.2,2.8-27,7.3l0,0l0,0
			c-1.1,0.7-2.2,1.5-3.2,2.4c-6.5,4.7-21.7,14.6-32.8,14.6h25.2h75.7h25.2c-11.1,0-26.3-10-32.8-14.6
			C1053.8,415.6,1052.8,414.8,1051.6,414.1z"/>
	</g>
	<g>
		<path fill="#009966" d="M960.6,424.8L960.6,424.8L960.6,424.8c-11.6-1.1-27.6-1.8-45.5-1.8c-17.8,0-33.9,0.7-45.5,1.8l0,0l0,0
			c-2,0.2-3.8,0.4-5.3,0.6c-10.9,1.2-36.6,3.7-55.1,3.7h42.3h127h42.3c-18.7,0-44.1-2.5-55.1-3.7C964.4,425.2,962.6,425,960.6,424.8
			z"/>
	</g>
	<g>
		<path fill="#009966" d="M832.7,423.4L832.7,423.4L832.7,423.4c-15.4-1.5-36.6-2.4-60.2-2.4s-45,0.9-60.2,2.4l0,0l0,0
			c-2.5,0.2-4.9,0.5-7.1,0.8c-14.5,1.6-48.4,4.9-73.1,4.9h56.2H857h56.2c-24.7,0-58.6-3.4-73.1-4.9
			C837.6,423.9,835.4,423.6,832.7,423.4z"/>
	</g>
	<g>
		<path fill="#009966" d="M1242.8,423.4L1242.8,423.4L1242.8,423.4c-15.4-1.5-36.6-2.4-60.2-2.4s-45,0.9-60.2,2.4l0,0l0,0
			c-2.5,0.2-4.9,0.5-7.1,0.8c-14.5,1.6-48.4,4.9-73.1,4.9h56.2h168.7h56.2c-24.7,0-58.6-3.4-73.1-4.9
			C1247.7,423.9,1245.5,423.6,1242.8,423.4z"/>
	</g>
	<g>
		<path fill="#009966" d="M1740.1,424.8L1740.1,424.8L1740.1,424.8c-11.6-1.1-27.6-1.8-45.5-1.8s-33.9,0.7-45.5,1.8l0,0l0,0
			c-2,0.2-3.8,0.4-5.3,0.6c-10.9,1.2-36.6,3.7-55.1,3.7h42.3h127h42.3c-18.7,0-44.1-2.5-55.1-3.7
			C1743.9,425.2,1742.2,425,1740.1,424.8z"/>
	</g>
	<g>
		<path fill="#009966" d="M1612.3,423.4L1612.3,423.4L1612.3,423.4c-15.4-1.5-36.6-2.4-60.2-2.4s-45,0.9-60.2,2.4l0,0l0,0
			c-2.5,0.2-4.9,0.5-7.1,0.8c-14.5,1.6-48.4,4.9-73.1,4.9h56.2h168.7h56.2c-24.7,0-58.6-3.4-73.1-4.9
			C1617.2,423.9,1614.9,423.6,1612.3,423.4z"/>
	</g>
</g>
</svg>
