<?xml version="1.0" encoding="utf-8"?>
<!-- Generator: Adobe Illustrator 19.1.0, SVG Export Plug-In . SVG Version: 6.00 Build 0)  -->
<svg version="1.1" id="Layer_1" xmlns="http://www.w3.org/2000/svg" xmlns:xlink="http://www.w3.org/1999/xlink" x="0px" y="0px"
	 viewBox="0 0 99.5 19.9" enable-background="new 0 0 99.5 19.9" xml:space="preserve">
<g>
	<g>
		<path fill="#996633" d="M47.5,4.9l-0.2-0.4c0,0-1.6-3.6-1.7-3.9C45.4,0.3,45.4,0,46,0s2,0,2.9,0C49.7,0,50,0.4,50,0.4L51.7,2
			l1.4,1.3l2.5,2.4h-7.7L47.5,4.9z"/>
		<path fill="#FFFFFF" d="M55.6,5.7l0.1,0.1h15.5l-0.1-0.1h7.5l0.2,0.1c0,0,4.1,0,9.1,0c4.9,0,8.3,2.2,9.9,3.5c1.5,0.9,4,5-2.6,5
			c-4.3,0-16.6-0.2-16.6-0.2l-0.3,0.1H66.9l0.1-0.1H61c-0.9,0.1-7.4,0-9.4-0.3l-2-4.5L48.5,7l-0.2-0.4l-0.4-0.9H55.6z"/>
		<g>
			<g>
				<g>
					<circle fill="#996633" cx="82.6" cy="9.9" r="1.2"/>
				</g>
				<g>
					<circle fill="#996633" cx="77.8" cy="9.9" r="1.2"/>
				</g>
				<g>
					<circle fill="#996633" cx="73.1" cy="9.9" r="1.2"/>
				</g>
				<g>
					<circle fill="#996633" cx="68.4" cy="9.9" r="1.2"/>
				</g>
				<g>
					<circle fill="#996633" cx="63.6" cy="9.9" r="1.2"/>
				</g>
				<g>
					<circle fill="#996633" cx="58.9" cy="9.9" r="1.2"/>
				</g>
			</g>
		</g>
		<g>
			<defs>
				<path id="SVGID_1_" d="M47.3,4.5L51.7,2l1.4,1.3l2.6,2.5h15.5l-1.8-3.2h4.5l4.9,3.2c0,0,4.1,0,9.1,0c4.9,0,8.3,2.2,9.9,3.5
					c1.5,0.9,4,5-2.6,5c-4.3,0-16.6-0.2-16.6-0.2l-12.6,5.8h-6.1l7.2-5.8H61c-0.9,0.1-7.4,0-9.4-0.3l-2-4.5L48.5,7l-1-2.1L47.3,4.5z
					"/>
			</defs>
			<clipPath id="SVGID_2_">
				<use xlink:href="#SVGID_1_"  overflow="visible"/>
			</clipPath>
			<path clip-path="url(#SVGID_2_)" fill="#EB6668" d="M91.2,10H103c0.6,0,1.1-0.5,1.1-1.1V8.5c0-0.6-0.5-1.1-1.1-1.1H91.2
				c-0.6,0-1.1,0.4-1.1,1.3C90.1,9.6,90.6,10,91.2,10z"/>
		</g>
		<g>
			<g>
				<g>
					<path fill="#EC6E5E" d="M59.2,11.7c-0.3,0.4-0.4,1.1-0.4,1.8c0,0.2,0,0.4,0,0.6c0.1,0.5,0.2,1,0.4,1.3
						c-3.6-0.1-6.2-0.6-7.3-1.3c-0.1-0.1-0.3-0.2-0.3-0.2c-0.1-0.1-0.2-0.2-0.2-0.3c0,0,0,0,0,0C51.5,12.7,54.6,11.8,59.2,11.7z"/>
				</g>
				<g>
					<path fill="#B65345" d="M58.6,14.1c0-0.2,0-0.4,0-0.6c0-0.9,0.2-1.5,0.5-1.7c0.1-0.1,0.1-0.1,0.2-0.1c0,0,0,0,0,0
						c0.1,0,0.1,0.1,0.2,0.2c0.2,0.3,0.4,0.9,0.4,1.7c0,0.2,0,0.4,0,0.6c-0.1,0.5-0.2,0.9-0.4,1.1c-0.1,0.1-0.1,0.1-0.2,0.2
						c0,0,0,0,0,0c-0.1,0-0.1,0-0.2-0.1C58.9,15.1,58.7,14.7,58.6,14.1z"/>
				</g>
			</g>
		</g>
		<path fill="#996633" d="M70.1,2.7c0,0,2.1,0,3.1,0c1,0,1.3,0.3,1.3,0.3l4.4,2.8h-7.6c0,0-1.3-2.3-1.5-2.7
			C69.5,2.8,70.1,2.7,70.1,2.7z"/>
		<path fill="#996633" d="M64.8,19.9c-1.5,0-2.9,0-3.9,0c-1,0,0.3-1,0.3-1l5.9-4.7h11.5l-11.3,5.2C67.2,19.3,66.3,19.9,64.8,19.9z"
			/>
	</g>
	<linearGradient id="SVGID_3_" gradientUnits="userSpaceOnUse" x1="0" y1="8.195" x2="50.573" y2="8.195">
		<stop  offset="0" style="stop-color:#FFFFFF;stop-opacity:0"/>
		<stop  offset="1" style="stop-color:#FFFFFF"/>
	</linearGradient>
	<rect y="7.5" fill="url(#SVGID_3_)" width="50.6" height="1.5"/>
	<linearGradient id="SVGID_4_" gradientUnits="userSpaceOnUse" x1="1.633" y1="10.9167" x2="52.206" y2="10.9167">
		<stop  offset="0" style="stop-color:#FFFFFF;stop-opacity:0"/>
		<stop  offset="1" style="stop-color:#FFFFFF"/>
	</linearGradient>
	<rect x="1.6" y="10.2" fill="url(#SVGID_4_)" width="50.6" height="1.5"/>
</g>
</svg>
