<?xml version="1.0" encoding="utf-8"?>
<!-- Generator: Adobe Illustrator 19.1.0, SVG Export Plug-In . SVG Version: 6.00 Build 0)  -->
<svg version="1.1" id="Layer_1" xmlns="http://www.w3.org/2000/svg" xmlns:xlink="http://www.w3.org/1999/xlink" x="0px" y="0px"
	 viewBox="0 0 70.9 77.1" enable-background="new 0 0 70.9 77.1" xml:space="preserve">
<g>
	<defs>
		<rect id="SVGID_1_" width="70.9" height="77.1"/>
	</defs>
	<clipPath id="SVGID_2_">
		<use xlink:href="#SVGID_1_"  overflow="visible"/>
	</clipPath>
	<g clip-path="url(#SVGID_2_)">
		<path fill="#2091CE" d="M931.1,77.1V9c-0.9,1.8-2.5,3.6-4.7,5.3c-6,4.6-16.5,8.3-28.5,8.3c-9.4,0-20.8-3.4-28.3-7.9
			c-4.8-2.9-8-6.2-8-9.3c0,3.2-2.8,6.5-7.4,9.4c-6.9,4.4-17.8,7.7-28.7,7.7c-8.8,0-20.3-3.1-28.3-7.3c-5.5-2.9-9.4-6.4-9.4-9.8
			c0,3.4-3.8,6.9-9.1,10c-7.4,4.1-17.7,7.2-25.6,7.2c-10.1,0-20.2-2.9-27.2-6.8c-5.4-3.1-8.9-6.8-8.9-10.3c0,3.6-3.6,7.4-9.2,10.5
			c-7,3.9-17.1,6.7-27.1,6.7c-9.6,0-19.3-2.7-26.3-6.3c-6.1-3.2-10-7.2-10-10.8c0,3.7-4,7.8-10.2,11c-6.9,3.6-16.4,6.2-25.9,6.2
			c-9.8,0-18.5-2.4-24.7-5.8c-5.2-2.9-8.6-6.4-9.1-9.8c-0.1-0.8-0.9-1.4-2-1.5V9c-0.9,1.8-2.5,3.6-4.7,5.3c-6,4.6-16.5,8.3-28.5,8.3
			c-9.4,0-20.8-3.4-28.3-7.9c-4.8-2.9-8-6.2-8-9.3c0,3.2-2.8,6.5-7.4,9.4c-6.9,4.4-17.8,7.7-28.7,7.7c-8.8,0-20.3-3.1-28.3-7.3
			c-5.5-2.9-9.4-6.4-9.4-9.8c0,3.4-3.8,6.9-9.1,10c-7.4,4.1-17.7,7.2-25.6,7.2c-10.1,0-20.2-2.9-27.2-6.8c-5.4-3.1-8.9-6.8-8.9-10.3
			c0,3.6-3.6,7.4-9.2,10.5c-7,3.9-17.1,6.7-27.1,6.7c-9.6,0-19.3-2.7-26.3-6.3c-6.1-3.2-10-7.2-10-10.8c0,3.7-4,7.8-10.2,11
			c-6.9,3.6-16.4,6.2-25.9,6.2c-9.8,0-18.5-2.4-24.7-5.8c-5.2-2.9-8.6-6.4-9.1-9.8c-0.1-0.8-0.9-1.4-2-1.5V3.3
			c-3.2,6.3-16.8,12.6-33.2,12.6c-15.3,0-36.3-8.4-36.3-15.9c0,7.5-18.1,15.9-36.1,15.9C93.6,15.9,70.8,7.7,70.8,0
			c0,7.4-21.2,15.9-34.7,15.9C18.1,15.9,0,7.4,0,0c0,7.5-18.5,15.9-36.3,15.9c-18,0-36.3-8.7-36.3-15.9c0,7.3-18.1,15.9-36.1,15.9
			c-18,0-32.7-7.7-33.8-14.5c-0.1-0.7-0.9-1.3-2-1.4v3.3c-3.2,6.3-16.8,12.6-33.2,12.6c-15.3,0-36.3-8.4-36.3-15.9
			c0,7.5-18.1,15.9-36.1,15.9c-14.8,0-37.7-8.2-37.7-15.9c0,7.4-21.2,15.9-34.7,15.9c-18,0-36.1-8.6-36.1-15.9
			c0,7.5-18.5,15.9-36.3,15.9c-18,0-36.3-8.7-36.3-15.9c0,7.3-18.1,15.9-36.1,15.9c-18,0-32.7-7.7-33.8-14.5c-0.1-0.7-0.9-1.3-2-1.4
			v77.1H931.1z"/>
	</g>
</g>
</svg>
