<?xml version="1.0" standalone="no"?>
<!DOCTYPE svg PUBLIC "-//W3C//DTD SVG 1.1//EN" "http://www.w3.org/Graphics/SVG/1.1/DTD/svg11.dtd" >
<svg xmlns="http://www.w3.org/2000/svg">
<metadata></metadata>
<defs>
<font id="uniform_roundedultra" horiz-adv-x="1280" >
<font-face units-per-em="2048" ascent="1536" descent="-512" />
<missing-glyph horiz-adv-x="630" />
<glyph unicode="&#x2e;&#x2e;&#x2e;" horiz-adv-x="2410" d="M102 246q0 109 78.5 186.5t188.5 77.5q109 0 186.5 -77.5t77.5 -186.5q0 -110 -77.5 -188t-186.5 -78q-110 0 -188.5 78t-78.5 188zM940 246q0 109 78 186.5t188 77.5q109 0 186.5 -77.5t77.5 -186.5q0 -110 -77.5 -188t-186.5 -78q-110 0 -188 78t-78 188zM1778 246 q0 109 78 186.5t188 77.5q109 0 186.5 -77.5t77.5 -186.5q0 -110 -77.5 -188t-186.5 -78q-110 0 -188 78t-78 188z" />
<glyph horiz-adv-x="0" />
<glyph horiz-adv-x="682" />
<glyph unicode=" "  horiz-adv-x="630" />
<glyph unicode="&#x09;" horiz-adv-x="630" />
<glyph unicode="&#xa0;" horiz-adv-x="630" />
<glyph unicode="!" horiz-adv-x="733" d="M102 246q0 109 77.5 186.5t187.5 77.5t188 -77.5t78 -186.5q0 -110 -78 -188t-188 -78t-187.5 78t-77.5 188zM119 1186q-9 108 62.5 183t185.5 75t185 -74.5t62 -183.5l-59 -451q-8 -87 -58.5 -140.5t-129.5 -53.5q-81 0 -131 54t-58 140z" />
<glyph unicode="&#x22;" horiz-adv-x="1021" d="M102 854v418q0 78 47 125t125 47q77 0 123.5 -47t46.5 -125v-418q0 -76 -47 -123t-123 -47q-78 0 -125 46.5t-47 123.5zM578 854v418q0 78 47.5 125t124.5 47t123.5 -47t46.5 -125v-418q0 -76 -47 -123t-123 -47q-77 0 -124.5 47t-47.5 123z" />
<glyph unicode="#" d="M72 395q0 57 34.5 92t92.5 35h73l37 185h-28q-58 0 -92.5 35t-34.5 94q0 57 34.5 92t92.5 35h79l35 165q11 51 46.5 81t88.5 30q61 0 97.5 -36.5t36.5 -96.5q0 -20 -5 -45l-20 -98h141l35 165q11 51 46.5 81t88.5 30q61 0 97 -36.5t36 -96.5q0 -25 -4 -45l-20 -98h24 q58 0 91.5 -34.5t33.5 -92.5q0 -59 -33.5 -94t-91.5 -35h-75l-37 -185h30q58 0 91.5 -34.5t33.5 -92.5q0 -59 -33.5 -94t-91.5 -35h-81l-29 -147q-11 -57 -47.5 -93t-89.5 -36q-64 0 -100 37t-36 102q0 14 7 49l16 88h-141l-29 -147q-11 -57 -48 -93t-89 -36q-64 0 -99.5 37 t-35.5 102q0 19 6 49l16 88h-22q-58 0 -92.5 35t-34.5 94zM551 522h141l37 185h-141z" />
<glyph unicode="$" horiz-adv-x="1187" d="M74 328q0 80 52.5 133t131.5 53q82 0 158 -72q109 -100 186 -100q30 0 45 14t15 35q0 32 -50.5 76.5t-187.5 114.5q-135 69 -216 178t-81 262q0 158 101.5 266.5t269.5 141.5v100q0 52 32.5 85.5t85.5 33.5q54 0 87.5 -33.5t33.5 -85.5v-98q168 -25 279 -123 q35 -32 56.5 -76.5t21.5 -87.5q0 -80 -52 -129t-129 -49q-76 0 -153 59t-127 59q-23 0 -38 -13t-15 -32q0 -33 34.5 -63.5t141.5 -87.5q56 -30 101 -59.5t95.5 -73t84.5 -89.5t56.5 -108t22.5 -129q0 -165 -103.5 -277.5t-275.5 -148.5v-96q0 -54 -33.5 -88.5t-87.5 -34.5 q-53 0 -85.5 34t-32.5 89v90q-126 15 -225 71t-140 109q-59 75 -59 150z" />
<glyph unicode="%" horiz-adv-x="1607" d="M76 918q0 144 99.5 237.5t244.5 93.5q146 0 243 -91t97 -236t-99 -238.5t-245 -93.5q-145 0 -242.5 92t-97.5 236zM303 100q0 39 33 84l762 996q44 59 100 59q49 0 79 -30.5t30 -80.5q0 -38 -31 -81l-768 -1000q-42 -57 -98 -57q-49 0 -78 30t-29 80zM346 920 q0 -34 20 -56t52 -22t53 22t21 56t-21 55.5t-53 21.5t-52 -21.5t-20 -55.5zM848 307q0 145 99 238.5t245 93.5q145 0 242.5 -92t97.5 -236t-99.5 -237.5t-244.5 -93.5q-146 0 -243 91t-97 236zM1116 309q0 -34 21 -56t53 -22t53 22t21 56t-21 56t-53 22t-53 -22t-21 -56z " />
<glyph unicode="&#x26;" horiz-adv-x="1425" d="M51 403q0 77 21.5 142.5t80 136t156.5 135.5q-104 136 -104 277q0 148 125 254t336 106q111 0 199 -31t140.5 -82.5t79.5 -113t27 -127.5q0 -205 -231 -363l69 -86l109 113q61 65 135 65q73 0 121.5 -47t48.5 -118q0 -68 -55 -134l-121 -139l88 -100q55 -61 55 -135 q0 -69 -49 -117.5t-121 -48.5q-82 0 -137 61l-70 76q-100 -86 -193 -116.5t-226 -30.5q-125 0 -235.5 53.5t-179.5 152t-69 217.5zM463 463q0 -53 36 -86t93 -33q68 0 121 39l-187 199q-63 -53 -63 -119zM606 1081q0 -50 68 -110q33 19 55.5 47t22.5 57q0 32 -20 53t-56 21 q-31 0 -50.5 -19.5t-19.5 -48.5z" />
<glyph unicode="'" horiz-adv-x="546" d="M102 854v418q0 78 47 125t125 47q77 0 123.5 -47t46.5 -125v-418q0 -76 -47 -123t-123 -47q-78 0 -125 46.5t-47 123.5z" />
<glyph unicode="(" horiz-adv-x="876" d="M92 709q0 396 248 685q90 106 211 187q60 33 108 33q82 0 134.5 -51.5t52.5 -132.5q0 -86 -90 -168q-78 -81 -119 -143q-115 -178 -115 -402q0 -46 5 -90.5t12 -80t20.5 -72.5t23 -62t29 -56.5t29 -47.5t31.5 -42.5t28.5 -34t27.5 -30t22 -23.5q49 -46 72.5 -83t23.5 -87 q0 -83 -52.5 -135.5t-134.5 -52.5q-60 0 -124 41l-29 21q-30 20 -67 52t-85.5 81t-93 118t-83.5 151.5t-62 193t-23 231.5z" />
<glyph unicode=")" horiz-adv-x="876" d="M31 4q0 90 90 168q70 75 101 119q132 187 132 426q0 46 -5 90.5t-12 80t-20.5 72.5t-24 62.5t-29 56t-29 47t-31.5 42t-28.5 34t-27.5 29.5t-22 24q-48 46 -71 83.5t-23 86.5q0 83 51 136t133 53q63 0 127 -41q1 -1 24 -17.5t53 -39t71 -63.5t80 -88.5t78.5 -116 t69 -143.5t48 -174.5t18.5 -205.5q0 -397 -249 -687q-88 -102 -207 -183l-2 -2q-60 -33 -111 -33q-82 0 -133 51t-51 133z" />
<glyph unicode="*" horiz-adv-x="1042" d="M102 1098q0 62 39.5 100.5t102.5 38.5q33 0 84 -23l67 -36l-12 110q-6 64 30.5 110t108.5 46q74 0 108.5 -45.5t28.5 -110.5l-14 -110l70 36q48 23 84 23q63 0 102 -38t39 -99q0 -57 -35 -96t-96 -48l-90 -14l72 -70q43 -43 43 -100q0 -63 -39 -101t-101 -38 q-39 0 -74.5 22t-54.5 58l-43 86l-43 -86q-20 -39 -55 -59.5t-76 -20.5q-61 0 -100 38.5t-39 100.5q0 57 41 98l72 72l-109 19q-52 9 -81.5 46.5t-29.5 90.5z" />
<glyph unicode="+" d="M92 725q0 78 47 125t125 47h199v211q0 78 49 126t129 48q78 0 127 -48t49 -126v-211h199q78 0 125 -47t47 -125q0 -77 -47 -123.5t-125 -46.5h-199v-209q0 -79 -49 -127.5t-127 -48.5q-80 0 -129 48.5t-49 127.5v209h-199q-78 0 -125 46.5t-47 123.5z" />
<glyph unicode="," horiz-adv-x="694" d="M98 -98q0 53 31 368q9 95 66.5 154t146.5 59q95 0 154 -59t59 -154q0 -17 -5 -46t-16.5 -73t-21 -79t-27 -97.5t-26.5 -95.5q-19 -71 -66 -113t-112 -42q-83 0 -133 48t-50 130z" />
<glyph unicode="-" horiz-adv-x="860" d="M92 725q0 88 55.5 143.5t141.5 55.5h282q86 0 141.5 -55.5t55.5 -143.5q0 -86 -55.5 -141.5t-141.5 -55.5h-282q-86 0 -141.5 55.5t-55.5 141.5z" />
<glyph unicode="." horiz-adv-x="735" d="M102 246q0 109 78.5 186.5t188.5 77.5q109 0 186.5 -77.5t77.5 -186.5q0 -110 -77.5 -188t-186.5 -78q-110 0 -188.5 78t-78.5 188z" />
<glyph unicode="/" horiz-adv-x="1099" d="M20 -10q0 46 27 94l719 1419q23 50 64 77.5t92 27.5q70 0 113.5 -45t43.5 -117q0 -50 -22 -92l-727 -1432q-22 -45 -61.5 -70.5t-88.5 -25.5q-72 0 -116 45t-44 119z" />
<glyph unicode="0" d="M86 520v379q0 173 76.5 300.5t202 191t282.5 63.5q158 0 280 -60t194.5 -184t72.5 -297v-378q0 -173 -76.5 -300.5t-202 -191t-282.5 -63.5q-117 0 -216 35t-173 101t-116 170t-42 234zM530 492q0 -45 31 -76t80 -31q47 0 79 31t32 76v450q0 45 -32 76t-79 31 q-49 0 -80 -31t-31 -76v-450z" />
<glyph unicode="1" horiz-adv-x="1062" d="M35 995q3 48 29 91.5t65 70.5l332 229q86 58 176 58q114 0 189 -75t75 -189v-969q0 -97 -62 -159t-159 -62q-98 0 -160.5 62t-62.5 159v715l-135 -80q-53 -33 -105 -33q-81 1 -130 51.5t-52 130.5z" />
<glyph unicode="2" horiz-adv-x="1177" d="M70 1108q0 34 17.5 75t37.5 68q25 32 59 61.5t91 64.5t140.5 56t180.5 21q219 0 361.5 -123.5t142.5 -308.5q0 -158 -63 -273t-212 -235l-166 -133h250q84 0 137.5 -52.5t53.5 -135.5q0 -86 -53.5 -139.5t-137.5 -53.5h-602q-101 0 -167 66.5t-66 169.5q0 53 26.5 103.5 t67.5 88.5l360 330q75 71 101 110.5t26 96.5q0 40 -26.5 68t-77.5 28q-60 0 -131 -66q-39 -36 -75 -55.5t-83 -19.5q-87 0 -139.5 51.5t-52.5 136.5z" />
<glyph unicode="3" horiz-adv-x="1150" d="M33 315q0 80 51 129.5t133 49.5q40 0 74.5 -19t79.5 -57q67 -58 139 -58q54 0 85.5 30t31.5 71q0 110 -152 110q-67 0 -113.5 42.5t-46.5 113.5q0 72 44 109.5t108 37.5q60 0 90.5 27t30.5 76q0 42 -29 69t-63 27q-49 0 -97 -37q-41 -31 -71.5 -45t-69.5 -14 q-78 0 -126 46.5t-48 121.5q0 37 15.5 75.5t35.5 63.5q58 74 161.5 122t235.5 48q131 0 243.5 -47.5t182.5 -140t70 -211.5q0 -183 -162 -312q203 -115 203 -337q0 -196 -153.5 -311t-395.5 -115q-147 0 -253.5 53t-174.5 131q-25 28 -42 70.5t-17 80.5z" />
<glyph unicode="4" d="M25 508q0 87 55 164l452 655q37 53 99 85t133 32q120 0 198 -78.5t78 -198.5v-569h45q76 0 123 -47.5t47 -124.5t-47 -124.5t-123 -47.5h-45v-55q0 -92 -58.5 -150.5t-150.5 -58.5t-150 58.5t-58 150.5v55h-342q-114 0 -185 70.5t-71 183.5zM397 598h226v334z" />
<glyph unicode="5" horiz-adv-x="1228" d="M119 297q0 84 54 138t136 54q40 0 70.5 -13.5t83.5 -51.5q57 -41 121 -41q60 0 93.5 34t33.5 87q0 47 -32 77.5t-85 30.5q-37 0 -72 -19t-76 -37.5t-92 -18.5q-102 0 -161.5 57t-59.5 164v440q0 103 66.5 169.5t167.5 66.5h530q84 0 136 -53t52 -138t-51.5 -137.5 t-136.5 -52.5h-371v-123q71 39 170 39q138 0 242 -63t156.5 -166t52.5 -228q0 -236 -152.5 -384t-402.5 -148q-133 0 -225 39t-170 114q-31 31 -54.5 78t-23.5 86z" />
<glyph unicode="6" d="M82 508q0 255 180 489l268 349q77 98 181 98q87 0 144.5 -56.5t57.5 -144.5q0 -35 -18 -77t-47 -74l-135 -150q22 6 49 6q116 0 215 -55t160 -157.5t61 -229.5q0 -154 -78 -275.5t-206 -186t-281 -64.5q-109 0 -209 38.5t-175.5 106.5t-121 168t-45.5 215zM518 508 q0 -52 32.5 -87.5t90.5 -35.5q57 0 89 35.5t32 87.5q0 53 -31.5 88t-89.5 35t-90.5 -35t-32.5 -88z" />
<glyph unicode="7" horiz-adv-x="1116" d="M45 1237q0 86 55.5 141.5t143.5 55.5h590q105 0 171 -65t66 -167q0 -56 -29 -119l-419 -954q-32 -67 -85.5 -103t-119.5 -36q-93 0 -154 61t-61 154q0 49 28 110l332 725h-319q-88 0 -143.5 54.5t-55.5 142.5z" />
<glyph unicode="8" d="M82 432q0 88 42 173t118 151q-111 117 -111 270q0 188 146 308t370 120t364 -114t140 -300q0 -147 -115 -272q77 -65 119.5 -148.5t42.5 -173.5q0 -201 -159.5 -333.5t-405.5 -132.5t-398.5 126t-152.5 326zM508 479q0 -56 38 -93.5t93 -37.5t93 37.5t38 93.5 q0 60 -37.5 96.5t-93.5 36.5t-93.5 -36.5t-37.5 -96.5zM545 995q0 -43 26.5 -68.5t67.5 -25.5t67.5 25.5t26.5 68.5t-26.5 69t-67.5 26t-67.5 -26t-26.5 -69z" />
<glyph unicode="9" d="M82 928q0 154 78 275.5t206 186t281 64.5q109 0 209 -38.5t175.5 -106.5t121 -168t45.5 -215q0 -256 -180 -490l-268 -348q-77 -98 -181 -98q-87 0 -144.5 56t-57.5 144q0 35 18 77.5t47 74.5l135 150q-22 -7 -49 -7q-116 0 -215 55t-160 158t-61 230zM518 926 q0 -53 31.5 -88t89.5 -35t90.5 35t32.5 88q0 52 -32.5 87.5t-90.5 35.5q-57 0 -89 -35.5t-32 -87.5z" />
<glyph unicode=":" horiz-adv-x="735" d="M102 246q0 109 78.5 186.5t188.5 77.5q109 0 186.5 -77.5t77.5 -186.5q0 -110 -77.5 -188t-186.5 -78q-110 0 -188.5 78t-78.5 188zM102 827q0 110 78.5 188.5t188.5 78.5q109 0 186.5 -78.5t77.5 -188.5t-77.5 -187t-186.5 -77q-111 0 -189 77t-78 187z" />
<glyph unicode=";" horiz-adv-x="735" d="M98 -98q0 53 31 368q9 95 66.5 154t146.5 59q95 0 154 -59t59 -154q0 -17 -5 -46t-16.5 -73t-21 -79t-27 -97.5t-26.5 -95.5q-19 -71 -66 -113t-112 -42q-83 0 -133 48t-50 130zM102 827q0 110 78.5 188.5t188.5 78.5q109 0 186.5 -78.5t77.5 -188.5t-77.5 -187 t-186.5 -77q-111 0 -189 77t-78 187z" />
<glyph unicode="&#x3c;" d="M92 727q0 182 205 270l641 273q52 18 82 18q75 0 121.5 -47.5t46.5 -122.5q0 -56 -32.5 -99.5t-86.5 -64.5l-588 -223l578 -215q55 -21 92 -67t37 -103q0 -78 -48 -127t-126 -49q-46 0 -86 18l-631 269q-100 44 -152.5 113t-52.5 157z" />
<glyph unicode="=" d="M92 475q0 75 48.5 122.5t123.5 47.5h752q75 0 123.5 -47.5t48.5 -122.5t-48.5 -123.5t-123.5 -48.5h-752q-75 0 -123.5 48.5t-48.5 123.5zM92 938q0 75 48.5 123.5t123.5 48.5h752q75 0 123.5 -48.5t48.5 -123.5t-48.5 -122.5t-123.5 -47.5h-752q-75 0 -123.5 47.5 t-48.5 122.5z" />
<glyph unicode="&#x3e;" d="M92 338q0 57 32.5 101t86.5 63l588 223l-578 215q-55 23 -92 68.5t-37 101.5q0 78 48 128t126 50q39 0 88 -18l629 -271q100 -44 152.5 -113t52.5 -157q0 -182 -205 -270l-641 -273q-46 -16 -80 -16q-76 0 -123 46.5t-47 121.5z" />
<glyph unicode="?" horiz-adv-x="1071" d="M41 1126q0 78 53 146q24 31 58 59t86 57.5t127 47.5t161 18q100 0 190 -33t154.5 -88.5t102 -131t37.5 -157.5q0 -151 -76 -254.5t-223 -183.5q-15 -8 -49.5 -29.5t-52 -30t-49 -17.5t-64.5 -9q-72 0 -118 41t-46 103q0 46 26.5 84t83.5 81q29 22 42 33t32.5 30t27 37.5 t7.5 39.5q0 24 -19 42.5t-51 18.5q-42 0 -92 -37q-25 -20 -42.5 -31.5t-48.5 -22.5t-65 -11q-86 0 -139 55.5t-53 142.5zM246 231q0 104 73 177t179 73q105 0 177.5 -72.5t72.5 -177.5q0 -106 -72 -178.5t-178 -72.5t-179 72.5t-73 178.5z" />
<glyph unicode="@" horiz-adv-x="1988" d="M72 567q0 183 71 347t193.5 282.5t295 188t367.5 69.5q197 0 368.5 -67t291.5 -183.5t189 -279t69 -346.5q0 -100 -22.5 -195t-67.5 -177.5t-107 -145t-147 -99.5t-182 -39q-144 -3 -223.5 75t-84.5 208q-94 -51 -192 -51q-124 0 -217.5 61t-137.5 169.5t-26 242.5 q24 177 153.5 280t294.5 103q54 0 111 -21t90 -55q51 63 135 63q88 0 136 -56.5t36 -147.5l-75 -533q-5 -33 11.5 -51.5t49.5 -18.5q65 0 126.5 105t61.5 254q0 309 -173.5 478t-471.5 169q-184 0 -332 -82t-230.5 -224.5t-82.5 -316.5q0 -175 82.5 -317t230.5 -223.5 t332 -81.5q24 0 52 2t38 2q56 0 89.5 -31.5t33.5 -83.5q0 -49 -28 -80.5t-72 -42.5q-38 -12 -119 -12q-197 0 -368.5 66.5t-291.5 181t-188.5 274t-68.5 340.5zM877 592q-6 -44 21.5 -77.5t72.5 -33.5q87 0 100 90q6 45 -19.5 78t-70.5 33q-91 0 -104 -90z" />
<glyph unicode="A" horiz-adv-x="1427" d="M14 213q0 46 31 125l352 870q97 236 324 236q226 0 321 -236l334 -839q35 -82 35 -142q0 -105 -65 -171t-170 -66q-176 0 -232 180l-8 27h-463l-8 -23q-66 -184 -223 -184q-97 0 -162.5 63.5t-65.5 159.5zM588 547h233l-114 358z" />
<glyph unicode="B" horiz-adv-x="1413" d="M123 236v962q0 103 66 169.5t167 66.5h467q219 0 350.5 -103.5t131.5 -275.5q0 -193 -175 -310q111 -47 171.5 -135.5t60.5 -203.5q0 -175 -139.5 -290.5t-358.5 -115.5h-508q-101 0 -167 66.5t-66 169.5zM592 346h178q63 0 96 32t33 79t-33 78.5t-96 31.5h-178v-221z M592 891h123q119 0 119 94q0 44 -29 70t-90 26h-123v-190z" />
<glyph unicode="C" horiz-adv-x="1423" d="M72 709q0 153 59.5 290.5t161.5 237.5t245 158.5t304 58.5q247 0 401 -96q129 -79 129 -209q0 -97 -63 -160t-154 -63q-63 0 -151 51q-78 45 -170 45q-129 0 -211 -86.5t-82 -218.5t82 -218.5t211 -86.5q61 0 101.5 15t80.5 42q83 59 158 59q97 0 158 -60t61 -155 q0 -101 -82 -176q-26 -23 -64.5 -46.5t-98 -50.5t-144 -43.5t-177.5 -16.5q-161 0 -301.5 56t-240 153t-156.5 232t-57 288z" />
<glyph unicode="D" horiz-adv-x="1556" d="M123 236v962q0 103 66 169.5t167 66.5h332q172 0 320.5 -53.5t253 -147.5t164 -225.5t59.5 -282.5t-62 -285t-169 -230.5t-258 -153t-322 -56.5h-318q-101 0 -167 66.5t-66 169.5zM592 408h100q143 0 233.5 85.5t90.5 223.5t-90.5 223.5t-233.5 85.5h-100v-618z" />
<glyph unicode="E" horiz-adv-x="1331" d="M123 236v962q0 103 66 169.5t167 66.5h691q89 0 145.5 -56t56.5 -145q0 -91 -56.5 -147t-145.5 -56h-455v-137h385q76 0 123 -47.5t47 -122.5t-47 -122.5t-123 -47.5h-385v-150h475q90 0 146.5 -55.5t56.5 -144.5q0 -90 -56.5 -146.5t-146.5 -56.5h-711q-101 0 -167 66.5 t-66 169.5z" />
<glyph unicode="F" horiz-adv-x="1249" d="M123 221v977q0 103 66 169.5t167 66.5h670q89 0 146 -56t57 -145q0 -90 -56.5 -146.5t-146.5 -56.5h-434v-190h354q79 0 129.5 -50t50.5 -128q0 -80 -50.5 -130.5t-129.5 -50.5h-354v-260q0 -101 -67 -167t-169 -66q-101 0 -167 66t-66 167z" />
<glyph unicode="G" horiz-adv-x="1591" d="M72 709q0 153 59.5 290.5t161.5 237.5t245 158.5t304 58.5q249 0 397 -90q56 -37 90.5 -90.5t34.5 -112.5q0 -94 -64 -159.5t-159 -65.5q-73 0 -140 41q-85 45 -167 45q-130 0 -211.5 -87t-81.5 -224q0 -136 81.5 -224t211.5 -88q91 0 152.5 34t88.5 93h-110 q-75 0 -120.5 40t-45.5 112q0 70 46 113t120 43h385q86 0 140 -50q54 -51 54 -138q0 -123 -50 -241q-51 -120 -142 -214.5t-228 -152.5t-297 -58q-161 0 -301.5 56t-240 153t-156.5 232t-57 288z" />
<glyph unicode="H" horiz-adv-x="1576" d="M123 225v983q0 103 66 169.5t167 66.5q102 0 169 -67t67 -169v-268h393v268q0 102 67 169t169 67q101 0 167 -66.5t66 -169.5v-983q0 -103 -66 -169t-167 -66q-102 0 -169 66.5t-67 168.5v295h-393v-295q0 -102 -67 -168.5t-169 -66.5q-101 0 -167 66t-66 169z" />
<glyph unicode="I" horiz-adv-x="745" d="M133 229v975q0 106 68 173t174 67q103 0 170 -67.5t67 -172.5v-975q0 -105 -67 -172t-170 -67q-106 0 -174 67t-68 172z" />
<glyph unicode="J" horiz-adv-x="1048" d="M14 211q0 95 62 155t160 60q16 0 35 -1t32 -1q76 0 119 52.5t43 139.5v588q0 105 68.5 172.5t173.5 67.5t172 -67t67 -173v-620q0 -274 -165 -439t-433 -165q-101 0 -162 16q-80 26 -126 80.5t-46 134.5z" />
<glyph unicode="K" horiz-adv-x="1372" d="M123 225v983q0 103 66 169.5t167 66.5q102 0 169 -67t67 -169v-403l338 526q71 113 190 113q90 0 149.5 -58t59.5 -147q0 -82 -61 -166l-224 -313l269 -406q49 -74 49 -151q0 -91 -62 -152t-153 -61q-119 0 -186 106l-369 574v-445q0 -102 -67 -168.5t-169 -66.5 q-101 0 -167 66t-66 169z" />
<glyph unicode="L" horiz-adv-x="1210" d="M123 236v972q0 103 66 169.5t167 66.5q102 0 169 -67t67 -169v-788h407q92 0 150.5 -58.5t58.5 -152.5q0 -92 -58.5 -150.5t-150.5 -58.5h-643q-101 0 -167 66.5t-66 169.5z" />
<glyph unicode="M" horiz-adv-x="1822" d="M123 217v936q0 126 82.5 208.5t208.5 82.5q91 0 163.5 -52.5t116.5 -142.5l230 -479l247 510q39 79 106.5 121.5t149.5 42.5q118 0 195.5 -78t77.5 -195v-954q0 -100 -62.5 -163.5t-160.5 -63.5q-100 0 -164 63.5t-64 163.5v434l-133 -293q-71 -153 -203 -153 q-74 0 -121.5 38.5t-82.5 114.5l-136 293v-434q0 -100 -63.5 -163.5t-161.5 -63.5q-100 0 -162.5 63.5t-62.5 163.5z" />
<glyph unicode="N" horiz-adv-x="1617" d="M123 219v924q0 130 86 215.5t219 85.5q81 0 149.5 -39.5t114.5 -112.5l348 -553v478q0 100 64.5 163.5t165.5 63.5q100 0 162.5 -63.5t62.5 -163.5v-943q0 -123 -81.5 -203.5t-205.5 -80.5q-80 0 -148.5 39t-113.5 112l-368 586v-508q0 -101 -63 -165t-163 -64 q-102 0 -165.5 63.5t-63.5 165.5z" />
<glyph unicode="O" horiz-adv-x="1669" d="M72 709q0 153 59.5 290.5t161.5 237.5t245 158.5t304 58.5t301.5 -56t240 -153t156.5 -232t57 -288t-59.5 -290.5t-161.5 -237.5t-245 -158.5t-304 -58.5t-301.5 56t-240 153t-156.5 232t-57 288zM541 717q0 -132 82 -218.5t211 -86.5q131 0 212.5 86.5t81.5 218.5 t-81.5 218.5t-212.5 86.5q-129 0 -211 -86.5t-82 -218.5z" />
<glyph unicode="P" horiz-adv-x="1427" d="M123 225v973q0 103 66 169.5t167 66.5h428q264 0 421 -142t157 -379q0 -236 -164 -383t-428 -147h-178v-158q0 -102 -67 -168.5t-169 -66.5q-101 0 -167 66t-66 169zM592 754h143q76 0 120 40t44 107t-44 107.5t-120 40.5h-143v-295z" />
<glyph unicode="Q" horiz-adv-x="1669" d="M72 709q0 153 59.5 290.5t161.5 237.5t245 158.5t304 58.5t301.5 -56t240 -153t156.5 -232t57 -288q0 -180 -77 -334.5t-215 -259.5l55 -90q35 -61 35 -123q0 -93 -60 -153t-153 -60q-119 0 -181 98l-110 177h-64q-161 0 -301.5 56t-240 153t-156.5 232t-57 288zM541 717 q0 -132 82 -218.5t211 -86.5q131 0 212.5 86.5t81.5 218.5t-81.5 218.5t-212.5 86.5q-129 0 -211 -86.5t-82 -218.5z" />
<glyph unicode="R" horiz-adv-x="1415" d="M123 225v973q0 103 66 169.5t167 66.5h451q248 0 401.5 -136.5t153.5 -361.5q0 -142 -67 -247t-183 -159l123 -165q57 -77 57 -150q0 -98 -62.5 -161.5t-160.5 -63.5q-57 0 -106.5 26.5t-79.5 69.5l-236 340h-55v-201q0 -102 -67 -168.5t-169 -66.5q-101 0 -167 66 t-66 169zM592 778h151q73 0 114.5 36t41.5 99t-41.5 99.5t-114.5 36.5h-151v-271z" />
<glyph unicode="S" horiz-adv-x="1208" d="M31 291q0 82 53 135t135 53q61 0 143 -51q125 -76 224 -76q31 0 50 14.5t19 34.5q0 21 -15.5 39t-76 53t-178.5 87q-309 137 -309 430q0 197 149 320.5t391 123.5q213 0 369 -102q48 -30 80.5 -78.5t32.5 -102.5q0 -83 -50.5 -135.5t-125.5 -52.5q-63 0 -148 49 q-83 49 -156 49q-65 0 -65 -45q0 -28 32.5 -49t168.5 -86q60 -31 102.5 -55.5t100 -69t93 -89t61.5 -109t26 -136.5q0 -197 -157 -329.5t-402 -132.5q-153 0 -259 35.5t-200 109.5q-88 69 -88 166z" />
<glyph unicode="T" horiz-adv-x="1214" d="M2 1231q0 89 57 146t148 57h803q88 0 145 -57t57 -146q0 -90 -57 -147.5t-145 -57.5h-168v-801q0 -102 -67 -168.5t-169 -66.5q-101 0 -167 66t-66 169v801h-166q-91 0 -148 57t-57 148z" />
<glyph unicode="U" horiz-adv-x="1515" d="M102 592v618q0 103 66.5 169.5t169.5 66.5q104 0 172 -66.5t68 -169.5v-596q0 -97 49.5 -149.5t138.5 -52.5q87 0 136.5 52.5t49.5 149.5v594q0 101 66 167.5t166 66.5q101 0 165 -66t64 -168v-602q0 -285 -181.5 -455.5t-481.5 -170.5q-299 0 -473.5 163.5t-174.5 448.5 z" />
<glyph unicode="V" horiz-adv-x="1409" d="M14 1200q0 106 69.5 175t176.5 69q172 0 240 -191l213 -651l221 676q60 166 227 166q101 0 166.5 -65.5t65.5 -166.5q0 -55 -31 -127l-334 -839q-53 -130 -133 -193t-195 -63t-194.5 63t-132.5 193l-338 848q-21 57 -21 106z" />
<glyph unicode="W" horiz-adv-x="1992" d="M14 1202q0 104 69 173t175 69q88 0 148.5 -45t82.5 -123l156 -559l150 547q23 88 78.5 134t132.5 46q79 0 135 -46t80 -134l149 -547l154 547q49 180 225 180q100 0 164.5 -65t64.5 -165q0 -46 -16 -96l-307 -917q-34 -102 -102 -156.5t-164 -54.5q-101 0 -169.5 56.5 t-99.5 164.5l-127 451l-123 -449q-63 -223 -270 -223q-193 0 -264 211l-303 901q-19 55 -19 100z" />
<glyph unicode="X" horiz-adv-x="1292" d="M10 197q0 81 51 145l310 377l-281 352q-55 68 -55 154q0 96 62 157.5t161 61.5q55 0 104.5 -27t81.5 -71l215 -293l232 311q29 36 74 58t96 22q96 0 153.5 -57t57.5 -150q0 -82 -45 -139l-295 -363l289 -366q27 -30 44 -74t17 -86q0 -96 -62 -157.5t-161 -61.5 q-56 0 -105.5 27t-81.5 71l-229 313l-231 -303q-82 -108 -191 -108q-95 0 -153 57t-58 150z" />
<glyph unicode="Y" horiz-adv-x="1257" d="M14 1217q0 100 66.5 163.5t169.5 63.5q143 0 205 -127l182 -375l178 363q68 139 201 139q97 0 161 -60.5t64 -158.5q0 -67 -47 -152l-334 -581v-267q0 -102 -66.5 -168.5t-168.5 -66.5q-101 0 -167.5 66t-66.5 169v267l-340 593q-37 60 -37 132z" />
<glyph unicode="Z" horiz-adv-x="1361" d="M23 238q0 49 20 97.5t51 82.5l582 622h-416q-87 0 -142 55t-55 142q0 86 55.5 141.5t141.5 55.5h811q107 0 175.5 -68.5t68.5 -175.5q0 -94 -64 -168l-589 -627h458q85 0 140 -55.5t55 -142.5q0 -86 -55 -141.5t-140 -55.5h-856q-105 0 -173 67.5t-68 170.5z" />
<glyph unicode="[" horiz-adv-x="890" d="M123 53v1327q0 97 60 157t155 60h330q82 0 132 -51t50 -133t-50 -133t-132 -51h-115v-1024h115q81 0 131.5 -51.5t50.5 -133.5t-50 -133t-132 -51h-330q-95 0 -155 60t-60 157z" />
<glyph unicode="\" horiz-adv-x="1099" d="M20 1446q0 72 44 117t114 45q51 0 92 -27.5t64 -77.5l721 -1419q24 -50 24 -94q0 -74 -43.5 -119t-115.5 -45q-49 0 -87.5 25.5t-60.5 70.5l-729 1432q-23 52 -23 92z" />
<glyph unicode="]" horiz-adv-x="890" d="M41 20q0 82 50.5 133.5t131.5 51.5h115v1024h-115q-82 0 -132 51t-50 133t50 133t132 51h330q95 0 155 -60t60 -157v-1327q0 -97 -60 -157t-155 -60h-330q-82 0 -132 51t-50 133z" />
<glyph unicode="^" horiz-adv-x="1118" d="M92 819q0 45 29 105l174 333q48 95 111.5 141t154.5 46q86 0 149 -45.5t113 -141.5l174 -337q29 -60 29 -103q0 -75 -49.5 -123.5t-122.5 -48.5q-125 0 -174 121l-119 289l-117 -285q-56 -125 -170 -125q-78 0 -130 49t-52 125z" />
<glyph unicode="_" horiz-adv-x="1228" d="M-133 -236q0 60 36.5 97t96.5 37h1229q60 0 96.5 -37t36.5 -97t-36.5 -96.5t-96.5 -36.5h-1229q-60 0 -96.5 36.5t-36.5 96.5z" />
<glyph unicode="`" horiz-adv-x="757" d="M152 1382q0 72 48 121t119 49q74 0 146 -57l78 -63q65 -53 65 -125q0 -66 -43.5 -111t-107.5 -45q-48 0 -105 29l-96 49q-104 55 -104 153z" />
<glyph unicode="a" horiz-adv-x="1185" d="M45 301q0 147 115.5 241.5t300.5 94.5q120 0 209 -31q0 48 -48.5 83.5t-119.5 35.5q-50 0 -111 -17.5t-96 -17.5q-75 0 -121.5 46t-46.5 120q0 90 102 160q116 78 369 78q234 0 374 -133t140 -359v-414q0 -88 -56 -143t-145 -55q-113 0 -170 86q-112 -96 -295 -96 q-186 0 -293.5 87t-107.5 234zM489 322q0 -36 28 -59t69 -23q37 0 65.5 23.5t28.5 58.5t-28.5 58t-65.5 23q-41 0 -69 -22.5t-28 -58.5z" />
<glyph unicode="b" horiz-adv-x="1312" d="M82 195v1028q0 97 61.5 159t159.5 62q97 0 159 -62t62 -159v-205q113 76 238 76q100 0 192 -42.5t159.5 -115t108 -175.5t40.5 -218t-42 -219.5t-111.5 -179.5t-164 -119.5t-196.5 -44.5q-168 0 -279 120q-23 -51 -71 -80.5t-111 -29.5q-91 0 -148 57t-57 148zM514 537 q0 -63 43 -107.5t109 -44.5t109.5 44.5t43.5 107.5q0 61 -43.5 105t-109.5 44t-109 -44t-43 -105z" />
<glyph unicode="c" horiz-adv-x="1071" d="M51 528q0 155 78 284.5t216.5 205.5t307.5 76q159 0 262 -60q52 -31 87.5 -79.5t35.5 -106.5q0 -91 -57 -149t-147 -58q-42 0 -93 22.5t-94 22.5q-67 0 -110 -43.5t-43 -105.5q0 -63 43 -107.5t110 -44.5q41 0 91 24.5t102 24.5q89 0 144.5 -56.5t55.5 -146.5 q0 -48 -27.5 -92.5t-68.5 -75.5q-43 -31 -122 -57t-183 -26q-169 0 -304 71.5t-209.5 196.5t-74.5 280z" />
<glyph unicode="d" horiz-adv-x="1312" d="M51 528q0 153 70.5 284t189 206.5t256.5 75.5q126 0 221 -62v191q0 97 62.5 159t159.5 62q98 0 160.5 -62t62.5 -159v-1028q0 -90 -57.5 -147.5t-147.5 -57.5q-67 0 -116.5 32.5t-73.5 88.5q-119 -131 -287 -131q-133 0 -247.5 71t-183.5 197.5t-69 279.5zM494 537 q0 -63 43.5 -107.5t109.5 -44.5t109 44.5t43 107.5q0 61 -43 105t-109 44t-109.5 -44t-43.5 -105z" />
<glyph unicode="e" horiz-adv-x="1226" d="M51 528q0 155 76.5 284.5t212 205.5t301.5 76q115 0 218.5 -42.5t175 -111.5t113.5 -157.5t42 -180.5q0 -74 -47 -115t-125 -41h-526q19 -41 69 -70.5t117 -29.5q59 0 122.5 23.5t108.5 23.5q76 0 127 -47t51 -121q0 -62 -37 -110.5t-101 -77t-142.5 -43t-167.5 -14.5 q-169 0 -304 71.5t-209.5 196.5t-74.5 280zM498 664h276q-5 51 -42.5 86.5t-94.5 35.5t-95 -35.5t-44 -86.5z" />
<glyph unicode="f" horiz-adv-x="931" d="M31 836q0 79 50 125.5t130 46.5h4v61q0 178 103.5 281.5t285.5 103.5q130 0 201 -31q119 -50 119 -161q0 -73 -46.5 -113.5t-123.5 -40.5q-44 0 -70.5 -19t-26.5 -57v-24h66q79 0 128.5 -46.5t49.5 -125.5q0 -80 -49.5 -127t-128.5 -47h-66v-451q0 -97 -61.5 -159 t-159.5 -62t-159.5 62t-61.5 159v451h-4q-81 0 -130.5 46.5t-49.5 127.5z" />
<glyph unicode="g" horiz-adv-x="1312" d="M47 -74q0 78 49.5 128t124.5 50q45 0 101 -21.5t119 -43t124 -21.5q105 0 164 42.5t59 105.5q-93 -53 -223 -53q-218 0 -366 141t-148 342q0 215 144.5 356.5t384.5 141.5q73 0 146 -26.5t126 -76.5q27 43 72.5 67.5t103.5 24.5q90 0 147.5 -57t57.5 -147v-598 q0 -288 -164 -458.5t-459 -170.5q-273 0 -456 108q-45 28 -76 72t-31 94zM494 590q0 -55 43.5 -95t109.5 -40t109 40t43 95t-43 95t-109 40t-109.5 -40t-43.5 -95z" />
<glyph unicode="h" horiz-adv-x="1261" d="M82 211v1014q0 96 61.5 157.5t159.5 61.5q97 0 159 -62t62 -157v-250q119 119 277 119q168 0 277.5 -109.5t109.5 -284.5v-489q0 -97 -61.5 -159t-159.5 -62q-97 0 -159.5 62t-62.5 159v346q0 129 -112 129q-50 0 -79 -29.5t-30 -83.5v-362q0 -97 -62 -159t-159 -62 q-98 0 -159.5 62t-61.5 159z" />
<glyph unicode="i" horiz-adv-x="630" d="M63 1354q0 105 70 172t182 67t182 -67t70 -172t-70 -172.5t-182 -67.5t-182 67.5t-70 172.5zM92 215v633q0 98 62.5 161.5t160.5 63.5q97 0 160.5 -63.5t63.5 -161.5v-633q0 -98 -63.5 -161.5t-160.5 -63.5q-98 0 -160.5 63.5t-62.5 161.5z" />
<glyph unicode="j" horiz-adv-x="630" d="M-164 -154q0 83 50.5 134t133.5 51q32 0 52 22.5t20 69.5v725q0 98 62.5 161.5t160.5 63.5q97 0 160.5 -63.5t63.5 -161.5v-676q0 -255 -118 -387.5t-333 -132.5q-34 0 -82 6q-73 14 -121.5 63.5t-48.5 124.5zM63 1354q0 105 70 172t182 67t182 -67t70 -172t-70 -172.5 t-182 -67.5t-182 67.5t-70 172.5z" />
<glyph unicode="k" horiz-adv-x="1150" d="M82 211v1014q0 96 61.5 157.5t159.5 61.5q97 0 159 -62t62 -157v-609l258 369q67 98 172 98q83 0 135 -53t52 -135q0 -75 -56 -150l-131 -170l142 -237q45 -77 45 -148q0 -90 -56.5 -145t-146.5 -55q-119 0 -180 108l-234 412v-299q0 -97 -62 -159t-159 -62 q-98 0 -159.5 62t-61.5 159z" />
<glyph unicode="l" horiz-adv-x="630" d="M92 215v1006q0 97 62.5 160t160.5 63q97 0 160.5 -63t63.5 -160v-1006q0 -98 -63.5 -161.5t-160.5 -63.5q-98 0 -160.5 63.5t-62.5 161.5z" />
<glyph unicode="m" horiz-adv-x="1886" d="M82 211v663q0 91 58 150t149 59q73 0 126 -39.5t72 -105.5q47 73 129.5 114.5t174.5 41.5q106 0 190 -46.5t135 -127.5q51 80 134.5 127t183.5 47q168 0 273 -109t105 -287v-487q0 -97 -62 -159t-159 -62q-98 0 -160.5 62t-62.5 159v344q0 131 -100 131q-43 0 -69 -26.5 t-32 -77.5v-371q0 -97 -61.5 -159t-159.5 -62q-97 0 -159 62t-62 159v344q0 131 -102 131q-42 0 -67.5 -26.5t-31.5 -77.5v-371q0 -97 -62 -159t-159 -62q-98 0 -159.5 62t-61.5 159z" />
<glyph unicode="n" horiz-adv-x="1261" d="M82 211v663q0 91 58 150t149 59q73 0 126 -39.5t72 -105.5q53 74 137.5 115t176.5 41q172 0 279.5 -109t107.5 -285v-489q0 -97 -61.5 -159t-159.5 -62q-97 0 -159.5 62t-62.5 159v346q0 129 -112 129q-50 0 -79.5 -31t-29.5 -86v-358q0 -97 -62 -159t-159 -62 q-98 0 -159.5 62t-61.5 159z" />
<glyph unicode="o" horiz-adv-x="1292" d="M51 528q0 155 78 284.5t216.5 205.5t307.5 76q256 0 422 -157.5t166 -393.5q0 -116 -46 -220t-125.5 -179.5t-191.5 -119.5t-239 -44q-169 0 -304 71.5t-209.5 196.5t-74.5 280zM494 537q0 -63 43 -107.5t110 -44.5q66 0 109 44.5t43 107.5q0 61 -43 105t-109 44 q-67 0 -110 -43.5t-43 -105.5z" />
<glyph unicode="p" horiz-adv-x="1312" d="M82 -117v996q0 91 57 147.5t148 56.5q66 0 115 -32t71 -88q120 131 289 131q100 0 192 -42.5t159.5 -115t108 -175.5t40.5 -218t-42 -219.5t-111.5 -179.5t-164 -119.5t-196.5 -44.5q-129 0 -224 59v-156q0 -97 -62 -159t-159 -62q-98 0 -159.5 62t-61.5 159zM514 537 q0 -63 43 -107.5t109 -44.5t109.5 44.5t43.5 107.5q0 61 -43.5 105t-109.5 44t-109 -44t-43 -105z" />
<glyph unicode="q" horiz-adv-x="1312" d="M51 528q0 153 70.5 284t189 206.5t256.5 75.5q79 0 151.5 -31.5t123.5 -91.5q25 53 73.5 82.5t112.5 29.5q90 0 147.5 -57t57.5 -147v-996q0 -97 -62.5 -159t-160.5 -62q-97 0 -159.5 62t-62.5 159v170q-104 -73 -237 -73t-247.5 71t-183.5 197.5t-69 279.5zM494 537 q0 -63 43.5 -107.5t109.5 -44.5t109 44.5t43 107.5q0 61 -43 105t-109 44t-109.5 -44t-43.5 -105z" />
<glyph unicode="r" horiz-adv-x="905" d="M82 211v678q0 87 51 140.5t137 53.5q88 0 141.5 -53.5t53.5 -140.5q27 101 85.5 153t139.5 52q100 0 164 -64t64 -164q0 -102 -64 -165.5t-164 -63.5q-75 0 -120.5 -43t-45.5 -131v-252q0 -97 -62 -159t-159 -62q-98 0 -159.5 62t-61.5 159z" />
<glyph unicode="s" horiz-adv-x="999" d="M20 236q0 63 41 104t109 41q11 0 22 -1.5t23 -5.5t20 -6.5t22 -9.5l19 -9.5t20.5 -11t18.5 -9.5q84 -43 158 -43q39 0 39 24q0 11 -9.5 20.5t-49.5 29t-115 47.5q-283 107 -283 342q0 145 122 245.5t333 100.5q102 0 173.5 -21t141.5 -61q42 -24 71.5 -65t29.5 -89 q0 -65 -40.5 -107t-103.5 -42q-19 0 -41.5 5.5t-36 11t-39.5 17.5t-34 15q-63 26 -109 26q-39 0 -39 -22q0 -10 7.5 -18.5t43.5 -26t103 -41.5q148 -54 229.5 -140t81.5 -198q0 -165 -121.5 -261.5t-343.5 -96.5q-216 0 -379 108q-37 25 -60.5 66t-23.5 82z" />
<glyph unicode="t" horiz-adv-x="962" d="M31 901q0 79 49 125.5t131 46.5h4v27q0 97 61.5 159t159.5 62t159.5 -62t61.5 -159v-27h78q79 0 127.5 -46.5t48.5 -125.5q0 -81 -48.5 -127.5t-127.5 -46.5h-78v-278q0 -63 64 -68q192 -12 192 -182q0 -72 -43 -123.5t-108 -73.5q-74 -22 -176 -22q-170 0 -270.5 90 t-100.5 249v408h-4q-82 0 -131 46.5t-49 127.5z" />
<glyph unicode="u" horiz-adv-x="1263" d="M74 373v489q0 97 61.5 159t159.5 62q97 0 159 -62t62 -159v-346q0 -129 113 -129q50 0 79 31t29 86v358q0 97 62 159t159 62q98 0 160 -62t62 -159v-663q0 -91 -58 -150t-149 -59q-73 0 -126.5 39.5t-72.5 105.5q-53 -74 -137 -114.5t-176 -40.5q-172 0 -279.5 108.5 t-107.5 284.5z" />
<glyph unicode="v" horiz-adv-x="1112" d="M14 868q0 95 63.5 155t162.5 60q164 0 219 -176l104 -332l113 349q51 159 209 159q92 0 152.5 -60t60.5 -151q0 -49 -27 -114l-217 -535q-95 -233 -303 -233q-203 0 -301 233l-213 529q-23 56 -23 116z" />
<glyph unicode="w" horiz-adv-x="1605" d="M16 860q0 97 63.5 160t160.5 63q87 0 143 -49.5t76 -132.5l67 -309l76 309q22 89 76.5 135.5t136.5 46.5q80 0 135.5 -47t75.5 -135l70 -295l69 295q20 84 72.5 133t140.5 49q93 0 152 -60t59 -153q0 -37 -14 -84l-182 -583q-65 -213 -271 -213q-98 0 -167 52t-97 159 l-57 217l-56 -217q-28 -108 -99 -159.5t-169 -51.5q-203 0 -268 213l-172 559q-21 70 -21 98z" />
<glyph unicode="x" horiz-adv-x="1077" d="M10 184q0 36 15.5 72.5t35.5 58.5l205 226l-174 196q-57 68 -57 146q0 87 60.5 143.5t150.5 56.5q110 0 176 -86l127 -172l127 166q71 92 174 92q86 0 143.5 -54t57.5 -138q0 -78 -58 -143l-178 -191l201 -229q51 -57 51 -138q0 -88 -62 -146q-59 -55 -144 -54h-9 q-106 3 -172 86l-150 196l-147 -192q-30 -36 -77 -63t-97 -27q-86 0 -142.5 53.5t-56.5 140.5z" />
<glyph unicode="y" horiz-adv-x="1112" d="M-6 -125q0 84 51.5 134t132.5 50q24 0 61.5 -7t51.5 -7l31 2l-279 692q-29 74 -29 119q0 100 64.5 162.5t165.5 62.5q82 0 137.5 -48.5t79.5 -135.5l102 -385l109 406q21 78 77.5 120.5t131.5 42.5q95 0 156 -60t61 -151q0 -43 -29 -120l-313 -762 q-73 -177 -176.5 -257.5t-278.5 -80.5q-78 0 -147 25.5t-114.5 77.5t-45.5 120z" />
<glyph unicode="z" horiz-adv-x="1130" d="M41 217q0 45 19.5 90t52.5 78l350 320h-209q-80 0 -131 51.5t-51 132.5t51 132.5t131 51.5h602q95 0 158 -61t63 -156q0 -45 -22.5 -92.5t-55.5 -79.5l-346 -317h240q80 0 132 -52t52 -131q0 -81 -52 -132.5t-132 -51.5h-633q-98 0 -158.5 60t-60.5 157z" />
<glyph unicode="{" horiz-adv-x="972" d="M41 717q0 72 42 114.5t114 42.5h-19q30 0 49 19t19 49v258q0 210 93.5 303.5t303.5 93.5h113q78 0 127 -49t49 -127q0 -81 -49 -130.5t-127 -49.5q-42 0 -61 -19t-19 -61v-180q0 -258 -217 -264q217 -6 217 -264v-181q0 -42 19 -60.5t61 -18.5q78 0 127 -50t49 -129 t-49 -128.5t-127 -49.5h-113q-210 0 -303.5 93.5t-93.5 303.5v259q0 30 -19 48.5t-49 18.5h19q-71 0 -113.5 43.5t-42.5 114.5z" />
<glyph unicode="|" horiz-adv-x="706" d="M184 -37v1516q0 77 47 123.5t123 46.5q75 0 122.5 -47t47.5 -123v-1516q0 -76 -47.5 -123t-122.5 -47q-76 0 -123 46.5t-47 123.5z" />
<glyph unicode="}" horiz-adv-x="972" d="M41 12q0 81 49 131t127 50q43 0 61.5 18.5t18.5 60.5v181q0 258 217 264q-217 6 -217 264v180q0 42 -19 61t-61 19q-78 0 -127 49.5t-49 128.5t49 128.5t127 49.5h113q210 0 303.5 -93.5t93.5 -303.5v-258q0 -30 19 -49t49 -19h-19q72 0 114 -43t42 -114q0 -72 -42 -115 t-114 -43h19q-31 0 -49.5 -18.5t-18.5 -48.5v-259q0 -210 -93.5 -303.5t-303.5 -93.5h-113q-78 0 -127 49t-49 127z" />
<glyph unicode="~" d="M94 569q0 18 8 64q16 61 42.5 114.5t67 100.5t99 74.5t127.5 27.5q60 0 111.5 -17.5t85.5 -42.5t62.5 -50t57 -42.5t54.5 -17.5q19 0 31.5 10t31.5 39q32 63 65 93t89 30q69 0 114.5 -49t45.5 -121q0 -32 -8 -63q-16 -61 -42.5 -114.5t-66.5 -101t-98.5 -75t-128.5 -27.5 q-60 0 -111.5 17.5t-85 42.5t-62 50t-57 42.5t-55.5 17.5q-20 0 -33 -9.5t-30 -37.5q-28 -63 -61.5 -94t-90.5 -31q-69 0 -115.5 49t-46.5 121z" />
<glyph unicode="&#xa1;" horiz-adv-x="733" d="M102 1190q0 109 77.5 186.5t187.5 77.5t188 -77.5t78 -186.5q0 -110 -78 -188t-188 -78t-187.5 78t-77.5 188zM119 248l59 450q8 87 59 141t130 54q81 0 130.5 -54.5t57.5 -140.5l59 -450q9 -108 -62.5 -183t-184.5 -75q-114 0 -185.5 74.5t-62.5 183.5z" />
<glyph unicode="&#xa2;" horiz-adv-x="1112" d="M72 891q0 199 127.5 352t328.5 197v90q0 54 33.5 86.5t87.5 32.5t86.5 -32.5t32.5 -86.5v-82q94 -13 160 -47q57 -31 94 -82.5t37 -110.5q0 -91 -56 -147.5t-147 -56.5q-43 0 -94 22.5t-94 22.5q-67 0 -110.5 -44.5t-43.5 -107.5q0 -62 43.5 -105.5t110.5 -43.5 q42 0 94.5 22.5t99.5 22.5q89 0 144 -56t55 -145q0 -50 -29 -96.5t-69 -73.5q-73 -48 -195 -74v-82q0 -54 -32.5 -87.5t-86.5 -33.5t-87.5 33.5t-33.5 87.5v86q-206 40 -331 187.5t-125 351.5z" />
<glyph unicode="&#xa3;" horiz-adv-x="1228" d="M41 690q0 55 32.5 88t86.5 33h45v109q0 126 42 228t116 168.5t171.5 102t210.5 35.5q115 0 200.5 -33.5t131.5 -70.5q41 -32 65.5 -81t24.5 -95q0 -90 -54 -145.5t-138 -55.5q-70 0 -125 37q-60 39 -113 39q-38 0 -64 -26.5t-26 -64.5v-147h250q53 0 85 -33t32 -88 q0 -54 -32 -86.5t-85 -32.5h-250v-190h352q83 0 136 -52.5t53 -135.5q0 -85 -53 -139t-136 -54h-573q-98 0 -159.5 62t-61.5 159v350h-45q-54 0 -86.5 32.5t-32.5 86.5z" />
<glyph unicode="&#xa4;" horiz-adv-x="1363" d="M72 219q0 45 47 92l131 125q-86 130 -86 277q0 144 90 278l-133 129q-49 49 -49 99q0 48 30.5 78t79.5 30q47 0 92 -45l144 -137q123 74 270 74q143 0 264 -70l140 135q43 43 92 43t78.5 -30t29.5 -78q0 -55 -47 -99l-127 -125q86 -130 86 -274q0 -149 -92 -281l135 -127 q45 -45 45 -94q0 -51 -29.5 -82t-78.5 -31t-86 37l-148 146q-129 -74 -272 -74q-146 0 -264 70l-140 -135q-48 -44 -92 -44q-50 0 -80 31t-30 82zM535 717q0 -66 41 -107t108 -41q66 0 106.5 41t40.5 107t-40.5 106.5t-106.5 40.5q-67 0 -108 -40.5t-41 -106.5z" />
<glyph unicode="&#xa5;" horiz-adv-x="1320" d="M14 459q0 49 29.5 77.5t77.5 28.5h305v23l-41 71h-264q-48 0 -77.5 29t-29.5 78t29.5 77.5t77.5 28.5h143l-100 207q-41 88 -41 138q0 100 63.5 163.5t163.5 63.5q76 0 132 -38t85 -114l107 -282l108 295q24 66 80 102.5t127 36.5q97 0 157 -60t60 -157q0 -57 -35 -125 l-116 -230h145q48 0 77.5 -28.5t29.5 -77.5t-29.5 -78t-77.5 -29h-268l-37 -63v-31h305q48 0 77.5 -28.5t29.5 -77.5t-29.5 -78t-77.5 -29h-305v-127q0 -103 -66 -169t-167 -66q-103 0 -169.5 66t-66.5 169v127h-305q-48 0 -77.5 29t-29.5 78z" />
<glyph unicode="&#xa6;" horiz-adv-x="706" d="M184 -37v399q0 76 47 123t123 47q75 0 122.5 -47t47.5 -123v-399q0 -76 -47.5 -123t-122.5 -47q-76 0 -123 46.5t-47 123.5zM184 1071v408q0 77 47 123.5t123 46.5q75 0 122.5 -47t47.5 -123v-408q0 -76 -47.5 -123t-122.5 -47q-76 0 -123 46.5t-47 123.5z" />
<glyph unicode="&#xa7;" horiz-adv-x="1372" d="M72 559q0 91 50.5 170.5t147.5 132.5q-34 80 -34 182q0 185 139 297.5t364 112.5q192 0 328 -96q38 -27 66 -72.5t28 -93.5q0 -76 -48.5 -121t-121.5 -45q-56 0 -127 41q-65 35 -106 35q-53 0 -53 -37q0 -24 38.5 -49.5t139.5 -61.5q229 -79 324.5 -179.5t95.5 -227.5 q0 -93 -52 -172.5t-151 -130.5q39 -92 39 -183q0 -185 -139.5 -297t-364.5 -112q-192 0 -328 96q-38 27 -66 72.5t-28 93.5q0 76 48.5 121t121.5 45q56 0 127 -41q65 -35 106 -35q54 0 54 37q0 24 -38.5 49.5t-139.5 61.5q-229 79 -324.5 179.5t-95.5 227.5zM502 633 q0 -41 58 -78t200 -78q55 -14 100 -41q14 14 14 39q0 26 -19.5 48t-78.5 50.5t-160 57.5q-58 15 -100 41q-14 -12 -14 -39z" />
<glyph unicode="&#xa8;" horiz-adv-x="1044" d="M66 1350q0 92 61.5 153.5t153.5 61.5t151.5 -59.5t59.5 -151.5t-62 -153.5t-154 -61.5t-151 59.5t-59 151.5zM553 1350q0 92 61.5 153.5t153.5 61.5t151.5 -59.5t59.5 -151.5t-61.5 -153.5t-153.5 -61.5t-151.5 59.5t-59.5 151.5z" />
<glyph unicode="&#xa9;" horiz-adv-x="1691" d="M102 713q0 153 58.5 290t158 236t238 157t293.5 58q207 0 376.5 -96.5t266 -264.5t96.5 -372t-98.5 -374t-270 -268.5t-378.5 -98.5q-155 0 -292.5 56.5t-235.5 154t-155 233.5t-57 289zM330 717q0 -145 68.5 -265.5t187 -189.5t260.5 -69t260.5 69t187 189.5t68.5 265.5 t-68.5 265.5t-187 189.5t-260.5 69t-260.5 -69t-187 -189.5t-68.5 -265.5zM455 713q0 172 116 290.5t291 118.5q128 0 207 -49q88 -54 88 -123q0 -49 -31 -81.5t-82 -32.5q-34 0 -92 26q-47 19 -82 19q-68 0 -110.5 -47t-42.5 -117t42.5 -117t110.5 -47q50 0 95 25 q50 28 86 28q47 0 78.5 -30.5t31.5 -77.5q0 -26 -15 -56t-38 -49q-53 -40 -108.5 -61t-143.5 -21q-175 0 -288 115t-113 287z" />
<glyph unicode="&#xaa;" horiz-adv-x="841" d="M96 969q0 89 70 144.5t186 55.5q70 0 109 -14v4q0 70 -84 70q-27 0 -66.5 -12.5t-62.5 -12.5q-42 0 -68 28t-26 71q0 29 19.5 55.5t49.5 40.5q84 43 211 43q145 0 228 -77.5t83 -213.5v-246q0 -54 -35 -89.5t-89 -35.5q-69 0 -107 58q-37 -32 -75.5 -46t-96.5 -14 q-116 0 -181 52t-65 139zM106 629q0 35 23.5 58.5t58.5 23.5h486q35 0 58.5 -23.5t23.5 -58.5t-23.5 -58.5t-58.5 -23.5h-486q-35 0 -58.5 23.5t-23.5 58.5zM356 983q0 -24 17 -37.5t41 -13.5t40.5 13.5t16.5 37.5t-16.5 37.5t-40.5 13.5t-41 -13.5t-17 -37.5z" />
<glyph unicode="&#xab;" horiz-adv-x="1544" d="M94 717q0 37 18 72.5t44 58.5l338 336q54 51 122 51q72 0 118 -45.5t46 -118.5q0 -65 -41 -113l-192 -237l170 -211q63 -74 63 -137q0 -73 -47 -119.5t-121 -46.5q-73 0 -131 55l-325 324q-26 23 -44 58.5t-18 72.5zM764 717q0 37 17.5 72.5t43.5 58.5l338 336 q54 51 123 51q72 0 118 -45.5t46 -118.5q0 -65 -41 -113l-192 -237l169 -211q64 -76 64 -137q0 -73 -47 -119.5t-121 -46.5q-73 0 -131 55l-326 324q-26 23 -43.5 58.5t-17.5 72.5z" />
<glyph unicode="&#xac;" d="M92 786q0 75 48.5 123.5t123.5 48.5h729q82 0 133.5 -51t51.5 -133v-272q0 -82 -51.5 -133.5t-133.5 -51.5q-80 0 -132 52t-52 133v114h-545q-75 0 -123.5 47.5t-48.5 122.5z" />
<glyph unicode="&#xad;" horiz-adv-x="860" d="M92 725q0 88 55.5 143.5t141.5 55.5h282q86 0 141.5 -55.5t55.5 -143.5q0 -86 -55.5 -141.5t-141.5 -55.5h-282q-86 0 -141.5 55.5t-55.5 141.5z" />
<glyph unicode="&#xae;" horiz-adv-x="1097" d="M102 1010q0 186 130 315t319 129t316.5 -127t127.5 -313t-129.5 -315.5t-318.5 -129.5t-317 127.5t-128 313.5zM231 1012q0 -133 93.5 -227.5t224.5 -94.5t224 94.5t93 227.5t-93 227t-224 94t-224.5 -94t-93.5 -227zM379 858v305q0 28 18 46t47 18h136q73 0 118 -41 t45 -107q0 -90 -73 -129l37 -49q22 -32 22 -51q0 -25 -16 -41t-41 -16q-15 0 -31 9t-25 23l-77 105h-31v-72q0 -29 -18 -47t-46 -18q-29 0 -47 18t-18 47zM508 1028h55q51 0 51 43q0 21 -13 34t-38 13h-55v-90z" />
<glyph unicode="&#xaf;" horiz-adv-x="942" d="M92 1352q0 52 34 86.5t87 34.5h516q53 0 87 -34.5t34 -86.5t-34 -86.5t-87 -34.5h-516q-53 0 -87 34.5t-34 86.5z" />
<glyph unicode="&#xb0;" horiz-adv-x="942" d="M82 1071q0 161 114 272t277 111t275 -109t112 -270q0 -162 -114 -273.5t-277 -111.5t-275 109.5t-112 271.5zM326 1073q0 -67 41 -109t104 -42t103 42t40 109q0 66 -40 108t-103 42t-104 -42t-41 -108z" />
<glyph unicode="&#xb1;" d="M92 197q0 75 48.5 123.5t123.5 48.5h752q75 0 123.5 -48.5t48.5 -123.5t-48.5 -123.5t-123.5 -48.5h-752q-75 0 -123.5 48.5t-48.5 123.5zM92 922q0 78 47 125t125 47h199v151q0 77 49.5 125.5t128.5 48.5q78 0 127 -48.5t49 -125.5v-151h199q78 0 125 -47t47 -125 q0 -77 -47 -124.5t-125 -47.5h-199v-148q0 -79 -49 -127.5t-127 -48.5q-80 0 -129 48.5t-49 127.5v148h-199q-78 0 -125 47.5t-47 124.5z" />
<glyph unicode="&#xb2;" horiz-adv-x="753" d="M53 1221q0 49 51 106q107 119 281 119q139 0 224 -76t85 -188q0 -90 -43 -161t-135 -138l-90 -66h152q52 0 86 -34t34 -87q0 -54 -33.5 -88.5t-86.5 -34.5h-375q-65 0 -104.5 39.5t-39.5 104.5q0 68 60 125l213 186q44 41 60 64.5t16 52.5q0 21 -14.5 36t-37.5 15 q-43 0 -84 -41q-51 -51 -102 -51t-84 33t-33 84z" />
<glyph unicode="&#xb3;" horiz-adv-x="743" d="M41 774q0 44 33.5 77.5t81.5 33.5q51 0 100 -49q39 -39 88 -39q32 0 51 17t19 40q0 61 -92 61q-47 0 -73 28t-26 67q0 41 28 65.5t71 24.5q32 0 49.5 16t17.5 39q0 25 -17.5 40t-41.5 15q-26 0 -58 -24q-45 -33 -67 -39q-10 -2 -21 -2q-51 0 -81.5 29t-30.5 75 q0 48 39 90q99 107 247 107q131 0 218.5 -66t87.5 -174q0 -109 -111 -188q135 -68 135 -201q0 -119 -92.5 -187.5t-247.5 -68.5q-172 0 -276 131q-31 40 -31 82z" />
<glyph unicode="&#xb4;" horiz-adv-x="757" d="M152 1307q0 72 65 125l78 63q72 57 145 57q71 0 119.5 -49t48.5 -121q0 -98 -104 -153l-96 -49q-57 -29 -105 -29q-64 0 -107.5 45t-43.5 111z" />
<glyph unicode="&#xb6;" horiz-adv-x="1740" d="M76 956q0 205 152 341.5t380 136.5h774q86 0 140.5 -54.5t54.5 -140.5v-1051q0 -88 -54.5 -143t-140.5 -55t-141 55t-55 143v889h-152v-889q0 -88 -54 -143t-140 -55q-88 0 -142.5 55t-54.5 143v301h-49q-227 0 -372.5 131t-145.5 336z" />
<glyph unicode="&#xb7;" horiz-adv-x="724" d="M96 717q0 110 78 188t188 78t187.5 -78t77.5 -188t-77.5 -188t-187.5 -78t-188 78t-78 188z" />
<glyph unicode="&#xb8;" horiz-adv-x="727" d="M55 -250q0 59 36.5 96t92.5 37q20 0 40 -2t26 -2q44 0 73 21t29 63q0 13 -4 22t-8 12l-4 3l123 172q8 -2 21 -7.5t46.5 -26t59 -46.5t46.5 -72.5t21 -101.5q0 -143 -107.5 -230t-248.5 -87q-80 0 -141 22q-43 16 -72 49.5t-29 77.5z" />
<glyph unicode="&#xb9;" horiz-adv-x="665" d="M35 1167q0 63 59 105l189 131q54 41 116 41q73 0 120.5 -48t47.5 -126v-561q0 -65 -39 -105.5t-102 -40.5t-103 41t-40 105v401l-47 -27q-50 -30 -86 -30q-51 0 -83 31t-32 83z" />
<glyph unicode="&#xba;" horiz-adv-x="919" d="M96 1106q0 141 105 238.5t262 97.5t258.5 -93.5t101.5 -234.5t-105 -238.5t-263 -97.5q-156 0 -257.5 94t-101.5 234zM106 629q0 35 23.5 58.5t58.5 23.5h543q34 0 58 -23.5t24 -58.5t-24 -58.5t-58 -23.5h-543q-35 0 -58.5 23.5t-23.5 58.5zM381 1110q0 -33 22 -56.5 t56 -23.5q36 0 58 23.5t22 56.5t-22 56.5t-58 23.5q-34 0 -56 -23.5t-22 -56.5z" />
<glyph unicode="&#xbb;" horiz-adv-x="1544" d="M94 371q0 64 41 112l193 238l-170 211q-64 76 -64 137q0 73 47 119.5t121 46.5q73 0 131 -55l326 -324q26 -23 43.5 -58.5t17.5 -72.5t-17.5 -72.5t-43.5 -58.5l-338 -336q-54 -51 -123 -51q-72 0 -118 45.5t-46 118.5zM764 371q0 64 41 112l192 238l-170 211 q-63 74 -63 137q0 73 47 119.5t121 46.5q73 0 131 -55l326 -324q26 -23 43.5 -58.5t17.5 -72.5t-17.5 -72.5t-43.5 -58.5l-338 -336q-54 -51 -123 -51q-72 0 -118 45.5t-46 118.5z" />
<glyph unicode="&#xbc;" horiz-adv-x="1710" d="M41 1167q0 63 59 105l189 131q54 41 117 41q73 0 120 -48t47 -126v-561q0 -65 -39 -105.5t-102 -40.5t-103 41t-40 105v401l-47 -27q-49 -30 -86 -30q-51 0 -83 31t-32 83zM317 98q0 36 35 86l910 1209q40 51 96 51q47 0 77.5 -30t30.5 -77q0 -45 -32 -84l-912 -1210 q-42 -53 -98 -53q-50 0 -78.5 28.5t-28.5 79.5zM909 309q0 60 43 115l250 352q38 52 75 73t87 21q77 0 127.5 -51.5t50.5 -130.5v-323h21q47 0 76.5 -30t29.5 -79t-29.5 -79t-76.5 -30h-21v-28q0 -57 -35.5 -93t-91.5 -36q-58 0 -94.5 36t-36.5 93v28h-211q-73 0 -118.5 45 t-45.5 117zM1141 365h143v202z" />
<glyph unicode="&#xbd;" horiz-adv-x="1822" d="M41 1167q0 63 59 105l189 131q54 41 117 41q73 0 120 -48t47 -126v-561q0 -65 -39 -105.5t-102 -40.5t-103 41t-40 105v401l-47 -27q-49 -30 -86 -30q-51 0 -83 31t-32 83zM317 98q0 36 35 86l910 1209q40 51 96 51q47 0 77.5 -30t30.5 -77q0 -45 -32 -84l-912 -1210 q-42 -53 -98 -53q-50 0 -78.5 28.5t-28.5 79.5zM1110 647q0 50 51 107q106 118 281 118q139 0 224 -76t85 -188q0 -90 -43 -161t-135 -138l-90 -65h151q52 0 86.5 -34t34.5 -87q0 -54 -34 -88.5t-87 -34.5h-374q-65 0 -104.5 39.5t-39.5 103.5q0 68 60 125l213 187 q44 41 59.5 64t15.5 52q0 21 -14.5 36.5t-36.5 15.5q-43 0 -84 -41q-52 -52 -102 -52q-51 0 -84 33t-33 84z" />
<glyph unicode="&#xbe;" horiz-adv-x="1751" d="M41 774q0 44 33.5 77.5t81.5 33.5q51 0 100 -49q39 -39 88 -39q32 0 51 17t19 40q0 61 -92 61q-47 0 -73 28t-26 67q0 41 28 65.5t71 24.5q32 0 49.5 16t17.5 39q0 25 -17.5 40t-41.5 15q-26 0 -58 -24q-45 -33 -67 -39q-10 -2 -21 -2q-51 0 -81.5 29t-30.5 75 q0 48 39 90q99 107 247 107q131 0 218.5 -66t87.5 -174q0 -109 -111 -188q135 -68 135 -201q0 -119 -92.5 -187.5t-247.5 -68.5q-172 0 -276 131q-31 40 -31 82zM358 98q0 36 35 86l910 1209q40 51 96 51q47 0 77.5 -30t30.5 -77q0 -45 -32 -84l-912 -1210q-42 -53 -98 -53 q-50 0 -78.5 28.5t-28.5 79.5zM950 309q0 60 43 115l250 352q38 52 75 73t87 21q77 0 127.5 -51.5t50.5 -130.5v-323h21q47 0 76.5 -30t29.5 -79t-29.5 -79t-76.5 -30h-21v-28q0 -57 -35.5 -93t-91.5 -36q-58 0 -94.5 36t-36.5 93v28h-211q-73 0 -118.5 45t-45.5 117z M1182 365h143v202z" />
<glyph unicode="&#xbf;" horiz-adv-x="1073" d="M61 389q0 151 76 254.5t223 183.5q15 8 49.5 29.5t52 30t49 17.5t64.5 9q72 0 118 -40.5t46 -102.5q0 -46 -26.5 -85t-83.5 -81q-40 -30 -56.5 -44t-34.5 -40.5t-18 -54.5q0 -24 19 -43t51 -19q42 0 92 37q26 21 43 32t48.5 22.5t64.5 11.5q86 0 139 -56t53 -143 q0 -77 -53 -145q-24 -31 -58 -59t-86 -57.5t-127 -47.5t-161 -18q-203 0 -343.5 120.5t-140.5 288.5zM324 1202q0 106 72 179t177 73q106 0 179 -73t73 -179q0 -104 -73 -177t-179 -73q-105 0 -177 72.5t-72 177.5z" />
<glyph unicode="&#xc0;" horiz-adv-x="1427" d="M14 213q0 46 31 125l352 870q97 236 324 236q226 0 321 -236l334 -839q35 -82 35 -142q0 -105 -65 -171t-170 -66q-176 0 -232 180l-8 27h-463l-8 -23q-66 -184 -223 -184q-97 0 -162.5 63.5t-65.5 159.5zM391 1751q0 72 48.5 121t119.5 49q74 0 146 -57l77 -64 q66 -54 66 -125q0 -66 -43.5 -110.5t-108.5 -44.5q-49 0 -104 28l-96 49q-47 25 -76 64.5t-29 89.5zM588 547h233l-114 358z" />
<glyph unicode="&#xc1;" horiz-adv-x="1427" d="M14 213q0 46 31 125l352 870q97 236 324 236q226 0 321 -236l334 -839q35 -82 35 -142q0 -105 -65 -171t-170 -66q-176 0 -232 180l-8 27h-463l-8 -23q-66 -184 -223 -184q-97 0 -162.5 63.5t-65.5 159.5zM582 1675q0 72 65 125l78 64q72 57 145 57q71 0 119.5 -49 t48.5 -121q0 -99 -104 -154l-96 -49q-55 -28 -105 -28q-64 0 -107.5 44.5t-43.5 110.5zM588 547h233l-114 358z" />
<glyph unicode="&#xc2;" horiz-adv-x="1427" d="M14 213q0 46 31 125l352 870q97 236 324 236q226 0 321 -236l334 -839q35 -82 35 -142q0 -105 -65 -171t-170 -66q-176 0 -232 180l-8 27h-463l-8 -23q-66 -184 -223 -184q-97 0 -162.5 63.5t-65.5 159.5zM334 1667q0 75 72 129l61 45q62 45 118.5 62.5t127.5 17.5 q141 0 250 -82l57 -43q72 -54 72 -129q0 -65 -43.5 -106t-108.5 -41q-61 0 -109 39l-122 83l-123 -86q-47 -36 -101 -36q-65 0 -108 41t-43 106zM588 547h233l-114 358z" />
<glyph unicode="&#xc3;" horiz-adv-x="1427" d="M14 213q0 46 31 125l352 870q97 236 324 236q226 0 321 -236l334 -839q35 -82 35 -142q0 -105 -65 -171t-170 -66q-176 0 -232 180l-8 27h-463l-8 -23q-66 -184 -223 -184q-97 0 -162.5 63.5t-65.5 159.5zM342 1630q0 21 4 41q6 34 22 70t43 71.5t70 58.5t94 23t95 -17.5 t68.5 -38.5t52 -38.5t49.5 -17.5q31 0 43 39q23 80 102 80q49 0 77 -32.5t28 -78.5q0 -16 -5 -41q-6 -34 -22 -70t-43 -71.5t-70 -58.5t-94 -23t-94 17.5t-67.5 38.5t-52 38.5t-50.5 17.5q-31 0 -43 -39q-23 -79 -103 -79q-49 0 -76.5 32t-27.5 78zM588 547h233l-114 358z " />
<glyph unicode="&#xc4;" horiz-adv-x="1427" d="M14 213q0 46 31 125l352 870q97 236 324 236q226 0 321 -236l334 -839q35 -82 35 -142q0 -105 -65 -171t-170 -66q-176 0 -232 180l-8 27h-463l-8 -23q-66 -184 -223 -184q-97 0 -162.5 63.5t-65.5 159.5zM256 1718q0 92 61.5 153.5t153.5 61.5t151.5 -59.5t59.5 -151.5 t-61.5 -153.5t-153.5 -61.5t-151.5 59.5t-59.5 151.5zM588 547h233l-114 358zM743 1718q0 92 61.5 153.5t153.5 61.5t151.5 -59.5t59.5 -151.5t-61.5 -153.5t-153.5 -61.5t-151.5 59.5t-59.5 151.5z" />
<glyph unicode="&#xc5;" horiz-adv-x="1427" d="M14 213q0 46 31 125l352 870q97 236 324 236q226 0 321 -236l334 -839q35 -82 35 -142q0 -105 -65 -171t-170 -66q-176 0 -232 180l-8 27h-463l-8 -23q-66 -184 -223 -184q-97 0 -162.5 63.5t-65.5 159.5zM485 1729q0 94 63.5 155.5t164.5 61.5t164 -61.5t63 -155.5 q0 -96 -63 -158t-164 -62t-164.5 62t-63.5 158zM588 547h233l-114 358zM637 1729q0 -31 21 -53.5t55 -22.5q33 0 52 22.5t19 53.5t-18.5 51t-52.5 20t-55 -20.5t-21 -50.5z" />
<glyph unicode="&#xc6;" horiz-adv-x="2101" d="M14 203q0 63 45 145l469 881q110 205 332 205h957q89 0 145.5 -56t56.5 -145q0 -91 -56.5 -147t-145.5 -56h-455v-137h385q76 0 123 -47.5t47 -122.5t-47 -122.5t-123 -47.5h-385v-150h475q90 0 146.5 -55.5t56.5 -144.5q0 -90 -56.5 -146.5t-146.5 -56.5h-711 q-92 0 -154.5 54.5t-76.5 142.5h-420l-35 -68q-71 -139 -209 -139q-98 0 -157.5 58t-59.5 155zM649 547h244v500z" />
<glyph unicode="&#xc7;" horiz-adv-x="1423" d="M72 709q0 153 59.5 290.5t161.5 237.5t245 158.5t304 58.5q247 0 401 -96q129 -79 129 -209q0 -97 -63 -160t-154 -63q-63 0 -151 51q-78 45 -170 45q-129 0 -211 -86.5t-82 -218.5t82 -218.5t211 -86.5q61 0 101.5 15t80.5 42q83 59 158 59q97 0 158 -60t61 -155 q0 -101 -82 -176q-44 -40 -127 -81t-197 -62q10 -38 10 -76q0 -143 -107.5 -230t-248.5 -87q-80 0 -141 22q-43 16 -72 49.5t-29 77.5q0 59 36.5 96t92.5 37q20 0 40 -2t26 -2q44 0 73 21t29 63q0 15 -6 27q-274 44 -446 243.5t-172 475.5z" />
<glyph unicode="&#xc8;" horiz-adv-x="1331" d="M123 236v962q0 103 66 169.5t167 66.5h691q89 0 145.5 -56t56.5 -145q0 -91 -56.5 -147t-145.5 -56h-455v-137h385q76 0 123 -47.5t47 -122.5t-47 -122.5t-123 -47.5h-385v-150h475q90 0 146.5 -55.5t56.5 -144.5q0 -90 -56.5 -146.5t-146.5 -56.5h-711q-101 0 -167 66.5 t-66 169.5zM395 1751q0 72 48.5 121t119.5 49q74 0 146 -57l77 -64q66 -54 66 -125q0 -66 -43.5 -110.5t-108.5 -44.5q-49 0 -104 28l-96 49q-47 25 -76 64.5t-29 89.5z" />
<glyph unicode="&#xc9;" horiz-adv-x="1331" d="M123 236v962q0 103 66 169.5t167 66.5h691q89 0 145.5 -56t56.5 -145q0 -91 -56.5 -147t-145.5 -56h-455v-137h385q76 0 123 -47.5t47 -122.5t-47 -122.5t-123 -47.5h-385v-150h475q90 0 146.5 -55.5t56.5 -144.5q0 -90 -56.5 -146.5t-146.5 -56.5h-711q-101 0 -167 66.5 t-66 169.5zM541 1675q0 72 65 125l78 64q72 57 145 57q71 0 119.5 -49t48.5 -121q0 -99 -104 -154l-96 -49q-55 -28 -105 -28q-64 0 -107.5 44.5t-43.5 110.5z" />
<glyph unicode="&#xca;" horiz-adv-x="1331" d="M123 236v962q0 103 66 169.5t167 66.5h691q89 0 145.5 -56t56.5 -145q0 -91 -56.5 -147t-145.5 -56h-455v-137h385q76 0 123 -47.5t47 -122.5t-47 -122.5t-123 -47.5h-385v-150h475q90 0 146.5 -55.5t56.5 -144.5q0 -90 -56.5 -146.5t-146.5 -56.5h-711q-101 0 -167 66.5 t-66 169.5zM303 1667q0 75 72 129l61 45q62 45 118.5 62.5t127.5 17.5q141 0 250 -82l57 -43q72 -54 72 -129q0 -65 -43.5 -106t-108.5 -41q-60 0 -108 39l-123 83l-123 -86q-47 -36 -100 -36q-65 0 -108.5 41t-43.5 106z" />
<glyph unicode="&#xcb;" horiz-adv-x="1331" d="M123 236v962q0 103 66 169.5t167 66.5h691q89 0 145.5 -56t56.5 -145q0 -91 -56.5 -147t-145.5 -56h-455v-137h385q76 0 123 -47.5t47 -122.5t-47 -122.5t-123 -47.5h-385v-150h475q90 0 146.5 -55.5t56.5 -144.5q0 -90 -56.5 -146.5t-146.5 -56.5h-711q-101 0 -167 66.5 t-66 169.5zM223 1720q0 92 61.5 153.5t153.5 61.5t151.5 -59.5t59.5 -151.5t-61.5 -153.5t-153.5 -61.5t-151.5 59.5t-59.5 151.5zM711 1720q0 92 61.5 153.5t153.5 61.5t151.5 -59.5t59.5 -151.5t-61.5 -153.5t-153.5 -61.5t-151.5 59.5t-59.5 151.5z" />
<glyph unicode="&#xcc;" horiz-adv-x="745" d="M82 1751q0 72 48.5 121t119.5 49q73 0 145 -57l78 -64q66 -54 66 -125q0 -66 -43.5 -110.5t-108.5 -44.5q-49 0 -104 28l-97 49q-104 55 -104 154zM133 229v975q0 106 68 173t174 67q103 0 170 -67.5t67 -172.5v-975q0 -105 -67 -172t-170 -67q-106 0 -174 67t-68 172z " />
<glyph unicode="&#xcd;" horiz-adv-x="745" d="M133 229v975q0 106 68 173t174 67q103 0 170 -67.5t67 -172.5v-975q0 -105 -67 -172t-170 -67q-106 0 -174 67t-68 172zM207 1675q0 72 65 125l78 64q72 57 146 57q71 0 119.5 -49t48.5 -121q0 -50 -29 -89.5t-76 -64.5l-96 -49q-55 -28 -105 -28q-64 0 -107.5 44.5 t-43.5 110.5z" />
<glyph unicode="&#xce;" horiz-adv-x="745" d="M-6 1667q0 75 72 129l61 45q62 45 118.5 62.5t127.5 17.5q141 0 250 -82l57 -43q72 -54 72 -129q0 -65 -43.5 -106t-108.5 -41q-60 0 -108 39l-123 83l-123 -86q-47 -36 -101 -36q-65 0 -108 41t-43 106zM133 229v975q0 106 68 173t174 67q103 0 170 -67.5t67 -172.5 v-975q0 -105 -67 -172t-170 -67q-106 0 -174 67t-68 172z" />
<glyph unicode="&#xcf;" horiz-adv-x="745" d="M-84 1720q0 92 61.5 153.5t153.5 61.5t151.5 -59.5t59.5 -151.5t-61.5 -153.5t-153.5 -61.5t-151.5 59.5t-59.5 151.5zM133 229v975q0 106 68 173t174 67q103 0 170 -67.5t67 -172.5v-975q0 -105 -67 -172t-170 -67q-106 0 -174 67t-68 172zM403 1720q0 92 61.5 153.5 t153.5 61.5t151.5 -59.5t59.5 -151.5t-61.5 -153.5t-153.5 -61.5t-151.5 59.5t-59.5 151.5z" />
<glyph unicode="&#xd0;" horiz-adv-x="1644" d="M51 723q0 54 33.5 87.5t87.5 33.5h37v354q0 102 66.5 169t168.5 67h332q172 0 320.5 -53.5t253 -147.5t164 -225.5t59.5 -282.5q0 -201 -105.5 -367.5t-291.5 -262t-414 -95.5h-318q-102 0 -168.5 67t-66.5 169v366h-37q-54 0 -87.5 33.5t-33.5 87.5zM678 408h100 q143 0 234.5 86t91.5 223t-91.5 223t-234.5 86h-100v-182h113q54 0 87 -33.5t33 -87.5t-33 -87.5t-87 -33.5h-113v-194z" />
<glyph unicode="&#xd1;" horiz-adv-x="1617" d="M123 219v924q0 130 86 215.5t219 85.5q81 0 149.5 -39.5t114.5 -112.5l348 -553v478q0 100 64.5 163.5t165.5 63.5q100 0 162.5 -63.5t62.5 -163.5v-943q0 -123 -81.5 -203.5t-205.5 -80.5q-80 0 -148.5 39t-113.5 112l-368 586v-508q0 -101 -63 -165t-163 -64 q-102 0 -165.5 63.5t-63.5 165.5zM434 1630q0 21 4 41q6 34 22 70t43 71.5t70.5 58.5t94.5 23t95 -17.5t68.5 -38.5t51.5 -38.5t49 -17.5q31 0 43 39q23 80 102 80q49 0 77 -32.5t28 -78.5q0 -21 -4 -41q-6 -34 -22 -70t-43 -71.5t-70.5 -58.5t-94.5 -23t-94 17.5 t-67.5 38.5t-52 38.5t-50.5 17.5q-31 0 -43 -39q-23 -79 -102 -79q-49 0 -77 32.5t-28 77.5z" />
<glyph unicode="&#xd2;" horiz-adv-x="1669" d="M72 709q0 153 59.5 290.5t161.5 237.5t245 158.5t304 58.5t301.5 -56t240 -153t156.5 -232t57 -288t-59.5 -290.5t-161.5 -237.5t-245 -158.5t-304 -58.5t-301.5 56t-240 153t-156.5 232t-57 288zM498 1751q0 72 48.5 121t119.5 49q73 0 145 -57l78 -64q65 -53 65 -125 q0 -66 -43.5 -110.5t-107.5 -44.5q-50 0 -105 28l-96 49q-104 55 -104 154zM541 717q0 -132 82 -218.5t211 -86.5q131 0 212.5 86.5t81.5 218.5t-81.5 218.5t-212.5 86.5q-129 0 -211 -86.5t-82 -218.5z" />
<glyph unicode="&#xd3;" horiz-adv-x="1669" d="M72 709q0 153 59.5 290.5t161.5 237.5t245 158.5t304 58.5t301.5 -56t240 -153t156.5 -232t57 -288t-59.5 -290.5t-161.5 -237.5t-245 -158.5t-304 -58.5t-301.5 56t-240 153t-156.5 232t-57 288zM541 717q0 -132 82 -218.5t211 -86.5q131 0 212.5 86.5t81.5 218.5 t-81.5 218.5t-212.5 86.5q-129 0 -211 -86.5t-82 -218.5zM715 1675q0 72 65 125l78 64q72 57 146 57q71 0 119 -49t48 -121q0 -99 -104 -154l-96 -49q-55 -28 -105 -28q-64 0 -107.5 44.5t-43.5 110.5z" />
<glyph unicode="&#xd4;" horiz-adv-x="1669" d="M72 709q0 153 59.5 290.5t161.5 237.5t245 158.5t304 58.5t301.5 -56t240 -153t156.5 -232t57 -288t-59.5 -290.5t-161.5 -237.5t-245 -158.5t-304 -58.5t-301.5 56t-240 153t-156.5 232t-57 288zM457 1667q0 76 71 129l62 45q62 45 118.5 62.5t127.5 17.5q140 0 249 -82 l58 -43q71 -54 71 -129q0 -65 -43 -106t-108 -41q-61 0 -109 39l-123 83l-122 -86q-47 -36 -101 -36q-65 0 -108 41t-43 106zM541 717q0 -132 82 -218.5t211 -86.5q131 0 212.5 86.5t81.5 218.5t-81.5 218.5t-212.5 86.5q-129 0 -211 -86.5t-82 -218.5z" />
<glyph unicode="&#xd5;" horiz-adv-x="1669" d="M72 709q0 153 59.5 290.5t161.5 237.5t245 158.5t304 58.5t301.5 -56t240 -153t156.5 -232t57 -288t-59.5 -290.5t-161.5 -237.5t-245 -158.5t-304 -58.5t-301.5 56t-240 153t-156.5 232t-57 288zM459 1630q0 21 4 41q6 34 22 70t43 71.5t70 58.5t94 23t95 -17.5 t68.5 -38.5t51.5 -38.5t49 -17.5q31 0 43 39q23 80 103 80q49 0 76.5 -32.5t27.5 -78.5q0 -21 -4 -41q-6 -34 -22 -70t-43 -71.5t-70 -58.5t-94 -23t-94 17.5t-67.5 38.5t-52 38.5t-50.5 17.5q-31 0 -43 -39q-23 -79 -103 -79q-49 0 -76.5 32t-27.5 78zM541 717 q0 -132 82 -218.5t211 -86.5q131 0 212.5 86.5t81.5 218.5t-81.5 218.5t-212.5 86.5q-129 0 -211 -86.5t-82 -218.5z" />
<glyph unicode="&#xd6;" horiz-adv-x="1669" d="M72 709q0 153 59.5 290.5t161.5 237.5t245 158.5t304 58.5t301.5 -56t240 -153t156.5 -232t57 -288t-59.5 -290.5t-161.5 -237.5t-245 -158.5t-304 -58.5t-301.5 56t-240 153t-156.5 232t-57 288zM377 1720q0 92 61.5 153.5t153.5 61.5t151.5 -59.5t59.5 -151.5 t-61.5 -153.5t-153.5 -61.5t-151.5 59.5t-59.5 151.5zM541 717q0 -132 82 -218.5t211 -86.5q131 0 212.5 86.5t81.5 218.5t-81.5 218.5t-212.5 86.5q-129 0 -211 -86.5t-82 -218.5zM864 1720q0 92 61.5 153.5t153.5 61.5t151.5 -59.5t59.5 -151.5t-61.5 -153.5t-153.5 -61.5 t-151.5 59.5t-59.5 151.5z" />
<glyph unicode="&#xd7;" d="M102 354q0 71 62 133l235 230l-229 227q-68 65 -68 139q0 73 48.5 120.5t123.5 47.5t138 -63l229 -234l231 238q56 59 138 59q72 0 120 -47.5t48 -120.5q0 -78 -62 -137l-237 -229l243 -234q56 -59 56 -131q0 -76 -46.5 -123t-119.5 -47q-80 0 -140 60l-231 237 l-233 -237q-60 -60 -136 -60q-75 0 -122.5 48t-47.5 124z" />
<glyph unicode="&#xd8;" horiz-adv-x="1669" d="M72 709q0 153 59.5 290.5t161.5 237.5t245 158.5t304 58.5q209 0 385 -92l76 90q27 30 48 41.5t48 11.5q48 0 78 -30.5t30 -79.5q0 -35 -43 -88l-65 -80q198 -208 198 -502q0 -153 -59.5 -290.5t-161.5 -237.5t-245 -158.5t-304 -58.5q-214 0 -387 92l-78 -95 q-43 -49 -92 -49q-47 0 -77.5 31t-30.5 80q0 41 35 82l69 86q-92 98 -143 227.5t-51 274.5zM528 717q0 -87 37 -160l375 461q-47 16 -106 16q-135 0 -220.5 -89.5t-85.5 -227.5zM729 416q53 -17 105 -17q136 0 221.5 90.5t85.5 227.5q0 85 -37 157z" />
<glyph unicode="&#xd9;" horiz-adv-x="1515" d="M102 592v618q0 103 66.5 169.5t169.5 66.5q104 0 172 -66.5t68 -169.5v-596q0 -97 49.5 -149.5t138.5 -52.5q87 0 136.5 52.5t49.5 149.5v594q0 101 66 167.5t166 66.5q101 0 165 -66t64 -168v-602q0 -285 -181.5 -455.5t-481.5 -170.5q-299 0 -473.5 163.5t-174.5 448.5 zM467 1751q0 72 48.5 121t119.5 49q73 0 145 -57l78 -64q66 -54 66 -125q0 -66 -43.5 -110.5t-108.5 -44.5q-49 0 -104 28l-97 49q-104 55 -104 154z" />
<glyph unicode="&#xda;" horiz-adv-x="1515" d="M102 592v618q0 103 66.5 169.5t169.5 66.5q104 0 172 -66.5t68 -169.5v-596q0 -97 49.5 -149.5t138.5 -52.5q87 0 136.5 52.5t49.5 149.5v594q0 101 66 167.5t166 66.5q101 0 165 -66t64 -168v-602q0 -285 -181.5 -455.5t-481.5 -170.5q-299 0 -473.5 163.5t-174.5 448.5 zM614 1675q0 71 66 125l78 64q72 57 145 57q71 0 119.5 -49t48.5 -121q0 -99 -104 -154l-97 -49q-55 -28 -104 -28q-65 0 -108.5 44.5t-43.5 110.5z" />
<glyph unicode="&#xdb;" horiz-adv-x="1515" d="M102 592v618q0 103 66.5 169.5t169.5 66.5q104 0 172 -66.5t68 -169.5v-596q0 -97 49.5 -149.5t138.5 -52.5q87 0 136.5 52.5t49.5 149.5v594q0 101 66 167.5t166 66.5q101 0 165 -66t64 -168v-602q0 -285 -181.5 -455.5t-481.5 -170.5q-299 0 -473.5 163.5t-174.5 448.5 zM393 1667q0 75 72 129l61 45q62 45 118.5 62.5t127.5 17.5q141 0 250 -82l57 -43q72 -54 72 -129q0 -65 -43.5 -106t-108.5 -41q-60 0 -108 39l-123 83l-123 -86q-47 -36 -100 -36q-65 0 -108.5 41t-43.5 106z" />
<glyph unicode="&#xdc;" horiz-adv-x="1515" d="M102 592v618q0 103 66.5 169.5t169.5 66.5q104 0 172 -66.5t68 -169.5v-596q0 -97 49.5 -149.5t138.5 -52.5q87 0 136.5 52.5t49.5 149.5v594q0 101 66 167.5t166 66.5q101 0 165 -66t64 -168v-602q0 -285 -181.5 -455.5t-481.5 -170.5q-299 0 -473.5 163.5t-174.5 448.5 zM311 1720q0 92 61.5 153.5t153.5 61.5t151.5 -59.5t59.5 -151.5t-61.5 -153.5t-153.5 -61.5t-151.5 59.5t-59.5 151.5zM799 1720q0 92 61.5 153.5t153.5 61.5t151.5 -59.5t59.5 -151.5t-61.5 -153.5t-153.5 -61.5t-151.5 59.5t-59.5 151.5z" />
<glyph unicode="&#xdd;" horiz-adv-x="1257" d="M14 1217q0 100 66.5 163.5t169.5 63.5q143 0 205 -127l182 -375l178 363q68 139 201 139q97 0 161 -60.5t64 -158.5q0 -67 -47 -152l-334 -581v-267q0 -102 -66.5 -168.5t-168.5 -66.5q-101 0 -167.5 66t-66.5 169v267l-340 593q-37 60 -37 132zM481 1675q0 71 66 125 l78 64q72 57 145 57q71 0 119.5 -49t48.5 -121q0 -99 -104 -154l-97 -49q-55 -28 -104 -28q-65 0 -108.5 44.5t-43.5 110.5z" />
<glyph unicode="&#xde;" horiz-adv-x="1413" d="M123 225v983q0 103 66 169.5t167 66.5q92 0 157 -56t77 -145h196q254 0 404.5 -137.5t150.5 -364.5q0 -228 -157.5 -372t-411.5 -144h-180q0 -102 -67 -168.5t-169 -66.5q-101 0 -167 66t-66 169zM592 606h139q67 0 104 33t37 94t-37 94t-104 33h-139v-254z" />
<glyph unicode="&#xdf;" horiz-adv-x="1284" d="M82 211v764q0 215 149.5 347t395.5 132q238 0 384 -117t146 -303q0 -164 -106 -264q188 -121 188 -340q0 -129 -66 -233t-177 -160.5t-242 -56.5q-90 0 -144.5 49t-54.5 129q0 119 137 182q105 48 105 121q0 67 -82 110q-67 34 -100 70.5t-33 99.5q0 77 82 150 q51 45 51 106q0 39 -24.5 64.5t-63.5 25.5q-47 0 -75 -27t-28 -77v-772q0 -97 -62 -159t-159 -62q-98 0 -159.5 62t-61.5 159z" />
<glyph unicode="&#xe0;" horiz-adv-x="1185" d="M45 301q0 147 115.5 241.5t300.5 94.5q120 0 209 -31q0 48 -48.5 83.5t-119.5 35.5q-50 0 -111 -17.5t-96 -17.5q-75 0 -121.5 46t-46.5 120q0 90 102 160q116 78 369 78q234 0 374 -133t140 -359v-414q0 -88 -56 -143t-145 -55q-113 0 -170 86q-112 -96 -295 -96 q-186 0 -293.5 87t-107.5 234zM348 1382q0 72 48.5 121t119.5 49q74 0 146 -57l77 -63q66 -54 66 -125q0 -66 -44 -111t-108 -45q-47 0 -104 29l-96 49q-105 55 -105 153zM489 322q0 -36 28 -59t69 -23q37 0 65.5 23.5t28.5 58.5t-28.5 58t-65.5 23q-41 0 -69 -22.5 t-28 -58.5z" />
<glyph unicode="&#xe1;" horiz-adv-x="1185" d="M45 301q0 147 115.5 241.5t300.5 94.5q120 0 209 -31q0 48 -48.5 83.5t-119.5 35.5q-50 0 -111 -17.5t-96 -17.5q-75 0 -121.5 46t-46.5 120q0 90 102 160q116 78 369 78q234 0 374 -133t140 -359v-414q0 -88 -56 -143t-145 -55q-113 0 -170 86q-112 -96 -295 -96 q-186 0 -293.5 87t-107.5 234zM442 1307q0 71 66 125l78 63q72 57 145 57q71 0 119.5 -49t48.5 -121q0 -98 -104 -153l-97 -49q-57 -29 -104 -29q-64 0 -108 45t-44 111zM489 322q0 -36 28 -59t69 -23q37 0 65.5 23.5t28.5 58.5t-28.5 58t-65.5 23q-41 0 -69 -22.5 t-28 -58.5z" />
<glyph unicode="&#xe2;" horiz-adv-x="1185" d="M45 301q0 147 115.5 241.5t300.5 94.5q120 0 209 -31q0 48 -48.5 83.5t-119.5 35.5q-50 0 -111 -17.5t-96 -17.5q-75 0 -121.5 46t-46.5 120q0 90 102 160q116 78 369 78q234 0 374 -133t140 -359v-414q0 -88 -56 -143t-145 -55q-113 0 -170 86q-112 -96 -295 -96 q-186 0 -293.5 87t-107.5 234zM238 1298q0 76 71 129l62 46q62 45 117.5 62t127.5 17q141 0 250 -82l58 -43q71 -54 71 -129q0 -65 -43 -106t-108 -41q-61 0 -109 39l-123 84l-123 -86q-48 -37 -100 -37q-65 0 -108 41t-43 106zM489 322q0 -36 28 -59t69 -23q37 0 65.5 23.5 t28.5 58.5t-28.5 58t-65.5 23q-41 0 -69 -22.5t-28 -58.5z" />
<glyph unicode="&#xe3;" horiz-adv-x="1185" d="M45 301q0 147 115.5 241.5t300.5 94.5q120 0 209 -31q0 48 -48.5 83.5t-119.5 35.5q-50 0 -111 -17.5t-96 -17.5q-75 0 -121.5 46t-46.5 120q0 90 102 160q116 78 369 78q234 0 374 -133t140 -359v-414q0 -88 -56 -143t-145 -55q-113 0 -170 86q-112 -96 -295 -96 q-186 0 -293.5 87t-107.5 234zM266 1262q0 21 4 41q6 34 22 70t43 71.5t70.5 58.5t94.5 23q42 0 78 -11.5t60.5 -28t45.5 -33.5t41.5 -28.5t38.5 -11.5q31 0 43 39q23 80 102 80q49 0 77 -32.5t28 -78.5q0 -21 -4 -41q-6 -34 -22 -70t-43 -71.5t-70.5 -58.5t-94.5 -23 t-94 17.5t-67.5 39t-52 39t-50.5 17.5q-31 0 -43 -39q-23 -80 -102 -80q-49 0 -77 32.5t-28 78.5zM489 322q0 -36 28 -59t69 -23q37 0 65.5 23.5t28.5 58.5t-28.5 58t-65.5 23q-41 0 -69 -22.5t-28 -58.5z" />
<glyph unicode="&#xe4;" horiz-adv-x="1185" d="M45 301q0 147 115.5 241.5t300.5 94.5q120 0 209 -31q0 48 -48.5 83.5t-119.5 35.5q-50 0 -111 -17.5t-96 -17.5q-75 0 -121.5 46t-46.5 120q0 90 102 160q116 78 369 78q234 0 374 -133t140 -359v-414q0 -88 -56 -143t-145 -55q-113 0 -170 86q-112 -96 -295 -96 q-186 0 -293.5 87t-107.5 234zM162 1350q0 92 61.5 153.5t153.5 61.5t151.5 -59.5t59.5 -151.5t-61.5 -153.5t-153.5 -61.5t-151.5 59.5t-59.5 151.5zM489 322q0 -36 28 -59t69 -23q37 0 65.5 23.5t28.5 58.5t-28.5 58t-65.5 23q-41 0 -69 -22.5t-28 -58.5zM649 1350 q0 92 61.5 153.5t153.5 61.5t151.5 -59.5t59.5 -151.5t-61.5 -153.5t-153.5 -61.5t-151.5 59.5t-59.5 151.5z" />
<glyph unicode="&#xe5;" horiz-adv-x="1185" d="M45 301q0 147 115.5 241.5t300.5 94.5q120 0 209 -31q0 48 -48.5 83.5t-119.5 35.5q-50 0 -111 -17.5t-96 -17.5q-75 0 -121.5 46t-46.5 120q0 90 102 160q116 78 369 78q234 0 374 -133t140 -359v-414q0 -88 -56 -143t-145 -55q-113 0 -170 86q-112 -96 -295 -96 q-186 0 -293.5 87t-107.5 234zM387 1360q0 94 63 155.5t164 61.5t164.5 -61.5t63.5 -155.5q0 -96 -63.5 -157.5t-164.5 -61.5t-164 61.5t-63 157.5zM489 322q0 -36 28 -59t69 -23q37 0 65.5 23.5t28.5 58.5t-28.5 58t-65.5 23q-41 0 -69 -22.5t-28 -58.5zM539 1360 q0 -31 20.5 -53.5t54.5 -22.5t53 22.5t19 53.5t-19 51.5t-53 20.5t-54.5 -21t-20.5 -51z" />
<glyph unicode="&#xe6;" horiz-adv-x="1843" d="M45 301q0 147 115.5 241.5t300.5 94.5q120 0 209 -31q0 48 -48.5 83.5t-119.5 35.5q-50 0 -111 -17.5t-96 -17.5q-75 0 -121.5 46t-46.5 120q0 90 102 160q116 78 369 78q188 0 330 -107q162 107 332 107q115 0 218 -42.5t174.5 -111.5t113.5 -157.5t42 -180.5 q0 -74 -47 -115t-125 -41h-526q19 -41 69 -70.5t117 -29.5q59 0 123 23.5t109 23.5q76 0 127 -47t51 -121q0 -62 -37 -110.5t-101 -77t-143 -43t-168 -14.5q-205 0 -362 129q-144 -129 -385 -129q-219 0 -342 86.5t-123 234.5zM489 322q0 -36 28 -59t69 -23q37 0 65.5 23.5 t28.5 58.5t-28.5 58t-65.5 23q-41 0 -69 -22.5t-28 -58.5zM1116 664h277q-5 51 -43 86.5t-95 35.5t-95 -35.5t-44 -86.5z" />
<glyph unicode="&#xe7;" horiz-adv-x="1071" d="M51 528q0 155 78 284.5t216.5 205.5t307.5 76q159 0 262 -60q52 -31 87.5 -79.5t35.5 -106.5q0 -91 -57 -149t-147 -58q-42 0 -93 22.5t-94 22.5q-67 0 -110 -43.5t-43 -105.5q0 -63 43 -107.5t110 -44.5q41 0 91 24.5t102 24.5q89 0 144.5 -56.5t55.5 -146.5 q0 -48 -27.5 -92.5t-68.5 -75.5q-65 -45 -162 -67q13 -37 13 -78q0 -96 -53 -170t-133.5 -110.5t-170.5 -36.5q-80 0 -141 22q-43 16 -71.5 49t-28.5 78q0 59 36.5 96t92.5 37q20 0 39.5 -2t25.5 -2q45 0 74 21t29 63q0 22 -13 35q-194 44 -312 189t-118 341z" />
<glyph unicode="&#xe8;" horiz-adv-x="1226" d="M51 528q0 155 76.5 284.5t212 205.5t301.5 76q115 0 218.5 -42.5t175 -111.5t113.5 -157.5t42 -180.5q0 -74 -47 -115t-125 -41h-526q19 -41 69 -70.5t117 -29.5q59 0 122.5 23.5t108.5 23.5q76 0 127 -47t51 -121q0 -62 -37 -110.5t-101 -77t-142.5 -43t-167.5 -14.5 q-169 0 -304 71.5t-209.5 196.5t-74.5 280zM385 1382q0 72 48.5 121t119.5 49q73 0 145 -57l78 -63q66 -54 66 -125q0 -66 -44 -111t-108 -45q-47 0 -104 29l-97 49q-104 55 -104 153zM498 664h276q-5 51 -42.5 86.5t-94.5 35.5t-95 -35.5t-44 -86.5z" />
<glyph unicode="&#xe9;" horiz-adv-x="1226" d="M51 528q0 155 76.5 284.5t212 205.5t301.5 76q115 0 218.5 -42.5t175 -111.5t113.5 -157.5t42 -180.5q0 -74 -47 -115t-125 -41h-526q19 -41 69 -70.5t117 -29.5q59 0 122.5 23.5t108.5 23.5q76 0 127 -47t51 -121q0 -62 -37 -110.5t-101 -77t-142.5 -43t-167.5 -14.5 q-169 0 -304 71.5t-209.5 196.5t-74.5 280zM498 664h276q-5 51 -42.5 86.5t-94.5 35.5t-95 -35.5t-44 -86.5zM532 1307q0 71 66 125l78 63q72 57 145 57q71 0 119.5 -49t48.5 -121q0 -98 -104 -153l-97 -49q-57 -29 -104 -29q-64 0 -108 45t-44 111z" />
<glyph unicode="&#xea;" horiz-adv-x="1226" d="M51 528q0 155 76.5 284.5t212 205.5t301.5 76q115 0 218.5 -42.5t175 -111.5t113.5 -157.5t42 -180.5q0 -74 -47 -115t-125 -41h-526q19 -41 69 -70.5t117 -29.5q59 0 122.5 23.5t108.5 23.5q76 0 127 -47t51 -121q0 -62 -37 -110.5t-101 -77t-142.5 -43t-167.5 -14.5 q-169 0 -304 71.5t-209.5 196.5t-74.5 280zM256 1298q0 75 72 129l61 46q62 45 118 62t128 17q141 0 250 -82l57 -43q72 -54 72 -129q0 -65 -43.5 -106t-108.5 -41q-60 0 -108 39l-123 84l-123 -86q-48 -37 -100 -37q-65 0 -108.5 41t-43.5 106zM498 664h276 q-5 51 -42.5 86.5t-94.5 35.5t-95 -35.5t-44 -86.5z" />
<glyph unicode="&#xeb;" horiz-adv-x="1226" d="M51 528q0 155 76.5 284.5t212 205.5t301.5 76q115 0 218.5 -42.5t175 -111.5t113.5 -157.5t42 -180.5q0 -74 -47 -115t-125 -41h-526q19 -41 69 -70.5t117 -29.5q59 0 122.5 23.5t108.5 23.5q76 0 127 -47t51 -121q0 -62 -37 -110.5t-101 -77t-142.5 -43t-167.5 -14.5 q-169 0 -304 71.5t-209.5 196.5t-74.5 280zM176 1350q0 92 61.5 153.5t153.5 61.5t151.5 -59.5t59.5 -151.5t-61.5 -153.5t-153.5 -61.5t-151.5 59.5t-59.5 151.5zM498 664h276q-5 51 -42.5 86.5t-94.5 35.5t-95 -35.5t-44 -86.5zM664 1350q0 92 61.5 153.5t153.5 61.5 t151.5 -59.5t59.5 -151.5t-62 -153.5t-154 -61.5t-151 59.5t-59 151.5z" />
<glyph unicode="&#xec;" horiz-adv-x="630" d="M29 1382q0 72 48.5 121t119.5 49q73 0 145 -57l78 -63q65 -53 65 -125q0 -66 -43.5 -111t-107.5 -45q-48 0 -105 29l-96 49q-104 55 -104 153zM92 215v643q0 98 62.5 161.5t160.5 63.5q97 0 160.5 -63.5t63.5 -161.5v-643q0 -98 -63.5 -161.5t-160.5 -63.5 q-98 0 -160.5 63.5t-62.5 161.5z" />
<glyph unicode="&#xed;" horiz-adv-x="630" d="M92 215v643q0 98 62.5 161.5t160.5 63.5q97 0 160.5 -63.5t63.5 -161.5v-643q0 -98 -63.5 -161.5t-160.5 -63.5q-98 0 -160.5 63.5t-62.5 161.5zM158 1307q0 72 65 125l78 63q72 57 145 57q71 0 119.5 -49t48.5 -121q0 -98 -104 -153l-96 -49q-57 -29 -105 -29 q-64 0 -107.5 45t-43.5 111z" />
<glyph unicode="&#xee;" horiz-adv-x="630" d="M-63 1298q0 76 71 129l62 46q62 45 117.5 62t127.5 17q141 0 250 -82l58 -43q71 -54 71 -129q0 -65 -43 -106t-108 -41q-61 0 -109 39l-123 84l-123 -86q-48 -37 -100 -37q-65 0 -108 41t-43 106zM92 215v643q0 98 62.5 161.5t160.5 63.5q97 0 160.5 -63.5t63.5 -161.5 v-643q0 -98 -63.5 -161.5t-160.5 -63.5q-98 0 -160.5 63.5t-62.5 161.5z" />
<glyph unicode="&#xef;" horiz-adv-x="630" d="M-141 1350q0 92 61.5 153.5t153.5 61.5t151.5 -59.5t59.5 -151.5t-61.5 -153.5t-153.5 -61.5t-151.5 59.5t-59.5 151.5zM92 215v643q0 98 62.5 161.5t160.5 63.5q97 0 160.5 -63.5t63.5 -161.5v-643q0 -98 -63.5 -161.5t-160.5 -63.5q-98 0 -160.5 63.5t-62.5 161.5z M346 1350q0 92 61.5 153.5t153.5 61.5t151.5 -59.5t59.5 -151.5t-61.5 -153.5t-153.5 -61.5t-151.5 59.5t-59.5 151.5z" />
<glyph unicode="&#xf0;" horiz-adv-x="1292" d="M51 535q0 104 43 197t112.5 156.5t160 100.5t184.5 37l45 -6l-76 92l-141 -31q-28 -8 -51 -8q-46 0 -75.5 29.5t-29.5 75.5q0 82 88 102l95 20q-3 15 -3 27q0 87 55 141t140 54q104 0 180 -109l19 -24l207 47q40 8 63 8q44 0 73 -29.5t29 -73.5q0 -86 -84 -104l-153 -35 l155 -215q154 -211 154 -446q0 -121 -51 -227.5t-135.5 -178.5t-193 -113.5t-222.5 -41.5q-121 0 -227.5 37t-187 106t-127 175.5t-46.5 236.5zM494 541q0 -65 43 -110.5t110 -45.5q66 0 109 46t43 110q0 66 -43 111.5t-109 45.5q-68 0 -110.5 -45.5t-42.5 -111.5z" />
<glyph unicode="&#xf1;" horiz-adv-x="1261" d="M82 211v663q0 91 58 150t149 59q73 0 126 -39.5t72 -105.5q53 74 137.5 115t176.5 41q172 0 279.5 -109t107.5 -285v-489q0 -97 -61.5 -159t-159.5 -62q-97 0 -159.5 62t-62.5 159v346q0 129 -112 129q-50 0 -79.5 -31t-29.5 -86v-358q0 -97 -62 -159t-159 -62 q-98 0 -159.5 62t-61.5 159zM256 1262q0 21 4 41q6 34 22 70t43 71.5t70 58.5t94 23t95 -17.5t68.5 -39t52 -39t49.5 -17.5q31 0 43 39q23 80 102 80q49 0 77 -32.5t28 -78.5q0 -16 -5 -41q-6 -34 -22 -70t-43 -71.5t-70 -58.5t-94 -23t-94 17.5t-67.5 39t-52 39t-50.5 17.5 q-31 0 -43 -39q-23 -80 -103 -80q-49 0 -76.5 32.5t-27.5 78.5z" />
<glyph unicode="&#xf2;" horiz-adv-x="1292" d="M51 528q0 155 78 284.5t216.5 205.5t307.5 76q256 0 422 -157.5t166 -393.5q0 -116 -46 -220t-125.5 -179.5t-191.5 -119.5t-239 -44q-169 0 -304 71.5t-209.5 196.5t-74.5 280zM360 1382q0 72 48.5 121t119.5 49q74 0 146 -57l78 -63q65 -53 65 -125q0 -66 -43.5 -111 t-107.5 -45q-48 0 -105 29l-96 49q-105 55 -105 153zM494 537q0 -63 43 -107.5t110 -44.5q66 0 109 44.5t43 107.5q0 61 -43 105t-109 44q-67 0 -110 -43.5t-43 -105.5z" />
<glyph unicode="&#xf3;" horiz-adv-x="1292" d="M51 528q0 155 78 284.5t216.5 205.5t307.5 76q256 0 422 -157.5t166 -393.5q0 -116 -46 -220t-125.5 -179.5t-191.5 -119.5t-239 -44q-169 0 -304 71.5t-209.5 196.5t-74.5 280zM475 1307q0 71 66 125l77 63q72 57 146 57q71 0 119.5 -49t48.5 -121q0 -98 -105 -153 l-96 -49q-57 -29 -104 -29q-64 0 -108 45t-44 111zM494 537q0 -63 43 -107.5t110 -44.5q66 0 109 44.5t43 107.5q0 61 -43 105t-109 44q-67 0 -110 -43.5t-43 -105.5z" />
<glyph unicode="&#xf4;" horiz-adv-x="1292" d="M51 528q0 155 78 284.5t216.5 205.5t307.5 76q256 0 422 -157.5t166 -393.5q0 -116 -46 -220t-125.5 -179.5t-191.5 -119.5t-239 -44q-169 0 -304 71.5t-209.5 196.5t-74.5 280zM268 1298q0 75 72 129l61 46q62 45 118 62t128 17q141 0 250 -82l57 -43q72 -54 72 -129 q0 -65 -43.5 -106t-108.5 -41q-60 0 -108 39l-123 84l-123 -86q-48 -37 -100 -37q-65 0 -108.5 41t-43.5 106zM494 537q0 -63 43 -107.5t110 -44.5q66 0 109 44.5t43 107.5q0 61 -43 105t-109 44q-67 0 -110 -43.5t-43 -105.5z" />
<glyph unicode="&#xf5;" horiz-adv-x="1292" d="M51 528q0 155 78 284.5t216.5 205.5t307.5 76q256 0 422 -157.5t166 -393.5q0 -116 -46 -220t-125.5 -179.5t-191.5 -119.5t-239 -44q-169 0 -304 71.5t-209.5 196.5t-74.5 280zM270 1262q0 21 4 41q6 34 22 70t43 71.5t70.5 58.5t94.5 23q42 0 78 -11.5t60.5 -28 t45.5 -33.5t41.5 -28.5t38.5 -11.5q31 0 43 39q23 80 102 80q49 0 77 -32.5t28 -78.5q0 -21 -4 -41q-6 -34 -22 -70t-43 -71.5t-70.5 -58.5t-94.5 -23t-94 17.5t-67.5 39t-52 39t-50.5 17.5q-31 0 -43 -39q-23 -80 -102 -80q-49 0 -77 32.5t-28 78.5zM494 537 q0 -63 43 -107.5t110 -44.5q66 0 109 44.5t43 107.5q0 61 -43 105t-109 44q-67 0 -110 -43.5t-43 -105.5z" />
<glyph unicode="&#xf6;" horiz-adv-x="1292" d="M51 528q0 155 78 284.5t216.5 205.5t307.5 76q256 0 422 -157.5t166 -393.5q0 -116 -46 -220t-125.5 -179.5t-191.5 -119.5t-239 -44q-169 0 -304 71.5t-209.5 196.5t-74.5 280zM188 1350q0 92 61.5 153.5t153.5 61.5t151.5 -59.5t59.5 -151.5t-61.5 -153.5t-153.5 -61.5 t-151.5 59.5t-59.5 151.5zM494 537q0 -63 43 -107.5t110 -44.5q66 0 109 44.5t43 107.5q0 61 -43 105t-109 44q-67 0 -110 -43.5t-43 -105.5zM676 1350q0 92 61.5 153.5t153.5 61.5t151.5 -59.5t59.5 -151.5t-61.5 -153.5t-153.5 -61.5t-151.5 59.5t-59.5 151.5z" />
<glyph unicode="&#xf7;" d="M92 725q0 82 50.5 133t133.5 51h730q82 0 132 -51t50 -133q0 -80 -50.5 -132t-131.5 -52h-730q-82 0 -133 52t-51 132zM403 268q0 99 69.5 168.5t168.5 69.5q98 0 167 -70t69 -168t-69 -167.5t-167 -69.5q-99 0 -168.5 69.5t-69.5 167.5zM403 1184q0 98 69 166.5 t169 68.5q98 0 167 -68.5t69 -166.5q0 -100 -69 -169t-167 -69q-100 0 -169 69t-69 169z" />
<glyph unicode="&#xf8;" horiz-adv-x="1292" d="M51 528q0 155 78 284.5t216.5 205.5t307.5 76q127 0 254 -45l35 49q34 47 86 47q43 0 71.5 -29.5t28.5 -73.5q0 -38 -30 -81l-19 -27q162 -156 162 -391q0 -116 -46 -220t-125.5 -179.5t-191.5 -119.5t-239 -44q-144 0 -254 45l-31 -43q-38 -54 -88 -54q-44 0 -74 29.5 t-30 73.5q0 33 33 80l20 28q-78 72 -121 173t-43 216zM455 537q0 -37 12 -72l186 260h-6q-85 0 -138.5 -54t-53.5 -134zM635 342h12q83 0 137 57.5t54 137.5q0 26 -15 69z" />
<glyph unicode="&#xf9;" horiz-adv-x="1263" d="M74 373v489q0 97 61.5 159t159.5 62q97 0 159 -62t62 -159v-346q0 -129 113 -129q50 0 79 31t29 86v358q0 97 62 159t159 62q98 0 160 -62t62 -159v-663q0 -91 -58 -150t-149 -59q-73 0 -126.5 39.5t-72.5 105.5q-53 -74 -137 -114.5t-176 -40.5q-172 0 -279.5 108.5 t-107.5 284.5zM317 1382q0 72 48.5 121t119.5 49q74 0 146 -57l78 -63q65 -53 65 -125q0 -66 -43.5 -111t-107.5 -45q-48 0 -105 29l-96 49q-105 55 -105 153z" />
<glyph unicode="&#xfa;" horiz-adv-x="1263" d="M74 373v489q0 97 61.5 159t159.5 62q97 0 159 -62t62 -159v-346q0 -129 113 -129q50 0 79 31t29 86v358q0 97 62 159t159 62q98 0 160 -62t62 -159v-663q0 -91 -58 -150t-149 -59q-73 0 -126.5 39.5t-72.5 105.5q-53 -74 -137 -114.5t-176 -40.5q-172 0 -279.5 108.5 t-107.5 284.5zM479 1307q0 71 66 125l78 63q72 57 145 57q71 0 119.5 -49t48.5 -121q0 -98 -105 -153l-96 -49q-57 -29 -104 -29q-64 0 -108 45t-44 111z" />
<glyph unicode="&#xfb;" horiz-adv-x="1263" d="M74 373v489q0 97 61.5 159t159.5 62q97 0 159 -62t62 -159v-346q0 -129 113 -129q50 0 79 31t29 86v358q0 97 62 159t159 62q98 0 160 -62t62 -159v-663q0 -91 -58 -150t-149 -59q-73 0 -126.5 39.5t-72.5 105.5q-53 -74 -137 -114.5t-176 -40.5q-172 0 -279.5 108.5 t-107.5 284.5zM254 1298q0 75 72 129l61 46q62 45 118 62t128 17q141 0 250 -82l57 -43q72 -54 72 -129q0 -65 -43.5 -106t-108.5 -41q-60 0 -108 39l-123 84l-123 -86q-48 -37 -100 -37q-65 0 -108.5 41t-43.5 106z" />
<glyph unicode="&#xfc;" horiz-adv-x="1263" d="M74 373v489q0 97 61.5 159t159.5 62q97 0 159 -62t62 -159v-346q0 -129 113 -129q50 0 79 31t29 86v358q0 97 62 159t159 62q98 0 160 -62t62 -159v-663q0 -91 -58 -150t-149 -59q-73 0 -126.5 39.5t-72.5 105.5q-53 -74 -137 -114.5t-176 -40.5q-172 0 -279.5 108.5 t-107.5 284.5zM174 1350q0 92 61.5 153.5t153.5 61.5t151.5 -59.5t59.5 -151.5t-61.5 -153.5t-153.5 -61.5t-151.5 59.5t-59.5 151.5zM662 1350q0 92 61.5 153.5t153.5 61.5t151 -59.5t59 -151.5t-61.5 -153.5t-153.5 -61.5t-151 59.5t-59 151.5z" />
<glyph unicode="&#xfd;" horiz-adv-x="1112" d="M-6 -125q0 84 51.5 134t132.5 50q24 0 61.5 -7t51.5 -7l31 2l-279 692q-29 74 -29 119q0 100 64.5 162.5t165.5 62.5q82 0 137.5 -48.5t79.5 -135.5l102 -385l109 406q21 78 77.5 120.5t131.5 42.5q95 0 156 -60t61 -151q0 -43 -29 -120l-313 -762 q-73 -177 -176.5 -257.5t-278.5 -80.5q-78 0 -147 25.5t-114.5 77.5t-45.5 120zM391 1307q0 71 66 125l78 63q72 57 145 57q71 0 119.5 -49t48.5 -121q0 -98 -105 -153l-96 -49q-57 -29 -104 -29q-64 0 -108 45t-44 111z" />
<glyph unicode="&#xfe;" horiz-adv-x="1312" d="M82 -117v1340q0 97 61.5 159t159.5 62q97 0 159 -62t62 -159v-205q113 76 238 76q100 0 192 -42.5t159.5 -115t108 -175.5t40.5 -218t-42 -219.5t-111.5 -179.5t-164 -119.5t-196.5 -44.5q-129 0 -224 59v-156q0 -97 -62 -159t-159 -62q-98 0 -159.5 62t-61.5 159z M514 537q0 -63 43 -107.5t109 -44.5t109.5 44.5t43.5 107.5q0 61 -43.5 105t-109.5 44t-109 -44t-43 -105z" />
<glyph unicode="&#xff;" horiz-adv-x="1112" d="M-6 -125q0 84 51.5 134t132.5 50q24 0 61.5 -7t51.5 -7l31 2l-279 692q-29 74 -29 119q0 100 64.5 162.5t165.5 62.5q82 0 137.5 -48.5t79.5 -135.5l102 -385l109 406q21 78 77.5 120.5t131.5 42.5q95 0 156 -60t61 -151q0 -43 -29 -120l-313 -762 q-73 -177 -176.5 -257.5t-278.5 -80.5q-78 0 -147 25.5t-114.5 77.5t-45.5 120zM106 1350q0 92 62 153.5t154 61.5t151 -59.5t59 -151.5t-61.5 -153.5t-153.5 -61.5t-151.5 59.5t-59.5 151.5zM594 1350q0 92 61.5 153.5t153.5 61.5t151.5 -59.5t59.5 -151.5t-61.5 -153.5 t-153.5 -61.5t-151.5 59.5t-59.5 151.5z" />
<glyph unicode="&#x152;" horiz-adv-x="2134" d="M72 709q0 151 62 285t169 230.5t258 153t322 56.5h964q89 0 146 -56t57 -145q0 -90 -56.5 -146.5t-146.5 -56.5h-454v-137h385q76 0 123 -47.5t47 -122.5t-47 -122.5t-123 -47.5h-385v-150h475q90 0 146.5 -55.5t56.5 -144.5q0 -90 -56.5 -146.5t-146.5 -56.5h-1000 q-229 0 -411 91.5t-283.5 253.5t-101.5 364zM541 717q0 -138 90 -223.5t233 -85.5h60v618h-60q-143 0 -233 -85.5t-90 -223.5z" />
<glyph unicode="&#x153;" horiz-adv-x="1972" d="M51 528q0 155 78 284.5t216.5 205.5t307.5 76q210 0 369 -125q159 125 352 125q115 0 218.5 -42.5t175 -111.5t113.5 -157.5t42 -180.5q0 -74 -47 -115t-125 -41h-526q19 -41 69 -70.5t117 -29.5q59 0 122.5 23.5t108.5 23.5q76 0 127.5 -47t51.5 -121q0 -62 -37 -110.5 t-101 -77t-142 -43t-167 -14.5q-203 0 -364 124q-161 -124 -371 -124q-169 0 -304 71.5t-209.5 196.5t-74.5 280zM494 537q0 -63 43 -107.5t110 -44.5q66 0 109 44.5t43 107.5q0 61 -43 105t-109 44q-67 0 -110 -43.5t-43 -105.5zM1231 664h276q-5 51 -42.5 86.5t-94.5 35.5 t-95 -35.5t-44 -86.5z" />
<glyph unicode="&#x178;" horiz-adv-x="1257" d="M14 1217q0 100 64.5 163.5t167.5 63.5q131 0 200 -117l191 -385l190 387q30 52 82 83.5t115 31.5q96 0 156.5 -60t60.5 -159q0 -67 -33 -125l-348 -608v-267q0 -102 -66.5 -168.5t-168.5 -66.5q-101 0 -167.5 66t-66.5 169v267l-340 593q-37 60 -37 132zM180 1720 q0 92 61.5 153.5t153.5 61.5t151.5 -59.5t59.5 -151.5t-61.5 -153.5t-153.5 -61.5t-151.5 59.5t-59.5 151.5zM668 1720q0 92 61.5 153.5t153.5 61.5t151.5 -59.5t59.5 -151.5t-61.5 -153.5t-153.5 -61.5t-151.5 59.5t-59.5 151.5z" />
<glyph unicode="&#x2c6;" horiz-adv-x="1085" d="M164 1298q0 75 72 129l61 46q62 45 118 62t128 17q141 0 250 -82l57 -43q72 -54 72 -129q0 -65 -43.5 -106t-108.5 -41q-60 0 -108 39l-123 84l-123 -86q-48 -37 -101 -37q-65 0 -108 41t-43 106z" />
<glyph unicode="&#x2dc;" horiz-adv-x="956" d="M104 1262q0 16 5 41q6 34 22 70t43 71.5t70 58.5t94 23q42 0 78 -11.5t60.5 -28t45.5 -33.5t41.5 -28.5t38.5 -11.5q31 0 43 39q23 80 103 80q49 0 76.5 -32.5t27.5 -78.5q0 -21 -4 -41q-6 -34 -22 -70t-43 -71.5t-70.5 -58.5t-94.5 -23t-94 17.5t-67.5 39t-52 39 t-50.5 17.5q-31 0 -43 -39q-23 -80 -102 -80q-49 0 -77 32.5t-28 78.5z" />
<glyph unicode="&#x2000;" horiz-adv-x="973" />
<glyph unicode="&#x2001;" horiz-adv-x="1946" />
<glyph unicode="&#x2002;" horiz-adv-x="973" />
<glyph unicode="&#x2003;" horiz-adv-x="1946" />
<glyph unicode="&#x2004;" horiz-adv-x="648" />
<glyph unicode="&#x2005;" horiz-adv-x="486" />
<glyph unicode="&#x2006;" horiz-adv-x="324" />
<glyph unicode="&#x2007;" horiz-adv-x="324" />
<glyph unicode="&#x2008;" horiz-adv-x="243" />
<glyph unicode="&#x2009;" horiz-adv-x="389" />
<glyph unicode="&#x200a;" horiz-adv-x="108" />
<glyph unicode="&#x2010;" horiz-adv-x="860" d="M92 725q0 88 55.5 143.5t141.5 55.5h282q86 0 141.5 -55.5t55.5 -143.5q0 -86 -55.5 -141.5t-141.5 -55.5h-282q-86 0 -141.5 55.5t-55.5 141.5z" />
<glyph unicode="&#x2011;" horiz-adv-x="860" d="M92 725q0 88 55.5 143.5t141.5 55.5h282q86 0 141.5 -55.5t55.5 -143.5q0 -86 -55.5 -141.5t-141.5 -55.5h-282q-86 0 -141.5 55.5t-55.5 141.5z" />
<glyph unicode="&#x2012;" horiz-adv-x="860" d="M92 725q0 88 55.5 143.5t141.5 55.5h282q86 0 141.5 -55.5t55.5 -143.5q0 -86 -55.5 -141.5t-141.5 -55.5h-282q-86 0 -141.5 55.5t-55.5 141.5z" />
<glyph unicode="&#x2013;" horiz-adv-x="1167" d="M92 725q0 88 55.5 143.5t141.5 55.5h590q86 0 141 -55.5t55 -143.5q0 -86 -55 -141.5t-141 -55.5h-590q-86 0 -141.5 55.5t-55.5 141.5z" />
<glyph unicode="&#x2014;" horiz-adv-x="1843" d="M92 725q0 88 55.5 143.5t141.5 55.5h1265q86 0 141.5 -55.5t55.5 -143.5q0 -86 -55.5 -141.5t-141.5 -55.5h-1265q-86 0 -141.5 55.5t-55.5 141.5z" />
<glyph unicode="&#x2018;" horiz-adv-x="694" d="M139 897q0 17 5.5 46.5t16.5 72.5t21 79.5t27 96.5t27 96q19 71 66 113.5t112 42.5q83 0 132.5 -48t49.5 -130q0 -54 -31 -369q-9 -95 -66.5 -154t-146.5 -59q-95 0 -154 59t-59 154z" />
<glyph unicode="&#x2019;" horiz-adv-x="694" d="M98 862q0 54 31 369q9 95 66.5 154t146.5 59q95 0 154 -59t59 -154q0 -17 -5 -46t-16.5 -73t-21 -79t-27 -97.5t-26.5 -95.5q-19 -71 -66 -113.5t-112 -42.5q-83 0 -133 48t-50 130z" />
<glyph unicode="&#x201a;" horiz-adv-x="694" d="M98 -98q0 53 31 368q9 95 66.5 154t146.5 59q95 0 154 -59t59 -154q0 -17 -5 -46t-16.5 -73t-21 -79t-27 -97.5t-26.5 -95.5q-19 -71 -66 -113t-112 -42q-83 0 -133 48t-50 130z" />
<glyph unicode="&#x201c;" horiz-adv-x="1269" d="M139 897q0 17 5.5 46.5t16.5 72.5t21 79.5t27 96.5t27 96q19 71 66 113.5t112 42.5q83 0 132.5 -48t49.5 -130q0 -54 -31 -369q-9 -95 -66.5 -154t-146.5 -59q-95 0 -154 59t-59 154zM715 897q0 17 5 46t16.5 73t21 79t27 97.5t26.5 95.5q19 71 66 113.5t112 42.5 q83 0 132.5 -48t49.5 -130q0 -64 -30 -369q-9 -95 -66.5 -154t-146.5 -59q-95 0 -154 59t-59 154z" />
<glyph unicode="&#x201d;" horiz-adv-x="1269" d="M98 862q0 54 31 369q9 95 66.5 154t146.5 59q95 0 154 -59t59 -154q0 -17 -5 -46t-16.5 -73t-21 -79t-27 -97.5t-26.5 -95.5q-19 -71 -66 -113.5t-112 -42.5q-83 0 -133 48t-50 130zM674 862q0 54 31 369q9 95 66.5 154t146.5 59q95 0 153.5 -59t58.5 -154q0 -17 -5 -46 t-16.5 -73t-21 -79t-27 -97.5t-26.5 -95.5q-19 -71 -66 -113.5t-112 -42.5q-83 0 -132.5 48t-49.5 130z" />
<glyph unicode="&#x201e;" horiz-adv-x="1269" d="M98 -98q0 53 31 368q9 95 66.5 154t146.5 59q95 0 154 -59t59 -154q0 -17 -5 -46t-16.5 -73t-21 -79t-27 -97.5t-26.5 -95.5q-19 -71 -66 -113t-112 -42q-83 0 -133 48t-50 130zM674 -98q0 53 31 368q9 95 66.5 154t146.5 59q95 0 153.5 -59t58.5 -154q0 -17 -5 -46 t-16.5 -73t-21 -79t-27 -97.5t-26.5 -95.5q-19 -71 -66 -113t-112 -42q-83 0 -132.5 48t-49.5 130z" />
<glyph unicode="&#x2022;" horiz-adv-x="980" d="M96 715q0 167 114.5 281t283.5 114q168 0 279.5 -111.5t111.5 -279.5q0 -167 -114.5 -281t-281.5 -114q-169 0 -281 111t-112 280z" />
<glyph unicode="&#x202f;" horiz-adv-x="389" />
<glyph unicode="&#x2039;" horiz-adv-x="874" d="M94 717q0 37 18 72.5t44 58.5l338 336q54 51 122 51q72 0 118 -45.5t46 -118.5q0 -65 -41 -113l-192 -237l170 -211q63 -74 63 -137q0 -73 -47 -119.5t-121 -46.5q-73 0 -131 55l-325 324q-26 23 -44 58.5t-18 72.5z" />
<glyph unicode="&#x203a;" horiz-adv-x="874" d="M94 371q0 64 41 112l193 238l-170 211q-64 76 -64 137q0 73 47 119.5t121 46.5q73 0 131 -55l326 -324q26 -23 43.5 -58.5t17.5 -72.5t-17.5 -72.5t-43.5 -58.5l-338 -336q-54 -51 -123 -51q-72 0 -118 45.5t-46 118.5z" />
<glyph unicode="&#x205f;" horiz-adv-x="486" />
<glyph unicode="&#x20ac;" horiz-adv-x="1267" d="M41 580q0 49 29 76.5t77 27.5h58v66h-58q-48 0 -77 27.5t-29 76.5q0 47 29.5 77t76.5 30h58q8 215 167 354t406 139q191 0 344 -111q41 -29 65.5 -74.5t24.5 -92.5q0 -79 -51.5 -132t-130.5 -53q-59 0 -135 40t-137 40q-53 0 -88 -33.5t-35 -76.5h354q47 0 77 -30t30 -77 q0 -49 -29.5 -76.5t-77.5 -27.5h-354v-66h313q48 0 77.5 -27.5t29.5 -76.5q0 -47 -30 -77t-77 -30h-313q0 -45 36 -78t87 -33q47 0 85.5 13.5t61.5 30t57 30t72 13.5q76 0 127 -51t51 -128q0 -93 -79 -168q-46 -46 -136.5 -84t-232.5 -38q-253 0 -405 137.5t-154 355.5h-58 q-47 0 -76.5 30t-29.5 77z" />
<glyph unicode="&#x2122;" horiz-adv-x="1640" d="M86 1329q0 46 31 75.5t78 29.5h380q46 0 76.5 -29.5t30.5 -75.5q0 -49 -30 -78.5t-77 -29.5h-71v-324q0 -54 -32.5 -86.5t-86.5 -32.5t-86.5 32.5t-32.5 86.5v324h-71q-48 0 -78.5 29.5t-30.5 78.5zM752 893v401q0 67 41 108.5t106 41.5q82 0 137 -94l113 -203l119 209 q49 88 137 88q62 0 99.5 -40t37.5 -106v-403q0 -54 -30 -85.5t-82 -31.5q-53 0 -85 31.5t-32 85.5v178l-58 -102q-45 -78 -110 -78q-38 0 -62 19.5t-47 58.5l-61 108v-186q0 -53 -30 -84t-81 -31q-52 0 -82 31t-30 84z" />
<glyph unicode="&#x25fc;" horiz-adv-x="1085" d="M0 0v1085h1085v-1085h-1085z" />
<glyph unicode="&#xfb01;" horiz-adv-x="1562" d="M31 836q0 79 50 125.5t130 46.5h4v61q0 178 103.5 281.5t285.5 103.5q130 0 201 -31q119 -50 119 -161q0 -73 -46.5 -113.5t-123.5 -40.5q-44 0 -70.5 -19t-26.5 -57v-24h66q79 0 128.5 -46.5t49.5 -125.5q0 -80 -49.5 -127t-128.5 -47h-66v-451q0 -97 -61.5 -159 t-159.5 -62t-159.5 62t-61.5 159v451h-4q-81 0 -130.5 46.5t-49.5 127.5zM995 1354q0 105 70 172t182 67t182 -67t70 -172t-70 -172.5t-182 -67.5t-182 67.5t-70 172.5zM1024 215v633q0 98 62.5 161.5t160.5 63.5q97 0 160 -63.5t63 -161.5v-633q0 -98 -63 -161.5 t-160 -63.5q-98 0 -160.5 63.5t-62.5 161.5z" />
<glyph unicode="&#xfb02;" horiz-adv-x="1562" d="M31 836q0 79 50 125.5t130 46.5h4v61q0 178 103.5 281.5t285.5 103.5q130 0 201 -31q119 -50 119 -161q0 -73 -46.5 -113.5t-123.5 -40.5q-44 0 -70.5 -19t-26.5 -57v-24h66q79 0 128.5 -46.5t49.5 -125.5q0 -80 -49.5 -127t-128.5 -47h-66v-451q0 -97 -61.5 -159 t-159.5 -62t-159.5 62t-61.5 159v451h-4q-81 0 -130.5 46.5t-49.5 127.5zM1024 215v1006q0 97 62.5 160t160.5 63q97 0 160 -63t63 -160v-1006q0 -98 -63 -161.5t-160 -63.5q-98 0 -160.5 63.5t-62.5 161.5z" />
</font>
</defs>
</svg>
