<svg xmlns="http://www.w3.org/2000/svg" viewBox="0 -17.1 141.7 141.7"><path fill="#FC3" d="M6.3 78c-.5 0-1.1.2-1.5.6-.5.5-.6 1-.6 1.5v27.5h22.3V80.1c0-.5-.2-1.1-.5-1.5-.5-.5-1-.6-1.6-.6H6.3z"/><path fill="#FFA733" d="M33.6 67.4c-.5 0-1 .2-1.4.6-.3.3-.6 1-.6 1.5v38H54v-38c0-.5-.2-1.1-.6-1.5-.3-.5-1-.6-1.5-.6H33.6z"/><path fill="#FC3" d="M61 71.7c-.5 0-1.1.2-1.4.6-.5.5-.6 1-.6 1.5v33.7h22.5V73.8c0-.5-.3-1-.6-1.5-.5-.5-1-.6-1.5-.6H61z"/><path fill="#FFA733" d="M88.5 54.7c-.6 0-1.1.2-1.6.5-.3.5-.5 1-.5 1.6v50.7h22.3V56.8c0-.6-.2-1.1-.6-1.6-.3-.3-.8-.5-1.5-.5H88.5z"/><path fill="#FC3" d="M115.8 33.4c-.5 0-1 .2-1.4.5-.5.5-.6 1-.6 1.6v72.1h22.5V35.4c0-.6-.2-1.1-.6-1.6-.5-.3-1-.5-1.5-.5h-18.4v.1z"/><path fill="#F5F5F5" d="M141.6 2.1c.3-.5.2-1.1-.2-1.6-.3-.5-1-.6-1.5-.5l-22.5 6.6c-.3 0-.8.5-1 .8-.2.5 0 1 .3 1.3l2.7 3.5-56.3 44.3-31.6-15.9L.6 64.1c-.3.3-.6.8-.6 1.5 0 .4.2 1.1.6 1.4l2.9 3.1c.3.3.8.6 1.5.6.5 0 1.1-.2 1.4-.6l26.8-19.7 31.1 15.7 60.3-47.3 2.7 3.5c.2.3.6.5 1.1.5s1-.3 1.1-.6l12.1-20.1z"/></svg>