<svg xmlns="http://www.w3.org/2000/svg" viewBox="0 0 447.9 392"><path d="M384.3 304.6c-4.6.2-9.1 1.2-13.3 2.8l-38.7-35.8-26.8 29.6 38.8 35.8c-4.2 15.7.7 32.7 12.8 43.7 8.6 7.8 19.8 11.8 31.4 11.3 6.5-.3 12.9-2.1 18.7-5.2.9-.5 1.4-1.3 1.6-2.3.1-1-.2-1.9-1-2.6l-28.4-25.8c-2.1-1.9-3.3-4.5-3.5-7.3-.1-2.8.8-5.5 2.7-7.6 3.8-4.2 10.7-4.5 14.9-.7l28.4 25.8c.7.7 1.7.9 2.7.7 1-.2 1.7-.9 2.1-1.8 7.1-17.1 2.8-36.9-10.9-49.3-8.7-7.8-19.9-11.8-31.5-11.3zM45.6 87.4c4.6-.2 9-1.1 13.3-2.7l26.9 24.6 26.9-29.4-26.9-24.7c4.3-15.7-.6-32.7-12.6-43.8C64.6 3.6 53.4-.5 41.8 0c-6.5.3-13 2-18.7 5.1-.9.5-1.4 1.3-1.6 2.3-.1 1 .2 1.9 1 2.6l28.3 25.9c2.1 1.9 3.3 4.5 3.4 7.3.1 2.8-.9 5.5-2.8 7.6-3.8 4.2-10.8 4.5-14.9.7L8.3 25.6c-.7-.7-1.7-.9-2.7-.7-1 .2-1.7.9-2.1 1.8C-3.7 43.7.6 63.6 14.2 76c8.6 7.8 19.7 11.9 31.4 11.4zm67.5 186.1c-2.3-2.6-6.4-3-9.2-.9l-93.8 78c-2.8 2.1-3.1 6-.8 8.5l18.9 21.2c2.3 2.6 6.2 2.7 8.6.2l86.6-86c2.4-2.5 2.5-6.6.2-9.2l-10.5-11.8zM391.5 75.2s4.5 4.4 8.5 2.7c4.5-2 16.2 11 19.9 14h.1l-2.3 2c-3 2.6-3.3 7.2-.6 10.2 2.7 3 7.2 3.3 10.2.6l18.1-16.1c3-2.7 3.3-7.3.6-10.3-2.7-3-7.2-3.3-10.2-.6l-3 2.7c-2.2-3.4-5.8-9.1-5.2-10.9 2.6-7.9-12.7-27.8-12.7-27.8-38.3-43-65.4-43.7-78.6-40-5.3 1.5-4.4 2.7.9 3.9 38.8 9.1 42.3 32.5 35.1 41-2.8 3.3.7 7.7.7 7.7l1.3 1.5-70 62.3c.9.6 1.7 1.3 2.4 2.1l10.5 11.8c.7.8 1.3 1.7 1.8 2.6l70-62.3 2.5 2.9zm0 0" fill="#963"/><circle cx="214.9" cy="179.2" r="163.4" fill="#963"/><path d="M124.7 208.3c0-64.5 40.4-106.3 90.2-106.3 49.8 0 90.2 41.9 90.2 106.3H124.7z" fill="#FC3"/><path d="M166 115.2v93.1h28V102.7c-10.1 2.5-19.5 6.8-28 12.5zm69.8-12.5v105.6h28v-93.1c-8.5-5.7-17.9-10-28-12.5z" fill="#F90"/><path d="M304.9 221.4h-180c-3.4 0-6.2-2.9-6.2-6.6 0-3.6 2.8-6.6 6.2-6.6h180c3.4 0 6.2 2.9 6.2 6.6 0 3.7-2.8 6.6-6.2 6.6z" fill="#F90"/><path d="M124.7 221.4s19.3 25.8 90.2 25.8c66.7 0 90.2-25.8 90.2-25.8H124.7z" fill="#FC3"/></svg>