<svg xmlns="http://www.w3.org/2000/svg" viewBox="0 0 800 800"><style>.st0{fill:#f5f5f5}.st1{fill:#fff}.st2{fill:#fc3}.st3{fill:#ffa733}.st4{fill:#f66}</style><g id="objects"><ellipse class="st0" cx="402.7" cy="348.1" rx="260.1" ry="259.2"/><path class="st1" d="M313 126.9S55.7 232.7 210.1 498.6l25.7-14.3c0-.1-122.9-185.9 77.2-357.4z"/><path class="st2" d="M226 539.6v19.7l355.1 1.9 1.2-21.7z"/><path class="st3" d="M588.2 587.2H217.1c-6.6 0-12-5.4-12-12v-4.6c0-6.6 5.4-12 12-12h371.1c6.6 0 12 5.4 12 12v4.6c0 6.6-5.4 12-12 12z"/><path class="st2" d="M216.5 587.2s2.5 25.4-15.9 36.8l405.9 1.3s-14.6 0-17.8-38.1H216.5z"/><path class="st2" d="M603.6 685.7H201.7c-12.1 0-22-9.9-22-22V646c0-12.1 9.9-22 22-22h401.9c12.1 0 22 9.9 22 22v17.6c0 12.2-9.9 22.1-22 22.1z"/><path class="st2" d="M193.6 627.2s-5.1 2.2-6 4.8l431 2.2s-3.2-7-12.4-7.3l-412.6.3zM213.1 562.4s-4.6 2.2-5.5 4.8l389.7 2.2s-2.9-7-11.2-7.3l-373 .3z"/><g><circle class="st4" cx="184.4" cy="648.9" r="5.1"/><circle class="st4" cx="194.7" cy="657.4" r="5.1"/><circle class="st4" cx="206" cy="662.4" r="5.1"/><circle class="st4" cx="219" cy="666.1" r="5.1"/><circle class="st4" cx="232.7" cy="662.9" r="5.1"/><circle class="st4" cx="245.3" cy="658" r="5.1"/><circle class="st4" cx="255.8" cy="649.7" r="5.1"/><circle class="st4" cx="262.2" cy="639.4" r="5.1"/><g><circle class="st4" cx="273.6" cy="648.5" r="5.1"/><circle class="st4" cx="283.9" cy="657" r="5.1"/><circle class="st4" cx="295.2" cy="662" r="5.1"/><circle class="st4" cx="308.2" cy="665.7" r="5.1"/><circle class="st4" cx="321.9" cy="662.5" r="5.1"/><circle class="st4" cx="334.5" cy="657.6" r="5.1"/><circle class="st4" cx="345" cy="649.3" r="5.1"/><circle class="st4" cx="351.4" cy="639" r="5.1"/><circle class="st4" cx="360" cy="648.2" r="5.1"/><circle class="st4" cx="370.4" cy="656.7" r="5.1"/><circle class="st4" cx="381.7" cy="661.7" r="5.1"/><circle class="st4" cx="394.7" cy="665.4" r="5.1"/></g><g><circle class="st4" cx="408.3" cy="662.2" r="5.1"/><circle class="st4" cx="420.9" cy="657.3" r="5.1"/><circle class="st4" cx="431.5" cy="649" r="5.1"/><circle class="st4" cx="437.9" cy="638.7" r="5.1"/></g><g><circle class="st4" cx="449.2" cy="647.8" r="5.1"/><circle class="st4" cx="459.5" cy="656.3" r="5.1"/><circle class="st4" cx="470.8" cy="661.3" r="5.1"/><circle class="st4" cx="483.9" cy="665" r="5.1"/><circle class="st4" cx="497.5" cy="661.8" r="5.1"/><circle class="st4" cx="510.1" cy="656.9" r="5.1"/><circle class="st4" cx="520.7" cy="648.6" r="5.1"/><circle class="st4" cx="527.1" cy="638.3" r="5.1"/><circle class="st4" cx="535.7" cy="647.5" r="5.1"/><circle class="st4" cx="546" cy="656" r="5.1"/><circle class="st4" cx="557.3" cy="661" r="5.1"/><circle class="st4" cx="570.3" cy="664.7" r="5.1"/></g><g><circle class="st4" cx="584.2" cy="661.4" r="5.1"/><circle class="st4" cx="596.8" cy="656.5" r="5.1"/><circle class="st4" cx="607.4" cy="648.2" r="5.1"/><circle class="st4" cx="613.8" cy="637.9" r="5.1"/></g></g><g><path class="st2" d="M393.4 357.5V204c-75.2 5-134.8 67.4-134.8 144 0 79.8 64.7 144.4 144.4 144.4 76.5 0 139-59.5 144-134.8H393.4z"/><path class="st3" d="M418.2 338.3h119.2c-3.3-46.2-29.9-85.9-68.1-107.6l-51.1 107.6z"/><path class="st4" d="M412.6 213.4v91.8l39.4-82.9c-12.6-5-25.8-7.9-39.4-8.9z"/></g></g><g id="Sparkles"><path class="st1" d="M274.6 99.6c-10.6-3.5-15.2-12.3-17.2-19-.5-1.5-2.6-1.5-3 0-2 6.7-6.6 15.5-17.2 19-1.5.5-1.5 2.5 0 3 10.6 3.5 15.2 12.3 17.2 19 .5 1.5 2.6 1.5 3 0 2-6.7 6.6-15.5 17.2-19 1.4-.5 1.4-2.5 0-3zM697.4 186.5c-10.6-3.5-15.2-12.3-17.2-19-.5-1.5-2.6-1.5-3 0-2 6.7-6.6 15.5-17.2 19-1.5.5-1.5 2.5 0 3 10.6 3.5 15.2 12.3 17.2 19 .5 1.5 2.6 1.5 3 0 2-6.7 6.6-15.5 17.2-19 1.5-.5 1.5-2.5 0-3zM122.9 311.2c-10.6-3.5-15.2-12.3-17.2-19-.5-1.5-2.6-1.5-3 0-2 6.7-6.6 15.5-17.2 19-1.5.5-1.5 2.5 0 3 10.6 3.5 15.2 12.3 17.2 19 .5 1.5 2.6 1.5 3 0 2-6.7 6.6-15.5 17.2-19 1.4-.5 1.4-2.5 0-3zM443.3 64.9c-6.7-2.2-9.6-7.8-10.8-12-.3-1-1.6-1-1.9 0-1.3 4.2-4.2 9.8-10.8 12-.9.3-.9 1.6 0 1.9 6.7 2.2 9.6 7.8 10.8 12 .3 1 1.6 1 1.9 0 1.3-4.2 4.2-9.8 10.8-12 .9-.3.9-1.6 0-1.9zM587.3 105.8c-6.7-2.2-9.6-7.8-10.8-12-.3-1-1.6-1-1.9 0-1.3 4.2-4.2 9.8-10.8 12-.9.3-.9 1.6 0 1.9 6.7 2.2 9.6 7.8 10.8 12 .3 1 1.6 1 1.9 0 1.3-4.2 4.2-9.8 10.8-12 .9-.3.9-1.6 0-1.9zM159.7 125.9c-6.7-2.2-9.6-7.8-10.8-12-.3-1-1.6-1-1.9 0-1.3 4.2-4.2 9.8-10.8 12-.9.3-.9 1.6 0 1.9 6.7 2.2 9.6 7.8 10.8 12 .3 1 1.6 1 1.9 0 1.3-4.2 4.2-9.8 10.8-12 .9-.3.9-1.6 0-1.9zM690.5 263.3c-6.7-2.2-9.6-7.8-10.8-12-.3-1-1.6-1-1.9 0-1.3 4.2-4.2 9.8-10.8 12-.9.3-.9 1.6 0 1.9 6.7 2.2 9.6 7.8 10.8 12 .3 1 1.6 1 1.9 0 1.3-4.2 4.2-9.8 10.8-12 .9-.3.9-1.6 0-1.9zM333.7 46.9c-6.7-2.2-9.6-7.8-10.8-12-.3-1-1.6-1-1.9 0-1.3 4.2-4.2 9.8-10.8 12-.9.3-.9 1.6 0 1.9 6.7 2.2 9.6 7.8 10.8 12 .3 1 1.6 1 1.9 0 1.3-4.2 4.2-9.8 10.8-12 .9-.3.9-1.6 0-1.9z"/><circle class="st1" cx="483.9" cy="42.1" r="7.9"/><circle class="st1" cx="160.7" cy="221.3" r="7.9"/><circle class="st1" cx="678.7" cy="356.7" r="7.9"/></g></svg>