<svg id="Layer_1" xmlns="http://www.w3.org/2000/svg" viewBox="329 -202.2 800 800"><style>.st0{fill:#f5f5f5}.st1{fill:#fff}.st2{fill:#fc3}.st3{fill:#ffa733}.st4{fill:#f66}</style><g id="objects"><ellipse class="st0" cx="743" cy="183.3" rx="319.4" ry="318.3"/><path class="st1" d="M632.8-88.3S316.9 41.6 506.5 368.1l31.6-17.6c0-.1-150.9-228.2 94.7-438.8z"/><path class="st2" d="M526 418.5v24.2l436 2.3 1.5-26.7z"/><path class="st3" d="M970.7 476.9H515.1c-8.1 0-14.7-6.6-14.7-14.7v-5.6c0-8.1 6.6-14.7 14.7-14.7h455.7c8.1 0 14.7 6.6 14.7 14.7v5.6c0 8.1-6.7 14.7-14.8 14.7z"/><path class="st2" d="M514.4 476.9s3.1 31.2-19.5 45.2l498.4 1.6s-17.9 0-21.9-46.8h-457z"/><path class="st2" d="M989.7 597.8H496.2c-14.9 0-27-12.2-27-27v-21.7c0-14.9 12.2-27 27-27h493.5c14.9 0 27 12.2 27 27v21.6c0 15-12.2 27.1-27 27.1z"/><path class="st2" d="M486.2 526s-6.3 2.7-7.4 5.9l529.2 2.7s-3.9-8.6-15.2-9l-506.6.4zM510.2 446.5s-5.6 2.7-6.8 5.9l478.5 2.7s-3.6-8.6-13.8-9l-457.9.4z"/><g><circle class="st4" cx="474.9" cy="552.7" r="6.3"/><circle class="st4" cx="487.6" cy="563.1" r="6.3"/><circle class="st4" cx="501.5" cy="569.2" r="6.3"/><circle class="st4" cx="517.4" cy="573.8" r="6.3"/><circle class="st4" cx="534.2" cy="569.9" r="6.3"/><circle class="st4" cx="549.7" cy="563.8" r="6.3"/><circle class="st4" cx="562.6" cy="553.6" r="6.3"/><circle class="st4" cx="570.5" cy="541" r="6.3"/><g><circle class="st4" cx="584.5" cy="552.2" r="6.3"/><circle class="st4" cx="597.1" cy="562.6" r="6.3"/><circle class="st4" cx="611" cy="568.8" r="6.3"/><circle class="st4" cx="626.9" cy="573.3" r="6.3"/><circle class="st4" cx="643.8" cy="569.4" r="6.3"/><circle class="st4" cx="659.2" cy="563.3" r="6.3"/><circle class="st4" cx="672.1" cy="553.2" r="6.3"/><circle class="st4" cx="680" cy="540.5" r="6.3"/><circle class="st4" cx="690.6" cy="551.8" r="6.3"/><circle class="st4" cx="703.3" cy="562.2" r="6.3"/><circle class="st4" cx="717.2" cy="568.4" r="6.3"/><circle class="st4" cx="733.2" cy="572.9" r="6.3"/></g><g><circle class="st4" cx="749.9" cy="569" r="6.3"/><circle class="st4" cx="765.3" cy="563" r="6.3"/><circle class="st4" cx="778.3" cy="552.8" r="6.3"/><circle class="st4" cx="786.2" cy="540.1" r="6.3"/></g><g><circle class="st4" cx="800.1" cy="551.3" r="6.3"/><circle class="st4" cx="812.7" cy="561.8" r="6.3"/><circle class="st4" cx="826.6" cy="567.9" r="6.3"/><circle class="st4" cx="842.7" cy="572.4" r="6.3"/><circle class="st4" cx="859.4" cy="568.5" r="6.3"/><circle class="st4" cx="874.8" cy="562.5" r="6.3"/><circle class="st4" cx="887.9" cy="552.3" r="6.3"/><circle class="st4" cx="895.7" cy="539.7" r="6.3"/><circle class="st4" cx="906.3" cy="550.9" r="6.3"/><circle class="st4" cx="918.9" cy="561.4" r="6.3"/><circle class="st4" cx="932.8" cy="567.5" r="6.3"/><circle class="st4" cx="948.8" cy="572.1" r="6.3"/></g><g><circle class="st4" cx="965.8" cy="568" r="6.3"/><circle class="st4" cx="981.3" cy="562" r="6.3"/><circle class="st4" cx="994.3" cy="551.8" r="6.3"/><circle class="st4" cx="1002.2" cy="539.2" r="6.3"/></g></g><g><path class="st2" d="M731.6 194.9V6.4C639.2 12.5 566 89.2 566 183.2c0 98 79.4 177.3 177.3 177.3 93.9 0 170.7-73.1 176.8-165.5H731.6v-.1z"/><path class="st3" d="M762 171.3h146.4c-4.1-56.7-36.7-105.5-83.6-132.1L762 171.3z"/><path class="st4" d="M755.1 17.9v112.7l48.4-101.8c-15.5-6.1-31.7-9.6-48.4-10.9z"/></g></g><g id="Sparkles"><path class="st1" d="M585.7-121.8c-13-4.3-18.7-15.1-21.1-23.3-.6-1.8-3.2-1.8-3.7 0-2.5 8.2-8.1 19-21.1 23.3-1.8.6-1.8 3.1 0 3.7 13 4.3 18.7 15.1 21.1 23.3.6 1.8 3.2 1.8 3.7 0 2.5-8.2 8.1-19 21.1-23.3 1.7-.6 1.7-3.1 0-3.7zM1104.8-15.1c-13-4.3-18.7-15.1-21.1-23.3-.6-1.8-3.2-1.8-3.7 0-2.5 8.2-8.1 19-21.1 23.3-1.8.6-1.8 3.1 0 3.7 13 4.3 18.7 15.1 21.1 23.3.6 1.8 3.2 1.8 3.7 0 2.5-8.2 8.1-19 21.1-23.3 1.9-.6 1.9-3.1 0-3.7zM399.4 138c-13-4.3-18.7-15.1-21.1-23.3-.6-1.8-3.2-1.8-3.7 0-2.5 8.2-8.1 19-21.1 23.3-1.8.6-1.8 3.1 0 3.7 13 4.3 18.7 15.1 21.1 23.3.6 1.8 3.2 1.8 3.7 0 2.5-8.2 8.1-19 21.1-23.3 1.7-.6 1.7-3.1 0-3.7zM792.8-164.4c-8.2-2.7-11.8-9.6-13.3-14.7-.4-1.2-2-1.2-2.3 0-1.6 5.2-5.2 12-13.3 14.7-1.1.4-1.1 2 0 2.3 8.2 2.7 11.8 9.6 13.3 14.7.4 1.2 2 1.2 2.3 0 1.6-5.2 5.2-12 13.3-14.7 1.1-.3 1.1-1.9 0-2.3zM969.6-114.2c-8.2-2.7-11.8-9.6-13.3-14.7-.4-1.2-2-1.2-2.3 0-1.6 5.2-5.2 12-13.3 14.7-1.1.4-1.1 2 0 2.3 8.2 2.7 11.8 9.6 13.3 14.7.4 1.2 2 1.2 2.3 0 1.6-5.2 5.2-12 13.3-14.7 1.1-.3 1.1-1.9 0-2.3zM444.6-89.5c-8.2-2.7-11.8-9.6-13.3-14.7-.4-1.2-2-1.2-2.3 0-1.6 5.2-5.2 12-13.3 14.7-1.1.4-1.1 2 0 2.3 8.2 2.7 11.8 9.6 13.3 14.7.4 1.2 2 1.2 2.3 0 1.6-5.2 5.2-12 13.3-14.7 1.1-.3 1.1-1.9 0-2.3zM1096.4 79.2c-8.2-2.7-11.8-9.6-13.3-14.7-.4-1.2-2-1.2-2.3 0-1.6 5.2-5.2 12-13.3 14.7-1.1.4-1.1 2 0 2.3 8.2 2.7 11.8 9.6 13.3 14.7.4 1.2 2 1.2 2.3 0 1.6-5.2 5.2-12 13.3-14.7 1.1-.3 1.1-1.9 0-2.3zM658.3-186.5c-8.2-2.7-11.8-9.6-13.3-14.7-.4-1.2-2-1.2-2.3 0-1.6 5.2-5.2 12-13.3 14.7-1.1.4-1.1 2 0 2.3 8.2 2.7 11.8 9.6 13.3 14.7.4 1.2 2 1.2 2.3 0 1.6-5.2 5.2-12 13.3-14.7 1.1-.3 1.1-1.9 0-2.3z"/><circle class="st1" cx="842.7" cy="-192.4" r="9.7"/><circle class="st1" cx="445.8" cy="27.6" r="9.7"/><circle class="st1" cx="1081.9" cy="193.9" r="9.7"/></g></svg>