<svg xmlns="http://www.w3.org/2000/svg" viewBox="0 -17.1 141.7 141.7"><g fill-rule="evenodd" clip-rule="evenodd"><path fill="#FFF" d="M1.5-13.2H106l-.1 106.1H1.4l.1-106.1z"/><path fill="#FFA733" d="M14.6 21.5h9v8.2h-9z"/><path fill="#FC3" d="M25 18h9v11.7h-9z"/><path fill="#FFA733" d="M35.4 9.7h9v20h-9z"/><path fill="#FC3" d="M54.865 29.727l-9-.006.01-17.2 9 .006z"/><path fill="#FFA733" d="M65.333 29.735l-9-.005.004-8.6 9 .005z"/><path fill="#FC3" d="M75.469 29.764l-9-.005.007-11.9 9 .005z"/><path fill="#FFA733" d="M85.937 29.724l-9-.006.01-17.2 9 .006z"/><path fill="#FC3" d="M87.3 1.1h9.1v28.6h-9.1z"/><path fill="#CCC" d="M50.156 44.449l-39.1-.021.001-2.6 39.1.02zM50.15 49.052l-39.2-.021v-2.6l39.2.021zM50.145 53.557l-39.1-.022.001-2.6 39.1.022zM50.14 58.16l-39.1-.022.002-2.6 39.1.022zM50.134 62.665l-39.1-.021.002-2.6 39.1.021zM50.13 67.269l-39.1-.022v-2.6l39.1.022zM50.123 71.774l-39.2-.021.002-2.6 39.2.021zM30.546 76.362l-19.6-.011.001-2.6 19.6.01zM96.266 44.5l-39.1-.02.001-2.6 39.1.02zM96.26 49.104l-39.2-.022.001-2.6 39.2.022zM96.255 53.608l-39.1-.02.002-2.6 39.1.02zM96.251 58.112l-39.1-.022.002-2.6 39.1.022zM96.346 62.717l-39.1-.023.001-2.6 39.1.023zM96.34 67.221l-39.1-.022.001-2.6 39.1.022zM96.334 71.825l-39.2-.021.001-2.6 39.2.02zM84.738 76.32l-27.6-.015.001-2.6 27.6.015z"/></g><path opacity=".1" fill="#FFF" d="M60.4 42.4c-4.2 4.2-6.5 9.8-6.5 15.7 0 12.3 9.9 22.2 22.2 22.3 5.9 0 11.5-2.3 15.8-6.5 4.2-4.2 6.5-9.8 6.5-15.7 0-5.9-2.3-11.5-6.5-15.7-4.2-4.2-9.8-6.5-15.7-6.5-6-.2-11.6 2.1-15.8 6.4z"/><path fill="#CACDCF" d="M90.3 75.1c.2-.2.5-.4.7-.6-.2.2-.4.4-.7.6zM91.1 74.4c.2-.2.5-.4.7-.7-.2.3-.5.5-.7.7z"/><path opacity=".8" fill="#FFF" d="M60.4 42.4c3.8-3.8 8.6-6 13.9-6.4-1 .1-2 .2-3 .5-2.4 1.1-4.6 2.6-6.6 4.6-4.2 4.2-6.5 9.8-6.5 15.7 0 12.3 9.9 22.2 22.2 22.3 1.7 0 3.3-.2 4.9-.5 1.8-.8 3.5-1.9 5.1-3.2-4 3.3-9 5.1-14.2 5.1-12.3 0-22.2-10-22.2-22.3-.1-6.1 2.2-11.7 6.4-15.8z"/><path fill="#CACDCF" d="M74.3 35.9h.5-.5zM74.9 35.9h.5c-.2-.1-.3 0-.5 0zM75.5 35.8h.6-.6z"/><g><path fill="#339DA7" d="M103.4 85.6c-1.5 1.5-3.9 1.5-5.4 0l-4.8-4.9c-1.5-1.5-1.5-3.9 0-5.4 1.5-1.5 3.9-1.5 5.4 0l4.8 4.9c1.5 1.5 1.5 3.9 0 5.4z"/></g><path fill="#54B9CC" d="M46.2 58c0 16.5 13.3 29.9 29.8 29.9 8 0 15.5-3.1 21.2-8.8 5.6-5.6 8.7-13.1 8.7-21 0-8-3.1-15.5-8.7-21.1-5.6-5.7-13.1-8.8-21.1-8.8-8 0-15.5 3.1-21.2 8.8-5.6 5.6-8.7 13.1-8.7 21zm7.7 0c0-5.9 2.3-11.5 6.5-15.7 4.2-4.2 9.8-6.5 15.7-6.5 5.9 0 11.5 2.3 15.7 6.5 4.2 4.2 6.5 9.8 6.5 15.7 0 5.9-2.3 11.5-6.5 15.7C87.6 78 82 80.3 76 80.3c-12.2 0-22.2-10-22.1-22.3z"/><path fill="#339DA7" d="M140.014 111.314l-10.89 10.89-34.011-34.012 10.889-10.89z"/><path fill="#54B9CC" d="M137.75 113.576l-6.364 6.364L97.375 85.93l6.364-6.364z"/><path fill="#339DA7" d="M139.99 111.29l-10.89 10.89-5.232-5.233 10.89-10.89z"/><path fill="#33B1B6" d="M137.727 113.558l-6.364 6.363-5.232-5.232 6.363-6.364z"/><g><path opacity=".8" fill="#FFF" d="M86.2 42.3c-5.3-2.6-11.3-3-16.9-1.1-1.9.7-3.7 1.6-5.4 2.7l1.6 4.4c1.9-1.5 4-2.6 6.4-3.4 5.6-1.9 11.6-1.5 16.9 1.1 2.5 1.2 4.6 2.9 6.5 4.8-2.1-3.7-5.3-6.6-9.1-8.5z"/></g></svg>