<svg xmlns="http://www.w3.org/2000/svg" viewBox="0 -17.1 141.7 141.7"><path fill="#D3D3D3" d="M52 75.4h37.9v36.4H52z"/><path fill="#3D3D3D" d="M142.1-3c0-5.9-4.4-10.7-9.9-10.7H9.8C4.3-13.7-.1-8.9-.1-3v69.9h142.2V-3z"/><path fill="#FFF" d="M9.8 88.2h122.4c5.5 0 9.9-4.8 9.9-10.7V66.8H-.1v10.7c0 5.9 4.4 10.7 9.9 10.7z"/><ellipse fill="#E7E7E7" cx="71" cy="-10.6" rx="1.3" ry="1.4"/><path fill="#FFF" d="M39.4 111.8h63.2v9.1H39.4z"/><ellipse fill="#F66" cx="125.9" cy="77.5" rx="2.6" ry="2.9"/><path fill="#FC3" d="M73.8-6.5H5.5v67.9h131V-6.5z"/><path fill="#FFA733" d="M5.5 61.4h131V-6.5z" opacity=".4"/><path fill-rule="evenodd" clip-rule="evenodd" fill="#FFF" d="M31.2 1.6h79.5v56.2H31.2z"/><path fill-rule="evenodd" clip-rule="evenodd" fill="#F66" d="M31.2 1.6h79.5V6H31.2z"/><g><g fill-rule="evenodd" clip-rule="evenodd"><path fill="#F66" d="M48.6 50.8h48.5V52H48.6z"/><path fill="#FFA733" d="M88.4 24.8H97v26h-8.6zM78.5 34.6h8.6v16.2h-8.6zM68.5 40.1h8.6v10.7h-8.6zM58.5 35.1h8.6v15.7h-8.6zM48.6 39.6h8.6v11.2h-8.6z"/></g><circle fill-rule="evenodd" clip-rule="evenodd" fill="#FFA733" cx="43.5" cy="38.4" r="2.3"/><path fill-rule="evenodd" clip-rule="evenodd" fill="#FFA733" d="M100.8 12.8l-6.1.1 2.1 2.8 2.1 2.9z"/><path fill="#F66" d="M45.5 36L63 23l.6-.4.4.5 8.3 9.8 23.2-17.2.5.6.4.5-23.8 17.7-.6.4-.4-.5-8.3-9.8-16.9 12.5c-.2-.4-.5-.8-.9-1.1z"/></g></svg>