<svg xmlns="http://www.w3.org/2000/svg" viewBox="155 -33.1 906 906"><path clip-path="url(#SVGID_2_)" fill="#FC3" d="M105.5-73.1h1007v1007h-1007z"/><g clip-path="url(#SVGID_4_)"><path fill="#D2D2D2" d="M911.979 708.619l-496.953 25.063-32.23-639.069 496.953-25.062z"/><path fill="#E6E6E6" d="M906.633 720.26L411.023 764.5l-56.893-637.34 495.61-44.242z"/><path fill="#F5F5F5" d="M906.407 710.52l-490.683 82.553-106.16-631.006 490.684-82.552z"/><path fill="#963" d="M767.562 207.894l-384.086 64.618-8.56-50.883 384.086-64.618z"/><circle fill="#F66" cx="473.2" cy="487.5" r="47"/><path fill="#FFF" d="M468.7 512.8c-2.4.4-4.9-.2-6.9-1.8l-15-12.2c-3.7-3-4.3-8.4-1.3-12.1 3-3.7 8.4-4.3 12.1-1.3l8.5 6.9 19.9-23.4c3.1-3.6 8.5-4.1 12.2-1 3.6 3.1 4.1 8.5 1 12.2l-25.3 29.8c-1.4 1.6-3.2 2.6-5.2 2.9z"/><path fill="#963" d="M787.507 423.726L554.295 462.96l-2.174-12.918 233.213-39.235zM725.099 468.963L559.927 496.75l-2.173-12.918 165.171-27.788z"/><g><circle fill="#F66" cx="452.9" cy="367.1" r="47"/><path fill="#FFF" d="M448.5 392.5c-2.4.4-4.9-.2-6.9-1.8l-15-12.2c-3.7-3-4.3-8.4-1.3-12.1s8.4-4.3 12.1-1.3l8.5 6.9 19.9-23.4c3.1-3.6 8.5-4.1 12.2-1 3.6 3.1 4.1 8.5 1 12.2l-25.4 29.8c-1.3 1.5-3.2 2.5-5.1 2.9z"/><g><path fill="#963" d="M772.416 302.526L539.203 341.76l-2.173-12.918 233.212-39.235zM627.503 361.69l-82.635 13.902-2.173-12.917 82.635-13.903z"/></g></g><g><circle fill="#F66" cx="492.9" cy="604.7" r="47"/><path fill="#FFF" d="M488.4 630c-2.4.4-4.9-.2-6.9-1.8l-15-12.2c-3.7-3-4.3-8.4-1.3-12.1 3-3.7 8.4-4.3 12.1-1.3l8.5 6.9 19.9-23.4c3.1-3.6 8.5-4.1 12.2-1 3.6 3.1 4.1 8.5 1 12.2l-25.4 29.8a8.05 8.05 0 0 1-5.1 2.9z"/><g><path fill="#963" d="M804.313 541.44L571.1 580.675l-2.173-12.918 233.212-39.235zM701.525 593.639l-124.643 20.97-2.174-12.918 124.643-20.97z"/></g></g><path fill="#963" d="M840.307 651.899l-96.736 16.275-2.174-12.918 96.737-16.275z"/><g><path fill="#F19961" d="M843.9 494.3c-115.1-16.4-165.2-92.7-165.2-92.7l118.9-17.2c-.1 0 161.4 126.4 46.3 109.9z"/><path fill="#FFAF77" d="M836.4 676l83.7-74.8s11.2-112.9 0-152.5-88.2-86-106.9-96.4c-18.7-10.5-118.1 4.5-146.4 22.4-23.4 14.8-3.1 30.1 11.8 34.4s97.9-18.7 119.6.7c21.7 19.4 47.1 83 17.9 104.3-29.2 21.3-97.9-73.6-110.7-90.8-12.7-17.2-61.7-2.6-43.4 23.9 18.4 26.6 77.4 112.6 99.4 139.1 22.3 26.5 75 89.7 75 89.7z"/><path fill="#451613" d="M564.7 403l1.9-12.2-21.5 3z"/><path fill="#DAC18E" d="M594.5 417l4.7-30.7-32.6 4.5-1.9 12.2z"/><path fill="#F7F1E6" d="M853.4 456.6c3.4.5 6.5-1.8 7-5.2l2.8-18.5c.5-3.4-1.8-6.5-5.2-7l-13.8-2.1-4.7 30.7 13.9 2.1z"/><path fill="#F1E4C4" d="M816.5 450.5l23.1 4 4.7-30.7-23.1-4z"/><path fill="#F66" d="M590.8 400.3c1.1-7.2 8.4-14 8.4-14l222 33.5-4.7 30.7-222-33.5s-4.8-9.5-3.7-16.7z"/><path fill="#451613" d="M831.1 453l4.4.9 4.7-30.8-4.4-.8zM821.5 451.3l4.3.8 4.8-30.7-4.5-.8z"/><path fill="#FFAF77" d="M705.5 423.3c-12.7-17.2-61.7-2.6-43.4 23.9 2.1 3 4.6 6.7 7.6 11l66.4 4.3c-14.4-17-26-33.1-30.6-39.2z"/><path fill="#F66" d="M940.3 567.6L807.2 692.5l317.8 351.4 71.7-258z"/></g></g></svg>