<svg xmlns="http://www.w3.org/2000/svg" viewBox="0 0 800 800"><path clip-path="url(#SVGID_2_)" fill="#F90" d="M0 0h800v800H0z"/><g clip-path="url(#SVGID_2_)"><path opacity=".2" fill-rule="evenodd" clip-rule="evenodd" fill="gray" d="M373.4 674.6l404.8-.7L691 528.1h-.4c.1-.9.2-1.9.2-2.9V204c0-12.5-10-22.6-22.3-22.6H133.7c-12.3 0-22.3 10.1-22.3 22.6v321.2c0 1.3.1 2.5.3 3.8l-.2-3.8-91 150h.9c.4 7.9 8.8 14.3 19.2 14.3h719.2c10.6 0 19.2-6.7 19.2-14.9H373.4z"/><g fill-rule="evenodd" clip-rule="evenodd"><path fill="#666" d="M694.8 513c0 12.3-10 22.3-22.3 22.3H136.8c-12.3 0-22.3-10-22.3-22.3V195.4c0-12.3 10-22.3 22.3-22.3h535.7c12.3 0 22.3 10 22.3 22.3V513z"/><path fill="#C1C1C1" d="M114.2 516.7L23.4 661.4l759-1.4L695 515.9z"/><path fill="#666" d="M783.2 660.7c0 8.1-8.6 14.7-19.2 14.7H43.5c-10.6 0-19.2-6.6-19.2-14.7"/><path fill="#096" d="M146.8 202.2h515.9v287.3H146.8z"/></g><g opacity=".15" fill="#070707"><path d="M152.2 559.1h-17.8l8.1-18h17.2zM165.9 581.9h-41.6l8-18.1h40.3zM157.6 606.8h-43.4l8-18.1h42.1zM173.5 559.1h-17.8l7.4-18h17.2zM194.8 559.1h-17.7l6.6-18h17.2zM216.1 559.1h-17.7l5.9-18h17.2zM237.4 559.1h-17.7l5.2-18h17.2zM258.7 559.1H241l4.5-18h17.2zM280 559.1h-17.7l3.8-18h17.2zM301.3 559.1h-17.7l3.1-18h17.2zM322.6 559.1h-17.7l2.4-18h17.2zM343.9 559.1h-17.7l1.7-18h17.2zM365.2 559.1h-17.7l1-18h17.2zM386.5 559.1h-17.7l.3-18h17.2zM407.8 559.1h-17.7l-.4-18h17.2zM429.1 559.1h-17.7l-1.1-18h17.2zM450.4 559.1h-17.7l-1.8-18h17.2zM471.8 559.1H454l-2.5-18h17.2zM493.1 559.1h-17.8l-3.1-18h17.1zM514.4 559.1h-17.8l-3.8-18h17.1zM535.7 559.1h-17.8l-4.5-18h17.1zM557 559.1h-17.8l-5.2-18h17.1zM578.3 559.1h-17.8l-5.9-18h17.1zM599.6 559.1h-17.8l-6.6-18h17.1zM620.9 559.1h-17.8l-7.3-18H613zM642.2 559.1h-17.8l-8-18h17.2zM663.5 559.1h-17.8l-8.7-18h17.2zM122.9 629.9h-20l8-18h19.5zM147 629.9h-20.1l7.4-18h19.4zM171 629.9h-20l6.6-18h19.5zM195.1 629.9H175l6-18h19.4zM219.1 629.9h-20l5.2-18h19.5zM243.2 629.9h-20.1l4.6-18h19.4zM554.8 629.9H248.2l3.8-18h297.7zM579.9 629.9h-20.1l-5.2-18H574zM603.9 629.9h-20l-6-18h19.5zM628 629.9h-20.1l-6.6-18h19.4zM652 629.9h-20l-7.4-18h19.5zM676.1 629.9H656l-8-18h19.4zM700.1 629.9h-20l-8.8-18h19.5zM187.2 581.9h-18.5l6.6-18.1h17.9zM209.3 581.9h-18.4l5.9-18.1h17.9zM231.5 581.9H213l5.3-18.1h17.9zM253.7 581.9h-18.5l4.6-18.1h17.9zM275.9 581.9h-18.5l3.9-18.1h17.9zM298.1 581.9h-18.5l3.1-18.1h18zM320.3 581.9h-18.5l2.4-18.1h17.9zM342.5 581.9H324l1.7-18.1h17.9zM364.6 581.9h-18.4l1-18.1h17.9zM386.8 581.9h-18.5l.4-18.1h17.9zM409 581.9h-18.5l-.3-18.1h17.9zM431.2 581.9h-18.5l-1-18.1h17.9zM453.4 581.9h-18.5l-1.7-18.1h17.9zM475.6 581.9h-18.5l-2.5-18.1h17.9zM497.8 581.9h-18.5l-3.2-18.1H494zM519.9 581.9h-18.4l-3.9-18.1h17.9zM542.1 581.9h-18.5l-4.5-18.1H537zM564.3 581.9h-18.5l-5.2-18.1h17.9zM586.5 581.9H568l-5.9-18.1H580zM608.7 581.9h-18.5l-6.6-18.1h17.9zM630.9 581.9h-18.5l-7.4-18.1h18zM653.1 581.9h-18.5l-8.1-18.1h17.9zM687.5 605.5h-19.3L648 563.8h17.9zM178.8 606.8h-19.3l6.6-18.1h18.8zM201.9 606.8h-19.2l5.9-18.1h18.7zM225.1 606.8h-19.3l5.2-18.1h18.8zM248.2 606.8H229l4.5-18.1h18.7zM271.4 606.8h-19.3l3.9-18.1h18.7zM294.6 606.8h-19.3l3.1-18.1h18.7zM317.7 606.8h-19.3l2.5-18.1h18.7zM340.9 606.8h-19.3l1.7-18.1H342zM364 606.8h-19.3l1.1-18.1h18.7zM387.2 606.8h-19.3l.3-18.1h18.7zM410.3 606.8H391l-.3-18.1h18.7zM433.5 606.8h-19.3l-1.1-18.1h18.7zM456.6 606.8h-19.3l-1.7-18.1h18.7zM479.8 606.8h-19.3l-2.5-18.1h18.7zM502.9 606.8h-19.3l-3.1-18.1h18.7zM526.1 606.8h-19.3l-3.9-18.1h18.7zM549.2 606.8h-19.3l-4.5-18.1h18.7zM572.4 606.8h-19.3l-5.3-18.1h18.7zM595.5 606.8h-19.3l-5.9-18.1H589zM618.7 606.8h-19.3l-6.7-18.1h18.7zM641.8 606.8h-19.3l-7.3-18.1h18.7zM665 606.8h-19.3l-8.1-18.1h18.7z"/></g><g fill="#727171"><path d="M152.2 557.8h-17.8l8.1-18h17.2zM165.9 580.5h-41.6l8-18h40.3zM157.6 605.4h-43.4l8-18h42.1zM173.5 557.8h-17.8l7.4-18h17.2zM194.8 557.8h-17.7l6.6-18h17.2zM216.1 557.8h-17.7l5.9-18h17.2zM237.4 557.8h-17.7l5.2-18h17.2zM258.7 557.8H241l4.5-18h17.2zM280 557.8h-17.7l3.8-18h17.2zM301.3 557.8h-17.7l3.1-18h17.2zM322.6 557.8h-17.7l2.4-18h17.2zM343.9 557.8h-17.7l1.7-18h17.2zM365.2 557.8h-17.7l1-18h17.2zM386.5 557.8h-17.7l.3-18h17.2zM407.8 557.8h-17.7l-.4-18h17.2zM429.1 557.8h-17.7l-1.1-18h17.2zM450.4 557.8h-17.7l-1.8-18h17.2zM471.8 557.8H454l-2.5-18h17.2zM493.1 557.8h-17.8l-3.1-18h17.1zM514.4 557.8h-17.8l-3.8-18h17.1zM535.7 557.8h-17.8l-4.5-18h17.1zM557 557.8h-17.8l-5.2-18h17.1zM578.3 557.8h-17.8l-5.9-18h17.1zM599.6 557.8h-17.8l-6.6-18h17.1zM620.9 557.8h-17.8l-7.3-18H613zM642.2 557.8h-17.8l-8-18h17.2zM663.5 557.8h-17.8l-8.7-18h17.2zM122.9 628.6h-20l8-18h19.5zM147 628.6h-20.1l7.4-18h19.4zM171 628.6h-20l6.6-18h19.5zM195.1 628.6H175l6-18h19.4zM219.1 628.6h-20l5.2-18h19.5zM243.2 628.6h-20.1l4.6-18h19.4zM554.8 628.6H248.2l3.8-18h297.7zM579.9 628.6h-20.1l-5.2-18H574zM603.9 628.6h-20l-6-18h19.5zM628 628.6h-20.1l-6.6-18h19.4zM652 628.6h-20l-7.4-18h19.5zM676.1 628.6H656l-8-18h19.4zM700.1 628.6h-20l-8.8-18h19.5zM187.2 580.5h-18.5l6.6-18h17.9zM209.3 580.5h-18.4l5.9-18h17.9zM231.5 580.5H213l5.3-18h17.9zM253.7 580.5h-18.5l4.6-18h17.9zM275.9 580.5h-18.5l3.9-18h17.9zM298.1 580.5h-18.5l3.1-18h18zM320.3 580.5h-18.5l2.4-18h17.9zM342.5 580.5H324l1.7-18h17.9zM364.6 580.5h-18.4l1-18h17.9zM386.8 580.5h-18.5l.4-18h17.9zM409 580.5h-18.5l-.3-18h17.9zM431.2 580.5h-18.5l-1-18h17.9zM453.4 580.5h-18.5l-1.7-18h17.9zM475.6 580.5h-18.5l-2.5-18h17.9zM497.8 580.5h-18.5l-3.2-18H494zM519.9 580.5h-18.4l-3.9-18h17.9zM542.1 580.5h-18.5l-4.5-18H537zM564.3 580.5h-18.5l-5.2-18h17.9zM586.5 580.5H568l-5.9-18H580zM608.7 580.5h-18.5l-6.6-18h17.9zM630.9 580.5h-18.5l-7.4-18h18zM653.1 580.5h-18.5l-8.1-18h17.9zM687.5 604.1h-19.3L648 562.5h17.9zM178.8 605.4h-19.3l6.6-18h18.8zM201.9 605.4h-19.2l5.9-18h18.7zM225.1 605.4h-19.3l5.2-18h18.8zM248.2 605.4H229l4.5-18h18.7zM271.4 605.4h-19.3l3.9-18h18.7zM294.6 605.4h-19.3l3.1-18h18.7zM317.7 605.4h-19.3l2.5-18h18.7zM340.9 605.4h-19.3l1.7-18H342zM364 605.4h-19.3l1.1-18h18.7zM387.2 605.4h-19.3l.3-18h18.7zM410.3 605.4H391l-.3-18h18.7zM433.5 605.4h-19.3l-1.1-18h18.7zM456.6 605.4h-19.3l-1.7-18h18.7zM479.8 605.4h-19.3l-2.5-18h18.7zM502.9 605.4h-19.3l-3.1-18h18.7zM526.1 605.4h-19.3l-3.9-18h18.7zM549.2 605.4h-19.3l-4.5-18h18.7zM572.4 605.4h-19.3l-5.3-18h18.7zM595.5 605.4h-19.3l-5.9-18H589zM618.7 605.4h-19.3l-6.7-18h18.7zM641.8 605.4h-19.3l-7.3-18h18.7zM665 605.4h-19.3l-8.1-18h18.7z"/></g><g><g fill-rule="evenodd" clip-rule="evenodd" fill="#F7D581"><path d="M454.1 443.1l-3.6-1.2-2.3 3.1-.7-3.8-3.8-.4 2.9-2.5-1.6-3.5 3.6 1.2 2.3-3.1.8 3.8 3.8.4-2.9 2.5zM412.9 453l-5-1.7-3.2 4.3-1-5.2-5.3-.6 4-3.5-2.2-4.9 5.1 1.7 3.1-4.3 1.1 5.3 5.3.5-4 3.6zM425.6 409.1l-2.5-.8-1.6 2.1-.5-2.6-2.6-.3 2-1.7-1.1-2.4 2.5.8 1.5-2.1.6 2.6 2.6.3-2 1.7z"/><g><path d="M515.7 268.1l-.9 3.8 3.2 2-3.7 1-.1 3.8-2.7-2.6-3.4 1.8 1-3.8-3.3-2 3.7-1 .1-3.8 2.8 2.6zM528.7 308.5l-1.3 5.2 4.5 2.8-5.1 1.4-.2 5.3-3.8-3.7-4.7 2.5 1.3-5.1-4.5-2.9 5.2-1.4.1-5.3 3.8 3.7zM484 299.2l-.7 2.6 2.3 1.3-2.6.8-.1 2.6-1.9-1.9-2.3 1.3.7-2.6-2.3-1.4 2.6-.7.1-2.6 1.9 1.8z"/></g><g><path d="M332.8 305.1l-3.1-2.2-3.1 2.3.4-3.9-3.5-1.5 3.5-1.5-.4-3.8 3.1 2.2 3.1-2.3-.4 3.8 3.5 1.6-3.5 1.5zM290.5 302.4l-4.3-3.1-4.3 3.1.6-5.3-4.9-2.1 4.8-2.1-.6-5.3 4.3 3.1 4.3-3.2-.5 5.3 4.9 2.1-4.9 2.2zM315.6 264.2l-2.2-1.6-2.1 1.6.3-2.6-2.4-1.1 2.4-1-.3-2.7 2.1 1.6 2.1-1.6-.2 2.6 2.4 1.1-2.4 1.1z"/></g></g><path fill="#F47E14" d="M407.3 258.8s-.2-1.9-.4-4.8-.4-6.7-.7-10.6c-.1-1.9-.3-3.8-.4-5.6 0-1.8.2-3.5.4-4.9.4-2.9 1-4.8 1-4.8h.3s.7 1.9 1 4.8c.2 1.4.3 3.1.4 4.9 0 1.8-.3 3.7-.4 5.6-.2 3.8-.4 7.7-.7 10.6-.2 2.9-.4 4.8-.4 4.8h-.1zM453.1 277.6s1.1-1.3 2.8-3.1c1.7-1.9 4.1-4.3 6.4-6.8 1.2-1.2 2.3-2.5 3.4-3.6 1.2-1.1 2.4-2 3.4-2.7 2.1-1.4 3.8-2.1 3.8-2.1l.2.2s-.8 1.6-2.4 3.6c-.8 1-1.8 2.1-2.9 3.2-1.2 1-2.6 2-3.9 3.1-2.6 2.1-5.2 4.3-7.3 5.8-2 1.6-3.4 2.6-3.4 2.6l-.1-.2zM365.9 277.8s-1.4-1-3.4-2.6c-2-1.5-4.6-3.7-7.3-5.8-1.3-1.1-2.7-2-3.9-3.1-1.2-1.1-2.1-2.2-2.9-3.2-1.6-2-2.4-3.6-2.4-3.6l.2-.2s1.7.7 3.8 2.1c1.1.7 2.3 1.6 3.4 2.7s2.2 2.4 3.4 3.6c2.3 2.4 4.7 4.9 6.4 6.8 1.7 1.9 2.8 3.1 2.8 3.1l-.1.2z"/><path fill="#E2E2E2" d="M381.8 260.5s-2.4-4.1-4.5-8.4c-.5-1.1-1.2-2.1-1.6-3.1-.4-1-.7-2-.8-2.9-.3-1.8-.1-3.1-.1-3.1l.3-.1s1.1.8 2.1 2.4c.5.7 1 1.6 1.5 2.7.4 1 .6 2.2 1 3.3 1.4 4.5 2.6 9.1 2.6 9.1l-.5.1zM435.4 260.4s1.1-4.6 2.6-9.1c.3-1.1.6-2.3 1-3.3s.9-1.9 1.5-2.7c1-1.5 2.1-2.4 2.1-2.4l.3.1s.2 1.3-.1 3.1c-.1.9-.4 1.9-.8 2.9s-1.1 2-1.6 3.1c-2.1 4.2-4.5 8.4-4.5 8.4l-.5-.1z"/><g><path fill="#F47E14" d="M296.4 387.6s-1.8.8-4.4 1.9c-2.7 1.1-6.2 2.5-9.8 4-1.8.7-3.5 1.5-5.2 2.1-1.7.6-3.3 1-4.8 1.2-2.8.6-4.9.6-4.9.6l-.1-.3s1.6-1.2 4.2-2.5c1.3-.6 2.8-1.3 4.5-1.9 1.7-.5 3.6-.9 5.5-1.5 3.7-1 7.4-2.1 10.2-2.7 2.8-.7 4.7-1.2 4.7-1.2l.1.3zM299.7 338.1s-1.6-.7-3.9-1.7-5.4-2.5-8.4-3.9c-1.5-.7-3.1-1.3-4.5-2.1s-2.6-1.6-3.6-2.4c-2-1.5-3.2-2.9-3.2-2.9l.1-.3s1.8.2 4.2 1.1c1.2.4 2.6 1 4 1.8s2.7 1.8 4.2 2.7c2.8 1.8 5.7 3.6 7.8 5 2.1 1.4 3.5 2.4 3.5 2.4l-.2.3zM327.6 420.7s-.5 1.6-1.4 4c-.8 2.4-2 5.6-3.2 8.7-.6 1.6-1.1 3.2-1.7 4.7-.6 1.4-1.4 2.7-2.1 3.8-1.4 2.2-2.7 3.4-2.7 3.4l-.3-.1s.1-1.8.8-4.3c.3-1.2.8-2.6 1.4-4.1.7-1.4 1.6-2.9 2.3-4.4 1.6-3 3.1-6 4.4-8.2 1.2-2.2 2.1-3.7 2.1-3.7l.4.2z"/><path fill="#E2E2E2" d="M306.2 411.1s-3.2 3.6-6.5 6.9c-.8.8-1.6 1.8-2.4 2.5-.8.7-1.7 1.3-2.5 1.7-1.6.9-2.9 1.1-2.9 1.1l-.2-.2s.5-1.3 1.6-2.7c.5-.7 1.2-1.5 2.1-2.2.9-.7 1.9-1.3 2.9-2 3.8-2.8 7.8-5.3 7.8-5.3l.1.2zM289 360.3s-4.7.4-9.5.5c-1.2 0-2.4.2-3.5.2-1.1-.1-2.1-.3-3-.5-1.7-.5-2.9-1.2-2.9-1.2v-.3s1.2-.6 3-.9c.9-.1 1.9-.2 3-.2 1.1.1 2.3.4 3.4.6 4.7.6 9.4 1.6 9.4 1.6l.1.2z"/></g><g><path fill="#F47E14" d="M523.3 385.8s1.6.2 4 .6c2.4.3 5.6.9 8.8 1.4 1.6.3 3.2.4 4.7.7 1.5.3 2.8.8 4 1.2 2.3.8 3.8 1.7 3.8 1.7l-.1.2s-1.7.2-4.1 0c-1.2-.1-2.6-.3-4.1-.6-1.5-.4-3-.9-4.6-1.3-3.1-.9-6.2-1.7-8.6-2.4-2.3-.7-3.9-1.2-3.9-1.2l.1-.3zM499.5 420.1s.8 1.2 2.1 2.9c1.2 1.7 2.8 4.1 4.4 6.5.8 1.2 1.7 2.3 2.4 3.4s1.2 2.3 1.6 3.3c.8 2 1 3.5 1 3.5l-.2.1s-1.2-.9-2.5-2.6c-.7-.8-1.4-1.8-2.1-3-.6-1.2-1.2-2.5-1.8-3.7-1.3-2.5-2.6-5.1-3.5-7-.9-1.9-1.5-3.2-1.5-3.2l.1-.2zM515 348.5s1.1-.9 2.7-2.3 3.9-3.1 6.1-4.9c1.1-.9 2.2-1.9 3.2-2.6 1.1-.8 2.2-1.4 3.1-1.8 1.9-1 3.4-1.3 3.4-1.3l.1.2s-.8 1.3-2.4 2.7c-.8.7-1.7 1.6-2.8 2.3-1.1.7-2.4 1.4-3.6 2.1-2.4 1.5-4.8 3-6.7 4-1.8 1.1-3.1 1.8-3.1 1.8v-.2z"/><path fill="#E2E2E2" d="M526.4 364.6s1-.3 2.4-.7c1.4-.4 3.4-.9 5.3-1.4 1-.2 1.9-.6 2.8-.8.9-.1 1.8-.2 2.6-.1 1.5.1 2.6.4 2.6.4v.2s-.9.7-2.3 1.3c-.7.3-1.5.6-2.5.7-.9.1-1.9.1-2.9.2-2 .1-4 .3-5.5.4-1.5.1-2.5.1-2.5.1v-.3zM516.8 408.7s.9.4 2.2 1.1c1.3.7 3.1 1.7 4.8 2.6.9.5 1.8.9 2.6 1.4.8.5 1.4 1.1 1.9 1.7 1.1 1.1 1.6 2.1 1.6 2.1l-.1.2s-1.1-.1-2.5-.7c-.7-.3-1.5-.7-2.3-1.2-.8-.5-1.5-1.3-2.2-1.9-1.5-1.3-3.1-2.5-4.2-3.5s-1.9-1.7-1.9-1.7l.1-.1z"/></g><g><g opacity=".15" fill="#4C210C"><path d="M453.1 302.9l-9.3-9.8c-1.2-1.3-3.2-1.3-4.5-.1l-4.1 3.9c-2.6-1.6-5.3-2.8-8.1-3.7l.3-5.6c.1-1.8-1.3-3.2-3-3.3l-13.5-.6c-1.8-.1-3.2 1.3-3.3 3l-.2 5.3c-3.4.7-6.8 1.8-10 3.4l-3.4-3.6c-1.2-1.3-3.2-1.3-4.5-.1l-9.8 9.3c-1.3 1.2-1.3 3.2-.1 4.5l2.8 3c-1.9 2.9-3.5 5.9-4.6 9.1l-3.7-.2c-1.8-.1-3.2 1.3-3.3 3l-.6 13.5c-.1 1.8 1.3 3.2 3 3.3l2.8.1c.7 4.1 2 8.1 4 11.9l-1.8 1.7c-1.3 1.2-1.3 3.2-.1 4.5l9.3 9.8c1.2 1.3 3.2 1.3 4.5.1l1.5-1.4c3.3 2.1 6.8 3.7 10.5 4.8l-.1 2.1c-.1 1.7 1.3 3.2 3 3.3l13.5.6c1.7.1 3.2-1.3 3.3-3l.1-2.4c4-.9 8-2.5 11.6-4.7l1.9 2c1.2 1.3 3.2 1.3 4.5.1l9.8-9.3c1.3-1.2 1.3-3.2.1-4.5l-2.5-2.6c1.7-3 3-6.2 3.8-9.5l4.1.2c1.7.1 3.2-1.3 3.3-3l.6-13.5c.1-1.7-1.3-3.2-3-3.3l-4.9-.2c-.9-3.4-2.2-6.7-4-9.8l3.8-3.6c1.5-1.4 1.5-3.4.3-4.7zm-26 16.4c6.3 6.7 6 17.2-.6 23.5-6.7 6.3-17.2 6.1-23.5-.6-6.3-6.7-6.1-17.2.6-23.5 6.6-6.3 17.1-6.1 23.5.6z"/><path d="M398 346.9l-8-10.9c-1-1.4-3-1.7-4.4-.7l-4.5 3.3c-2.4-1.9-4.9-3.4-7.6-4.7l1-5.5c.3-1.7-.9-3.4-2.6-3.7l-13.3-2.3c-1.7-.3-3.4.9-3.7 2.6l-.9 5.2c-3.5.2-7 .9-10.4 2.1l-2.9-4c-1-1.4-3-1.7-4.4-.7l-10.9 8c-1.4 1-1.7 3-.7 4.4l2.4 3.3c-2.3 2.6-4.2 5.4-5.7 8.4l-3.6-.6c-1.7-.3-3.4.9-3.7 2.6l-2.3 13.3c-.3 1.7.9 3.4 2.6 3.7l2.8.5c.2 4.1 1 8.3 2.5 12.3l-2 1.4c-1.4 1-1.7 3-.7 4.4l8 10.9c1 1.4 3 1.7 4.4.7l1.7-1.2c3 2.5 6.3 4.6 9.8 6.1l-.4 2c-.3 1.7.9 3.4 2.6 3.7l13.3 2.3c1.7.3 3.4-.9 3.7-2.6l.4-2.4c4.1-.4 8.2-1.5 12.1-3.2l1.6 2.2c1 1.4 3 1.7 4.4.7l10.9-8c1.4-1 1.7-3 .7-4.4l-2.1-2.9c2.1-2.8 3.7-5.8 5-8.9l4 .7c1.7.3 3.4-.9 3.7-2.6l2.3-13.3c.3-1.7-.9-3.4-2.6-3.7l-4.8-.8c-.4-3.5-1.4-6.9-2.7-10.3l4.2-3.1c1.5-.9 1.8-2.9.8-4.3zm-24.2 10.2c6.9 9.4 4.9 22.7-4.6 29.7-9.5 6.9-22.7 4.9-29.7-4.6-6.9-9.5-4.9-22.7 4.6-29.7 9.5-6.9 22.7-4.8 29.7 4.6zM516.5 381l-2.3-6.8c-.3-.9-1.2-1.3-2.1-1l-2.8 1c-.9-1.3-1.9-2.5-3.1-3.5l1.4-2.6c.4-.8.1-1.8-.7-2.3l-6.3-3.3c-.8-.4-1.9-.1-2.3.7l-1.3 2.5c-1.8-.5-3.7-.6-5.6-.6l-.8-2.5c-.3-.9-1.3-1.3-2.1-1.1l-6.8 2.3c-.9.3-1.3 1.2-1 2.1l.7 2.1c-1.6.9-3 2.1-4.2 3.3l-1.7-.9c-.8-.4-1.8-.1-2.3.7l-3.3 6.3c-.4.8-.1 1.8.7 2.3l1.3.7c-.6 2.1-.8 4.3-.7 6.6l-1.2.4c-.9.3-1.4 1.2-1.1 2.1l2.3 6.8c.3.9 1.2 1.4 2.1 1l1-.4c1.1 1.7 2.4 3.3 4 4.6l-.5 1c-.4.8-.1 1.9.7 2.3l6.3 3.3c.8.4 1.8.1 2.3-.7l.6-1.1c2.1.5 4.4.6 6.6.3l.5 1.4c.3.9 1.2 1.3 2.1 1l6.8-2.3c.9-.3 1.3-1.2 1-2.1l-.6-1.8c1.5-1.1 2.8-2.3 3.9-3.7l1.9 1c.8.4 1.8.1 2.3-.7l3.3-6.3c.4-.8.1-1.9-.7-2.3l-2.3-1.2c.3-1.8.4-3.7.2-5.6l2.6-.9c1.1-.3 1.5-1.2 1.2-2.1zm-13.8 1.3c2 5.8-1.2 12.2-7 14.2-5.9 2-12.2-1.1-14.2-7s1.1-12.2 7-14.2 12.2 1.2 14.2 7z"/></g><path fill="#ADC9C9" d="M451.5 298l-9.3-9.8c-1.2-1.3-3.2-1.3-4.5-.1l-4.1 3.9c-2.6-1.6-5.3-2.8-8.1-3.7l.3-5.6c.1-1.8-1.3-3.2-3-3.3l-13.5-.6c-1.8-.1-3.2 1.3-3.3 3l-.2 5.3c-3.4.7-6.8 1.8-10 3.4l-3.4-3.6c-1.2-1.3-3.2-1.3-4.5-.1l-9.8 9.3c-1.3 1.2-1.3 3.2-.1 4.5l2.8 3c-1.9 2.9-3.5 5.9-4.6 9.1l-3.7-.2c-1.8-.1-3.2 1.3-3.3 3l-.6 13.5c-.1 1.8 1.3 3.2 3 3.3l2.8.1c.7 4.1 2 8.1 4 11.9l-1.8 1.7c-1.3 1.2-1.3 3.2-.1 4.5l9.3 9.8c1.2 1.3 3.2 1.3 4.5.1l1.5-1.4c3.3 2.1 6.8 3.7 10.5 4.8l-.1 2.1c-.1 1.7 1.3 3.2 3 3.3l13.5.6c1.7.1 3.2-1.3 3.3-3l.1-2.4c4-.9 8-2.5 11.6-4.7l1.9 2c1.2 1.3 3.2 1.3 4.5.1l9.8-9.3c1.3-1.2 1.3-3.2.1-4.5l-2.5-2.6c1.7-3 3-6.2 3.8-9.5l4.1.2c1.7.1 3.2-1.3 3.3-3l.6-13.5c.1-1.7-1.3-3.2-3-3.3l-4.9-.2c-.9-3.4-2.2-6.7-4-9.8l3.8-3.6c1.5-1.4 1.5-3.4.3-4.7zm-26.1 16.4c6.3 6.7 6 17.2-.6 23.5-6.7 6.3-17.2 6.1-23.5-.6-6.3-6.7-6.1-17.2.6-23.5 6.7-6.4 17.2-6.1 23.5.6z"/><path fill="#DFEFEF" d="M396.4 342l-8-10.9c-1-1.4-3-1.7-4.4-.7l-4.5 3.3c-2.4-1.9-4.9-3.4-7.6-4.7l1-5.5c.3-1.7-.9-3.4-2.6-3.7l-13.3-2.3c-1.7-.3-3.4.9-3.7 2.6l-.9 5.2c-3.5.2-7 .9-10.4 2.1l-2.9-4c-1-1.4-3-1.7-4.4-.7l-10.9 8c-1.4 1-1.7 3-.7 4.4l2.4 3.3c-2.3 2.6-4.2 5.4-5.7 8.4l-3.6-.6c-1.7-.3-3.4.9-3.7 2.6l-2.3 13.3c-.3 1.7.9 3.4 2.6 3.7l2.8.5c.2 4.1 1 8.3 2.5 12.3l-2 1.4c-1.4 1-1.7 3-.7 4.4l8 10.9c1 1.4 3 1.7 4.4.7l1.7-1.2c3 2.5 6.3 4.6 9.8 6.1l-.4 2c-.3 1.7.9 3.4 2.6 3.7l13.3 2.3c1.7.3 3.4-.9 3.7-2.6l.4-2.4c4.1-.4 8.2-1.5 12.1-3.2l1.6 2.2c1 1.4 3 1.7 4.4.7l10.9-8c1.4-1 1.7-3 .7-4.4l-2.1-2.9c2.1-2.8 3.7-5.8 5-8.9l4 .7c1.7.3 3.4-.9 3.7-2.6l2.3-13.3c.3-1.7-.9-3.4-2.6-3.7l-4.8-.8c-.4-3.5-1.4-6.9-2.7-10.3l4.2-3.1c1.5-.9 1.8-2.9.8-4.3zm-24.3 10.2c6.9 9.4 4.9 22.7-4.6 29.7-9.5 6.9-22.7 4.9-29.7-4.6-6.9-9.5-4.9-22.7 4.6-29.7 9.5-6.9 22.8-4.8 29.7 4.6zM514.9 376.1l-2.3-6.8c-.3-.9-1.2-1.3-2.1-1l-2.8 1c-.9-1.3-1.9-2.5-3.1-3.5l1.4-2.6c.4-.8.1-1.8-.7-2.3l-6.3-3.3c-.8-.4-1.9-.1-2.3.7l-1.3 2.5c-1.8-.5-3.7-.6-5.6-.6l-.8-2.5c-.3-.9-1.3-1.3-2.1-1.1l-6.8 2.3c-.9.3-1.3 1.2-1 2.1l.7 2.1c-1.6.9-3 2.1-4.2 3.3l-1.7-.9c-.8-.4-1.8-.1-2.3.7l-3.3 6.3c-.4.8-.1 1.8.7 2.3l1.3.7c-.6 2.1-.8 4.3-.7 6.6l-1.2.4c-.9.3-1.4 1.2-1.1 2.1l2.3 6.8c.3.9 1.2 1.4 2.1 1l1-.4c1.1 1.7 2.4 3.3 4 4.6l-.5 1c-.4.8-.1 1.9.7 2.3l6.3 3.3c.8.4 1.8.1 2.3-.7l.6-1.1c2.1.5 4.4.6 6.6.3l.5 1.4c.3.9 1.2 1.3 2.1 1l6.8-2.3c.9-.3 1.3-1.2 1-2.1l-.6-1.8c1.5-1.1 2.8-2.3 3.9-3.7l1.9 1c.8.4 1.8.1 2.3-.7l3.3-6.3c.4-.8.1-1.9-.7-2.3l-2.3-1.2c.3-1.8.4-3.7.2-5.6l2.6-.9c1-.3 1.5-1.2 1.2-2.1zm-13.8 1.3c2 5.8-1.2 12.2-7 14.2-5.9 2-12.2-1.1-14.2-7s1.1-12.2 7-14.2c5.8-2 12.2 1.1 14.2 7z"/><g><circle fill="#DFEFEF" cx="413" cy="326.9" r="15.8"/><circle fill-rule="evenodd" clip-rule="evenodd" fill="#47B2BA" cx="413" cy="326.1" r="8.7"/></g><g><path fill="#4B8A8C" d="M355.5 387c-7.6 0-14.3-3.3-18.3-9.1-3.5-5.1-4.8-11.1-3.6-17 1.2-6 5-11.4 10.6-15.3l52.1-31.5c6.1-4.3 12.3-6.6 17.8-6.6 5.7 0 10.4 2.5 13.7 7.3 3.5 5 4.3 10.6 2.4 16.2-1.8 5.1-5.8 10-11.6 14.1l-47.1 36.7c-4.9 3.4-10.4 5.2-16 5.2zm58.6-76.3c-4.8 0-10.3 2.1-16 6L346 348.3c-4.8 3.3-8.1 8.1-9.1 13.2-1 5 0 10.2 3 14.5 3.4 4.9 9.1 7.7 15.6 7.7 4.9 0 9.7-1.6 14-4.5l47.2-36.7c5.3-3.7 8.9-8 10.5-12.5 1.6-4.6.9-9.1-2-13.3-2.7-4-6.4-6-11.1-6z"/><path fill="#4B8A8C" d="M491.2 394.2c-4.3 0-9.1-1.8-13.9-5.1L403 340.9c-9.6-7.7-9.5-18.9-4.4-26.2l.2-.3c2.8-4 8.3-6.5 14.4-6.5 4.4 0 8.5 1.3 12 3.7l68.3 53.3c9.2 6.5 12.5 15.5 8.5 23.4l-.2.3-.7.9c-2.4 3.1-5.8 4.7-9.9 4.7zm-89.7-78l-.2.3c-4.1 5.8-4.7 15.1 3.6 21.7l74.3 48.1c4.2 3 8.4 4.6 12 4.6 3.1 0 5.5-1.1 7.3-3.4l.6-.8c3.1-6.4.3-13.6-7.6-19.2l-68.3-53.3c-3.6-2.5-7.4-3.1-10-3.1-5 .1-9.5 2.1-11.7 5.1z"/></g></g></g></g></svg>