<svg xmlns="http://www.w3.org/2000/svg" viewBox="-205 328.9 185 185"><path clip-path="url(#SVGID_2_)" fill="#F66" d="M-205 328.9h185v185h-185z"/><g clip-path="url(#SVGID_4_)"><path fill="#4D4D4D" d="M-136.2 347.7h47.5c9.2 0 16.7 5.4 16.7 12v90.2c0 6.6-7.5 12-16.7 12h-47.5c-9.2 0-16.7-5.4-16.7-12v-90.2c-.1-6.6 7.5-12 16.7-12z"/><path fill="#FFF" d="M-147.8 359.6h70.5c.1 0 .2.1.2.2v91.4c0 .1-.1.2-.2.2h-70.5c-.1 0-.3-.1-.3-.2v-91.4c.1-.1.2-.2.3-.2z"/><path fill="#999" d="M-121.3 350.6h17.6c.5 0 .9.4.9.9s-.4.9-.9.9h-17.6c-.5 0-.9-.4-.9-.9.1-.5.4-.9.9-.9z"/><circle fill="#999" cx="-112.5" cy="456.4" r="2.9"/><g><path fill="#FFDC96" d="M-148 357.3h71v4.6h-71z"/><path fill="#7FB4E3" d="M-129 364.7h33.1v7H-129zM-148 379.7h71v19.2h-71z"/><path fill="#CAE4FC" d="M-134.4 374.3h43.8v2.9h-43.8z"/><path fill="#FFDC96" d="M-148 443h71v8.4h-71z"/><path fill="#CAE4FC" d="M-143.7 420.4h17.8v2.9h-17.8zM-143.7 425.4h17.8v2.9h-17.8zM-143.7 430.4h17.8v2.9h-17.8zM-143.7 435.4h11.3v2.9h-11.3zM-121.4 420.4h17.8v2.9h-17.8zM-121.4 425.4h17.8v2.9h-17.8zM-121.4 430.4h17.8v2.9h-17.8zM-121.4 435.4h11.3v2.9h-11.3zM-99.1 420.4h17.8v2.9h-17.8zM-99.1 425.4h17.8v2.9h-17.8zM-99.1 430.4h17.8v2.9h-17.8zM-99.1 435.4h11.3v2.9h-11.3z"/><path fill="#7FB4E3" d="M-90.2 418.2c4.9 0 8.9-3.5 8.9-7.7 0-4.3-4-7.7-8.9-7.7s-8.9 3.5-8.9 7.7c0 4.3 4 7.7 8.9 7.7z"/><path fill="#FFDC96" d="M-134.8 418.2c4.9 0 8.9-3.5 8.9-7.7 0-4.3-4-7.7-8.9-7.7s-8.9 3.5-8.9 7.7c0 4.3 4 7.7 8.9 7.7z"/><path fill="#F66" d="M-112.5 418.2c4.9 0 8.9-3.5 8.9-7.7 0-4.3-4-7.7-8.9-7.7s-8.9 3.5-8.9 7.7c0 4.3 4 7.7 8.9 7.7z"/></g></g><g clip-path="url(#SVGID_6_)"><path fill="#F5C595" d="M-73.5 450.1l18.9 18.6-7.9 19.9-.5.5c-1 .5-2.1 1-3.1 1.5l-20.7-19.7 13.3-20.8z"/><path fill="#FFF" d="M-80 481.8l30.4 29.8 20-21.1-30.4-29.9z"/><path fill="#F5C595" d="M-83.4 423.2l11.2 17.2c1.4 2.2 4.7 12 2.6 13.7-2.1 1.6-7.8-4.1-9.2-6.4l-7.2-12.6c-4.1-7.3.1-10.5 2.6-11.9z"/><path fill="#F5C595" d="M-115.8 414.2l16.7 16.9c-3.9-.8-6.7 4.6-4.1 8-3.9-1.3-7 3.5-5.2 7.1-3.8-.6-6.4 4.8-3.3 8l14.1 14.4c4 4 11.3 7.1 15 7.5 11.1 1.1 16.7-12 15.5-17.8-.9-4.6-1.1-7.9-3.2-10.1l-38.8-40.7c-4.9-5.2-10.8 2.6-6.7 6.7z"/><path fill="#E3A86D" d="M-103.6 451.4s-2.8-3.4-5.1-6.2c.1.3.2.6.4 1-.2 0-.4-.1-.7 0 2.5 2.4 5.4 5.2 5.4 5.2zm10.4-13.8c.5.6.8.9.8.9s-.4-.3-.8-.9zm-4.5 7.6s-3.5-3.4-6.2-6.2c.3 0 .5.1.8.2-.2-.2-.3-.4-.4-.6h.4c2.3 2.7 5.4 6.6 5.4 6.6zm-5.9-6.7c-.2-.3-.3-.6-.4-.9.2.3.5.6.8.9h-.4zm3.4-7.4h1c.1 0 .1.1.1 0 1.5 1.6 4.5 4.9 5.9 6.5h-.2c-1.5-1.5-4.7-4.5-6.8-6.5z"/><path fill="#FFDFBF" d="M-115.1 413.2l1.4 1.4c3-.4 4.7-2.2 5.2-5.1l-1.3-1.4c-3.7-3.8-8.4 2-5.3 5.1zM-84.5 424c.3-.3.7-.6 1.1-.9l3.9 5.9c-2.4.9-4-2.6-5-5z"/><path fill="#E3A86D" d="M-87.7 429.9l9.6 10-9.2-11.6z"/><path fill="#E6E6E6" d="M-70 471.2l30.4 29.9 10-10.6-30.4-29.9z"/></g></svg>