<svg xmlns="http://www.w3.org/2000/svg" viewBox="0 0 165.4 151.4"><g opacity=".2"><path fill="#746E00" d="M6.4 136.6s-.4.3-1 .7c-.3.2-.7.5-1 .9-.4.3-.8.8-1.1 1.2-.3.5-.4.9-.2 1.2.2.3.6.7 1.2 1.1.6.4 1.3.7 2.1 1 .8.3 1.6.6 2.4.8.8.3 1.6.5 2.5.7.8.2 1.6.5 2.4.7 1.6.5 3 .9 4.3 1.2 1.3.4 2.3.7 3.1 1 .7.3 1.2.4 1.2.4s-1.8.2-4.5 0c-.7 0-1.4-.1-2.2-.2l-2.4-.3c-.8-.1-1.7-.3-2.5-.5-.9-.2-1.7-.4-2.6-.7-.9-.3-1.7-.6-2.6-1-.8-.4-1.7-.8-2.4-1.4-.7-.6-1.5-1.3-1.8-2.4-.1-.5-.1-1.2.1-1.6.2-.5.5-.8.8-1.1.6-.6 1.1-.9 1.7-1.1.5-.3 1-.4 1.4-.5.7-.1 1.1-.1 1.1-.1z"/><path fill="#746E00" d="M110.5 147.8c-2.5.4-5.1.7-7.6 1-2.5.3-5.1.5-7.7.7l-7.7.5c-2.6.2-5.1.3-7.7.4v-2.5l3.7-.1v2.7l-10.7-.1-10.7-.3c-3.6-.1-7.1-.4-10.7-.7-3.6-.3-7.1-.6-10.7-1.1-3.5-.5-7.1-.9-10.6-1.6-1.8-.3-3.5-.7-5.3-1.1-1.7-.4-3.5-.8-5.2-1.3-1.7-.5-3.4-1-5.1-1.6-.5-.2-.8-.3-1.3-.5-.4-.2-.9-.4-1.3-.6-.8-.4-1.7-.9-2.4-1.9-.1-.3-.3-.6-.3-.9 0-.3.1-.7.3-.9.3-.5.7-.8 1.1-1.1.8-.5 1.7-.8 2.5-1.1 1.7-.6 3.5-.9 5.2-1.2-1.7.5-3.4 1.1-5 1.8-.8.4-1.6.8-2.2 1.3-.3.3-.6.5-.7.8-.1.3-.1.5.1.7.4.5 1.2.9 1.9 1.2.4.2.8.3 1.2.4l1.3.4c1.7.4 3.4.9 5.2 1.2 1.7.4 3.5.7 5.2 1 1.7.3 3.5.6 5.2.8 1.8.2 3.5.5 5.3.7 1.8.2 3.5.4 5.3.6 3.5.3 7 .6 10.6.9 1.8.1 3.5.2 5.3.3l5.3.3 5.3.3 5.3.2 10.6.4v2.7l-3.7-.1v-2.5h15.3l15.4-.1zM148.7 134s.6.1 1.7.4c.5.1 1.2.3 1.9.6s1.5.7 2.3 1.3c.4.3.8.7 1.1 1.4.3.6.3 1.5 0 2.2-.7 1.4-1.8 2-2.9 2.6-1.1.6-2.2 1-3.4 1.4-1.2.4-2.3.7-3.5 1-1.2.3-2.4.6-3.6.8-1.2.2-2.3.4-3.5.6-1.1.2-2.2.3-3.3.5-1 .1-2 .2-2.9.3-1.8.1-3.3.2-4.4.2h-1.7s2.4-.7 5.9-1.6c1.8-.4 3.8-.9 6-1.5 1.1-.3 2.2-.5 3.4-.9 1.1-.3 2.3-.6 3.5-.9 1.1-.3 2.3-.6 3.4-.9 1.1-.3 2.2-.7 3.1-1.1.9-.4 1.8-1 2.1-1.5.2-.2.2-.4.1-.7-.1-.3-.3-.6-.5-.9-.5-.6-1.2-1.1-1.7-1.5-.6-.4-1.1-.8-1.6-1-1-.6-1.5-.8-1.5-.8z"/><path fill="#746E00" d="M157.9 135.8s.4.1 1.2.4c.4.1.8.4 1.3.6.5.3 1 .6 1.5 1.1.5.5 1 1.3 1 2.3 0 1-.6 1.8-1.3 2.5-.7.6-1.4 1.2-2.2 1.6-.8.5-1.6.9-2.5 1.3-.8.4-1.7.7-2.5 1.1-.8.3-1.7.6-2.5.9l-2.4.6c-.8.2-1.5.3-2.2.3-1.3.2-2.5.2-3.3.2h-1.3v-.2s.4-.2 1.1-.5c.4-.2.8-.3 1.3-.5s1.1-.4 1.7-.6c.6-.2 1.3-.4 2-.7.7-.2 1.5-.5 2.3-.7.8-.2 1.6-.4 2.5-.6.8-.2 1.7-.5 2.5-.7.8-.3 1.6-.6 2.4-1 .8-.4 1.5-.8 2.1-1.2.6-.5 1-1 1.1-1.6.1-.6-.2-1.2-.6-1.6-.8-1-1.8-1.5-2.4-1.9-.7-.4-1.1-.6-1.1-.6l.3-.5z"/></g><path fill="#FFDD30" d="M151.6 66.4c-4.7-2.9-13.8 2.4-21.7 8.9l.9.3c.5.2 1 .4 1.6.7.5.2 1.1.5 1.6.8.3.1.5.3.8.4.3.1.5.3.8.4l1.5.9c.5.3.9.6 1.3.9.2.1.4.3.6.4.2.1.4.3.5.4.3.3.7.5.9.7.3.2.5.4.7.6.4.3.6.5.6.5s-.2-.2-.6-.5c-.2-.1-.4-.3-.7-.5-.3-.2-.6-.4-1-.6-.2-.1-.4-.2-.6-.4-.2-.1-.4-.2-.6-.4-.4-.2-.9-.5-1.4-.8-.5-.2-1-.5-1.5-.7-.3-.1-.5-.2-.8-.4-.3-.1-.5-.2-.8-.3-.5-.2-1.1-.4-1.6-.6-.5-.2-1.1-.4-1.6-.5-.5-.2-1-.3-1.5-.4h-.2c-8.4-1.8-17.8-2.6-26.8-2.9-7.4 7.3-18 11.9-30 11.9-8.1 0-15.5-2-21.5-5.6-.1 0-.2-.1-.5-.2-.2-.1-.4-.1-.6-.2-.2-.1-.5-.2-.7-.3-.3-.1-.6-.3-.9-.4-.3-.1-.6-.3-1-.5-.7-.3-1.4-.7-2-1.1-.5-.3-1.1-.7-1.6-1-.1 1-.7 2.1-2.6 2.8-3.4 1.1-6.5 2.4-9.2 3.9-14.4 7.1-18.2 14.1-16.6 29.1 1.3 11.9 3.8 20 9.9 25.4 11 3.5 52.3 14 116.8-.2 9.6-5.5 14.3-13 16.7-20.1 7.4-19.2-1.8-47.1-6.6-50.4z"/><g fill="#FFE364"><path d="M135.3 75.4c.5.2 1.1.5 1.6.8.3.1.5.3.8.4.3.1.5.3.8.4.4.2.7.4 1 .6 4.8-3.9 10-7.2 14.3-8.5-.8-1.3-1.5-2.2-2.1-2.6-1.5-.9-3.4-1-5.6-.5-4.1 1.7-8.9 4.9-13.2 8.5l.9.3c.4.1 1 .3 1.5.6zM31.8 138.9c.3.1.7.2 1 .2-5.5-5.4-8-13.2-9.2-24.7-1.6-15.1 2.2-22 16.6-29.1 2.7-1.5 5.8-2.8 9.2-3.9 1-.4 1.6-.9 2-1.4-.3-.2-.6-.3-.9-.5-.1 0-.2-.1-.5-.2-.2-.1-.4-.1-.6-.2-.2-.1-.5-.2-.7-.3-.3-.1-.6-.3-.9-.4-.3-.1-.6-.3-1-.5-.6-.3-1.3-.7-1.9-1.1-.4.3-.8.6-1.4.8-3.4 1.1-6.5 2.4-9.2 3.9-14.3 7.2-18.1 14.1-16.5 29.2 1.5 14.3 4.9 23 14 28.2z"/></g><path fill="#FFDD30" d="M92.5 10.6c-.4-3.2-1.1-5.6-2-6.6-3.5-4-13.7-1.3-23 2.9-20.6 3.5-29.8 22.3-32.2 42.5C33 69.6 49.7 85.2 72 85.2c21.6 0 39-14.8 40.4-33.9 1.3-17.6-6.7-33.4-19.9-40.7z"/><path fill="#E9B008" d="M92.5 10.6c13.2 7.3 15.3 24.7 14.2 37.9-1.6 19.1-18.8 33.9-40.4 33.9-5.7 0-11-1-15.7-2.8 6 3.6 13.3 5.6 21.4 5.6 21.6 0 39-14.8 40.4-33.9 1.3-17.6-6.7-33.4-19.9-40.7M66.5 16.7l.5-.5c.3-.3.9-.7 1.6-1.1l1.2-.6c.4-.2.9-.3 1.4-.5.5-.1 1.1-.2 1.7-.2h.9c.3 0 .6.1.9.1.6.1 1.2.3 1.7.6s1 .6 1.4 1l.6.6c.2.2.3.4.4.6.3.4.4.8.6 1.2.1.4.2.7.3 1.1.1.3.1.6.1.8v.7s-.2-.2-.5-.6c-.1-.2-.3-.4-.5-.6-.2-.2-.4-.5-.7-.7-.3-.2-.5-.5-.8-.7l-.2-.2c-.1-.1-.2-.1-.2-.2-.1-.1-.2-.1-.2-.2-.1-.1-.2-.1-.2-.2-.2-.1-.3-.2-.5-.3-.1-.1-.2-.1-.3-.1-.1 0-.2-.1-.3-.1-.4-.1-.8-.3-1.2-.3-.4-.1-.8-.1-1.3-.2h-1.3c-.4 0-.9 0-1.3.1-.4 0-.8.1-1.2.1-1.5.3-2.6.4-2.6.4z"/><path fill="#FFE96D" d="M86.5 2.1c-1.6-.2-11.9 2.5-19 5.7-20.6 3.5-29.8 22.3-32.2 42.5-.1 1.1-.2 2.2-.2 3.2.1 9.5 4.5 17.6 11.6 23.3-5-6.1-7.5-14-6.5-22.7 2.3-20.2 11.6-39 32.2-42.5C79.5 8.4 87.1 6.1 91.9 7c-.4-1.4-.8-4.3-5.4-4.9z"/><path fill="#FFE364" d="M86.5 2.1c-1.6-.2-11.9 2.5-19 5.7-20.6 3.5-29.8 22.3-32.2 42.5-.1 1.1-.2 2.2-.2 3.2.1 9.5 4.5 17.6 11.6 23.3-5-6.1-7.5-14-6.5-22.7 2.3-20.2 11.6-39 32.2-42.5C79.5 8.4 87.1 6.1 91.9 7c-.4-1.4-.8-4.3-5.4-4.9z"/><path fill="#FFF" d="M55.9 31.2c-2.6 5.2-7.5 8.2-10.8 6.6-3.3-1.5-3.9-7-1.3-12.2 2.6-5.2 7.5-8.2 10.8-6.6 3.4 1.6 3.9 7 1.3 12.2z"/><path fill="#E9B008" d="M55.9 31.2s-.1.2-.3.5c-.2.4-.5.9-.9 1.5-.8 1.2-2.2 3-4.5 4.3-1.1.6-2.6 1.2-4.1 1-.4 0-.8-.2-1.2-.3-.4-.2-.7-.3-1.1-.6-.7-.5-1.2-1.2-1.6-2-.4-.8-.6-1.6-.7-2.5-.1-.9-.1-1.8 0-2.6.2-1.8.8-3.5 1.6-5.1.2-.4.4-.8.7-1.1.2-.4.5-.8.8-1.1.5-.7 1.1-1.4 1.7-2 1.3-1.2 2.8-2.2 4.4-2.6.8-.2 1.7-.3 2.5-.2.8.1 1.6.5 2.2.9 1.3 1 1.8 2.5 2.1 3.7.4 2.6-.2 4.8-.7 6.2-.3.7-.5 1.3-.7 1.6l-.2.4zm0 0l.3-.6c.2-.4.4-.9.6-1.6.2-.7.5-1.6.6-2.6.1-1 .2-2.2-.1-3.5-.3-1.2-.8-2.6-2-3.5-.6-.4-1.3-.7-2.1-.8-.8-.1-1.5 0-2.3.3-1.5.5-2.9 1.4-4.1 2.6-1.2 1.2-2.2 2.6-3 4.1-.8 1.5-1.3 3.2-1.6 4.8-.2 1.7-.1 3.4.5 4.8.6 1.5 1.9 2.6 3.4 2.8 1.4.2 2.8-.2 4-.8 2.3-1.2 3.7-2.9 4.5-4.1.4-.6.7-1.1.9-1.5.3-.2.4-.4.4-.4z"/><path fill="#1D1E1C" d="M46.7 28.4c1.1-2.3 3.6-3.4 5.6-2.5 1.9.9 2.5 3.4 1.4 5.7S50 35 48.1 34.1s-2.6-3.4-1.4-5.7z"/><path fill="#5B5959" d="M52.3 25.9c-.6-.3-1.3-.4-2-.3.4 0 .8.1 1.2.3 1.9.9 2.5 3.4 1.4 5.7-.8 1.5-2.2 2.5-3.6 2.7 1.7.1 3.5-1 4.4-2.8 1.1-2.1.5-4.7-1.4-5.6z"/><path fill="#FFF" d="M52.1 27.2c.3-.5.9-.8 1.3-.6.5.2.6.8.3 1.4-.3.5-.9.8-1.3.6-.4-.3-.6-.9-.3-1.4zM75.8 36.7c-3.3 6.3-10.1 9.5-15.1 7.1s-6.4-9.4-3.1-15.7c3.3-6.3 10.1-9.5 15.1-7.1s6.4 9.4 3.1 15.7z"/><path fill="#E9B008" d="M75.8 36.7s-.1.2-.4.7c-.3.5-.7 1.1-1.3 1.9-.6.8-1.4 1.7-2.5 2.5-1.1.9-2.4 1.7-4 2.2-1.6.5-3.5.8-5.4.3-1-.2-1.9-.7-2.7-1.3-.8-.6-1.6-1.4-2.1-2.3-1.1-1.8-1.6-4.1-1.5-6.3.1-2.2.8-4.5 1.8-6.5 1.1-2 2.5-3.8 4.3-5.2 1.7-1.4 3.8-2.3 5.9-2.6 1.1-.2 2.1-.1 3.1.1s1.9.6 2.8 1.1c1.6 1.1 2.7 2.7 3.3 4.3.6 1.6.7 3.2.6 4.6-.1 1.4-.3 2.6-.6 3.5-.3.9-.6 1.7-.8 2.1-.4.6-.5.9-.5.9zm-.1 0s.1-.3.3-.7c.2-.5.5-1.2.8-2.1.3-.9.5-2.1.6-3.5 0-1.4-.1-2.9-.7-4.5-.3-.8-.7-1.5-1.3-2.2-.5-.7-1.2-1.3-2-1.8-.9-.5-1.7-.8-2.7-1-1-.2-2-.2-2.9 0-2 .4-3.9 1.3-5.6 2.6-.8.7-1.6 1.4-2.3 2.3-.7.8-1.2 1.7-1.8 2.7-1 1.9-1.7 4-1.8 6.1-.1 1.1 0 2.1.2 3.1s.6 2 1.1 2.8c.5.9 1.2 1.6 1.9 2.2.8.6 1.6 1 2.5 1.3 1.8.5 3.7.3 5.2-.1 1.6-.5 2.9-1.3 4-2.1 1.1-.9 1.9-1.7 2.5-2.5.6-.8 1-1.4 1.3-1.9.6-.5.7-.7.7-.7z"/><path fill="#1D1E1C" d="M63.1 31.2c1.4-2.7 4.9-3.8 7.8-2.5s4 4.7 2.6 7.4-4.9 3.8-7.8 2.5c-2.9-1.4-4.1-4.7-2.6-7.4z"/><path fill="#5B5959" d="M70.9 28.7c-1.1-.5-2.3-.7-3.5-.5.8 0 1.5.2 2.2.6 2.9 1.4 4 4.7 2.6 7.4-.9 1.7-2.5 2.7-4.4 3 2.3.1 4.5-1 5.6-3 1.5-2.8.4-6.1-2.5-7.5z"/><path fill="#FFF" d="M70 30c.4-.7 1.2-.9 1.9-.6.7.3 1 1.2.6 1.8s-1.2.9-1.9.6c-.6-.3-.9-1.1-.6-1.8z"/><path fill="#FFDD30" d="M69.1 46.4c-.9 3-8.1 3.7-16.1 1.6s-13.7-6.3-12.8-9.3c.9-3 8.1-3.7 16.1-1.6s13.7 6.3 12.8 9.3z"/><path fill="#FFE364" d="M40.2 38.6c-.4 1.3.4 2.7 2.1 4.2.6-2.3 1.4-4.6 2.2-6.8-2.3.4-3.9 1.3-4.3 2.6z"/><path fill="#FFDD30" d="M158.9 109.7c-.5 6-2.3 13.3-9.5 18.3-6.6 5.2-17.2 7.2-26.1 7.9-28.2 2.3-32.3-1.1-37.8-19.5-1.7-5.6-.3-14 6.6-19.2 6.4-5.5 18.9-7.9 28.2-8.5 9.3-1.3 22.2-1.5 29.4 2.8 7.6 4 9.7 12.2 9.2 18.2z"/><path fill="#E9B008" d="M159 107.5v-.2c0-.3 0-.7-.1-1v-.1c-.1-.8-.2-1.5-.3-2.3v-.1-.1c0-.1 0-.2-.1-.3v-.2c0-.2-.1-.4-.1-.6-.1-.2-.1-.4-.2-.6 0-.2-.1-.3-.2-.5-.1-.4-.2-.7-.4-1.1-.1-.1-.1-.3-.2-.4l-.3-.6c-.1-.1-.1-.2-.2-.4-.2-.4-.4-.7-.6-1.1-.3-.6-.7-1.1-1.1-1.6-1.4-1.9-3.3-3.6-5.7-4.8-4.3-2.6-10.7-3.5-17.1-3.6 5.6.3 11 1.3 14.8 3.5 3 1.5 5.1 3.6 6.6 6h-.1c-6.6 5.2-17.2 7.2-26.1 7.9-9.9.8-16.8.9-21.9-.1 5.2 1.6 12.7 1.6 24.3.7 8.3-.7 18.1-2.5 24.7-6.9.9 2 1.5 4.2 1.7 6.2-.7.7-1.5 1.3-2.3 1.9-6.6 5.2-17.2 7.2-26.1 7.9-9.9.8-16.8.9-21.9-.1 5.2 1.6 12.7 1.6 24.3.7 8.9-.7 19.5-2.7 26.1-7.9-.5 3.3-1.4 6.9-3.5 10.2-6.6 4.4-16.3 6.1-24.6 6.8-9.9.8-16.8.9-21.9-.1 5.2 1.6 12.7 1.6 24.3.7 6.3-.5 13.6-1.7 19.6-4.2-.9 1-2 1.9-3.2 2.7-6.6 5.2-17.2 7.2-26.1 7.9-19.2 1.6-27.2.5-32.1-6.2 4.1 8.6 9.9 11.1 25.4 10.6.6 0 1.2-.1 1.9-.1h.4c.5 0 1.1-.1 1.7-.1h.5c.5 0 1.1-.1 1.7-.1h.6c.7-.1 1.5-.1 2.3-.2 8.9-.7 19.6-2.8 26.1-7.9 4.3-3 6.7-6.8 8-10.6.1-.3.2-.6.3-.8v-.2c.1-.3.2-.6.2-.9.1-.3.1-.6.2-.9v-.1c.1-.3.1-.6.2-.9.3-1.4.4-2.7.5-4 0-.3 0-.7.1-1v-.3c-.1.1-.1-.2-.1-.5z"/><path fill="#FFE364" d="M86.2 117.2c-1.7-5.6-.3-14 6.6-19.2 6.4-5.5 18.9-7.9 28.2-8.5 3.9-.5 8.4-.9 12.9-.8 3.2-.1 6.5.1 9.6.5-7.2-1.8-16.3-1.4-23.3-.5-9.3.6-21.8 2.9-28.2 8.5-6.9 5.2-8.3 13.6-6.6 19.2 2.3 7.6 4.3 12.6 7.9 15.7-3-3.1-4.9-7.9-7.1-14.9z"/><defs><path id="a" d="M159.7 111.5c-2.1 9.3-7.2 20.5-22.2 27.3-13.9 7.2-35.1 8.8-52.6 8.7-55.4-.4-62.8-6.3-70-35.9-2.2-9 2.2-22 16.6-29.1 13.6-7.7 38.5-9.6 56.7-9.2 18.4-.7 43.6.9 56.9 8.6 14.3 7.2 16.7 20.3 14.6 29.6z"/></defs><path fill="#A05B49" d="M72.6 60.4s-1.9 4.2-8.4 7.3c-9.8 4.7-26.9 8-38.2-1.7-.1.1 42-5 46.6-5.6z"/><path fill="#FF674C" d="M49.9 37.3c-3.7.8-10 2.6-13.5 1.1-1.6-.7-3.2-2.7-4.8-3.7-2.5-1.5-5.4-2.5-8.3-1.5-12.5 4.2-1.3 18.7 3.6 23.5-3.3.9-6.1 3.8-3.8 7.1 1.4 2 3.9 3.2 6.2 4 6.9 2.5 15 1.2 21.9-.3 6.1-1.3 11.9-3.7 17.8-5.7 1.9-.7 3.5-1.2 3.5-1.2s1.8-4.8 1.1-6.1c-5.7-6-16-14.3-23.7-17.2z"/><path fill="#A05B49" d="M70.3 59c-4.7 1.7-10.4 1.8-15.1.1-6.9-2.6-12.2-9.3-16.6-14.9-2.2-2.8-4.8-7-8.1-8.6-5.7-2.7-12.1.9-11.6 7.2.5 5.9 5.1 9.2 8 13.9-2.6 1.5-2.6 3.9-.9 6.1 1.9 2.5 5.1 3.2 8.1 3.5 12.3 1 24.9-3.2 36.2-7.3z"/><path fill="#FF9176" d="M26.9 56.7c-2.6 1.5-2.6 3.9-.9 6.1 1.9 2.5 5.1 3.2 8.1 3.5 12.3 1 24.9-3.2 36.2-7.3-.3.1-.5.2-.8.2C58.6 63.1 46.6 67 34.9 66c-3-.3-6.1-1-8.1-3.5-1.7-2.2-2.5-4.4.1-5.8"/><g><path fill="#B07261" d="M36.1 56.9c-4-.8-5.7-.8-7.4.2-3 1.6-4.7 12.4 30.5 3.9-.6.1-1.8.1-23.1-4.1z"/></g><path fill="#FF9176" d="M73.1 55.6c.3-.1.5-.2.7-.3 0-.4 0-.7-.2-1-3.5-3.5-8.8-8-14-11.7-.7-.5-1.5-1-2.2-1.5 0 0 4.1 3.5 4.3 3.7.2.1.4.3.5.4.2.1.4.3.5.4s.4.3.5.4c.2.1.4.3.5.4.2.1.4.3.5.4.2.1.4.3.5.4.2.1.4.3.5.4.2.1.3.3.5.4.3.3.7.6 1 .9.3.3.7.6 1 .9.3.3.7.6 1 .9.3.3.6.6 1 .9l.6.6.6.6.6.6c.2.2.4.4.5.6h-.1-.1-.1-.1c-.2.1-.4.1-.5.2-.2.1-.4.1-.5.2-.2.1-.4.1-.5.1-.2 0-.4.1-.5.1-.2 0-.4.1-.5.1-.2 0-.4.1-.5.1-.2 0-.4.1-.5.1-.2 0-.4.1-.5.1H63c-.4 0-.7 0-1.1-.1-.4 0-.7-.1-1.1-.1h-1.2c-.1 0-.2 0-.3-.1-.1 0-.2 0-.3-.1-.1 0-.2 0-.3-.1-.1 0-.2 0-.3-.1-.2 0-.4-.1-.5-.1-.2 0-.4-.1-.5-.1-.2 0-.4-.1-.5-.1-.2-.1-.4-.1-.5-.2-.2-.1-.4-.1-.5-.2-.2-.1-.3-.1-.5-.2s-.3-.1-.5-.2-.3-.1-.5-.2-.3-.1-.5-.2-.3-.1-.5-.2-.3-.1-.5-.2-.3-.2-.5-.2c-.2-.1-.3-.2-.5-.2-.2-.1-.3-.2-.5-.2-.2-.1-.3-.2-.5-.3s-.3-.2-.5-.3c-.2-.1-.3-.2-.5-.3-.2-.1-.3-.2-.5-.3-.2-.1-.3-.2-.5-.3-.2-.1-.3-.2-.5-.3-.2-.1-.3-.2-.5-.3-.2-.1-.3-.2-.5-.3-.2-.1-.3-.2-.5-.3-.2-.1-.3-.2-.5-.3-.2-.1-.3-.2-.5-.3-.2-.1-.3-.2-.5-.3-.2-.1-.3-.2-.5-.3-.2-.1-.3-.2-.5-.3-.1-.1-.2-.2-.3-.2-.1-.1-.2-.2-.3-.2-.1-.1-.2-.2-.3-.2-.1-.1-.2-.2-.3-.2.7.6 1.5 1.3 2.3 1.9.8.6 1.6 1.3 2.5 1.9.9.6 1.7 1.2 2.6 1.8.9.6 1.8 1.2 2.8 1.7 1 .6 2 1 3 1.4 1 .4 2 .6 3 .8 1 .2 2 .3 2.9.3h2.8c1.1-.1 2.1-.2 3-.4.9-.2 1.8-.4 2.5-.6 1.4.3 2 .1 2.5-.1zM39.5 42.2l.6.6c.2.2.3.4.5.6.1.1.2.2.2.3.1.1.1.2.2.2l.2.2c.1.1.1.1.1.2s.1.1.1.1l.1.1.1.1v-.1s0-.1-.1-.1c0 0 0-.1-.1-.2 0-.1-.1-.1-.1-.2s-.1-.2-.1-.2c0-.1-.1-.2-.1-.3-.1-.1-.1-.2-.2-.3-.1-.1-.1-.2-.2-.3-.1-.1-.1-.2-.2-.3-.1-.1-.2-.2-.2-.3-.1-.1-.2-.2-.3-.4-.1-.1-.2-.2-.3-.4-.1-.1-.2-.2-.3-.4-.1-.1-.2-.2-.3-.4-.1-.1-.2-.2-.3-.4l-.3-.3-.3-.3c-.1-.1-.2-.2-.4-.3s-.2-.2-.4-.3c-.1-.1-.2-.2-.4-.3l-.3-.3c-.1-.1-.2-.2-.3-.2-.1 0-.1-.1-.2-.1-.3-.1-.6-.3-.8-.5-.1-.1-.3-.2-.4-.2-.1-.1-.2-.1-.3-.2-.1 0-.1-.1-.1-.1l.1.1c.1.1.1.1.3.2.1.1.2.2.4.3.1.1.3.3.5.4.2.2.4.3.6.5l.6.6c.2.2.4.4.7.6l.7.7c.2.2.4.5.6.7 0 .4.2.6.4.9z"/><path fill="#E9B008" d="M49 15.6s.1-.2.3-.5c.2-.3.5-.8 1-1.2.5-.5 1.1-.9 1.9-1.3.2-.1.4-.2.6-.2.2-.1.5-.1.7-.2.5-.1 1-.2 1.5-.1.3 0 .5 0 .8.1.3 0 .5.1.7.2.2.1.5.2.7.3.1.1.2.1.3.2.1.1.2.1.3.2.2.1.4.3.5.4.2.1.3.3.5.4l.4.4c.1.2.2.3.3.4.2.3.3.6.4.8.1.2.2.5.2.7.1.4.1.6.1.6s-.2-.1-.5-.3l-.6-.3c-.2-.1-.5-.3-.7-.4-.1-.1-.3-.1-.4-.2-.1 0-.1-.1-.2-.1s-.1-.1-.2-.1c-.1-.1-.3-.1-.4-.2-.1-.1-.3-.1-.4-.2-.3-.1-.6-.2-.9-.2-.2 0-.3 0-.5-.1h-1.5c-.3 0-.7.1-1 .2-.7.1-1.3.3-1.9.5-1.2-.1-2 .2-2 .2zM123 140.3l6.2-1.4 4.2-5.1c-45.8 11.1-82.7 8.1-94.8 6.7 16.7 3.2 45.5 6.1 84.4-.2z"/><path fill="#E9B008" d="M151.6 66.4c5.4 8 5.2 30.6-1.1 46.9-2.8 8-8.4 16.7-20.8 22.2-7.5 3.9-17.1 6.1-27.1 7.3 11.8-1.1 24.8-3 38.9-6.1 9.6-5.5 14.3-13 16.7-20.1 8.3-25.4-3.1-47.3-6.6-50.2z"/></svg>