<svg xmlns="http://www.w3.org/2000/svg" x="512" y="512" viewBox="0 0 595.3 841.9"><path class="st0" d="M228.5 474.9l-.9.6c-.3.2-.6.5-.9.8-.3.3-.7.7-.9 1.1-.3.4-.3.8-.2 1.1.1.3.6.7 1.1 1 .5.3 1.2.6 1.8.9.7.3 1.4.5 2.1.7 2.9.9 5.9 1.7 8.1 2.3 1.1.3 2.1.6 2.7.9.7.2 1 .4 1 .4s-1.6.2-4 0c-.6 0-1.2-.1-1.9-.1-.7-.1-1.4-.1-2.1-.3-.7-.1-1.5-.3-2.2-.4-.8-.2-1.5-.4-2.3-.6-.8-.2-1.5-.5-2.3-.9-.7-.4-1.5-.7-2.1-1.2s-1.3-1.2-1.6-2.2c-.1-.5-.1-1 .1-1.4.2-.4.4-.7.7-1 .5-.5 1-.8 1.5-1 .5-.2.9-.4 1.2-.5.7-.1 1.1-.2 1.1-.2z"/><path class="st0" d="M320.4 484.8c-2.2.3-4.5.6-6.7.8-2.3.2-4.5.4-6.8.6l-6.8.5c-2.3.1-4.5.2-6.8.4v-2.2l3.3-.1v2.4l-9.4-.1c-3.1-.1-6.3-.2-9.5-.3s-6.3-.3-9.4-.6c-3.1-.3-6.3-.5-9.4-.9s-6.3-.8-9.4-1.4c-1.6-.3-3.1-.6-4.7-1-1.5-.4-3.1-.7-4.6-1.2-1.5-.4-3-.9-4.5-1.4-.4-.1-.7-.3-1.1-.4-.4-.2-.8-.3-1.1-.5-.7-.4-1.5-.8-2.1-1.6-.3-.4-.3-1.2 0-1.6s.6-.7 1-.9c.7-.4 1.5-.7 2.2-1 1.5-.5 3.1-.8 4.6-1.1-1.5.4-3 1-4.4 1.6-.7.3-1.4.7-2 1.1-.3.2-.5.5-.6.7-.1.3-.1.4.1.6.3.4 1 .8 1.7 1 .3.1.7.2 1 .4l1.1.3c1.5.4 3 .8 4.6 1.1 3 .6 6.1 1.2 9.2 1.6 1.5.2 3.1.4 4.6.6 1.5.2 3.1.3 4.7.5 3.1.3 6.2.6 9.3.8l4.7.3 4.7.3c3.1.2 6.3.3 9.4.4l9.4.4v2.4l-3.3-.1V485H307l13.4-.2zM354.2 472.6l1.5.3c.5.1 1 .3 1.6.6.6.3 1.3.6 2 1.2.3.3.7.7 1 1.2s.3 1.4 0 2c-.6 1.2-1.6 1.8-2.5 2.3-1 .5-2 .9-3 1.3-1 .3-2.1.6-3.1.9-1.1.3-2.1.5-3.1.7-1 .2-2.1.4-3.1.6-1 .2-2 .3-2.9.4s-1.8.2-2.6.3c-3.2.3-5.4.2-5.4.2s2.1-.6 5.2-1.4c1.6-.4 3.4-.8 5.3-1.3 1-.2 2-.5 3-.8 1-.2 2-.5 3.1-.8 1-.3 2.1-.5 3-.8 1-.3 1.9-.6 2.8-1 .8-.4 1.6-.9 1.9-1.3.1-.2.2-.4.1-.6-.1-.3-.2-.6-.5-.8-.5-.5-1-1-1.5-1.3-.5-.4-1-.7-1.4-.9-.9-.7-1.4-1-1.4-1z"/><path class="st0" d="M362.4 474.3s.4.1 1 .4c.3.1.7.3 1.1.6.4.2.9.6 1.4 1 .4.4.9 1.1.9 2s-.6 1.6-1.1 2.2c-.6.6-1.3 1-2 1.5-.7.4-1.4.8-2.2 1.1-.7.3-1.5.6-2.2.9s-1.5.6-2.2.8c-.7.2-1.4.4-2.1.5-.7.1-1.3.2-1.9.3-2.4.3-4 .1-4 .1v-.2l1-.5c.3-.1.7-.3 1.2-.5l1.5-.6 1.8-.6c.6-.2 1.3-.4 2-.6.7-.2 1.4-.4 2.2-.5.7-.2 1.5-.4 2.2-.7.7-.2 1.4-.5 2.1-.8.7-.3 1.3-.7 1.8-1.1.5-.4.9-.9 1-1.4s-.2-1-.5-1.5c-.7-.9-1.6-1.4-2.1-1.7-.6-.3-.9-.5-.9-.5v-.2z"/><g><path class="st0" d="M356.7 412.9c-4.1-2.6-12.2 2.1-19.1 7.9.3.1.5.2.8.3.5.2.9.4 1.4.6.5.2.9.4 1.4.7.2.1.5.2.7.4.2.1.4.3.7.4.4.2.9.5 1.3.8.4.2.8.5 1.2.8.2.1.4.2.5.4.2.1.3.2.5.4.3.2.6.4.8.6.2.2.4.4.6.5l.5.5s-.2-.2-.6-.4c-.2-.1-.4-.3-.6-.5l-.9-.6c-.2-.1-.3-.2-.5-.3l-.6-.3c-.4-.2-.8-.5-1.2-.7-.4-.2-.9-.4-1.3-.6-.2-.1-.5-.2-.7-.3s-.5-.2-.7-.3c-.5-.2-.9-.4-1.4-.5-.5-.2-.9-.3-1.4-.5-.5-.1-.9-.3-1.3-.4h-.1c-7.4-1.6-15.7-2.3-23.7-2.6-6.5 6.5-15.9 10.5-26.5 10.5-7.2 0-13.7-1.8-19-5-.1 0-.2-.1-.4-.2-.1-.1-.3-.1-.5-.2s-.4-.2-.7-.3c-.2-.1-.5-.2-.8-.4-.3-.1-.6-.3-.8-.4-.6-.3-1.2-.6-1.8-1-.5-.3-.9-.6-1.4-.9-.1.9-.7 1.9-2.3 2.5-3 1-5.8 2.1-8.1 3.5-12.7 6.3-16.1 12.4-14.7 25.7 1.1 10.6 3.4 17.7 8.7 22.4 9.7 3.1 46.3 12.4 103.2-.2 8.5-4.9 12.6-11.5 14.7-17.8 6.5-16.9-1.6-41.5-5.9-44.5z"/><path class="st0" d="M304.6 363.6c-.4-2.8-1-4.9-1.8-5.8-3.2-3.5-12.2-1.1-20.4 2.6-18.2 3-26.3 19.6-28.4 37.4-2 17.9 12.7 31.7 32.4 31.6 19.1 0 34.4-13.1 35.7-30 1.2-15.4-5.9-29.4-17.5-35.8z"/><path class="st0" d="M304.6 363.6c11.6 6.4 13.5 21.8 12.5 33.5-1.4 16.9-16.6 30-35.7 30-5 0-9.7-.9-13.9-2.5 5.3 3.2 11.8 5 18.9 5 19.1 0 34.4-13.1 35.7-30 1.2-15.6-5.9-29.6-17.5-36M281.6 369s.1-.2.4-.5c.3-.3.8-.6 1.4-1 .3-.2.7-.4 1.1-.5.4-.2.8-.3 1.3-.4.5-.1.9-.2 1.5-.2h.8c.3 0 .5 0 .8.1.5.1 1 .3 1.5.5s.9.5 1.3.9c.2.2.4.3.5.5.1.2.3.4.4.5.2.4.4.7.5 1.1.1.3.2.6.2.9 0 .3.1.5.1.7v.6s-.2-.2-.4-.5c-.1-.2-.3-.3-.5-.5l-.6-.6-.7-.7-.2-.2c-.1 0-.1-.1-.2-.1s-.1-.1-.2-.1-.1-.1-.2-.1c-.1-.1-.3-.2-.5-.3-.1 0-.2-.1-.2-.1-.1 0-.2-.1-.2-.1-.3-.1-.7-.2-1-.3-.4-.1-.7-.1-1.1-.1h-1.2c-.4 0-.8 0-1.1.1-.4 0-.7.1-1 .1-1.6.2-2.5.3-2.5.3z"/><path class="st0" d="M299.2 356.1c-1.4-.2-10.5 2.2-16.8 5-18.2 3.1-26.4 19.7-28.4 37.6-.1 1-.2 1.9-.2 2.8.1 8.4 4 15.6 10.2 20.6-4.4-5.4-6.7-12.4-5.8-20.1 2.1-17.9 10.2-34.5 28.4-37.6 6.3-2.8 13-4.9 17.3-4.1-.3-1.1-.6-3.7-4.7-4.2z"/><path class="st0" d="M299.2 356.1c-1.4-.2-10.5 2.2-16.8 5-18.2 3.1-26.4 19.7-28.4 37.6-.1 1-.2 1.9-.2 2.8.1 8.4 4 15.6 10.2 20.6-4.4-5.4-6.7-12.4-5.8-20.1 2.1-17.9 10.2-34.5 28.4-37.6 6.3-2.8 13-4.9 17.3-4.1-.3-1.1-.6-3.7-4.7-4.2z"/><path class="st0" d="M272.2 381.8c-2.3 4.6-6.6 7.2-9.6 5.9-3-1.4-3.5-6.2-1.1-10.8s6.6-7.2 9.6-5.9c2.9 1.4 3.4 6.2 1.1 10.8z"/><path class="st0" d="M272.2 381.8s-.1.2-.3.5c-.2.3-.4.8-.8 1.3-.7 1.1-2 2.6-4 3.8-1 .6-2.3 1-3.7.8-1.4-.1-2.7-1.2-3.4-2.6-.3-.7-.5-1.5-.6-2.2-.1-.8 0-1.6 0-2.3.2-1.6.7-3.1 1.4-4.5.4-.6.8-1.3 1.2-2l1.5-1.8c1.1-1.1 2.4-1.9 3.9-2.3.7-.2 1.5-.3 2.2-.2s1.4.4 2 .8c1.2.9 1.6 2.2 1.8 3.3.3 2.3-.2 4.2-.6 5.5-.2.6-.4 1.1-.6 1.4.1.4 0 .5 0 .5zm-.1 0s.1-.2.2-.5c.2-.3.4-.8.6-1.4.4-1.2.9-3.1.5-5.4-.2-1.1-.7-2.3-1.8-3.1-.5-.4-1.2-.6-1.8-.7-.7-.1-1.4 0-2 .2-1.4.4-2.6 1.3-3.6 2.3-1 1.1-1.9 2.3-2.6 3.6-.7 1.3-1.2 2.8-1.4 4.3-.2 1.5-.1 3 .4 4.3.5 1.3 1.7 2.3 3 2.5 1.3.2 2.5-.2 3.5-.7 2-1.1 3.2-2.6 4-3.7.4-.5.6-1 .8-1.3.2-.2.2-.4.2-.4z"/><path class="st0" d="M264 379.3c1-2 3.2-3 4.9-2.2 1.7.8 2.3 3 1.2 5s-3.2 3-4.9 2.2c-1.6-.7-2.2-3-1.2-5z"/><path class="st0" d="M269 377.1c-.5-.3-1.1-.3-1.7-.2.4 0 .7.1 1 .3 1.7.8 2.3 3 1.2 5-.7 1.4-1.9 2.2-3.2 2.4 1.5.1 3.1-.8 3.9-2.5 1-1.9.5-4.2-1.2-5z"/><path class="st0" d="M268.8 378.2c.2-.5.8-.7 1.2-.5.4.2.5.7.3 1.2s-.8.7-1.2.5c-.4-.2-.5-.7-.3-1.2zM289.7 386.6c-2.9 5.6-8.9 8.4-13.3 6.3s-5.6-8.3-2.7-13.9c2.9-5.6 8.9-8.4 13.3-6.3 4.5 2.2 5.7 8.4 2.7 13.9z"/><path class="st0" d="M289.8 386.7s-.1.2-.4.6c-.2.4-.6 1-1.1 1.7-.5.7-1.3 1.5-2.2 2.2-.9.8-2.1 1.5-3.6 2-1.4.5-3.1.7-4.8.3-.8-.2-1.7-.6-2.4-1.1-.7-.5-1.4-1.2-1.9-2-1-1.6-1.4-3.6-1.3-5.5.1-2 .7-3.9 1.6-5.7 1-1.7 2.2-3.4 3.8-4.6 1.5-1.2 3.4-2.1 5.2-2.3.9-.1 1.9-.1 2.8.1.9.2 1.7.6 2.4 1 1.4 1 2.4 2.4 2.9 3.8s.6 2.8.6 4c-.1 1.2-.3 2.3-.5 3.1-.3.8-.5 1.5-.7 1.9-.3.2-.4.5-.4.5zm-.1-.1l.3-.6c.2-.4.5-1.1.7-1.9.3-.8.4-1.9.5-3.1 0-1.2-.1-2.6-.6-4s-1.5-2.7-2.9-3.6c-.8-.4-1.5-.7-2.4-.9-.8-.1-1.7-.2-2.6 0-1.8.3-3.5 1.2-4.9 2.3-.7.6-1.4 1.3-2 2s-1.1 1.5-1.6 2.4c-.9 1.6-1.5 3.5-1.6 5.4-.1.9 0 1.9.2 2.8.2.9.5 1.7.9 2.5s1 1.4 1.7 1.9 1.5.9 2.2 1.1c1.6.5 3.2.3 4.6-.1s2.6-1.1 3.5-1.9c.9-.8 1.7-1.5 2.2-2.2s.9-1.2 1.2-1.6c.5-.3.6-.5.6-.5z"/><path class="st0" d="M278.5 381.8c1.3-2.4 4.4-3.4 6.9-2.2 2.5 1.2 3.6 4.1 2.3 6.6-1.3 2.4-4.4 3.4-6.9 2.2-2.5-1.3-3.5-4.2-2.3-6.6z"/><path class="st0" d="M285.4 379.6c-1-.5-2-.6-3.1-.5.7 0 1.3.2 2 .5 2.5 1.2 3.6 4.1 2.3 6.6-.8 1.5-2.2 2.4-3.9 2.6 2 .1 4-.9 4.9-2.7 1.4-2.4.4-5.3-2.2-6.5z"/><path class="st0" d="M284.7 380.7c.3-.6 1.1-.8 1.7-.5.6.3.9 1 .6 1.6s-1.1.8-1.7.5c-.7-.3-1-1-.6-1.6zM283.8 395.2c-.8 2.7-7.2 3.3-14.2 1.4-7.1-1.9-12.1-5.6-11.3-8.2.8-2.7 7.2-3.3 14.2-1.4 7.1 1.9 12.1 5.6 11.3 8.2z"/><path class="st0" d="M258.3 388.4c-.3 1.1.4 2.4 1.9 3.7.5-2.1 1.2-4.1 2-6-2.2.3-3.6 1.1-3.9 2.3zM363.2 451.1c-.4 5.3-2 11.8-8.4 16.2-5.8 4.6-15.2 6.4-23.1 7-24.9 2-28.5-1-33.4-17.2-1.5-4.9-.3-12.4 5.8-17 5.6-4.9 16.7-7 24.9-7.5 8.2-1.1 19.6-1.3 26 2.5 6.8 3.5 8.6 10.7 8.2 16z"/><path class="st0" d="M363.3 449.2v-.2c0-.3 0-.6-.1-.9v-.1c-.1-.7-.2-1.4-.3-2v-.1c0-.1 0-.2-.1-.3v-.1c0-.2-.1-.3-.1-.5s-.1-.3-.1-.5c0-.1-.1-.3-.1-.4l-.3-.9c0-.1-.1-.2-.1-.4-.1-.2-.2-.4-.2-.6 0-.1-.1-.2-.1-.3-.2-.3-.3-.7-.5-1-.3-.5-.6-1-1-1.4-1.2-1.7-2.9-3.2-5.1-4.2-3.8-2.3-9.5-3.1-15.2-3.2 4.9.2 9.7 1.1 13.1 3.1 2.6 1.3 4.5 3.2 5.8 5.3h-.1c-5.8 4.6-15.2 6.4-23.1 7-8.8.7-14.9.8-19.3-.1 4.6 1.4 11.3 1.5 21.5.6 7.3-.6 16-2.2 21.8-6.1.8 1.8 1.3 3.7 1.5 5.5-.6.6-1.3 1.1-2.1 1.7-5.8 4.6-15.2 6.4-23.1 7-8.8.7-14.9.8-19.3-.1 4.6 1.4 11.3 1.5 21.5.6 7.8-.6 17.2-2.4 23-7-.4 2.9-1.3 6.1-3.1 9-5.8 3.9-14.4 5.4-21.7 6-8.8.7-14.9.8-19.3-.1 4.6 1.4 11.3 1.5 21.5.6 5.6-.5 12-1.5 17.3-3.7-.8.8-1.7 1.6-2.8 2.4-5.8 4.6-15.2 6.4-23.1 7-17 1.4-24.1.4-28.4-5.5 3.6 7.6 8.8 9.8 22.5 9.3.5 0 1.1 0 1.7-.1h.3c.5 0 1-.1 1.5-.1h.5c.5 0 1-.1 1.5-.1h.5c.7 0 1.3-.1 2-.2 7.9-.6 17.3-2.4 23.1-7 3.8-2.6 5.9-6 7.1-9.4.1-.3.2-.5.2-.8v-.1c.1-.3.1-.5.2-.8.1-.3.1-.5.2-.8v-.1c.1-.3.1-.5.2-.8.2-1.2.4-2.4.5-3.5v-.9-.3c-.3.1-.3-.1-.3-.4z"/><path class="st0" d="M299 457.8c-1.5-4.9-.3-12.4 5.8-17 5.6-4.9 16.7-7 24.9-7.5 3.4-.5 7.4-.8 11.4-.7 2.9-.1 5.8.1 8.5.4-6.3-1.6-14.4-1.3-20.6-.4-8.2.5-19.3 2.6-24.9 7.5-6.1 4.6-7.3 12-5.8 17 2 6.7 3.8 11.1 7 13.9-2.8-2.8-4.4-7-6.3-13.2zM286.9 407.6s-1.7 3.7-7.4 6.5c-8.7 4.2-23.7 7.1-33.8-1.5 0 0 37.1-4.5 41.2-5z"/><path class="st0" d="M266.9 387.2c-3.3.7-8.9 2.3-11.9 1-1.5-.6-2.8-2.4-4.2-3.3-2.2-1.3-4.7-2.2-7.3-1.3-11.1 3.7-1.2 16.5 3.2 20.7-2.9.8-5.4 3.3-3.3 6.2 1.2 1.7 3.5 2.8 5.4 3.5 6.1 2.2 13.3 1.1 19.4-.3 5.4-1.2 10.5-3.3 15.7-5.1 1.7-.6 3.1-1.1 3.1-1.1s1.6-4.3 1-5.4c-5.2-5-14.3-12.4-21.1-14.9z"/><path class="st0" d="M284.9 406.3c-4.2 1.5-9.2 1.6-13.4.1-6.1-2.3-10.8-8.2-14.7-13.2-1.9-2.5-4.2-6.2-7.1-7.6-5-2.4-10.7.8-10.2 6.4.5 5.2 4.5 8.1 7.1 12.3-2.3 1.3-2.3 3.4-.8 5.4 1.7 2.2 4.5 2.9 7.2 3.1 10.8.9 21.9-2.9 31.9-6.5z"/><path class="st0" d="M246.6 404.3c-2.3 1.3-2.3 3.4-.8 5.4 1.7 2.2 4.5 2.9 7.2 3.1 10.8 1 22-2.8 32-6.4-.2.1-.5.1-.7.2-9.6 3.5-20.3 6.9-30.6 6-2.6-.2-5.4-.9-7.1-3.1-1.6-2-2.3-3.9 0-5.2"/><g><path class="st0" d="M254.7 404.5c-3.5-.7-5-.7-6.6.2-2.7 1.4-4.2 10.9 26.9 3.4-.4.1-1.5.1-20.3-3.6z"/></g><path class="st0" d="M287.4 403.4c.2-.1.5-.2.6-.3 0-.4 0-.7-.1-.9-3.1-3.1-7.7-7.1-12.4-10.3-.7-.4-1.3-.9-2-1.3 0 0 3.6 3.1 3.8 3.3.2.1.3.3.5.4s.3.3.5.4.3.3.5.4c.2.1.3.3.5.4s.3.3.5.4.3.3.5.4.3.3.5.4c.2.1.3.3.5.4.3.3.6.5.9.8.3.3.6.5.9.8.3.3.6.5.9.8s.6.5.8.8c.2.2.4.4.6.5.2.1.4.4.5.6.2.2.4.4.5.6.2.2.3.4.5.6h-.4c-.2.1-.3.1-.5.2-.2 0-.3.1-.5.1s-.3.1-.5.1-.3.1-.5.1-.3.1-.5.1-.3.1-.5.1-.3.1-.5.1-.3 0-.5.1H278.9c-.3 0-.6 0-1-.1-.3 0-.6-.1-1-.1H275.3c-.2 0-.3-.1-.5-.1s-.3-.1-.5-.1-.3-.1-.5-.1-.3-.1-.5-.1-.3-.1-.5-.1c-.2-.1-.3-.1-.5-.2s-.3-.1-.5-.2-.3-.1-.5-.2-.3-.1-.5-.2-.3-.1-.5-.2-.3-.1-.4-.2c-.1-.1-.3-.1-.4-.2s-.3-.1-.4-.2-.3-.1-.4-.2c-.1-.1-.3-.1-.4-.2s-.3-.2-.4-.2c-.1-.1-.3-.2-.4-.2-.1-.1-.3-.2-.4-.2-.1-.1-.3-.2-.4-.3-.1-.1-.3-.2-.4-.3-.1-.1-.3-.2-.4-.3s-.3-.2-.4-.3c-.1-.1-.3-.2-.4-.3s-.3-.2-.4-.3-.3-.2-.4-.3c-.1-.1-.3-.2-.4-.3s-.3-.2-.4-.3c-.1-.1-.3-.2-.4-.3-.1-.1-.2-.1-.3-.2-.1-.1-.2-.1-.3-.2-.1-.1-.2-.1-.3-.2-.1-.1-.2-.1-.3-.2.7.6 1.3 1.1 2 1.7.7.6 1.4 1.1 2.2 1.7.8.6 1.5 1.1 2.3 1.6s1.6 1 2.5 1.5 1.8.9 2.7 1.2c.9.3 1.8.6 2.7.7.9.2 1.8.3 2.6.3h2.5l2.7-.3c.8-.2 1.6-.3 2.2-.5.1-.6.6-.8 1.1-.9zM257.7 391.5c.2.2.3.4.5.6.2.2.3.4.4.5.1.1.1.2.2.2l.2.2.2.2c0 .1.1.1.1.2l.1.1.1.1v0-.1s0-.1-.1-.1c0-.1-.1-.1-.1-.2s-.1-.1-.1-.2-.1-.2-.1-.2c0-.1-.1-.2-.2-.3-.1-.1-.1-.2-.2-.3s-.1-.2-.2-.3-.1-.2-.2-.3c-.1-.1-.2-.2-.2-.3l-.3-.3-.3-.3-.3-.3-.3-.3-.3-.3-.3-.3-.3-.3-.3-.3-.3-.3c-.1-.1-.2-.2-.3-.2-.1-.1-.2-.1-.3-.2-.1 0-.1-.1-.2-.1-.2-.1-.5-.3-.7-.5-.1-.1-.2-.1-.3-.2-.1-.1-.2-.1-.3-.1h-.1l.1.1c.1 0 .1.1.2.2l.3.3c.1.1.3.2.4.4.2.1.3.3.5.5s.4.3.6.5l.6.6.6.6.6.6c.2 0 .4.2.6.4zM266.1 368s.1-.2.2-.5c.2-.3.5-.7.9-1.1s1-.8 1.7-1.2c.2-.1.4-.2.6-.2.2-.1.4-.1.6-.2.4-.1.9-.1 1.3-.1.2 0 .5 0 .7.1.2 0 .4.1.7.2.2.1.4.1.6.2.1 0 .2.1.3.1.1.1.2.1.3.2.2.1.3.2.5.3s.3.2.4.4c.1.1.2.3.3.4.1.1.2.3.3.4.2.3.3.5.4.7s.2.4.2.6c.1.3.1.5.1.5s-.2-.1-.5-.3c-.1-.1-.3-.2-.5-.3s-.4-.2-.6-.4c-.1-.1-.2-.1-.3-.2-.1 0-.1-.1-.2-.1s-.1-.1-.2-.1c-.1-.1-.2-.1-.4-.2-.1 0-.3-.1-.4-.1-.3-.1-.5-.1-.8-.2-.1 0-.3 0-.4-.1h-1.3c-.3 0-.6.1-.9.1-.6.1-1.2.3-1.7.4-1.2.5-1.9.7-1.9.7zM331.5 478.2l5.5-1.3 3.7-4.5c-40.4 9.8-73.1 7.2-83.8 5.9 14.8 2.9 40.2 5.4 74.6-.1z"/><path class="st0" d="M356.7 412.9c4.8 7.1 4.6 27-1 41.5-2.4 7.1-7.4 14.7-18.3 19.6-6.6 3.4-15.1 5.4-23.9 6.5 10.4-1 21.9-2.7 34.4-5.4 8.5-4.9 12.6-11.5 14.7-17.8 7.3-22.5-2.8-41.9-5.9-44.4z"/><g><path class="st0" d="M342.3 420.8c.5.2.9.4 1.4.7.2.1.5.2.7.4.2.1.4.3.7.4.3.2.6.4.9.5 4.2-3.4 8.8-6.4 12.6-7.5-.7-1.1-1.3-1.9-1.9-2.3-1.3-.8-3-.9-4.9-.5-3.7 1.5-7.8 4.3-11.6 7.5.3.1.5.2.8.3.4.1.9.3 1.3.5zM250.8 477c.3.1.6.1.9.2-4.9-4.7-7-11.7-8.1-21.8-1.4-13.3 2-19.4 14.7-25.7 2.4-1.4 5.1-2.5 8.1-3.5.9-.3 1.4-.8 1.8-1.2-.3-.2-.6-.3-.8-.5-.1 0-.2-.1-.4-.2-.1-.1-.3-.1-.5-.2s-.4-.2-.7-.3c-.2-.1-.5-.2-.8-.4-.3-.1-.6-.3-.8-.4-.5-.3-1.1-.6-1.7-.9-.3.3-.7.5-1.2.7-3 1-5.8 2.1-8.1 3.5-12.7 6.3-16.1 12.4-14.7 25.7 1.3 12.7 4.3 20.3 12.3 25z"/></g></g></svg>