<svg xmlns="http://www.w3.org/2000/svg" preserveAspectRatio="xMidYMid" width="46.955" height="46.987" viewBox="0 0 47.938 47.97"><defs><style>.cls-1{fill:#000;filter:url(#color-overlay-1);fill-rule:evenodd}</style><filter id="color-overlay-1" filterUnits="userSpaceOnUse"><feFlood flood-color="#fff"/><feComposite operator="in" in2="SourceGraphic"/><feBlend in2="SourceGraphic" result="solidFill"/></filter></defs><path d="M25.899 36.776l9.826 9.826a.799.799 0 1 1-1.13 1.131l-9.827-9.827v7.663a.799.799 0 1 1-1.598 0v-7.663l-9.827 9.827a.802.802 0 0 1-1.13 0 .799.799 0 0 1 0-1.131l9.826-9.826H-.012V3.202H23.17V.804a.799.799 0 1 1 1.598 0v2.398H47.95v33.574H25.899zM46.351 4.801H1.586v30.376h44.765V4.801zM4.784 7.199h7.194a.799.799 0 1 1 0 1.598H4.784a.799.799 0 1 1 0-1.598zm0 3.197h11.991a.8.8 0 0 1 0 1.599H4.784a.799.799 0 1 1 0-1.599zm0 3.198h11.991a.799.799 0 1 1 0 1.599H4.784a.8.8 0 0 1 0-1.599zM9.58 24.785c.378 0 .734.078 1.07.198l1.526-1.526a3.17 3.17 0 0 1-.198-1.07 3.201 3.201 0 0 1 3.198-3.198 3.201 3.201 0 0 1 3.197 3.198c0 .377-.077.734-.197 1.07l1.526 1.526c.336-.12.692-.198 1.069-.198.592 0 1.139.172 1.614.453l5.778-5.778a3.168 3.168 0 0 1-.197-1.07 3.2 3.2 0 0 1 3.197-3.197 3.2 3.2 0 0 1 3.198 3.197c0 .377-.078.734-.198 1.07l3.924 3.924a3.17 3.17 0 0 1 1.07-.198 3.2 3.2 0 0 1 3.197 3.198 3.2 3.2 0 0 1-3.197 3.197 3.2 3.2 0 0 1-3.197-3.197c0-.797.303-1.518.788-2.079L33.242 20.8a3.172 3.172 0 0 1-2.079.787 3.167 3.167 0 0 1-2.078-.787l-5.569 5.568c.281.476.453 1.023.453 1.614a3.2 3.2 0 0 1-3.198 3.198 3.2 3.2 0 0 1-3.197-3.198c0-.797.304-1.518.787-2.078l-1.107-1.107a3.167 3.167 0 0 1-2.078.787 3.172 3.172 0 0 1-2.079-.787l-1.107 1.107c.484.56.788 1.281.788 2.078A3.2 3.2 0 0 1 9.58 31.18a3.2 3.2 0 0 1-3.197-3.198 3.2 3.2 0 0 1 3.197-3.197zm29.577 3.197a1.6 1.6 0 0 0 0-3.197 1.6 1.6 0 0 0 0 3.197zm-7.994-7.993a1.6 1.6 0 0 0 1.599-1.599 1.6 1.6 0 0 0-1.599-1.599c-.881 0-1.599.717-1.599 1.599s.718 1.599 1.599 1.599zm-10.392 9.592a1.6 1.6 0 0 0 1.599-1.599 1.6 1.6 0 0 0-1.599-1.598 1.6 1.6 0 0 0-1.598 1.598 1.6 1.6 0 0 0 1.598 1.599zm-5.595-5.595c.881 0 1.599-.718 1.599-1.599 0-.882-.718-1.599-1.599-1.599a1.6 1.6 0 0 0-1.599 1.599c0 .881.717 1.599 1.599 1.599zM9.58 29.581a1.6 1.6 0 0 0 1.599-1.599 1.6 1.6 0 0 0-1.599-1.598 1.6 1.6 0 0 0-1.598 1.598 1.6 1.6 0 0 0 1.598 1.599z" class="cls-1"/></svg>