<svg xmlns="http://www.w3.org/2000/svg" viewBox="-41 192.7 511.6 456.8"><path d="M-25.9 443C5 519.8 88.2 558.1 224 558.1h64v73.1c0 5 1.8 9.2 5.4 12.9 3.6 3.6 7.9 5.4 12.8 5.4 5 0 9.2-1.8 12.9-5.4l146.2-146.2c3.6-3.6 5.4-7.9 5.4-12.9 0-4.9-1.8-9.2-5.4-12.8L319 326c-3.6-3.6-7.9-5.4-12.9-5.4-4.9 0-9.2 1.8-12.8 5.4-3.6 3.6-5.4 7.9-5.4 12.8v73.1h-64c-18.6 0-35.3-.6-50.1-1.7-14.7-1.1-29.4-3.2-44-6.1-14.6-3-27.2-7-38-12.1S71 380.2 61.7 372.2c-9.3-8.1-16.9-17.7-22.8-28.8-5.9-11.3-10.5-24.4-13.8-39.7-3.3-15.2-5-32.5-5-51.7 0-10.5.5-22.2 1.4-35.1 0-1.1.2-3.4.7-6.7.5-3.3.7-5.9.7-7.6 0-2.9-.8-5.2-2.4-7.1-1.6-1.9-3.9-2.9-6.7-2.9-3 0-5.7 1.6-8 4.9-1.3 1.7-2.6 3.8-3.7 6.3s-2.4 5.3-3.9 8.6c-1.4 3.2-2.4 5.5-3 6.8C-28.9 273.5-41 316.4-41 348c0 37.9 5 69.5 15.1 95z"/></svg>