<svg xmlns="http://www.w3.org/2000/svg" viewBox="173 268.9 941 305"><path opacity=".3" fill-opacity="0" stroke="#FFF" stroke-width="6" stroke-linejoin="round" d="M299.1 319.9l-51.6-5.9c2.2-11.9 7.4-21.8 15.7-29.7 8.3-7.9 22.4-15.2 42.4-21.9L287.3 216c-32.4 9.9-56 22.9-70.8 39-14.7 16.1-23.8 39.3-27.3 69.6l-9.4 82.4 107.8 12.4 11.5-99.5zm125.6 14.4l-51.6-5.9c2.2-11.9 7.4-21.8 15.7-29.7 8.3-7.9 22.4-15.2 42.4-21.9l-18.3-46.4c-32.4 9.9-56 22.9-70.8 39-14.7 16.1-23.8 39.3-27.3 69.6l-9.4 82.4 107.8 12.4 11.5-99.5zM987.9 527.9l51.6 5.9c-2.2 11.9-7.4 21.8-15.7 29.7-8.3 7.9-22.4 15.2-42.4 21.9l18.3 46.4c32.4-9.9 56-22.9 70.8-39 14.7-16.1 23.8-39.3 27.3-69.6l9.4-82.4-107.8-12.4-11.5 99.5zm-125.6-14.4l51.6 5.9c-2.2 11.9-7.4 21.8-15.7 29.7-8.3 7.9-22.4 15.2-42.4 21.9l18.3 46.4c32.4-9.9 56-22.9 70.8-39 14.7-16.1 23.8-39.3 27.3-69.6l9.4-82.4L873.8 414l-11.5 99.5z"/></svg>