<svg id="Layer_1" xmlns="http://www.w3.org/2000/svg" viewBox="173 201.8 941 439.2"><style>.st0{opacity:.3;fill-opacity:0;stroke:#fff;stroke-width:6;stroke-linejoin:round;enable-background:new}</style><path class="st0" d="M289.3 358.3l-51.9.2c.8-12.1 4.8-22.5 12.1-31.3s20.5-17.7 39.6-26.7l-23.6-43.9c-31 13.6-52.9 29.3-65.8 47-12.7 17.7-19.1 41.8-19 72.3l.3 82.9 108.5-.3-.2-100.2zm126.4-.4l-51.9.2c.8-12.1 4.8-22.5 12.1-31.3s20.5-17.7 39.6-26.7l-23.6-43.9c-31 13.6-52.9 29.3-65.8 47-12.7 17.7-19.1 41.8-19 72.3l.3 82.9 108.5-.3-.2-100.2zM997.7 484.5l51.9-.2c-.8 12.1-4.8 22.5-12.1 31.3s-20.5 17.7-39.6 26.7l23.6 43.9c31-13.6 52.9-29.3 65.8-47 12.7-17.7 19.1-41.8 19-72.3l-.3-82.9-108.5.3.2 100.2zm-126.4.4l51.9-.2c-.8 12.1-4.8 22.5-12.1 31.3s-20.5 17.7-39.6 26.7l23.6 43.9c31-13.6 52.9-29.3 65.8-47 12.7-17.7 19.1-41.8 19-72.3l-.3-82.9-108.5.3.2 100.2z"/></svg>