<svg xmlns="http://www.w3.org/2000/svg" viewBox="0 0 418.7 165.3"><g opacity=".2"><path d="M90.7 63.4v.9c0 1.1-1.8 1.5-1.8 2.8 0 1.3.2 1.7 1.7 1.7h8c1.5 0 1.7-.4 1.7-1.7 0-1.3-1.8-1.7-1.8-2.8v-.9c0-.9 1.8-1.4 1.8-2.5V38.4c0-3.1-1.8-3.9-5.7-3.9-3.9 0-5.7.7-5.7 3.9v22.5c0 1.1 1.8 1.6 1.8 2.5z"/><path d="M97.1 37.7c0-.5.4-1 1-1h.1c.5 0 1 .4 1 1V59c0 .5-.4 1-1 1h-.1c-.5 0-1-.4-1-1V37.7zM93.7 37.7c0-.5.4-1 1-1h.1c.5 0 1 .4 1 1V59c0 .5-.4 1-1 1h-.1c-.5 0-1-.4-1-1V37.7zM90.1 37.7c0-.5.4-1 1-1h.1c.5 0 1 .4 1 1V59c0 .5-.4 1-1 1h-.1c-.5 0-1-.4-1-1V37.7zM95.7 112.1V66.5h-2.1v45.6l-1.7 1.9 1.5 6.8h2.5l1.4-6.8z"/><path d="M88.5 67c0-.8.7-1.5 1.5-1.5h9.2c.8 0 1.5.7 1.5 1.5v.4c0 .8-.7 1.5-1.5 1.5H90c-.8 0-1.5-.7-1.5-1.5V67z"/><g><path d="M71.7 62.3v1c0 1.3-2.2 1.8-2.2 3.3 0 1.5.2 2 2 2h9.6c1.9 0 2-.5 2-2s-2.2-2-2.2-3.3v-1c0-1.1 2.2-1.7 2.2-2.9V32.5c0-3.8-2.1-4.6-6.8-4.6-4.7 0-6.8.9-6.8 4.6v26.9c.1 1.2 2.2 1.8 2.2 2.9z"/><path d="M79.3 31.6c0-.7.5-1.2 1.2-1.2h.1c.7 0 1.2.5 1.2 1.2V57c0 .7-.5 1.2-1.2 1.2h-.1c-.7 0-1.2-.5-1.2-1.2V31.6zM75.3 31.6c0-.7.5-1.2 1.2-1.2h.1c.7 0 1.2.5 1.2 1.2V57c0 .7-.5 1.2-1.2 1.2h-.1c-.7 0-1.2-.5-1.2-1.2V31.6zM71 31.6c0-.7.5-1.2 1.2-1.2h.1c.7 0 1.2.5 1.2 1.2V57c0 .7-.5 1.2-1.2 1.2h-.1c-.7 0-1.2-.5-1.2-1.2V31.6zM77.6 120.4V66h-2.4v54.4l-2 2.3 1.7 8.1h3l1.7-8.1z"/><path d="M69.1 66.6c0-1 .8-1.8 1.8-1.8h11c1 0 1.8.8 1.8 1.8v.5c0 1-.8 1.8-1.8 1.8h-11c-1 0-1.8-.8-1.8-1.8v-.5z"/></g><g><path d="M21.5 59.1v1.5c0 1.9-3.2 2.7-3.2 4.9s.3 3 3 3h14.2c2.7 0 3-.8 3-3s-3.2-3-3.2-4.9v-1.5c0-1.7 3.2-2.5 3.2-4.4V14.8c0-5.6-3.1-6.8-10.1-6.8s-10.1 1.3-10.1 6.8v39.9c0 1.9 3.2 2.7 3.2 4.4z"/><path d="M32.8 13.6c0-1 .8-1.8 1.8-1.8h.1c1 0 1.8.8 1.8 1.8v37.7c0 1-.8 1.8-1.8 1.8h-.1c-1 0-1.8-.8-1.8-1.8V13.6zM26.8 13.6c0-1 .8-1.8 1.8-1.8h.1c1 0 1.8.8 1.8 1.8v37.7c0 1-.8 1.8-1.8 1.8h-.1c-1 0-1.8-.8-1.8-1.8V13.6zM20.4 13.6c0-1 .8-1.8 1.8-1.8h.1c1 0 1.8.8 1.8 1.8v37.7c0 1-.8 1.8-1.8 1.8h-.1c-1 0-1.8-.8-1.8-1.8V13.6zM30.3 145.1V64.5h-3.7v80.6l-2.9 3.5 2.5 12h4.5l2.5-12z"/><path d="M17.7 65.4c0-1.5 1.2-2.6 2.6-2.6h16.3c1.5 0 2.6 1.2 2.6 2.6v.8c0 1.5-1.2 2.6-2.6 2.6H20.3c-1.5 0-2.6-1.2-2.6-2.6v-.8z"/></g><g><path d="M47.7 60.3v1.3c0 1.6-2.8 2.3-2.8 4.3 0 1.9.3 2.6 2.7 2.6H60c2.4 0 2.7-.7 2.7-2.6 0-1.9-2.8-2.7-2.8-4.3v-1.3c0-1.5 2.8-2.2 2.8-3.8V21.6c0-4.9-2.7-6-8.8-6-6.1 0-8.8 1.1-8.8 6v34.9c-.2 1.6 2.6 2.3 2.6 3.8z"/><path d="M57.6 20.4c0-.9.7-1.5 1.5-1.5h.1c.9 0 1.5.7 1.5 1.5v33.1c0 .9-.7 1.5-1.5 1.5h-.1c-.9 0-1.5-.7-1.5-1.5V20.4zM52.3 20.4c0-.9.7-1.5 1.5-1.5h.2c.9 0 1.5.7 1.5 1.5v33.1c0 .9-.7 1.5-1.5 1.5h-.1c-.9 0-1.5-.7-1.5-1.5V20.4zM46.8 20.4c0-.9.7-1.5 1.5-1.5h.1c.9 0 1.5.7 1.5 1.5v33.1c0 .9-.7 1.5-1.5 1.5h-.1c-.9 0-1.5-.7-1.5-1.5V20.4zM55.4 129.7V65h-3.2v64.7l-2.6 3 2.2 10.6h3.9l2.2-10.6z"/><path d="M44.3 65.8c0-1.3 1-2.3 2.3-2.3h14.3c1.3 0 2.3 1 2.3 2.3v.7c0 1.3-1 2.3-2.3 2.3H46.6c-1.3 0-2.3-1-2.3-2.3v-.7z"/></g><g><path d="M112.1 87.8c0 1.6-1.3 2.9-2.9 2.9H7.1c-1.6 0-2.9-1.3-2.9-2.9V71.7c0-1.6 1.3-2.9 2.9-2.9h102.1c1.6 0 2.9 1.3 2.9 2.9v16.1z"/></g><g><path d="M126.3 102c-2.5 4.5-2.6 6.4-2.6 6.4l8.3-2.9 9.3 1s-.8-2.8-3.3-4.9c-2.3-2-2.2-3.6-2.2-6.7V28.1c0-2.7.6-6.1 1.8-7.9h-11c1.2 1.9 1.8 5.3 1.8 7.9v66.7c-.3 3.1-.5 4.3-2.1 7.2z"/><path d="M130.2 29.1c0-.9.8-1.7 1.7-1.7.9 0 1.7.8 1.7 1.7v62.1c0 .9-.8 1.7-1.7 1.7-.9 0-1.7-.8-1.7-1.7V29.1zM130.2 118.9l-2.1-8.9s.4-1.5 4.6-2.1c4.1-.6 4.9.9 4.9.9l2.1 8.1s2.7-5.1 1.6-9.7c-1.2-5-5-6.8-10.5-6-5.5.8-7.8 5.9-7.1 9.2.7 3.3 3 5.8 6.5 8.5zM131.9 22.7c4 0 7.3-3.3 7.3-7.3S135.9 8 131.9 8s-7.3 3.3-7.3 7.3 3.3 7.4 7.3 7.4zM129.4 11h5l2.5 4.3-2.5 4.3h-5l-2.5-4.3 2.5-4.3z"/><g><circle cx="131.9" cy="12.3" r="1.3"/></g><g><path d="M153.9 123.3c-3.1 5.6-3.2 7.8-3.2 7.8l10.1-3.5 11.4 1.2s-1-3.4-4.1-6.1c-2.8-2.4-2.7-4.4-2.7-8.3V32.6c0-3.3.8-7.5 2.2-9.7H154c1.4 2.3 2.2 6.5 2.2 9.7v81.9c0 3.8-.3 5.3-2.3 8.8z"/><path d="M158.7 33.9c0-1.1.9-2.1 2.1-2.1 1.1 0 2.1.9 2.1 2.1V110c0 1.1-.9 2.1-2.1 2.1-1.1 0-2.1-.9-2.1-2.1V33.9zM158.7 144.1l-2.5-11s.6-1.8 5.6-2.5 6.1 1.1 6.1 1.1l2.6 9.9s3.3-6.2 2-11.9c-1.5-6.2-6.1-8.4-12.9-7.4-6.8.9-9.6 7.2-8.7 11.3.7 4.1 3.5 7.1 7.8 10.5zM160.8 26c5 0 9-4 9-9s-4-9-9-9-9 4-9 9 4 9 9 9zm-3.1-14.3h6.1l3 5.3-3 5.3h-6.1l-3-5.3 3-5.3z"/><g><circle cx="160.8" cy="13.1" r="1.3"/></g></g><g><path d="M202.6 112.4l-5-10.6-6.3-.3 14.2-7.8c-.1 0 4.9 11.2-2.9 18.7z"/><path d="M180.2 102.7c0 5.6 6.9 11.1 14.3 12.7l-4.3-10.9 6.8-5.4 12.8-5.1-2.5-5.8-1.7.5s-3.5-5.8-4.2-7.9c-.7-2.1-.5-11.1-.5-16V14c-.2-3.3-3-6-6.3-6-3.5 0-6.4 2.8-6.4 6.4l2.8 58.4c0 5.1-.4 9.5-4.5 15.8-4.1 6.3-6.3 8.6-6.3 14.1zm10.2-88.3c0-2.3 1.8-4.1 4.1-4.1s4.1 1.8 4.1 4.1-1.8 4.1-4.1 4.1c-2.2 0-4.1-1.8-4.1-4.1z"/><path d="M194.5 18.5c-2.1 0-3.9-1.6-4.1-3.7l3.3 63c0 1.2 1 2.2 2.2 2.2 1.2 0 2.2-1 2.2-2.2l.6-63.4c0 2.3-1.9 4.1-4.2 4.1zM180.2 102.7c0 5.6 6.9 11.1 14.3 12.7l-4.3-10.9 6.8-5.4 12.8-5.1-2.5-5.8-26.2 9.2c-.6 1.6-.9 3.2-.9 5.3z"/><path d="M194 87.7c-.1-.3 0-.7.4-.9l4.6-1.7c.3-.1.7 0 .9.4l1.7 4.6c.1.3 0 .7-.4.9l-4.6 1.7c-.3.1-.7 0-.9-.4l-1.7-4.6z"/><path d="M198.3 86.9c-.1-.3 0-.7.4-.8.3-.1.7 0 .8.4l1.2 3.2c.1.3 0 .7-.4.8-.3.1-.7 0-.8-.4l-1.2-3.2zM196.6 87.5c-.1-.3 0-.7.4-.8.3-.1.7 0 .8.4l1.2 3.2c.1.3 0 .7-.4.8-.3.1-.7 0-.8-.4l-1.2-3.2zM194.9 88.2c-.1-.3 0-.7.4-.8.3-.1.7 0 .8.4l1.2 3.2c.1.3 0 .7-.4.8-.3.1-.7 0-.8-.4l-1.2-3.2z"/><g><circle cx="194.6" cy="11.6" r="1.3"/></g></g></g><g><path d="M382.4 62.6h4.3v5.2h-4.3zM390 62.6h4.3v5.2H390z"/><path d="M394.2 56.3c.5-.9.8-2 .8-3.1 0-3.7-3-6.7-6.7-6.7h-.6l.2-.2V34.6l-.8-.6.5-.3-.9-.6.6-.5-.9-.5.9-.5-.6-.5.9-.6-.5-.3.8-.6V22h-1.6c-5.9 20.3-5.5 27.8-5.5 27.8h1.7c-.6 1-.9 2.1-.9 3.4 0 3.7 3 6.7 6.7 6.7.3 0 .6 0 .9-.1v4l1.4 1.1 4.6-2.3v-6.2l-1-.1z"/><path d="M390.3 22h-1.6v7.5l.8.6-.5.3.9.6-.6.5.9.5-.9.5.6.5-.9.6.5.3-.8.6v11.3c2.7.1 5 1.7 6.2 4h.9s.4-7.5-5.5-27.8zM402.5 95.4c-2.7-17.5-6.9-28.9-6.9-28.9h-6.3c9.7 41.4 5.5 67.2 5.5 70.7s4.3 6.1 6.1 1.1c1.7-5 4.3-25.3 1.6-42.9z"/><path opacity=".6" d="M394.7 137.2c0 1.7 1 3.2 2.2 3.7.8-.3 1.5-1.2 2-2.6 1.8-5 4.4-25.3 1.7-42.9-2.7-17.5-6.9-28.9-6.9-28.9h-4.5c9.8 41.5 5.5 67.2 5.5 70.7z"/><path d="M374.2 95.4c2.7-17.5 6.9-28.9 6.9-28.9h6.3c-9.7 41.4-5.5 67.2-5.5 70.7s-4.3 6.1-6.1 1.1c-1.8-5-4.3-25.3-1.6-42.9z"/><path opacity=".6" d="M375.9 138.3c.5 1.4 1.2 2.2 2 2.6 1.2-.5 2.2-2 2.2-3.7 0-3.5-4.3-29.3 5.5-70.7h-4.5s-4.3 11.4-6.9 28.9c-2.7 17.6-.2 37.9 1.7 42.9z"/><path d="M381.5 56.4h-.1v6.2l4.6 2.3 1.4-1.1v-3.1c-2.6-.4-4.8-2-5.9-4.3zM388.3 48.1c-2.8 0-5.1 2.3-5.1 5.1s2.3 5.1 5.1 5.1 5.1-2.3 5.1-5.1-2.3-5.1-5.1-5.1zm0 8.3c-1.8 0-3.2-1.4-3.2-3.2s1.4-3.2 3.2-3.2c1.8 0 3.2 1.4 3.2 3.2s-1.4 3.2-3.2 3.2z"/><g><path d="M353 5.1h-14.5c-1.3 0-2 3.4-8.4 3.4-4.4 0-6.8-2.4-6.8-2.4v11.6s2.2-1.1 6.8-1.1c2.6 0 4.3.7 5.4 1.4v9.4c0 1.4 1.2 2.6 2.6 2.6h10.7c1.4 0 2.6-1.2 2.6-2.6V16.5c.8-1.2 2.5-2.4 6-2.4 7.7 0 12.8 7.7 12.8 10.2h1.7c.2-16-16.3-19.2-18.9-19.2z"/><path d="M338.9 28.5h9.1v41.2h-9.1z"/><path d="M352 138.5c0 1.4-1.2 2.6-2.6 2.6h-12c-1.4 0-2.6-1.2-2.6-2.6l.9-68.3c0-1.4 1.2-2.6 2.6-2.6h10.3c1.4 0 2.6 1.2 2.6 2.6l.8 68.3zM330.2 16.5c2.6 0 4.3.7 5.4 1.4v9.4c0 1.4 1.2 2.6 2.6 2.6h10.7c1.4 0 2.6-1.2 2.6-2.6V16.4c.8-1.2 2.5-2.4 6-2.4 7.7 0 12.8 7.7 12.8 10.2h1c-.2-3.4-2.1-12.9-18.3-12.9 0 0-4.2 4.8-11.4 4.8s-9-3.6-18.3-3.6v5.1c0 .1 2.3-1.1 6.9-1.1z"/><path d="M325.4 17.4c0 1.4-1.2 2.6-2.6 2.6h-7.1c-1.4 0-2.6-1.2-2.6-2.6V7.6c0-1.4 1.2-2.6 2.6-2.6h7.1c1.4 0 2.6 1.2 2.6 2.6v9.8z"/><path d="M313.1 12.1v5.3c0 1.4 1.2 2.6 2.6 2.6h7.1c1.4 0 2.6-1.2 2.6-2.6v-5.9c-5.7 1.5-9.7 1.3-12.3.6z"/><path opacity=".6" d="M340.1 67.6h6.6v73.5h-6.6z"/></g><g><path d="M415.3 95.2c0 1.6-1.3 2.9-2.9 2.9h-94.7c-1.6 0-2.9-1.3-2.9-2.9V79.1c0-1.6 1.3-2.9 2.9-2.9h94.7c1.6 0 2.9 1.3 2.9 2.9v16.1z"/></g></g><g><path d="M289.1 56.5c-.4-1.3-.8-2-2.4-2.4-1.5-.4-4.1-4-3-8 1-4.1 2.3-9.6 2.3-13.9V14.1c0-3.9-3.2-7.1-7.1-7.1s-7.1 3.2-7.1 7.1v18.1c0 4.3 1.3 9.9 2.3 13.9 1 4.1-1.5 7.6-3 8-1.5.4-2 1.1-2.4 2.4-.4 1.3-1.3 7.4-1.3 7.4h22.8c.1.1-.8-6.1-1.1-7.4zm-10.2-39.7c-1.5 0-2.8-1.2-2.8-2.8 0-1.5 1.2-2.8 2.8-2.8 1.5 0 2.8 1.2 2.8 2.8 0 1.6-1.3 2.8-2.8 2.8z"/><path d="M287 58c-.3-1.3-.6-2-1.9-2.5-1.2-.4-3.2-4-2.4-8.1.8-4.1 1.8-9.7 1.8-14.1V15c0-4-2.5-7.2-5.6-7.2s-5.6 3.2-5.6 7.2v18.3c0 4.4 1 10 1.8 14.1s-1.2 7.7-2.4 8.1c-1.2.4-1.6 1.1-1.9 2.5-.3 1.3-1 7.6-1 7.6H288c0-.1-.7-6.3-1-7.6zm-8.1-41.2c-1.5 0-2.8-1.2-2.8-2.8 0-1.5 1.2-2.8 2.8-2.8 1.5 0 2.8 1.2 2.8 2.8 0 1.6-1.3 2.8-2.8 2.8z"/><path d="M288.5 62.9h-19.2s-3.7 6.3-3.7 13.9v29.1l.2-.4.3.4.3-.3.5.3.4-.7.3.7h.7l.7-.5.2.5h.3l.4-.5.3.5h.4l.4-.4.3.4h.4l.3-.2.3.2h.2l.2-.4.4.4.4-.7.3.7.5-.5.5.5h.2l.5-.5.4.5h.3l.3-.3.4.3.5-.4.3.4h.3l.3-.5.5.5.3-.6.5.6.5-.5.4.5h.4l.3-2.6.3 2.6h.3l.2-.4.2.4h.3l.4-.6.6.6h.3l.3-.4.4.4h.3l.3-.7.4.7h.3l.3-3.4.5 3.4h.3l.3-.5.4.5h.3l.3-.5.5.5h.2l.6-.4.3.4.4-.4.3.4h.3l.4-.6.2.6.3-.5.3.5V76.8c.2-7.6-3.5-13.9-3.5-13.9z"/><path d="M271.5 106l.1-27.7V106zM267.6 106l.1-29.3V106zM268.1 106l.1-27.7V106zM270.4 106l.1-29.3V106zM272.5 106l.1-28.7V106zM275 106l.2-28.3V106zM276.2 106l.1-30.3V106zM277.8 106l.1-27v27zM280.6 106l.2-28.7V106zM282.3 106l.2-28.7V106zM283.6 106l.1-27.7V106zM284.7 106l.1-29.8V106zM285.8 106l.1-27.7V106zM286.9 106l.1-30.3V106zM287.9 106l.1-27.7V106zM288.9 106l.1-28.7V106zM290.8 106l.1-29.3V106zM281.7 106l.1-27.7V106zM267.8 61.8l-1.1 7.4h24.4l-1.1-7.4z"/><path d="M267.3 65.6h23.3l-.3-1.4h-22.8zM290.2 62.9l-.2-1.1h-22.2l-.1 1.1z"/><circle cx="270.4" cy="67.6" r=".6"/><circle cx="276.1" cy="67.6" r=".6"/><circle cx="281.7" cy="67.6" r=".6"/><circle cx="287.4" cy="67.6" r=".6"/><g><circle cx="278.9" cy="12.7" r="1.3"/></g><g><path d="M253.9 70.6c-.5-1.7-1-2.6-3-3.1s-5.2-5.1-3.9-10.3c1.3-5.2 3-12.3 3-17.9V16.1c0-5-4.1-9.1-9.1-9.1s-9.1 4.1-9.1 9.1v23.2c0 5.6 1.6 12.7 3 17.9 1.3 5.2-1.9 9.7-3.9 10.3-2 .6-2.6 1.4-3 3.1-.5 1.7-1.6 9.6-1.6 9.6h29.2s-1.2-7.9-1.6-9.6zm-13.1-51c-2 0-3.5-1.6-3.5-3.5s1.6-3.5 3.5-3.5 3.5 1.6 3.5 3.5-1.5 3.5-3.5 3.5z"/><path d="M251.2 72.5c-.4-1.7-.8-2.6-2.4-3.2-1.6-.6-4.1-5.2-3.1-10.5 1.1-5.3 2.4-12.5 2.4-18.2V17.1c0-5.1-3.2-9.2-7.2-9.2s-7.2 4.1-7.2 9.2v23.5c0 5.7 1.3 12.9 2.4 18.2 1.1 5.3-1.5 9.9-3.1 10.5-1.6.6-2 1.4-2.4 3.2-.4 1.7-1.3 9.7-1.3 9.7h23.4c-.2 0-1.1-8-1.5-9.7zm-10.4-52.9c-2 0-3.5-1.6-3.5-3.5s1.6-3.5 3.5-3.5 3.5 1.6 3.5 3.5-1.5 3.5-3.5 3.5z"/><path d="M253.2 78.9h-24.8s-4.7 8.1-4.7 17.9v29.5l.3-.5.4.5.3-.4.7.4.5-.9.4.9h.9l.9-.7.3.7h.4l.6-.7.4.7h.6l.5-.5.4.5h.5l.4-.3.3.3h.3l.3-.6.6.6.5-.8.4.8.7-.7.6.7h.3l.6-.7.5.7h.3l.4-.4.5.4.6-.5.3.5h.4l.4-.7.6.7.4-.8.6.8.6-.6.5.6h.5l.4-3.3.3 3.3h.4l.2-.6.2.6h.4l.5-.7.8.7h.4l.4-.5.6.5h.4l.4-.9.6.9h.4l.4-4.4.6 4.4h.4l.4-.6.5.6h.3l.4-.7.6.7h.3l.8-.5.4.5.6-.5.3.5h.4l.5-.8.3.8.3-.7.4.7V96.8c0-9.8-4.5-17.9-4.5-17.9z"/><path d="M231.2 126.2l.2-27.6v27.6zM226.2 126.2l.2-29.7v29.7zM226.9 126.2l.2-27.6v27.6zM229.8 126.2l.2-29.7v29.7zM232.5 126.2l.2-28.9v28.9zM235.9 126.2l.1-28.4v28.4zM237.4 126.2l.1-30.9v30.9zM239.4 126.2l.2-26.6v26.6zM243 126.2l.2-28.9v28.9zM245.2 126.2l.2-28.9v28.9zM246.8 126.2l.2-27.6v27.6zM248.2 126.2l.2-30.3v30.3zM249.6 126.2l.2-27.6v27.6zM251.1 126.2l.2-30.9v30.9zM252.3 126.2l.2-27.6v27.6zM253.6 126.2l.2-28.9v28.9zM256.1 126.2l.1-29.7v29.7zM244.3 126.2l.2-27.6v27.6zM226.6 77.4l-1.4 9.6h31.3l-1.5-9.6z"/><path d="M225.9 82.3h29.9l-.3-1.8h-29.4zM255.3 78.9l-.3-1.5h-28.4l-.2 1.5z"/><circle cx="229.9" cy="84.9" r=".8"/><circle cx="237.2" cy="84.9" r=".8"/><circle cx="244.5" cy="84.9" r=".8"/><circle cx="251.7" cy="84.9" r=".8"/><g><circle cx="240.9" cy="13.9" r="1.3"/></g></g></g></g><path fill="#E9B008" d="M90.7 61.4v.9c0 1.1-1.8 1.5-1.8 2.8 0 1.3.2 1.7 1.7 1.7h8c1.5 0 1.7-.4 1.7-1.7 0-1.3-1.8-1.7-1.8-2.8v-.9c0-.9 1.8-1.4 1.8-2.5V36.4c0-3.1-1.8-3.9-5.7-3.9-3.9 0-5.7.7-5.7 3.9v22.5c0 1.1 1.8 1.6 1.8 2.5z"/><g fill="#FFDD30"><path d="M97.1 35.7c0-.5.4-1 1-1h.1c.5 0 1 .4 1 1V57c0 .5-.4 1-1 1h-.1c-.5 0-1-.4-1-1V35.7zM93.7 35.7c0-.5.4-1 1-1h.1c.5 0 1 .4 1 1V57c0 .5-.4 1-1 1h-.1c-.5 0-1-.4-1-1V35.7zM90.1 35.7c0-.5.4-1 1-1h.1c.5 0 1 .4 1 1V57c0 .5-.4 1-1 1h-.1c-.5 0-1-.4-1-1V35.7z"/></g><path fill="#D2CFD0" d="M95.7 110.1V64.5h-2.1v45.6l-1.7 1.9 1.5 6.8h2.5l1.4-6.8z"/><path fill="#FFDD30" d="M88.5 65c0-.8.7-1.5 1.5-1.5h9.2c.8 0 1.5.7 1.5 1.5v.4c0 .8-.7 1.5-1.5 1.5H90c-.8 0-1.5-.7-1.5-1.5V65z"/><g><path fill="#E9B008" d="M71.7 60.3v1c0 1.3-2.2 1.8-2.2 3.3 0 1.5.2 2 2 2h9.6c1.9 0 2-.5 2-2s-2.2-2-2.2-3.3v-1c0-1.1 2.2-1.7 2.2-2.9V30.5c0-3.8-2.1-4.6-6.8-4.6-4.7 0-6.8.9-6.8 4.6v26.9c.1 1.2 2.2 1.8 2.2 2.9z"/><g fill="#FFDD30"><path d="M79.3 29.6c0-.7.5-1.2 1.2-1.2h.1c.7 0 1.2.5 1.2 1.2V55c0 .7-.5 1.2-1.2 1.2h-.1c-.7 0-1.2-.5-1.2-1.2V29.6zM75.3 29.6c0-.7.5-1.2 1.2-1.2h.1c.7 0 1.2.5 1.2 1.2V55c0 .7-.5 1.2-1.2 1.2h-.1c-.7 0-1.2-.5-1.2-1.2V29.6zM71 29.6c0-.7.5-1.2 1.2-1.2h.1c.7 0 1.2.5 1.2 1.2V55c0 .7-.5 1.2-1.2 1.2h-.1c-.7 0-1.2-.5-1.2-1.2V29.6z"/></g><path fill="#D2CFD0" d="M77.6 118.4V64h-2.4v54.4l-2 2.3 1.7 8.1h3l1.7-8.1z"/><path fill="#FFDD30" d="M69.1 64.6c0-1 .8-1.8 1.8-1.8h11c1 0 1.8.8 1.8 1.8v.5c0 1-.8 1.8-1.8 1.8h-11c-1 0-1.8-.8-1.8-1.8v-.5z"/></g><g><path fill="#FF674C" d="M21.5 57.1v1.5c0 1.9-3.2 2.7-3.2 4.9s.3 3 3 3h14.2c2.7 0 3-.8 3-3s-3.2-3-3.2-4.9v-1.5c0-1.7 3.2-2.5 3.2-4.4V12.8c0-5.6-3.1-6.8-10.1-6.8s-10.1 1.3-10.1 6.8v39.9c0 1.9 3.2 2.7 3.2 4.4z"/><g fill="#FFB099"><path d="M32.8 11.6c0-1 .8-1.8 1.8-1.8h.1c1 0 1.8.8 1.8 1.8v37.7c0 1-.8 1.8-1.8 1.8h-.1c-1 0-1.8-.8-1.8-1.8V11.6zM26.8 11.6c0-1 .8-1.8 1.8-1.8h.1c1 0 1.8.8 1.8 1.8v37.7c0 1-.8 1.8-1.8 1.8h-.1c-1 0-1.8-.8-1.8-1.8V11.6zM20.4 11.6c0-1 .8-1.8 1.8-1.8h.1c1 0 1.8.8 1.8 1.8v37.7c0 1-.8 1.8-1.8 1.8h-.1c-1 0-1.8-.8-1.8-1.8V11.6z"/></g><path fill="#D2CFD0" d="M30.3 143.1V62.5h-3.7v80.6l-2.9 3.5 2.5 12h4.5l2.5-12z"/><path fill="#FFB099" d="M17.7 63.4c0-1.5 1.2-2.6 2.6-2.6h16.3c1.5 0 2.6 1.2 2.6 2.6v.8c0 1.5-1.2 2.6-2.6 2.6H20.3c-1.5 0-2.6-1.2-2.6-2.6v-.8z"/></g><g><path fill="#FF674C" d="M47.7 58.3v1.3c0 1.6-2.8 2.3-2.8 4.3 0 1.9.3 2.6 2.7 2.6H60c2.4 0 2.7-.7 2.7-2.6 0-1.9-2.8-2.7-2.8-4.3v-1.3c0-1.5 2.8-2.2 2.8-3.8V19.6c0-4.9-2.7-6-8.8-6-6.1 0-8.8 1.1-8.8 6v34.9c-.2 1.6 2.6 2.3 2.6 3.8z"/><g fill="#FFB099"><path d="M57.6 18.4c0-.9.7-1.5 1.5-1.5h.1c.9 0 1.5.7 1.5 1.5v33.1c0 .9-.7 1.5-1.5 1.5h-.1c-.9 0-1.5-.7-1.5-1.5V18.4zM52.3 18.4c0-.9.7-1.5 1.5-1.5h.2c.9 0 1.5.7 1.5 1.5v33.1c0 .9-.7 1.5-1.5 1.5h-.1c-.9 0-1.5-.7-1.5-1.5V18.4zM46.8 18.4c0-.9.7-1.5 1.5-1.5h.1c.9 0 1.5.7 1.5 1.5v33.1c0 .9-.7 1.5-1.5 1.5h-.1c-.9 0-1.5-.7-1.5-1.5V18.4z"/></g><path fill="#D2CFD0" d="M55.4 127.7V63h-3.2v64.7l-2.6 3 2.2 10.6h3.9l2.2-10.6z"/><path fill="#FFB099" d="M44.3 63.8c0-1.3 1-2.3 2.3-2.3h14.3c1.3 0 2.3 1 2.3 2.3v.7c0 1.3-1 2.3-2.3 2.3H46.6c-1.3 0-2.3-1-2.3-2.3v-.7z"/></g><g><path fill="#A05B49" d="M112.1 85.8c0 1.6-1.3 2.9-2.9 2.9H7.1c-1.6 0-2.9-1.3-2.9-2.9V69.7c0-1.6 1.3-2.9 2.9-2.9h102.1c1.6 0 2.9 1.3 2.9 2.9v16.1z"/></g><g><path fill="#ADA7AA" d="M126.3 100c-2.5 4.5-2.6 6.4-2.6 6.4l8.3-2.9 9.3 1s-.8-2.8-3.3-4.9c-2.3-2-2.2-3.6-2.2-6.7V26.1c0-2.7.6-6.1 1.8-7.9h-11c1.2 1.9 1.8 5.3 1.8 7.9v66.7c-.3 3.1-.5 4.3-2.1 7.2z"/><path fill="#D2CFD0" d="M130.2 27.1c0-.9.8-1.7 1.7-1.7.9 0 1.7.8 1.7 1.7v62.1c0 .9-.8 1.7-1.7 1.7-.9 0-1.7-.8-1.7-1.7V27.1zM130.2 116.9l-2.1-8.9s.4-1.5 4.6-2.1c4.1-.6 4.9.9 4.9.9l2.1 8.1s2.7-5.1 1.6-9.7c-1.2-5-5-6.8-10.5-6-5.5.8-7.8 5.9-7.1 9.2.7 3.3 3 5.8 6.5 8.5zM131.9 20.7c4 0 7.3-3.3 7.3-7.3S135.9 6 131.9 6s-7.3 3.3-7.3 7.3 3.3 7.4 7.3 7.4zM129.4 9h5l2.5 4.3-2.5 4.3h-5l-2.5-4.3 2.5-4.3z"/><g><circle fill="#A05B49" cx="131.9" cy="10.3" r="1.3"/></g><g><path fill="#ADA7AA" d="M153.9 121.3c-3.1 5.6-3.2 7.8-3.2 7.8l10.1-3.5 11.4 1.2s-1-3.4-4.1-6.1c-2.8-2.4-2.7-4.4-2.7-8.3V30.6c0-3.3.8-7.5 2.2-9.7H154c1.4 2.3 2.2 6.5 2.2 9.7v81.9c0 3.8-.3 5.3-2.3 8.8z"/><path fill="#D2CFD0" d="M158.7 31.9c0-1.1.9-2.1 2.1-2.1 1.1 0 2.1.9 2.1 2.1V108c0 1.1-.9 2.1-2.1 2.1-1.1 0-2.1-.9-2.1-2.1V31.9zM158.7 142.1l-2.5-11s.6-1.8 5.6-2.5 6.1 1.1 6.1 1.1l2.6 9.9s3.3-6.2 2-11.9c-1.5-6.2-6.1-8.4-12.9-7.4-6.8.9-9.6 7.2-8.7 11.3.7 4.1 3.5 7.1 7.8 10.5zM160.8 24c5 0 9-4 9-9s-4-9-9-9-9 4-9 9 4 9 9 9zm-3.1-14.3h6.1l3 5.3-3 5.3h-6.1l-3-5.3 3-5.3z"/><g><circle fill="#A05B49" cx="160.8" cy="11.1" r="1.3"/></g></g><g><path fill="#ADA7AA" d="M202.6 110.4l-5-10.6-6.3-.3 14.2-7.8c-.1 0 4.9 11.2-2.9 18.7z"/><path fill="#ADA7AA" d="M180.2 100.7c0 5.6 6.9 11.1 14.3 12.7l-4.3-10.9 6.8-5.4 12.8-5.1-2.5-5.8-1.7.5s-3.5-5.8-4.2-7.9c-.7-2.1-.5-11.1-.5-16V12c-.2-3.3-3-6-6.3-6-3.5 0-6.4 2.8-6.4 6.4l2.8 58.4c0 5.1-.4 9.5-4.5 15.8-4.1 6.3-6.3 8.6-6.3 14.1zm10.2-88.3c0-2.3 1.8-4.1 4.1-4.1s4.1 1.8 4.1 4.1-1.8 4.1-4.1 4.1c-2.2 0-4.1-1.8-4.1-4.1z"/><path fill="#D2CFD0" d="M194.5 16.5c-2.1 0-3.9-1.6-4.1-3.7l3.3 63c0 1.2 1 2.2 2.2 2.2 1.2 0 2.2-1 2.2-2.2l.6-63.4c0 2.3-1.9 4.1-4.2 4.1zM180.2 100.7c0 5.6 6.9 11.1 14.3 12.7l-4.3-10.9 6.8-5.4 12.8-5.1-2.5-5.8-26.2 9.2c-.6 1.6-.9 3.2-.9 5.3z"/><path fill="#413B3C" d="M194 85.7c-.1-.3 0-.7.4-.9l4.6-1.7c.3-.1.7 0 .9.4l1.7 4.6c.1.3 0 .7-.4.9l-4.6 1.7c-.3.1-.7 0-.9-.4l-1.7-4.6z"/><g fill="#D2CFD0"><path d="M198.3 84.9c-.1-.3 0-.7.4-.8.3-.1.7 0 .8.4l1.2 3.2c.1.3 0 .7-.4.8-.3.1-.7 0-.8-.4l-1.2-3.2zM196.6 85.5c-.1-.3 0-.7.4-.8.3-.1.7 0 .8.4l1.2 3.2c.1.3 0 .7-.4.8-.3.1-.7 0-.8-.4l-1.2-3.2zM194.9 86.2c-.1-.3 0-.7.4-.8.3-.1.7 0 .8.4l1.2 3.2c.1.3 0 .7-.4.8-.3.1-.7 0-.8-.4l-1.2-3.2z"/></g><g><circle fill="#A05B49" cx="194.6" cy="9.6" r="1.3"/></g></g></g><g><path fill="#413B3C" d="M382.4 60.6h4.3v5.2h-4.3zM390 60.6h4.3v5.2H390z"/><path fill="#D2CFD0" d="M394.2 54.3c.5-.9.8-2 .8-3.1 0-3.7-3-6.7-6.7-6.7h-.6l.2-.2V32.6l-.8-.6.5-.3-.9-.6.6-.5-.9-.5.9-.5-.6-.5.9-.6-.5-.3.8-.6V20h-1.6c-5.9 20.3-5.5 27.8-5.5 27.8h1.7c-.6 1-.9 2.1-.9 3.4 0 3.7 3 6.7 6.7 6.7.3 0 .6 0 .9-.1v4l1.4 1.1 4.6-2.3v-6.2l-1-.1z"/><path fill="#D2CFD0" d="M390.3 20h-1.6v7.5l.8.6-.5.3.9.6-.6.5.9.5-.9.5.6.5-.9.6.5.3-.8.6v11.3c2.7.1 5 1.7 6.2 4h.9s.4-7.5-5.5-27.8z"/><path fill="#FF674C" d="M402.5 93.4c-2.7-17.5-6.9-28.9-6.9-28.9h-6.3c9.7 41.4 5.5 67.2 5.5 70.7s4.3 6.1 6.1 1.1c1.7-5 4.3-25.3 1.6-42.9z"/><path opacity=".6" fill="#FFA289" d="M394.7 135.2c0 1.7 1 3.2 2.2 3.7.8-.3 1.5-1.2 2-2.6 1.8-5 4.4-25.3 1.7-42.9-2.7-17.5-6.9-28.9-6.9-28.9h-4.5c9.8 41.5 5.5 67.2 5.5 70.7z"/><path fill="#FF674C" d="M374.2 93.4c2.7-17.5 6.9-28.9 6.9-28.9h6.3c-9.7 41.4-5.5 67.2-5.5 70.7s-4.3 6.1-6.1 1.1c-1.8-5-4.3-25.3-1.6-42.9z"/><path opacity=".6" fill="#FFA289" d="M375.9 136.3c.5 1.4 1.2 2.2 2 2.6 1.2-.5 2.2-2 2.2-3.7 0-3.5-4.3-29.3 5.5-70.7h-4.5s-4.3 11.4-6.9 28.9c-2.7 17.6-.2 37.9 1.7 42.9z"/><path fill="#D2CFD0" d="M381.5 54.4h-.1v6.2l4.6 2.3 1.4-1.1v-3.1c-2.6-.4-4.8-2-5.9-4.3z"/><path fill="#413B3C" d="M388.3 46.1c-2.8 0-5.1 2.3-5.1 5.1s2.3 5.1 5.1 5.1 5.1-2.3 5.1-5.1-2.3-5.1-5.1-5.1zm0 8.3c-1.8 0-3.2-1.4-3.2-3.2s1.4-3.2 3.2-3.2c1.8 0 3.2 1.4 3.2 3.2s-1.4 3.2-3.2 3.2z"/><g><path fill="#D2CFD0" d="M353 3.1h-14.5c-1.3 0-2 3.4-8.4 3.4-4.4 0-6.8-2.4-6.8-2.4v11.6s2.2-1.1 6.8-1.1c2.6 0 4.3.7 5.4 1.4v9.4c0 1.4 1.2 2.6 2.6 2.6h10.7c1.4 0 2.6-1.2 2.6-2.6V14.5c.8-1.2 2.5-2.4 6-2.4 7.7 0 12.8 7.7 12.8 10.2h1.7c.2-16-16.3-19.2-18.9-19.2z"/><path fill="#413B3C" d="M338.9 26.5h9.1v41.2h-9.1z"/><path fill="#FF674C" d="M352 136.5c0 1.4-1.2 2.6-2.6 2.6h-12c-1.4 0-2.6-1.2-2.6-2.6l.9-68.3c0-1.4 1.2-2.6 2.6-2.6h10.3c1.4 0 2.6 1.2 2.6 2.6l.8 68.3z"/><path fill="#ADA7AA" d="M330.2 14.5c2.6 0 4.3.7 5.4 1.4v9.4c0 1.4 1.2 2.6 2.6 2.6h10.7c1.4 0 2.6-1.2 2.6-2.6V14.4c.8-1.2 2.5-2.4 6-2.4 7.7 0 12.8 7.7 12.8 10.2h1c-.2-3.4-2.1-12.9-18.3-12.9 0 0-4.2 4.8-11.4 4.8s-9-3.6-18.3-3.6v5.1c0 .1 2.3-1.1 6.9-1.1z"/><path fill="#D2CFD0" d="M325.4 15.4c0 1.4-1.2 2.6-2.6 2.6h-7.1c-1.4 0-2.6-1.2-2.6-2.6V5.6c0-1.4 1.2-2.6 2.6-2.6h7.1c1.4 0 2.6 1.2 2.6 2.6v9.8z"/><path fill="#ADA7AA" d="M313.1 10.1v5.3c0 1.4 1.2 2.6 2.6 2.6h7.1c1.4 0 2.6-1.2 2.6-2.6V9.5c-5.7 1.5-9.7 1.3-12.3.6z"/><path opacity=".6" fill="#FFAB93" d="M340.1 65.6h6.6v73.5h-6.6z"/></g><g><path fill="#A05B49" d="M415.3 93.2c0 1.6-1.3 2.9-2.9 2.9h-94.7c-1.6 0-2.9-1.3-2.9-2.9V77.1c0-1.6 1.3-2.9 2.9-2.9h94.7c1.6 0 2.9 1.3 2.9 2.9v16.1z"/></g></g><g><path fill="#E9B008" d="M289.1 54.5c-.4-1.3-.8-2-2.4-2.4-1.5-.4-4.1-4-3-8 1-4.1 2.3-9.6 2.3-13.9V12.1c0-3.9-3.2-7.1-7.1-7.1s-7.1 3.2-7.1 7.1v18.1c0 4.3 1.3 9.9 2.3 13.9 1 4.1-1.5 7.6-3 8-1.5.4-2 1.1-2.4 2.4-.4 1.3-1.3 7.4-1.3 7.4h22.8c.1.1-.8-6.1-1.1-7.4zm-10.2-39.7c-1.5 0-2.8-1.2-2.8-2.8 0-1.5 1.2-2.8 2.8-2.8 1.5 0 2.8 1.2 2.8 2.8 0 1.6-1.3 2.8-2.8 2.8z"/><path fill="#FFDD30" d="M287 56c-.3-1.3-.6-2-1.9-2.5-1.2-.4-3.2-4-2.4-8.1.8-4.1 1.8-9.7 1.8-14.1V13c0-4-2.5-7.2-5.6-7.2s-5.6 3.2-5.6 7.2v18.3c0 4.4 1 10 1.8 14.1s-1.2 7.7-2.4 8.1c-1.2.4-1.6 1.1-1.9 2.5-.3 1.3-1 7.6-1 7.6H288c0-.1-.7-6.3-1-7.6zm-8.1-41.2c-1.5 0-2.8-1.2-2.8-2.8 0-1.5 1.2-2.8 2.8-2.8 1.5 0 2.8 1.2 2.8 2.8 0 1.6-1.3 2.8-2.8 2.8z"/><path fill="#1E1D1C" d="M288.5 60.9h-19.2s-3.7 6.3-3.7 13.9v29.1l.2-.4.3.4.3-.3.5.3.4-.7.3.7h.7l.7-.5.2.5h.3l.4-.5.3.5h.4l.4-.4.3.4h.4l.3-.2.3.2h.2l.2-.4.4.4.4-.7.3.7.5-.5.5.5h.2l.5-.5.4.5h.3l.3-.3.4.3.5-.4.3.4h.3l.3-.5.5.5.3-.6.5.6.5-.5.4.5h.4l.3-2.6.3 2.6h.3l.2-.4.2.4h.3l.4-.6.6.6h.3l.3-.4.4.4h.3l.3-.7.4.7h.3l.3-3.4.5 3.4h.3l.3-.5.4.5h.3l.3-.5.5.5h.2l.6-.4.3.4.4-.4.3.4h.3l.4-.6.2.6.3-.5.3.5V74.8c.2-7.6-3.5-13.9-3.5-13.9z"/><path fill="#413B3C" d="M271.5 104l.1-27.7V104zM267.6 104l.1-29.3V104zM268.1 104l.1-27.7V104zM270.4 104l.1-29.3V104zM272.5 104l.1-28.7V104zM275 104l.2-28.3V104zM276.2 104l.1-30.3V104zM277.8 104l.1-27v27zM280.6 104l.2-28.7V104zM282.3 104l.2-28.7V104zM283.6 104l.1-27.7V104zM284.7 104l.1-29.8V104zM285.8 104l.1-27.7V104zM286.9 104l.1-30.3V104zM287.9 104l.1-27.7V104zM288.9 104l.1-28.7V104zM290.8 104l.1-29.3V104zM281.7 104l.1-27.7V104z"/><path fill="#ADA7AA" d="M267.8 59.8l-1.1 7.4h24.4l-1.1-7.4z"/><path fill="#D2CFD0" d="M267.3 63.6h23.3l-.3-1.4h-22.8zM290.2 60.9l-.2-1.1h-22.2l-.1 1.1z"/><g fill="#D2CFD0"><circle cx="270.4" cy="65.6" r=".6"/><circle cx="276.1" cy="65.6" r=".6"/><circle cx="281.7" cy="65.6" r=".6"/><circle cx="287.4" cy="65.6" r=".6"/></g><g><circle fill="#A05B49" cx="278.9" cy="10.7" r="1.3"/></g><g><path fill="#E9B008" d="M253.9 68.6c-.5-1.7-1-2.6-3-3.1-2-.6-5.2-5.1-3.9-10.3 1.3-5.2 3-12.3 3-17.9V14.1c0-5-4.1-9.1-9.1-9.1s-9.1 4.1-9.1 9.1v23.2c0 5.6 1.6 12.7 3 17.9 1.3 5.2-1.9 9.7-3.9 10.3-2 .6-2.6 1.4-3 3.1-.5 1.7-1.6 9.6-1.6 9.6h29.2s-1.2-7.9-1.6-9.6zm-13.1-51c-2 0-3.5-1.6-3.5-3.5s1.6-3.5 3.5-3.5 3.5 1.6 3.5 3.5-1.5 3.5-3.5 3.5z"/><path fill="#FFDD30" d="M251.2 70.5c-.4-1.7-.8-2.6-2.4-3.2-1.6-.6-4.1-5.2-3.1-10.5 1.1-5.3 2.4-12.5 2.4-18.2V15.1c0-5.1-3.2-9.2-7.2-9.2s-7.2 4.1-7.2 9.2v23.5c0 5.7 1.3 12.9 2.4 18.2 1.1 5.3-1.5 9.9-3.1 10.5-1.6.6-2 1.4-2.4 3.2-.4 1.7-1.3 9.7-1.3 9.7h23.4c-.2 0-1.1-8-1.5-9.7zm-10.4-52.9c-2 0-3.5-1.6-3.5-3.5s1.6-3.5 3.5-3.5 3.5 1.6 3.5 3.5-1.5 3.5-3.5 3.5z"/><path fill="#1E1D1C" d="M253.2 76.9h-24.8s-4.7 8.1-4.7 17.9v29.5l.3-.5.4.5.3-.4.7.4.5-.9.4.9h.9l.9-.7.3.7h.4l.6-.7.4.7h.6l.5-.5.4.5h.5l.4-.3.3.3h.3l.3-.6.6.6.5-.8.4.8.7-.7.6.7h.3l.6-.7.5.7h.3l.4-.4.5.4.6-.5.3.5h.4l.4-.7.6.7.4-.8.6.8.6-.6.5.6h.5l.4-3.3.3 3.3h.4l.2-.6.2.6h.4l.5-.7.8.7h.4l.4-.5.6.5h.4l.4-.9.6.9h.4l.4-4.4.6 4.4h.4l.4-.6.5.6h.3l.4-.7.6.7h.3l.8-.5.4.5.6-.5.3.5h.4l.5-.8.3.8.3-.7.4.7V94.8c0-9.8-4.5-17.9-4.5-17.9z"/><path fill="#413B3C" d="M231.2 124.2l.2-27.6v27.6zM226.2 124.2l.2-29.7v29.7zM226.9 124.2l.2-27.6v27.6zM229.8 124.2l.2-29.7v29.7zM232.5 124.2l.2-28.9v28.9zM235.9 124.2l.1-28.4v28.4zM237.4 124.2l.1-30.9v30.9zM239.4 124.2l.2-26.6v26.6zM243 124.2l.2-28.9v28.9zM245.2 124.2l.2-28.9v28.9zM246.8 124.2l.2-27.6v27.6zM248.2 124.2l.2-30.3v30.3zM249.6 124.2l.2-27.6v27.6zM251.1 124.2l.2-30.9v30.9zM252.3 124.2l.2-27.6v27.6zM253.6 124.2l.2-28.9v28.9zM256.1 124.2l.1-29.7v29.7zM244.3 124.2l.2-27.6v27.6z"/><path fill="#ADA7AA" d="M226.6 75.4l-1.4 9.6h31.3l-1.5-9.6z"/><path fill="#D2CFD0" d="M225.9 80.3h29.9l-.3-1.8h-29.4zM255.3 76.9l-.3-1.5h-28.4l-.2 1.5z"/><g fill="#D2CFD0"><circle cx="229.9" cy="82.9" r=".8"/><circle cx="237.2" cy="82.9" r=".8"/><circle cx="244.5" cy="82.9" r=".8"/><circle cx="251.7" cy="82.9" r=".8"/></g><g><circle fill="#A05B49" cx="240.9" cy="11.9" r="1.3"/></g></g></g></svg>