<?xml version="1.0" encoding="utf-8"?>
<!-- Generator: Adobe Illustrator 19.1.0, SVG Export Plug-In . SVG Version: 6.00 Build 0)  -->
<svg version="1.1" id="Layer_1" xmlns="http://www.w3.org/2000/svg" xmlns:xlink="http://www.w3.org/1999/xlink" x="0px" y="0px"
	 viewBox="0 -17.1 141.7 141.7" enable-background="new 0 -17.1 141.7 141.7" xml:space="preserve">
<path fill="#FFCC33" d="M6.3,78c-0.5,0-1.1,0.2-1.5,0.6c-0.5,0.5-0.6,1-0.6,1.5v27.5h22.3V80.1c0-0.5-0.2-1.1-0.5-1.5
	c-0.5-0.5-1-0.6-1.6-0.6H6.3z"/>
<path fill="#FFA733" d="M33.6,67.4c-0.5,0-1,0.2-1.4,0.6c-0.3,0.3-0.6,1-0.6,1.5v38H54v-38c0-0.5-0.2-1.1-0.6-1.5
	c-0.3-0.5-1-0.6-1.5-0.6H33.6z"/>
<path fill="#FFCC33" d="M61,71.7c-0.5,0-1.1,0.2-1.4,0.6c-0.5,0.5-0.6,1-0.6,1.5v33.7h22.5V73.8c0-0.5-0.3-1-0.6-1.5
	c-0.5-0.5-1-0.6-1.5-0.6L61,71.7L61,71.7z"/>
<path fill="#FFA733" d="M88.5,54.7c-0.6,0-1.1,0.2-1.6,0.5c-0.3,0.5-0.5,1-0.5,1.6v50.7h22.3V56.8c0-0.6-0.2-1.1-0.6-1.6
	c-0.3-0.3-0.8-0.5-1.5-0.5L88.5,54.7L88.5,54.7z"/>
<path fill="#FFCC33" d="M115.8,33.4c-0.5,0-1,0.2-1.4,0.5c-0.5,0.5-0.6,1-0.6,1.6v72.1h22.5V35.4c0-0.6-0.2-1.1-0.6-1.6
	c-0.5-0.3-1-0.5-1.5-0.5H115.8L115.8,33.4z"/>
<path fill="#F5F5F5" d="M141.6,2.1c0.3-0.5,0.2-1.1-0.2-1.6c-0.3-0.5-1-0.6-1.5-0.5l-22.5,6.6c-0.3,0-0.8,0.5-1,0.8
	c-0.2,0.5,0,1,0.3,1.3l2.7,3.5L63.1,56.5L31.5,40.6L0.6,64.1C0.3,64.4,0,64.9,0,65.6C0,66,0.2,66.7,0.6,67l2.9,3.1
	c0.3,0.3,0.8,0.6,1.5,0.6c0.5,0,1.1-0.2,1.4-0.6l26.8-19.7l31.1,15.7l60.3-47.3l2.7,3.5c0.2,0.3,0.6,0.5,1.1,0.5s1-0.3,1.1-0.6
	L141.6,2.1z"/>
</svg>
