<?xml version="1.0" encoding="utf-8"?>
<!-- Generator: Adobe Illustrator 19.1.0, SVG Export Plug-In . SVG Version: 6.00 Build 0)  -->
<svg version="1.1" id="Layer_1" xmlns="http://www.w3.org/2000/svg" xmlns:xlink="http://www.w3.org/1999/xlink" x="0px" y="0px"
	 viewBox="329 -202.2 800 800" style="enable-background:new 329 -202.2 800 800;" xml:space="preserve">
<style type="text/css">
	.st0{fill:#F5F5F5;}
	.st1{fill:#FFFFFF;}
	.st2{fill:#FFCC33;}
	.st3{fill:#FFA733;}
	.st4{fill:#FF6666;}
</style>
<g id="objects">
	<g>
		<g>
			<ellipse class="st0" cx="743" cy="183.3" rx="319.4" ry="318.3"/>
			<path class="st1" d="M632.8-88.3c0,0-315.9,129.9-126.3,456.4l31.6-17.6C538.1,350.4,387.2,122.3,632.8-88.3z"/>
		</g>
		<g>
			<g>
				<polygon class="st2" points="526,418.5 526,442.7 962,445 963.5,418.3 				"/>
				<path class="st3" d="M970.7,476.9H515.1c-8.1,0-14.7-6.6-14.7-14.7v-5.6c0-8.1,6.6-14.7,14.7-14.7h455.7
					c8.1,0,14.7,6.6,14.7,14.7v5.6C985.5,470.3,978.8,476.9,970.7,476.9z"/>
				<path class="st2" d="M514.4,476.9c0,0,3.1,31.2-19.5,45.2l498.4,1.6c0,0-17.9,0-21.9-46.8H514.4z"/>
				<path class="st2" d="M989.7,597.8H496.2c-14.9,0-27-12.2-27-27v-21.7c0-14.9,12.2-27,27-27h493.5c14.9,0,27,12.2,27,27v21.6
					C1016.7,585.7,1004.5,597.8,989.7,597.8z"/>
				<path class="st2" d="M486.2,526c0,0-6.3,2.7-7.4,5.9l529.2,2.7c0,0-3.9-8.6-15.2-9L486.2,526z"/>
				<path class="st2" d="M510.2,446.5c0,0-5.6,2.7-6.8,5.9l478.5,2.7c0,0-3.6-8.6-13.8-9L510.2,446.5z"/>
			</g>
			<g>
				<g>
					<circle class="st4" cx="474.9" cy="552.7" r="6.3"/>
					<circle class="st4" cx="487.6" cy="563.1" r="6.3"/>
					<circle class="st4" cx="501.5" cy="569.2" r="6.3"/>
					<circle class="st4" cx="517.4" cy="573.8" r="6.3"/>
					<circle class="st4" cx="534.2" cy="569.9" r="6.3"/>
					<circle class="st4" cx="549.7" cy="563.8" r="6.3"/>
					<circle class="st4" cx="562.6" cy="553.6" r="6.3"/>
					<circle class="st4" cx="570.5" cy="541" r="6.3"/>
				</g>
				<g>
					<circle class="st4" cx="584.5" cy="552.2" r="6.3"/>
					<circle class="st4" cx="597.1" cy="562.6" r="6.3"/>
					<circle class="st4" cx="611" cy="568.8" r="6.3"/>
					<circle class="st4" cx="626.9" cy="573.3" r="6.3"/>
					<circle class="st4" cx="643.8" cy="569.4" r="6.3"/>
					<circle class="st4" cx="659.2" cy="563.3" r="6.3"/>
					<circle class="st4" cx="672.1" cy="553.2" r="6.3"/>
					<circle class="st4" cx="680" cy="540.5" r="6.3"/>
					<circle class="st4" cx="690.6" cy="551.8" r="6.3"/>
					<circle class="st4" cx="703.3" cy="562.2" r="6.3"/>
					<circle class="st4" cx="717.2" cy="568.4" r="6.3"/>
					<circle class="st4" cx="733.2" cy="572.9" r="6.3"/>
				</g>
				<g>
					<circle class="st4" cx="749.9" cy="569" r="6.3"/>
					<circle class="st4" cx="765.3" cy="563" r="6.3"/>
					<circle class="st4" cx="778.3" cy="552.8" r="6.3"/>
					<circle class="st4" cx="786.2" cy="540.1" r="6.3"/>
				</g>
				<g>
					<circle class="st4" cx="800.1" cy="551.3" r="6.3"/>
					<circle class="st4" cx="812.7" cy="561.8" r="6.3"/>
					<circle class="st4" cx="826.6" cy="567.9" r="6.3"/>
					<circle class="st4" cx="842.7" cy="572.4" r="6.3"/>
					<circle class="st4" cx="859.4" cy="568.5" r="6.3"/>
					<circle class="st4" cx="874.8" cy="562.5" r="6.3"/>
					<circle class="st4" cx="887.9" cy="552.3" r="6.3"/>
					<circle class="st4" cx="895.7" cy="539.7" r="6.3"/>
					<circle class="st4" cx="906.3" cy="550.9" r="6.3"/>
					<circle class="st4" cx="918.9" cy="561.4" r="6.3"/>
					<circle class="st4" cx="932.8" cy="567.5" r="6.3"/>
					<circle class="st4" cx="948.8" cy="572.1" r="6.3"/>
				</g>
				<g>
					<circle class="st4" cx="965.8" cy="568" r="6.3"/>
					<circle class="st4" cx="981.3" cy="562" r="6.3"/>
					<circle class="st4" cx="994.3" cy="551.8" r="6.3"/>
					<circle class="st4" cx="1002.2" cy="539.2" r="6.3"/>
				</g>
			</g>
		</g>
		<g>
			<path class="st2" d="M731.6,194.9V6.4C639.2,12.5,566,89.2,566,183.2c0,98,79.4,177.3,177.3,177.3c93.9,0,170.7-73.1,176.8-165.5
				H731.6V194.9z"/>
			<path class="st3" d="M762,171.3h146.4c-4.1-56.7-36.7-105.5-83.6-132.1L762,171.3z"/>
			<path class="st4" d="M755.1,17.9v112.7l48.4-101.8C788,22.7,771.8,19.2,755.1,17.9L755.1,17.9z"/>
		</g>
	</g>
</g>
<g id="Sparkles">
	<path class="st1" d="M585.7-121.8c-13-4.3-18.7-15.1-21.1-23.3c-0.6-1.8-3.2-1.8-3.7,0c-2.5,8.2-8.1,19-21.1,23.3
		c-1.8,0.6-1.8,3.1,0,3.7c13,4.3,18.7,15.1,21.1,23.3c0.6,1.8,3.2,1.8,3.7,0c2.5-8.2,8.1-19,21.1-23.3
		C587.4-118.7,587.4-121.2,585.7-121.8z"/>
	<path class="st1" d="M1104.8-15.1c-13-4.3-18.7-15.1-21.1-23.3c-0.6-1.8-3.2-1.8-3.7,0c-2.5,8.2-8.1,19-21.1,23.3
		c-1.8,0.6-1.8,3.1,0,3.7c13,4.3,18.7,15.1,21.1,23.3c0.6,1.8,3.2,1.8,3.7,0c2.5-8.2,8.1-19,21.1-23.3
		C1106.7-12,1106.7-14.5,1104.8-15.1z"/>
	<path class="st1" d="M399.4,138c-13-4.3-18.7-15.1-21.1-23.3c-0.6-1.8-3.2-1.8-3.7,0c-2.5,8.2-8.1,19-21.1,23.3
		c-1.8,0.6-1.8,3.1,0,3.7c13,4.3,18.7,15.1,21.1,23.3c0.6,1.8,3.2,1.8,3.7,0c2.5-8.2,8.1-19,21.1-23.3
		C401.1,141.1,401.1,138.6,399.4,138z"/>
	<path class="st1" d="M792.8-164.4c-8.2-2.7-11.8-9.6-13.3-14.7c-0.4-1.2-2-1.2-2.3,0c-1.6,5.2-5.2,12-13.3,14.7
		c-1.1,0.4-1.1,2,0,2.3c8.2,2.7,11.8,9.6,13.3,14.7c0.4,1.2,2,1.2,2.3,0c1.6-5.2,5.2-12,13.3-14.7
		C793.9-162.4,793.9-164,792.8-164.4z"/>
	<path class="st1" d="M969.6-114.2c-8.2-2.7-11.8-9.6-13.3-14.7c-0.4-1.2-2-1.2-2.3,0c-1.6,5.2-5.2,12-13.3,14.7
		c-1.1,0.4-1.1,2,0,2.3c8.2,2.7,11.8,9.6,13.3,14.7c0.4,1.2,2,1.2,2.3,0c1.6-5.2,5.2-12,13.3-14.7
		C970.7-112.2,970.7-113.8,969.6-114.2z"/>
	<path class="st1" d="M444.6-89.5c-8.2-2.7-11.8-9.6-13.3-14.7c-0.4-1.2-2-1.2-2.3,0c-1.6,5.2-5.2,12-13.3,14.7
		c-1.1,0.4-1.1,2,0,2.3c8.2,2.7,11.8,9.6,13.3,14.7c0.4,1.2,2,1.2,2.3,0c1.6-5.2,5.2-12,13.3-14.7C445.7-87.5,445.7-89.1,444.6-89.5
		z"/>
	<path class="st1" d="M1096.4,79.2c-8.2-2.7-11.8-9.6-13.3-14.7c-0.4-1.2-2-1.2-2.3,0c-1.6,5.2-5.2,12-13.3,14.7
		c-1.1,0.4-1.1,2,0,2.3c8.2,2.7,11.8,9.6,13.3,14.7c0.4,1.2,2,1.2,2.3,0c1.6-5.2,5.2-12,13.3-14.7
		C1097.5,81.2,1097.5,79.6,1096.4,79.2z"/>
	<path class="st1" d="M658.3-186.5c-8.2-2.7-11.8-9.6-13.3-14.7c-0.4-1.2-2-1.2-2.3,0c-1.6,5.2-5.2,12-13.3,14.7
		c-1.1,0.4-1.1,2,0,2.3c8.2,2.7,11.8,9.6,13.3,14.7c0.4,1.2,2,1.2,2.3,0c1.6-5.2,5.2-12,13.3-14.7
		C659.4-184.5,659.4-186.1,658.3-186.5z"/>
	<circle class="st1" cx="842.7" cy="-192.4" r="9.7"/>
	<circle class="st1" cx="445.8" cy="27.6" r="9.7"/>
	<circle class="st1" cx="1081.9" cy="193.9" r="9.7"/>
</g>
</svg>
