<?xml version="1.0" encoding="utf-8"?>
<!-- Generator: Adobe Illustrator 19.1.0, SVG Export Plug-In . SVG Version: 6.00 Build 0)  -->
<svg version="1.1" xmlns="http://www.w3.org/2000/svg" xmlns:xlink="http://www.w3.org/1999/xlink" x="0px" y="0px"
	 viewBox="0 0 800 800" style="enable-background:new 0 0 800 800;" xml:space="preserve">
<style type="text/css">
	.st0{fill:#F5F5F5;}
	.st1{fill:#FFFFFF;}
	.st2{fill:#FFCC33;}
	.st3{fill:#FFA733;}
	.st4{fill:#FF6666;}
</style>
<g id="objects">
	<g>
		<g>
			<ellipse class="st0" cx="402.7" cy="348.1" rx="260.1" ry="259.2"/>
			<path class="st1" d="M313,126.9c0,0-257.3,105.8-102.9,371.7l25.7-14.3C235.8,484.2,112.9,298.4,313,126.9z"/>
		</g>
		<g>
			<g>
				<polygon class="st2" points="226,539.6 226,559.3 581.1,561.2 582.3,539.5 				"/>
				<path class="st3" d="M588.2,587.2H217.1c-6.6,0-12-5.4-12-12v-4.6c0-6.6,5.4-12,12-12h371.1c6.6,0,12,5.4,12,12v4.6
					C600.2,581.8,594.8,587.2,588.2,587.2z"/>
				<path class="st2" d="M216.5,587.2c0,0,2.5,25.4-15.9,36.8l405.9,1.3c0,0-14.6,0-17.8-38.1H216.5z"/>
				<path class="st2" d="M603.6,685.7H201.7c-12.1,0-22-9.9-22-22V646c0-12.1,9.9-22,22-22h401.9c12.1,0,22,9.9,22,22v17.6
					C625.6,675.8,615.7,685.7,603.6,685.7z"/>
				<path class="st2" d="M193.6,627.2c0,0-5.1,2.2-6,4.8l431,2.2c0,0-3.2-7-12.4-7.3L193.6,627.2z"/>
				<path class="st2" d="M213.1,562.4c0,0-4.6,2.2-5.5,4.8l389.7,2.2c0,0-2.9-7-11.2-7.3L213.1,562.4z"/>
			</g>
			<g>
				<g>
					<circle class="st4" cx="184.4" cy="648.9" r="5.1"/>
					<circle class="st4" cx="194.7" cy="657.4" r="5.1"/>
					<circle class="st4" cx="206" cy="662.4" r="5.1"/>
					<circle class="st4" cx="219" cy="666.1" r="5.1"/>
					<circle class="st4" cx="232.7" cy="662.9" r="5.1"/>
					<circle class="st4" cx="245.3" cy="658" r="5.1"/>
					<circle class="st4" cx="255.8" cy="649.7" r="5.1"/>
					<circle class="st4" cx="262.2" cy="639.4" r="5.1"/>
				</g>
				<g>
					<circle class="st4" cx="273.6" cy="648.5" r="5.1"/>
					<circle class="st4" cx="283.9" cy="657" r="5.1"/>
					<circle class="st4" cx="295.2" cy="662" r="5.1"/>
					<circle class="st4" cx="308.2" cy="665.7" r="5.1"/>
					<circle class="st4" cx="321.9" cy="662.5" r="5.1"/>
					<circle class="st4" cx="334.5" cy="657.6" r="5.1"/>
					<circle class="st4" cx="345" cy="649.3" r="5.1"/>
					<circle class="st4" cx="351.4" cy="639" r="5.1"/>
					<circle class="st4" cx="360" cy="648.2" r="5.1"/>
					<circle class="st4" cx="370.4" cy="656.7" r="5.1"/>
					<circle class="st4" cx="381.7" cy="661.7" r="5.1"/>
					<circle class="st4" cx="394.7" cy="665.4" r="5.1"/>
				</g>
				<g>
					<circle class="st4" cx="408.3" cy="662.2" r="5.1"/>
					<circle class="st4" cx="420.9" cy="657.3" r="5.1"/>
					<circle class="st4" cx="431.5" cy="649" r="5.1"/>
					<circle class="st4" cx="437.9" cy="638.7" r="5.1"/>
				</g>
				<g>
					<circle class="st4" cx="449.2" cy="647.8" r="5.1"/>
					<circle class="st4" cx="459.5" cy="656.3" r="5.1"/>
					<circle class="st4" cx="470.8" cy="661.3" r="5.1"/>
					<circle class="st4" cx="483.9" cy="665" r="5.1"/>
					<circle class="st4" cx="497.5" cy="661.8" r="5.1"/>
					<circle class="st4" cx="510.1" cy="656.9" r="5.1"/>
					<circle class="st4" cx="520.7" cy="648.6" r="5.1"/>
					<circle class="st4" cx="527.1" cy="638.3" r="5.1"/>
					<circle class="st4" cx="535.7" cy="647.5" r="5.1"/>
					<circle class="st4" cx="546" cy="656" r="5.1"/>
					<circle class="st4" cx="557.3" cy="661" r="5.1"/>
					<circle class="st4" cx="570.3" cy="664.7" r="5.1"/>
				</g>
				<g>
					<circle class="st4" cx="584.2" cy="661.4" r="5.1"/>
					<circle class="st4" cx="596.8" cy="656.5" r="5.1"/>
					<circle class="st4" cx="607.4" cy="648.2" r="5.1"/>
					<circle class="st4" cx="613.8" cy="637.9" r="5.1"/>
				</g>
			</g>
		</g>
		<g>
			<path class="st2" d="M393.4,357.5V204c-75.2,5-134.8,67.4-134.8,144c0,79.8,64.7,144.4,144.4,144.4c76.5,0,139-59.5,144-134.8
				H393.4z"/>
			<path class="st3" d="M418.2,338.3h119.2c-3.3-46.2-29.9-85.9-68.1-107.6L418.2,338.3z"/>
			<path class="st4" d="M412.6,213.4v91.8l39.4-82.9C439.4,217.3,426.2,214.4,412.6,213.4L412.6,213.4z"/>
		</g>
	</g>
</g>
<g id="Sparkles">
	<path class="st1" d="M274.6,99.6c-10.6-3.5-15.2-12.3-17.2-19c-0.5-1.5-2.6-1.5-3,0c-2,6.7-6.6,15.5-17.2,19c-1.5,0.5-1.5,2.5,0,3
		c10.6,3.5,15.2,12.3,17.2,19c0.5,1.5,2.6,1.5,3,0c2-6.7,6.6-15.5,17.2-19C276,102.1,276,100.1,274.6,99.6z"/>
	<path class="st1" d="M697.4,186.5c-10.6-3.5-15.2-12.3-17.2-19c-0.5-1.5-2.6-1.5-3,0c-2,6.7-6.6,15.5-17.2,19c-1.5,0.5-1.5,2.5,0,3
		c10.6,3.5,15.2,12.3,17.2,19c0.5,1.5,2.6,1.5,3,0c2-6.7,6.6-15.5,17.2-19C698.9,189,698.9,187,697.4,186.5z"/>
	<path class="st1" d="M122.9,311.2c-10.6-3.5-15.2-12.3-17.2-19c-0.5-1.5-2.6-1.5-3,0c-2,6.7-6.6,15.5-17.2,19c-1.5,0.5-1.5,2.5,0,3
		c10.6,3.5,15.2,12.3,17.2,19c0.5,1.5,2.6,1.5,3,0c2-6.7,6.6-15.5,17.2-19C124.3,313.7,124.3,311.7,122.9,311.2z"/>
	<path class="st1" d="M443.3,64.9c-6.7-2.2-9.6-7.8-10.8-12c-0.3-1-1.6-1-1.9,0c-1.3,4.2-4.2,9.8-10.8,12c-0.9,0.3-0.9,1.6,0,1.9
		c6.7,2.2,9.6,7.8,10.8,12c0.3,1,1.6,1,1.9,0c1.3-4.2,4.2-9.8,10.8-12C444.2,66.5,444.2,65.2,443.3,64.9z"/>
	<path class="st1" d="M587.3,105.8c-6.7-2.2-9.6-7.8-10.8-12c-0.3-1-1.6-1-1.9,0c-1.3,4.2-4.2,9.8-10.8,12c-0.9,0.3-0.9,1.6,0,1.9
		c6.7,2.2,9.6,7.8,10.8,12c0.3,1,1.6,1,1.9,0c1.3-4.2,4.2-9.8,10.8-12C588.2,107.4,588.2,106.1,587.3,105.8z"/>
	<path class="st1" d="M159.7,125.9c-6.7-2.2-9.6-7.8-10.8-12c-0.3-1-1.6-1-1.9,0c-1.3,4.2-4.2,9.8-10.8,12c-0.9,0.3-0.9,1.6,0,1.9
		c6.7,2.2,9.6,7.8,10.8,12c0.3,1,1.6,1,1.9,0c1.3-4.2,4.2-9.8,10.8-12C160.6,127.5,160.6,126.2,159.7,125.9z"/>
	<path class="st1" d="M690.5,263.3c-6.7-2.2-9.6-7.8-10.8-12c-0.3-1-1.6-1-1.9,0c-1.3,4.2-4.2,9.8-10.8,12c-0.9,0.3-0.9,1.6,0,1.9
		c6.7,2.2,9.6,7.8,10.8,12c0.3,1,1.6,1,1.9,0c1.3-4.2,4.2-9.8,10.8-12C691.4,264.9,691.4,263.6,690.5,263.3z"/>
	<path class="st1" d="M333.7,46.9c-6.7-2.2-9.6-7.8-10.8-12c-0.3-1-1.6-1-1.9,0c-1.3,4.2-4.2,9.8-10.8,12c-0.9,0.3-0.9,1.6,0,1.9
		c6.7,2.2,9.6,7.8,10.8,12c0.3,1,1.6,1,1.9,0c1.3-4.2,4.2-9.8,10.8-12C334.6,48.5,334.6,47.2,333.7,46.9z"/>
	<circle class="st1" cx="483.9" cy="42.1" r="7.9"/>
	<circle class="st1" cx="160.7" cy="221.3" r="7.9"/>
	<circle class="st1" cx="678.7" cy="356.7" r="7.9"/>
</g>
</svg>
