<?xml version="1.0" encoding="utf-8"?>
<!-- Generator: Adobe Illustrator 19.1.0, SVG Export Plug-In . SVG Version: 6.00 Build 0)  -->
<svg version="1.1" id="Layer_1" xmlns="http://www.w3.org/2000/svg" xmlns:xlink="http://www.w3.org/1999/xlink" x="0px" y="0px"
	 viewBox="0 -17.1 141.7 141.7" enable-background="new 0 -17.1 141.7 141.7" xml:space="preserve">
<g>
	<g>
		<g>
			<rect x="52" y="75.4" fill="#D3D3D3" width="37.9" height="36.4"/>
		</g>
		<g>
			<path fill="#3D3D3D" d="M142.1-3c0-5.9-4.4-10.7-9.9-10.7H9.8C4.3-13.7-0.1-8.9-0.1-3v69.9h142.2V-3z"/>
		</g>
		<g>
			<path fill="#FFFFFF" d="M9.8,88.2h122.4c5.5,0,9.9-4.8,9.9-10.7V66.8H-0.1v10.7C-0.1,83.4,4.3,88.2,9.8,88.2z"/>
		</g>
		<g>
			<ellipse fill="#E7E7E7" cx="71" cy="-10.6" rx="1.3" ry="1.4"/>
		</g>
		<g>
			<rect x="39.4" y="111.8" fill="#FFFFFF" width="63.2" height="9.1"/>
		</g>
		<g>
			<ellipse fill="#FF6666" cx="125.9" cy="77.5" rx="2.6" ry="2.9"/>
		</g>
		<g>
			<polygon fill="#FFCC33" points="73.8,-6.5 60.6,-6.5 49.1,-6.5 36.7,-6.5 5.5,-6.5 5.5,17.4 5.5,26.9 5.5,35.7 5.5,45.3 
				5.5,61.4 136.5,61.4 136.5,-6.5 			"/>
		</g>
		<g opacity="0.4">
			<polygon fill="#FFA733" points="5.5,61.4 136.5,61.4 136.5,-6.5 			"/>
		</g>
	</g>
</g>
<rect x="31.2" y="1.6" fill-rule="evenodd" clip-rule="evenodd" fill="#FFFFFF" width="79.5" height="56.2"/>
<rect x="31.2" y="1.6" fill-rule="evenodd" clip-rule="evenodd" fill="#FF6666" width="79.5" height="4.4"/>
<g>
	<g>
		<rect x="48.6" y="50.8" fill-rule="evenodd" clip-rule="evenodd" fill="#FF6666" width="48.5" height="1.2"/>
		<rect x="88.4" y="24.8" fill-rule="evenodd" clip-rule="evenodd" fill="#FFA733" width="8.6" height="26"/>
		<rect x="78.5" y="34.6" fill-rule="evenodd" clip-rule="evenodd" fill="#FFA733" width="8.6" height="16.2"/>
		<rect x="68.5" y="40.1" fill-rule="evenodd" clip-rule="evenodd" fill="#FFA733" width="8.6" height="10.7"/>
		<rect x="58.5" y="35.1" fill-rule="evenodd" clip-rule="evenodd" fill="#FFA733" width="8.6" height="15.7"/>
		<rect x="48.6" y="39.6" fill-rule="evenodd" clip-rule="evenodd" fill="#FFA733" width="8.6" height="11.2"/>
	</g>
	<circle fill-rule="evenodd" clip-rule="evenodd" fill="#FFA733" cx="43.5" cy="38.4" r="2.3"/>
	<polygon fill-rule="evenodd" clip-rule="evenodd" fill="#FFA733" points="100.8,12.8 94.7,12.9 96.8,15.7 98.9,18.6 	"/>
	<path fill="#FF6666" d="M45.5,36L63,23l0.6-0.4l0.4,0.5l8.3,9.8l23.2-17.2l0.5,0.6l0.4,0.5L72.6,34.5L72,34.9l-0.4-0.5l-8.3-9.8
		L46.4,37.1C46.2,36.7,45.9,36.3,45.5,36z"/>
</g>
</svg>
