<?xml version="1.0" encoding="utf-8"?>
<!-- Generator: Adobe Illustrator 19.1.0, SVG Export Plug-In . SVG Version: 6.00 Build 0)  -->
<svg version="1.1" id="Layer_1" xmlns="http://www.w3.org/2000/svg" xmlns:xlink="http://www.w3.org/1999/xlink" x="0px" y="0px"
	 viewBox="0 -17.1 141.7 141.7" enable-background="new 0 -17.1 141.7 141.7" xml:space="preserve">
<g>
	<path fill-rule="evenodd" clip-rule="evenodd" fill="#FFFFFF" d="M1.5-13.2l104.5,0l-0.1,106.1l-104.5,0L1.5-13.2z"/>
	<g>
		<polygon fill-rule="evenodd" clip-rule="evenodd" fill="#FFA733" points="14.6,21.5 23.6,21.5 23.6,29.7 14.6,29.7 		"/>
		<rect x="25" y="18" fill-rule="evenodd" clip-rule="evenodd" fill="#FFCC33" width="9" height="11.7"/>
		<rect x="35.4" y="9.7" fill-rule="evenodd" clip-rule="evenodd" fill="#FFA733" width="9" height="20"/>
		
			<rect x="45.9" y="12.5" transform="matrix(-1 -6.241275e-004 6.241275e-004 -1 100.7574 42.2552)" fill-rule="evenodd" clip-rule="evenodd" fill="#FFCC33" width="9" height="17.2"/>
		
			<rect x="56.3" y="21.1" transform="matrix(-1 -5.621777e-004 5.621777e-004 -1 121.6207 50.8663)" fill-rule="evenodd" clip-rule="evenodd" fill="#FFA733" width="9" height="8.6"/>
		
			<rect x="66.5" y="17.8" transform="matrix(-1 -5.574531e-004 5.574531e-004 -1 141.959 47.6008)" fill-rule="evenodd" clip-rule="evenodd" fill="#FFCC33" width="9" height="11.9"/>
		
			<rect x="76.9" y="12.5" transform="matrix(-1 -6.527756e-004 6.527756e-004 -1 162.8284 42.2742)" fill-rule="evenodd" clip-rule="evenodd" fill="#FFA733" width="9" height="17.2"/>
		<polygon fill-rule="evenodd" clip-rule="evenodd" fill="#FFCC33" points="87.3,1.1 96.4,1.1 96.4,29.7 87.3,29.7 		"/>
	</g>
	
		<rect x="11" y="41.9" transform="matrix(-1 -5.468861e-004 5.468861e-004 -1 61.1331 86.3549)" fill-rule="evenodd" clip-rule="evenodd" fill="#CCCCCC" width="39.1" height="2.6"/>
	
		<rect x="11" y="46.4" transform="matrix(-1 -5.358809e-004 5.358809e-004 -1 61.1244 95.4579)" fill-rule="evenodd" clip-rule="evenodd" fill="#CCCCCC" width="39.2" height="2.6"/>
	
		<rect x="11" y="51" transform="matrix(-1 -5.578647e-004 5.578647e-004 -1 61.1164 104.5629)" fill-rule="evenodd" clip-rule="evenodd" fill="#CCCCCC" width="39.1" height="2.6"/>
	
		<rect x="11" y="55.5" transform="matrix(-1 -5.567634e-004 5.567634e-004 -1 61.1094 113.6662)" fill-rule="evenodd" clip-rule="evenodd" fill="#CCCCCC" width="39.1" height="2.6"/>
	
		<rect x="11" y="60.1" transform="matrix(-1 -5.468795e-004 5.468795e-004 -1 61.1015 122.771)" fill-rule="evenodd" clip-rule="evenodd" fill="#CCCCCC" width="39.1" height="2.6"/>
	
		<rect x="11" y="64.6" transform="matrix(-1 -5.578494e-004 5.578494e-004 -1 61.0931 131.8751)" fill-rule="evenodd" clip-rule="evenodd" fill="#CCCCCC" width="39.1" height="2.6"/>
	
		<rect x="11" y="69.2" transform="matrix(-1 -5.468567e-004 5.468567e-004 -1 61.0854 140.9803)" fill-rule="evenodd" clip-rule="evenodd" fill="#CCCCCC" width="39.2" height="2.6"/>
	
		<rect x="11" y="73.7" transform="matrix(-1 -5.578530e-004 5.578530e-004 -1 41.5046 150.0677)" fill-rule="evenodd" clip-rule="evenodd" fill="#CCCCCC" width="19.6" height="2.6"/>
	
		<rect x="57.2" y="41.9" transform="matrix(-1 -5.369908e-004 5.369908e-004 -1 153.4433 86.431)" fill-rule="evenodd" clip-rule="evenodd" fill="#CCCCCC" width="39.1" height="2.6"/>
	
		<rect x="57.2" y="46.4" transform="matrix(-1 -5.567421e-004 5.567421e-004 -1 153.4342 95.5359)" fill-rule="evenodd" clip-rule="evenodd" fill="#CCCCCC" width="39.2" height="2.6"/>
	
		<rect x="57.2" y="51" transform="matrix(-1 -5.260094e-004 5.260094e-004 -1 153.4285 104.6382)" fill-rule="evenodd" clip-rule="evenodd" fill="#CCCCCC" width="39.1" height="2.6"/>
	
		<rect x="57.2" y="55.6" transform="matrix(-1 -5.578524e-004 5.578524e-004 -1 153.4203 113.7436)" fill-rule="evenodd" clip-rule="evenodd" fill="#CCCCCC" width="39.1" height="2.6"/>
	
		<rect x="57.1" y="60.1" transform="matrix(-1 -5.688518e-004 5.688518e-004 -1 153.4116 122.8491)" fill-rule="evenodd" clip-rule="evenodd" fill="#CCCCCC" width="39.1" height="2.6"/>
	
		<rect x="57.1" y="64.7" transform="matrix(-1 -5.578524e-004 5.578524e-004 -1 153.4039 131.953)" fill-rule="evenodd" clip-rule="evenodd" fill="#CCCCCC" width="39.1" height="2.6"/>
	
		<rect x="57.1" y="69.2" transform="matrix(-1 -5.358815e-004 5.358815e-004 -1 153.3968 141.0555)" fill-rule="evenodd" clip-rule="evenodd" fill="#CCCCCC" width="39.2" height="2.6"/>
	
		<rect x="57.1" y="73.8" transform="matrix(-1 -5.335613e-004 5.335613e-004 -1 141.7983 150.1502)" fill-rule="evenodd" clip-rule="evenodd" fill="#CCCCCC" width="27.6" height="2.6"/>
</g>
<g id="magnifying_glass">
	<path opacity="0.1" fill="#FFFFFF" d="M60.4,42.4c-4.2,4.2-6.5,9.8-6.5,15.7c0,12.3,9.9,22.2,22.2,22.3c5.9,0,11.5-2.3,15.8-6.5
		l0,0c4.2-4.2,6.5-9.8,6.5-15.7c0-5.9-2.3-11.5-6.5-15.7c-4.2-4.2-9.8-6.5-15.7-6.5C70.2,35.8,64.6,38.1,60.4,42.4L60.4,42.4z"/>
	<g>
		<g>
			<path fill="none" d="M94.7,76.6"/>
		</g>
		<g>
			<path fill="#CACDCF" d="M90.3,75.1c0.2-0.2,0.5-0.4,0.7-0.6C90.8,74.7,90.6,74.9,90.3,75.1z"/>
			<path fill="#CACDCF" d="M91.1,74.4c0.2-0.2,0.5-0.4,0.7-0.7C91.6,74,91.3,74.2,91.1,74.4z"/>
			<path opacity="0.8" fill="#FFFFFF" d="M60.4,42.4c3.8-3.8,8.6-6,13.9-6.4c-1,0.1-2,0.2-3,0.5c-2.4,1.1-4.6,2.6-6.6,4.6
				c-4.2,4.2-6.5,9.8-6.5,15.7c0,12.3,9.9,22.2,22.2,22.3c1.7,0,3.3-0.2,4.9-0.5c1.8-0.8,3.5-1.9,5.1-3.2c-4,3.3-9,5.1-14.2,5.1
				c-12.3,0-22.2-10-22.2-22.3C53.9,52.1,56.2,46.5,60.4,42.4z"/>
			<path fill="#CACDCF" d="M74.3,35.9c0.2,0,0.4,0,0.5,0C74.6,35.9,74.5,35.9,74.3,35.9z"/>
			<path fill="#CACDCF" d="M74.9,35.9c0.2,0,0.3,0,0.5,0C75.2,35.8,75.1,35.9,74.9,35.9z"/>
			<path fill="#CACDCF" d="M75.5,35.8c0.2,0,0.4,0,0.6,0C75.9,35.8,75.7,35.8,75.5,35.8z"/>
		</g>
		<g>
			<path fill="#339DA7" d="M103.4,85.6c-1.5,1.5-3.9,1.5-5.4,0l-4.8-4.9c-1.5-1.5-1.5-3.9,0-5.4c0,0,0,0,0,0c1.5-1.5,3.9-1.5,5.4,0
				l4.8,4.9C104.9,81.7,104.9,84.1,103.4,85.6C103.4,85.6,103.4,85.6,103.4,85.6z"/>
		</g>
	</g>
	<path fill="#54B9CC" d="M46.2,58c0,16.5,13.3,29.9,29.8,29.9c8,0,15.5-3.1,21.2-8.8c0,0,0,0,0,0c5.6-5.6,8.7-13.1,8.7-21
		c0-8-3.1-15.5-8.7-21.1c-5.6-5.7-13.1-8.8-21.1-8.8c-8,0-15.5,3.1-21.2,8.8C49.3,42.6,46.2,50.1,46.2,58z M53.9,58
		c0-5.9,2.3-11.5,6.5-15.7c4.2-4.2,9.8-6.5,15.7-6.5c5.9,0,11.5,2.3,15.7,6.5c4.2,4.2,6.5,9.8,6.5,15.7c0,5.9-2.3,11.5-6.5,15.7
		C87.6,78,82,80.3,76,80.3C63.8,80.3,53.8,70.3,53.9,58z"/>
	
		<rect x="109.9" y="75.6" transform="matrix(-0.7071 0.7071 -0.7071 -0.7071 271.1806 87.0603)" fill="#339DA7" width="15.4" height="48.1"/>
	
		<rect x="113.1" y="75.6" transform="matrix(-0.7071 0.7071 -0.7071 -0.7071 271.1799 87.0602)" fill="#54B9CC" width="9" height="48.1"/>
	
		<rect x="124.3" y="110.4" transform="matrix(-0.7071 0.7071 -0.7071 -0.7071 305.9462 101.4613)" fill="#339DA7" width="15.4" height="7.4"/>
	
		<rect x="127.5" y="110.4" transform="matrix(-0.7071 0.7071 -0.7071 -0.7071 305.9461 101.4661)" fill="#33B1B6" width="9" height="7.4"/>
	<g>
		<path opacity="0.8" fill="#FFFFFF" d="M86.2,42.3c-5.3-2.6-11.3-3-16.9-1.1c-1.9,0.7-3.7,1.6-5.4,2.7l1.6,4.4
			c1.9-1.5,4-2.6,6.4-3.4c5.6-1.9,11.6-1.5,16.9,1.1c2.5,1.2,4.6,2.9,6.5,4.8C93.2,47.1,90,44.2,86.2,42.3z"/>
	</g>
</g>
</svg>
