<?xml version="1.0" encoding="utf-8"?>
<!-- Generator: Adobe Illustrator 19.1.0, SVG Export Plug-In . SVG Version: 6.00 Build 0)  -->
<svg version="1.1" id="Isolation_Mode" xmlns="http://www.w3.org/2000/svg" xmlns:xlink="http://www.w3.org/1999/xlink" x="0px"
	 y="0px" viewBox="155 -33.1 906 906" enable-background="new 155 -33.1 906 906" xml:space="preserve">
<g>
	<g>
		<defs>
			<circle  cx="608" cy="419.9" r="453"/>
		</defs>
		<clipPath >
			<use xlink:href="#SVGID_1_"  overflow="visible"/>
		</clipPath>
		<rect x="105.5" y="-73.1" clip-path="url(#SVGID_2_)" fill="#FFCC33" width="1007" height="1007"/>
	</g>
	<g>
		<defs>
			<circle  cx="608" cy="419.9" r="453"/>
		</defs>
		<clipPath >
			<use xlink:href="#SVGID_3_"  overflow="visible"/>
		</clipPath>
		<g clip-path="url(#SVGID_4_)">
			
				<rect x="398.6" y="81.7" transform="matrix(-0.9987 5.036697e-002 -5.036697e-002 -0.9987 1314.1755 770.1365)" fill="#D2D2D2" width="497.6" height="639.9"/>
			
				<rect x="381.6" y="103.8" transform="matrix(-0.996 8.891014e-002 -8.891014e-002 -0.996 1295.9355 789.7162)" fill="#E6E6E6" width="497.6" height="639.9"/>
			<g>
				
					<rect x="359.2" y="116.4" transform="matrix(-0.9861 0.1659 -0.1659 -0.9861 1279.9249 765.7116)" fill="#F5F5F5" width="497.6" height="639.9"/>
				
					<rect x="376.5" y="189" transform="matrix(-0.9861 0.1659 -0.1659 -0.9861 1170.1841 331.8051)" fill="#996633" width="389.5" height="51.6"/>
				<g>
					<g>
						<g>
							<circle fill="#FF6666" cx="473.2" cy="487.5" r="47"/>
							<path fill="#FFFFFF" d="M468.7,512.8c-2.4,0.4-4.9-0.2-6.9-1.8l-15-12.2c-3.7-3-4.3-8.4-1.3-12.1c3-3.7,8.4-4.3,12.1-1.3
								l8.5,6.9l19.9-23.4c3.1-3.6,8.5-4.1,12.2-1c3.6,3.1,4.1,8.5,1,12.2l-25.3,29.8C472.5,511.5,470.7,512.5,468.7,512.8z"/>
						</g>
						<g>
							<g>
								<g>
									
										<rect x="551.6" y="430.4" transform="matrix(-0.9861 0.1659 -0.1659 -0.9861 1402.8435 756.6329)" fill="#996633" width="236.5" height="13.1"/>
								</g>
								<g>
									
										<rect x="557.7" y="469.9" transform="matrix(-0.9861 0.1659 -0.1659 -0.9861 1353.0031 839.8089)" fill="#996633" width="167.5" height="13.1"/>
								</g>
							</g>
						</g>
					</g>
					<g>
						<g>
							<circle fill="#FF6666" cx="452.9" cy="367.1" r="47"/>
							<path fill="#FFFFFF" d="M448.5,392.5c-2.4,0.4-4.9-0.2-6.9-1.8l-15-12.2c-3.7-3-4.3-8.4-1.3-12.1s8.4-4.3,12.1-1.3l8.5,6.9
								l19.9-23.4c3.1-3.6,8.5-4.1,12.2-1c3.6,3.1,4.1,8.5,1,12.2l-25.4,29.8C452.3,391.1,450.4,392.1,448.5,392.5z"/>
						</g>
						<g>
							<g>
								<g>
									
										<rect x="536.5" y="309.2" transform="matrix(-0.9861 0.1659 -0.1659 -0.9861 1352.7546 518.4224)" fill="#996633" width="236.5" height="13.1"/>
								</g>
								<g>
									
										<rect x="543.2" y="355.7" transform="matrix(-0.9861 0.1659 -0.1659 -0.9861 1222.1636 622.3289)" fill="#996633" width="83.8" height="13.1"/>
								</g>
							</g>
						</g>
					</g>
					<g>
						<g>
							<circle fill="#FF6666" cx="492.9" cy="604.7" r="47"/>
							<path fill="#FFFFFF" d="M488.4,630c-2.4,0.4-4.9-0.2-6.9-1.8l-15-12.2c-3.7-3-4.3-8.4-1.3-12.1c3-3.7,8.4-4.3,12.1-1.3
								l8.5,6.9l19.9-23.4c3.1-3.6,8.5-4.1,12.2-1c3.6,3.1,4.1,8.5,1,12.2l-25.4,29.8C492.2,628.7,490.4,629.7,488.4,630z"/>
						</g>
						<g>
							<g>
								<g>
									
										<rect x="568.4" y="548.1" transform="matrix(-0.9861 0.1659 -0.1659 -0.9861 1455.7417 987.6234)" fill="#996633" width="236.5" height="13.1"/>
								</g>
								<g>
									
										<rect x="574.9" y="591" transform="matrix(-0.9861 0.1659 -0.1659 -0.9861 1366.4805 1081.048)" fill="#996633" width="126.4" height="13.1"/>
								</g>
							</g>
						</g>
					</g>
				</g>
				
					<rect x="741.8" y="647.1" transform="matrix(-0.9861 0.1659 -0.1659 -0.9861 1679.1498 1166.9395)" fill="#996633" width="98.1" height="13.1"/>
			</g>
			<g>
				<path fill="#F19961" d="M843.9,494.3c-115.1-16.4-165.2-92.7-165.2-92.7l118.9-17.2C797.5,384.4,959,510.8,843.9,494.3z"/>
				<path fill="#FFAF77" d="M836.4,676l83.7-74.8c0,0,11.2-112.9,0-152.5s-88.2-86-106.9-96.4c-18.7-10.5-118.1,4.5-146.4,22.4
					c-23.4,14.8-3.1,30.1,11.8,34.4s97.9-18.7,119.6,0.7c21.7,19.4,47.1,83,17.9,104.3c-29.2,21.3-97.9-73.6-110.7-90.8
					c-12.7-17.2-61.7-2.6-43.4,23.9c18.4,26.6,77.4,112.6,99.4,139.1C783.7,612.8,836.4,676,836.4,676z"/>
				<g>
					<g>
						<polygon fill="#451613" points="564.7,403 566.6,390.8 545.1,393.8 						"/>
						<polygon fill="#DAC18E" points="594.5,417 599.2,386.3 566.6,390.8 564.7,403 						"/>
						<path fill="#F7F1E6" d="M853.4,456.6c3.4,0.5,6.5-1.8,7-5.2l2.8-18.5c0.5-3.4-1.8-6.5-5.2-7l-13.8-2.1l-4.7,30.7L853.4,456.6z
							"/>
						<polygon fill="#F1E4C4" points="816.5,450.5 839.6,454.5 844.3,423.8 821.2,419.8 						"/>
						<path fill="#FF6666" d="M590.8,400.3c1.1-7.2,8.4-14,8.4-14l222,33.5l-4.7,30.7l-222-33.5C594.5,417,589.7,407.5,590.8,400.3z
							"/>
					</g>
					<polygon fill="#451613" points="831.1,453 835.5,453.9 840.2,423.1 835.8,422.3 					"/>
					<polygon fill="#451613" points="821.5,451.3 825.8,452.1 830.6,421.4 826.1,420.6 					"/>
				</g>
				<path fill="#FFAF77" d="M705.5,423.3c-12.7-17.2-61.7-2.6-43.4,23.9c2.1,3,4.6,6.7,7.6,11l66.4,4.3
					C721.7,445.5,710.1,429.4,705.5,423.3z"/>
				<polygon fill="#FF6666" points="940.3,567.6 807.2,692.5 1125,1043.9 1196.7,785.9 				"/>
			</g>
		</g>
	</g>
</g>
</svg>
