<?xml version="1.0" encoding="utf-8"?>
<!-- Generator: Adobe Illustrator 19.1.0, SVG Export Plug-In . SVG Version: 6.00 Build 0)  -->
<svg version="1.1" id="Isolation_Mode" xmlns="http://www.w3.org/2000/svg" xmlns:xlink="http://www.w3.org/1999/xlink" x="0px"
	 y="0px" viewBox="-205 328.9 185 185" enable-background="new -205 328.9 185 185" xml:space="preserve">
<g>
	<g>
		<defs>
			<circle  cx="-112.5" cy="421.4" r="92.5"/>
		</defs>
		<clipPath >
			<use xlink:href="#SVGID_1_"  overflow="visible"/>
		</clipPath>
		<rect x="-205" y="328.9" clip-path="url(#SVGID_2_)" fill="#FF6666" width="185" height="185"/>
	</g>
	<g>
		<defs>
			<circle  cx="-112.5" cy="421.4" r="92.5"/>
		</defs>
		<clipPath >
			<use xlink:href="#SVGID_3_"  overflow="visible"/>
		</clipPath>
		<g clip-path="url(#SVGID_4_)">
			<g>
				<path fill="#4D4D4D" d="M-136.2,347.7h47.5c9.2,0,16.7,5.4,16.7,12v90.2c0,6.6-7.5,12-16.7,12h-47.5c-9.2,0-16.7-5.4-16.7-12
					v-90.2C-153,353.1-145.4,347.7-136.2,347.7z"/>
				<path fill="#FFFFFF" d="M-147.8,359.6h70.5c0.1,0,0.2,0.1,0.2,0.2v91.4c0,0.1-0.1,0.2-0.2,0.2h-70.5c-0.1,0-0.3-0.1-0.3-0.2
					v-91.4C-148,359.7-147.9,359.6-147.8,359.6z"/>
				<path fill="#999999" d="M-121.3,350.6h17.6c0.5,0,0.9,0.4,0.9,0.9l0,0c0,0.5-0.4,0.9-0.9,0.9h-17.6c-0.5,0-0.9-0.4-0.9-0.9l0,0
					C-122.1,351-121.8,350.6-121.3,350.6z"/>
				<circle fill="#999999" cx="-112.5" cy="456.4" r="2.9"/>
			</g>
			<g>
				<g>
					<rect x="-148" y="357.3" fill="#FFDC96" width="71" height="4.6"/>
					<rect x="-129" y="364.7" fill="#7FB4E3" width="33.1" height="7"/>
					<rect x="-148" y="379.7" fill="#7FB4E3" width="71" height="19.2"/>
					<rect x="-134.4" y="374.3" fill="#CAE4FC" width="43.8" height="2.9"/>
					<rect x="-148" y="443" fill="#FFDC96" width="71" height="8.4"/>
					<rect x="-143.7" y="420.4" fill="#CAE4FC" width="17.8" height="2.9"/>
					<rect x="-143.7" y="425.4" fill="#CAE4FC" width="17.8" height="2.9"/>
					<rect x="-143.7" y="430.4" fill="#CAE4FC" width="17.8" height="2.9"/>
					<rect x="-143.7" y="435.4" fill="#CAE4FC" width="11.3" height="2.9"/>
					<rect x="-121.4" y="420.4" fill="#CAE4FC" width="17.8" height="2.9"/>
					<rect x="-121.4" y="425.4" fill="#CAE4FC" width="17.8" height="2.9"/>
					<rect x="-121.4" y="430.4" fill="#CAE4FC" width="17.8" height="2.9"/>
					<rect x="-121.4" y="435.4" fill="#CAE4FC" width="11.3" height="2.9"/>
					<rect x="-99.1" y="420.4" fill="#CAE4FC" width="17.8" height="2.9"/>
					<rect x="-99.1" y="425.4" fill="#CAE4FC" width="17.8" height="2.9"/>
					<rect x="-99.1" y="430.4" fill="#CAE4FC" width="17.8" height="2.9"/>
					<rect x="-99.1" y="435.4" fill="#CAE4FC" width="11.3" height="2.9"/>
				</g>
				<path fill="#7FB4E3" d="M-90.2,418.2c4.9,0,8.9-3.5,8.9-7.7c0-4.3-4-7.7-8.9-7.7s-8.9,3.5-8.9,7.7
					C-99.1,414.8-95.1,418.2-90.2,418.2z"/>
				<path fill="#FFDC96" d="M-134.8,418.2c4.9,0,8.9-3.5,8.9-7.7c0-4.3-4-7.7-8.9-7.7s-8.9,3.5-8.9,7.7
					C-143.7,414.8-139.7,418.2-134.8,418.2z"/>
				<path fill="#FF6666" d="M-112.5,418.2c4.9,0,8.9-3.5,8.9-7.7c0-4.3-4-7.7-8.9-7.7s-8.9,3.5-8.9,7.7
					C-121.4,414.8-117.4,418.2-112.5,418.2z"/>
			</g>
		</g>
	</g>
	<g>
		<defs>
			<circle  cx="-112.5" cy="421.4" r="92.5"/>
		</defs>
		<clipPath >
			<use xlink:href="#SVGID_5_"  overflow="visible"/>
		</clipPath>
		<g clip-path="url(#SVGID_6_)">
			<path fill="#F5C595" d="M-73.5,450.1l18.9,18.6l-7.9,19.9l-0.5,0.5c-1,0.5-2.1,1-3.1,1.5l-20.7-19.7L-73.5,450.1z"/>
			<polygon fill="#FFFFFF" points="-80,481.8 -49.6,511.6 -29.6,490.5 -60,460.6 			"/>
			<path fill="#F5C595" d="M-83.4,423.2l11.2,17.2c1.4,2.2,4.7,12,2.6,13.7c-2.1,1.6-7.8-4.1-9.2-6.4l-7.2-12.6
				C-90.1,427.8-85.9,424.6-83.4,423.2z"/>
			<path fill="#F5C595" d="M-115.8,414.2l16.7,16.9c-3.9-0.8-6.7,4.6-4.1,8c-3.9-1.3-7,3.5-5.2,7.1c-3.8-0.6-6.4,4.8-3.3,8
				l14.1,14.4c4,4,11.3,7.1,15,7.5c11.1,1.1,16.7-12,15.5-17.8c-0.9-4.6-1.1-7.9-3.2-10.1l-38.8-40.7
				C-114,402.3-119.9,410.1-115.8,414.2z"/>
			<path fill="#E3A86D" d="M-103.6,451.4c0,0-2.8-3.4-5.1-6.2c0.1,0.3,0.2,0.6,0.4,1c-0.2,0-0.4-0.1-0.7,0
				C-106.5,448.6-103.6,451.4-103.6,451.4L-103.6,451.4z M-93.2,437.6c0.5,0.6,0.8,0.9,0.8,0.9S-92.8,438.2-93.2,437.6L-93.2,437.6
				L-93.2,437.6z M-97.7,445.2c0,0-3.5-3.4-6.2-6.2c0.3,0,0.5,0.1,0.8,0.2c-0.2-0.2-0.3-0.4-0.4-0.6h0.4
				C-100.8,441.3-97.7,445.2-97.7,445.2z M-103.6,438.5c-0.2-0.3-0.3-0.6-0.4-0.9c0.2,0.3,0.5,0.6,0.8,0.9H-103.6L-103.6,438.5z
				 M-100.2,431.1c0.3,0,0.7,0,1,0c0.1,0,0.1,0.1,0.1,0c1.5,1.6,4.5,4.9,5.9,6.5h-0.2C-94.9,436.1-98.1,433.1-100.2,431.1z"/>
			<path fill="#FFDFBF" d="M-115.1,413.2l1.4,1.4c3-0.4,4.7-2.2,5.2-5.1l-1.3-1.4C-113.5,404.3-118.2,410.1-115.1,413.2z"/>
			<path fill="#FFDFBF" d="M-84.5,424c0.3-0.3,0.7-0.6,1.1-0.9l3.9,5.9C-81.9,429.9-83.5,426.4-84.5,424z"/>
			<polygon fill="#E3A86D" points="-87.7,429.9 -78.1,439.9 -87.3,428.3 			"/>
			<polygon fill="#E6E6E6" points="-70,471.2 -39.6,501.1 -29.6,490.5 -60,460.6 			"/>
		</g>
	</g>
</g>
</svg>
