<?xml version="1.0" encoding="utf-8"?>
<!-- Generator: Adobe Illustrator 19.1.0, SVG Export Plug-In . SVG Version: 6.00 Build 0)  -->
<svg version="1.1" id="Isolation_Mode" xmlns="http://www.w3.org/2000/svg" xmlns:xlink="http://www.w3.org/1999/xlink" x="0px"
	 y="0px" viewBox="0 0 800 800" enable-background="new 0 0 800 800" xml:space="preserve">
<g>
	<defs>
		<circle  cx="401.2" cy="398.8" r="398.8"/>
	</defs>
	<clipPath >
		<use xlink:href="#SVGID_1_"  overflow="visible"/>
	</clipPath>
	<rect clip-path="url(#SVGID_2_)" fill="#FF9900" width="800" height="800"/>
	<path clip-path="url(#SVGID_2_)" fill="#84D1C8" d="M377.4,454.5"/>
	<g clip-path="url(#SVGID_2_)">
		<g>
			<path fill="none" d="M408.4,411.8"/>
		</g>
		<g>
			<path fill="none" d="M408.4,393.1"/>
		</g>
		<g>
			<path fill="none" d="M439.9,381.5"/>
		</g>
		<g>
			<path fill="none" d="M433.2,402.7"/>
		</g>
		<g>
			<path fill="none" d="M427.8,392"/>
		</g>
		<g>
			<path fill="none" d="M381.7,402.7"/>
		</g>
		<g>
			<path fill="none" d="M387,392"/>
		</g>
	</g>
	<g clip-path="url(#SVGID_2_)">
		<path opacity="0.2" fill-rule="evenodd" clip-rule="evenodd" fill="#808080" d="M373.4,674.6l404.8-0.7l-87.2-145.8h-0.4
			c0.1-0.9,0.2-1.9,0.2-2.9V204c0-12.5-10-22.6-22.3-22.6H133.7c-12.3,0-22.3,10.1-22.3,22.6v321.2c0,1.3,0.1,2.5,0.3,3.8l-0.2-3.8
			l-91,150h0.9c0.4,7.9,8.8,14.3,19.2,14.3h719.2c10.6,0,19.2-6.7,19.2-14.9H373.4z"/>
		<g>
			<g>
				<g>
					<path fill-rule="evenodd" clip-rule="evenodd" fill="#666666" d="M694.8,513c0,12.3-10,22.3-22.3,22.3H136.8
						c-12.3,0-22.3-10-22.3-22.3V195.4c0-12.3,10-22.3,22.3-22.3h535.7c12.3,0,22.3,10,22.3,22.3V513z"/>
					<polygon fill-rule="evenodd" clip-rule="evenodd" fill="#C1C1C1" points="114.2,516.7 23.4,661.4 782.4,660 695,515.9 					"/>
					<path fill-rule="evenodd" clip-rule="evenodd" fill="#666666" d="M783.2,660.7L783.2,660.7c0,8.1-8.6,14.7-19.2,14.7H43.5
						c-10.6,0-19.2-6.6-19.2-14.7l0,0"/>
					<rect x="146.8" y="202.2" fill-rule="evenodd" clip-rule="evenodd" fill="#009966" width="515.9" height="287.3"/>
				</g>
				<g>
					<g opacity="0.15">
						<polygon fill="#070707" points="152.2,559.1 134.4,559.1 142.5,541.1 159.7,541.1 						"/>
						<polygon fill="#070707" points="165.9,581.9 124.3,581.9 132.3,563.8 172.6,563.8 						"/>
						<polygon fill="#070707" points="157.6,606.8 114.2,606.8 122.2,588.7 164.3,588.7 						"/>
						<polygon fill="#070707" points="173.5,559.1 155.7,559.1 163.1,541.1 180.3,541.1 						"/>
						<polygon fill="#070707" points="194.8,559.1 177.1,559.1 183.7,541.1 200.9,541.1 						"/>
						<polygon fill="#070707" points="216.1,559.1 198.4,559.1 204.3,541.1 221.5,541.1 						"/>
						<polygon fill="#070707" points="237.4,559.1 219.7,559.1 224.9,541.1 242.1,541.1 						"/>
						<polygon fill="#070707" points="258.7,559.1 241,559.1 245.5,541.1 262.7,541.1 						"/>
						<polygon fill="#070707" points="280,559.1 262.3,559.1 266.1,541.1 283.3,541.1 						"/>
						<polygon fill="#070707" points="301.3,559.1 283.6,559.1 286.7,541.1 303.9,541.1 						"/>
						<polygon fill="#070707" points="322.6,559.1 304.9,559.1 307.3,541.1 324.5,541.1 						"/>
						<polygon fill="#070707" points="343.9,559.1 326.2,559.1 327.9,541.1 345.1,541.1 						"/>
						<polygon fill="#070707" points="365.2,559.1 347.5,559.1 348.5,541.1 365.7,541.1 						"/>
						<polygon fill="#070707" points="386.5,559.1 368.8,559.1 369.1,541.1 386.3,541.1 						"/>
						<polygon fill="#070707" points="407.8,559.1 390.1,559.1 389.7,541.1 406.9,541.1 						"/>
						<polygon fill="#070707" points="429.1,559.1 411.4,559.1 410.3,541.1 427.5,541.1 						"/>
						<polygon fill="#070707" points="450.4,559.1 432.7,559.1 430.9,541.1 448.1,541.1 						"/>
						<polygon fill="#070707" points="471.8,559.1 454,559.1 451.5,541.1 468.7,541.1 						"/>
						<polygon fill="#070707" points="493.1,559.1 475.3,559.1 472.2,541.1 489.3,541.1 						"/>
						<polygon fill="#070707" points="514.4,559.1 496.6,559.1 492.8,541.1 509.9,541.1 						"/>
						<polygon fill="#070707" points="535.7,559.1 517.9,559.1 513.4,541.1 530.5,541.1 						"/>
						<polygon fill="#070707" points="557,559.1 539.2,559.1 534,541.1 551.1,541.1 						"/>
						<polygon fill="#070707" points="578.3,559.1 560.5,559.1 554.6,541.1 571.7,541.1 						"/>
						<polygon fill="#070707" points="599.6,559.1 581.8,559.1 575.2,541.1 592.3,541.1 						"/>
						<polygon fill="#070707" points="620.9,559.1 603.1,559.1 595.8,541.1 613,541.1 						"/>
						<polygon fill="#070707" points="642.2,559.1 624.4,559.1 616.4,541.1 633.6,541.1 						"/>
						<polygon fill="#070707" points="663.5,559.1 645.7,559.1 637,541.1 654.2,541.1 						"/>
						<polygon fill="#070707" points="122.9,629.9 102.9,629.9 110.9,611.9 130.4,611.9 						"/>
						<polygon fill="#070707" points="147,629.9 126.9,629.9 134.3,611.9 153.7,611.9 						"/>
						<polygon fill="#070707" points="171,629.9 151,629.9 157.6,611.9 177.1,611.9 						"/>
						<polygon fill="#070707" points="195.1,629.9 175,629.9 181,611.9 200.4,611.9 						"/>
						<polygon fill="#070707" points="219.1,629.9 199.1,629.9 204.3,611.9 223.8,611.9 						"/>
						<polygon fill="#070707" points="243.2,629.9 223.1,629.9 227.7,611.9 247.1,611.9 						"/>
						<polygon fill="#070707" points="554.8,629.9 248.2,629.9 252,611.9 549.7,611.9 						"/>
						<polygon fill="#070707" points="579.9,629.9 559.8,629.9 554.6,611.9 574,611.9 						"/>
						<polygon fill="#070707" points="603.9,629.9 583.9,629.9 577.9,611.9 597.4,611.9 						"/>
						<polygon fill="#070707" points="628,629.9 607.9,629.9 601.3,611.9 620.7,611.9 						"/>
						<polygon fill="#070707" points="652,629.9 632,629.9 624.6,611.9 644.1,611.9 						"/>
						<polygon fill="#070707" points="676.1,629.9 656,629.9 648,611.9 667.4,611.9 						"/>
						<polygon fill="#070707" points="700.1,629.9 680.1,629.9 671.3,611.9 690.8,611.9 						"/>
						<polygon fill="#070707" points="187.2,581.9 168.7,581.9 175.3,563.8 193.2,563.8 						"/>
						<polygon fill="#070707" points="209.3,581.9 190.9,581.9 196.8,563.8 214.7,563.8 						"/>
						<polygon fill="#070707" points="231.5,581.9 213,581.9 218.3,563.8 236.2,563.8 						"/>
						<polygon fill="#070707" points="253.7,581.9 235.2,581.9 239.8,563.8 257.7,563.8 						"/>
						<polygon fill="#070707" points="275.9,581.9 257.4,581.9 261.3,563.8 279.2,563.8 						"/>
						<polygon fill="#070707" points="298.1,581.9 279.6,581.9 282.7,563.8 300.7,563.8 						"/>
						<polygon fill="#070707" points="320.3,581.9 301.8,581.9 304.2,563.8 322.1,563.8 						"/>
						<polygon fill="#070707" points="342.5,581.9 324,581.9 325.7,563.8 343.6,563.8 						"/>
						<polygon fill="#070707" points="364.6,581.9 346.2,581.9 347.2,563.8 365.1,563.8 						"/>
						<polygon fill="#070707" points="386.8,581.9 368.3,581.9 368.7,563.8 386.6,563.8 						"/>
						<polygon fill="#070707" points="409,581.9 390.5,581.9 390.2,563.8 408.1,563.8 						"/>
						<polygon fill="#070707" points="431.2,581.9 412.7,581.9 411.7,563.8 429.6,563.8 						"/>
						<polygon fill="#070707" points="453.4,581.9 434.9,581.9 433.2,563.8 451.1,563.8 						"/>
						<polygon fill="#070707" points="475.6,581.9 457.1,581.9 454.6,563.8 472.5,563.8 						"/>
						<polygon fill="#070707" points="497.8,581.9 479.3,581.9 476.1,563.8 494,563.8 						"/>
						<polygon fill="#070707" points="519.9,581.9 501.5,581.9 497.6,563.8 515.5,563.8 						"/>
						<polygon fill="#070707" points="542.1,581.9 523.6,581.9 519.1,563.8 537,563.8 						"/>
						<polygon fill="#070707" points="564.3,581.9 545.8,581.9 540.6,563.8 558.5,563.8 						"/>
						<polygon fill="#070707" points="586.5,581.9 568,581.9 562.1,563.8 580,563.8 						"/>
						<polygon fill="#070707" points="608.7,581.9 590.2,581.9 583.6,563.8 601.5,563.8 						"/>
						<polygon fill="#070707" points="630.9,581.9 612.4,581.9 605,563.8 623,563.8 						"/>
						<polygon fill="#070707" points="653.1,581.9 634.6,581.9 626.5,563.8 644.4,563.8 						"/>
						<polygon fill="#070707" points="687.5,605.5 668.2,605.5 648,563.8 665.9,563.8 						"/>
						<polygon fill="#070707" points="178.8,606.8 159.5,606.8 166.1,588.7 184.9,588.7 						"/>
						<polygon fill="#070707" points="201.9,606.8 182.7,606.8 188.6,588.7 207.3,588.7 						"/>
						<polygon fill="#070707" points="225.1,606.8 205.8,606.8 211,588.7 229.8,588.7 						"/>
						<polygon fill="#070707" points="248.2,606.8 229,606.8 233.5,588.7 252.2,588.7 						"/>
						<polygon fill="#070707" points="271.4,606.8 252.1,606.8 256,588.7 274.7,588.7 						"/>
						<polygon fill="#070707" points="294.6,606.8 275.3,606.8 278.4,588.7 297.1,588.7 						"/>
						<polygon fill="#070707" points="317.7,606.8 298.4,606.8 300.9,588.7 319.6,588.7 						"/>
						<polygon fill="#070707" points="340.9,606.8 321.6,606.8 323.3,588.7 342,588.7 						"/>
						<polygon fill="#070707" points="364,606.8 344.7,606.8 345.8,588.7 364.5,588.7 						"/>
						<polygon fill="#070707" points="387.2,606.8 367.9,606.8 368.2,588.7 386.9,588.7 						"/>
						<polygon fill="#070707" points="410.3,606.8 391,606.8 390.7,588.7 409.4,588.7 						"/>
						<polygon fill="#070707" points="433.5,606.8 414.2,606.8 413.1,588.7 431.8,588.7 						"/>
						<polygon fill="#070707" points="456.6,606.8 437.3,606.8 435.6,588.7 454.3,588.7 						"/>
						<polygon fill="#070707" points="479.8,606.8 460.5,606.8 458,588.7 476.7,588.7 						"/>
						<polygon fill="#070707" points="502.9,606.8 483.6,606.8 480.5,588.7 499.2,588.7 						"/>
						<polygon fill="#070707" points="526.1,606.8 506.8,606.8 502.9,588.7 521.6,588.7 						"/>
						<polygon fill="#070707" points="549.2,606.8 529.9,606.8 525.4,588.7 544.1,588.7 						"/>
						<polygon fill="#070707" points="572.4,606.8 553.1,606.8 547.8,588.7 566.5,588.7 						"/>
						<polygon fill="#070707" points="595.5,606.8 576.2,606.8 570.3,588.7 589,588.7 						"/>
						<polygon fill="#070707" points="618.7,606.8 599.4,606.8 592.7,588.7 611.4,588.7 						"/>
						<polygon fill="#070707" points="641.8,606.8 622.5,606.8 615.2,588.7 633.9,588.7 						"/>
						<polygon fill="#070707" points="665,606.8 645.7,606.8 637.6,588.7 656.3,588.7 						"/>
					</g>
					<g>
						<g>
							<polygon fill="#727171" points="152.2,557.8 134.4,557.8 142.5,539.8 159.7,539.8 							"/>
							<polygon fill="#727171" points="165.9,580.5 124.3,580.5 132.3,562.5 172.6,562.5 							"/>
							<polygon fill="#727171" points="157.6,605.4 114.2,605.4 122.2,587.4 164.3,587.4 							"/>
							<polygon fill="#727171" points="173.5,557.8 155.7,557.8 163.1,539.8 180.3,539.8 							"/>
							<polygon fill="#727171" points="194.8,557.8 177.1,557.8 183.7,539.8 200.9,539.8 							"/>
							<polygon fill="#727171" points="216.1,557.8 198.4,557.8 204.3,539.8 221.5,539.8 							"/>
							<polygon fill="#727171" points="237.4,557.8 219.7,557.8 224.9,539.8 242.1,539.8 							"/>
							<polygon fill="#727171" points="258.7,557.8 241,557.8 245.5,539.8 262.7,539.8 							"/>
							<polygon fill="#727171" points="280,557.8 262.3,557.8 266.1,539.8 283.3,539.8 							"/>
							<polygon fill="#727171" points="301.3,557.8 283.6,557.8 286.7,539.8 303.9,539.8 							"/>
							<polygon fill="#727171" points="322.6,557.8 304.9,557.8 307.3,539.8 324.5,539.8 							"/>
							<polygon fill="#727171" points="343.9,557.8 326.2,557.8 327.9,539.8 345.1,539.8 							"/>
							<polygon fill="#727171" points="365.2,557.8 347.5,557.8 348.5,539.8 365.7,539.8 							"/>
							<polygon fill="#727171" points="386.5,557.8 368.8,557.8 369.1,539.8 386.3,539.8 							"/>
							<polygon fill="#727171" points="407.8,557.8 390.1,557.8 389.7,539.8 406.9,539.8 							"/>
							<polygon fill="#727171" points="429.1,557.8 411.4,557.8 410.3,539.8 427.5,539.8 							"/>
							<polygon fill="#727171" points="450.4,557.8 432.7,557.8 430.9,539.8 448.1,539.8 							"/>
							<polygon fill="#727171" points="471.8,557.8 454,557.8 451.5,539.8 468.7,539.8 							"/>
							<polygon fill="#727171" points="493.1,557.8 475.3,557.8 472.2,539.8 489.3,539.8 							"/>
							<polygon fill="#727171" points="514.4,557.8 496.6,557.8 492.8,539.8 509.9,539.8 							"/>
							<polygon fill="#727171" points="535.7,557.8 517.9,557.8 513.4,539.8 530.5,539.8 							"/>
							<polygon fill="#727171" points="557,557.8 539.2,557.8 534,539.8 551.1,539.8 							"/>
							<polygon fill="#727171" points="578.3,557.8 560.5,557.8 554.6,539.8 571.7,539.8 							"/>
							<polygon fill="#727171" points="599.6,557.8 581.8,557.8 575.2,539.8 592.3,539.8 							"/>
							<polygon fill="#727171" points="620.9,557.8 603.1,557.8 595.8,539.8 613,539.8 							"/>
							<polygon fill="#727171" points="642.2,557.8 624.4,557.8 616.4,539.8 633.6,539.8 							"/>
							<polygon fill="#727171" points="663.5,557.8 645.7,557.8 637,539.8 654.2,539.8 							"/>
							<polygon fill="#727171" points="122.9,628.6 102.9,628.6 110.9,610.6 130.4,610.6 							"/>
							<polygon fill="#727171" points="147,628.6 126.9,628.6 134.3,610.6 153.7,610.6 							"/>
							<polygon fill="#727171" points="171,628.6 151,628.6 157.6,610.6 177.1,610.6 							"/>
							<polygon fill="#727171" points="195.1,628.6 175,628.6 181,610.6 200.4,610.6 							"/>
							<polygon fill="#727171" points="219.1,628.6 199.1,628.6 204.3,610.6 223.8,610.6 							"/>
							<polygon fill="#727171" points="243.2,628.6 223.1,628.6 227.7,610.6 247.1,610.6 							"/>
							<polygon fill="#727171" points="554.8,628.6 248.2,628.6 252,610.6 549.7,610.6 							"/>
							<polygon fill="#727171" points="579.9,628.6 559.8,628.6 554.6,610.6 574,610.6 							"/>
							<polygon fill="#727171" points="603.9,628.6 583.9,628.6 577.9,610.6 597.4,610.6 							"/>
							<polygon fill="#727171" points="628,628.6 607.9,628.6 601.3,610.6 620.7,610.6 							"/>
							<polygon fill="#727171" points="652,628.6 632,628.6 624.6,610.6 644.1,610.6 							"/>
							<polygon fill="#727171" points="676.1,628.6 656,628.6 648,610.6 667.4,610.6 							"/>
							<polygon fill="#727171" points="700.1,628.6 680.1,628.6 671.3,610.6 690.8,610.6 							"/>
							<polygon fill="#727171" points="187.2,580.5 168.7,580.5 175.3,562.5 193.2,562.5 							"/>
							<polygon fill="#727171" points="209.3,580.5 190.9,580.5 196.8,562.5 214.7,562.5 							"/>
							<polygon fill="#727171" points="231.5,580.5 213,580.5 218.3,562.5 236.2,562.5 							"/>
							<polygon fill="#727171" points="253.7,580.5 235.2,580.5 239.8,562.5 257.7,562.5 							"/>
							<polygon fill="#727171" points="275.9,580.5 257.4,580.5 261.3,562.5 279.2,562.5 							"/>
							<polygon fill="#727171" points="298.1,580.5 279.6,580.5 282.7,562.5 300.7,562.5 							"/>
							<polygon fill="#727171" points="320.3,580.5 301.8,580.5 304.2,562.5 322.1,562.5 							"/>
							<polygon fill="#727171" points="342.5,580.5 324,580.5 325.7,562.5 343.6,562.5 							"/>
							<polygon fill="#727171" points="364.6,580.5 346.2,580.5 347.2,562.5 365.1,562.5 							"/>
							<polygon fill="#727171" points="386.8,580.5 368.3,580.5 368.7,562.5 386.6,562.5 							"/>
							<polygon fill="#727171" points="409,580.5 390.5,580.5 390.2,562.5 408.1,562.5 							"/>
							<polygon fill="#727171" points="431.2,580.5 412.7,580.5 411.7,562.5 429.6,562.5 							"/>
							<polygon fill="#727171" points="453.4,580.5 434.9,580.5 433.2,562.5 451.1,562.5 							"/>
							<polygon fill="#727171" points="475.6,580.5 457.1,580.5 454.6,562.5 472.5,562.5 							"/>
							<polygon fill="#727171" points="497.8,580.5 479.3,580.5 476.1,562.5 494,562.5 							"/>
							<polygon fill="#727171" points="519.9,580.5 501.5,580.5 497.6,562.5 515.5,562.5 							"/>
							<polygon fill="#727171" points="542.1,580.5 523.6,580.5 519.1,562.5 537,562.5 							"/>
							<polygon fill="#727171" points="564.3,580.5 545.8,580.5 540.6,562.5 558.5,562.5 							"/>
							<polygon fill="#727171" points="586.5,580.5 568,580.5 562.1,562.5 580,562.5 							"/>
							<polygon fill="#727171" points="608.7,580.5 590.2,580.5 583.6,562.5 601.5,562.5 							"/>
							<polygon fill="#727171" points="630.9,580.5 612.4,580.5 605,562.5 623,562.5 							"/>
							<polygon fill="#727171" points="653.1,580.5 634.6,580.5 626.5,562.5 644.4,562.5 							"/>
							<polygon fill="#727171" points="687.5,604.1 668.2,604.1 648,562.5 665.9,562.5 							"/>
							<polygon fill="#727171" points="178.8,605.4 159.5,605.4 166.1,587.4 184.9,587.4 							"/>
							<polygon fill="#727171" points="201.9,605.4 182.7,605.4 188.6,587.4 207.3,587.4 							"/>
							<polygon fill="#727171" points="225.1,605.4 205.8,605.4 211,587.4 229.8,587.4 							"/>
							<polygon fill="#727171" points="248.2,605.4 229,605.4 233.5,587.4 252.2,587.4 							"/>
							<polygon fill="#727171" points="271.4,605.4 252.1,605.4 256,587.4 274.7,587.4 							"/>
							<polygon fill="#727171" points="294.6,605.4 275.3,605.4 278.4,587.4 297.1,587.4 							"/>
							<polygon fill="#727171" points="317.7,605.4 298.4,605.4 300.9,587.4 319.6,587.4 							"/>
							<polygon fill="#727171" points="340.9,605.4 321.6,605.4 323.3,587.4 342,587.4 							"/>
							<polygon fill="#727171" points="364,605.4 344.7,605.4 345.8,587.4 364.5,587.4 							"/>
							<polygon fill="#727171" points="387.2,605.4 367.9,605.4 368.2,587.4 386.9,587.4 							"/>
							<polygon fill="#727171" points="410.3,605.4 391,605.4 390.7,587.4 409.4,587.4 							"/>
							<polygon fill="#727171" points="433.5,605.4 414.2,605.4 413.1,587.4 431.8,587.4 							"/>
							<polygon fill="#727171" points="456.6,605.4 437.3,605.4 435.6,587.4 454.3,587.4 							"/>
							<polygon fill="#727171" points="479.8,605.4 460.5,605.4 458,587.4 476.7,587.4 							"/>
							<polygon fill="#727171" points="502.9,605.4 483.6,605.4 480.5,587.4 499.2,587.4 							"/>
							<polygon fill="#727171" points="526.1,605.4 506.8,605.4 502.9,587.4 521.6,587.4 							"/>
							<polygon fill="#727171" points="549.2,605.4 529.9,605.4 525.4,587.4 544.1,587.4 							"/>
							<polygon fill="#727171" points="572.4,605.4 553.1,605.4 547.8,587.4 566.5,587.4 							"/>
							<polygon fill="#727171" points="595.5,605.4 576.2,605.4 570.3,587.4 589,587.4 							"/>
							<polygon fill="#727171" points="618.7,605.4 599.4,605.4 592.7,587.4 611.4,587.4 							"/>
							<polygon fill="#727171" points="641.8,605.4 622.5,605.4 615.2,587.4 633.9,587.4 							"/>
							<polygon fill="#727171" points="665,605.4 645.7,605.4 637.6,587.4 656.3,587.4 							"/>
						</g>
					</g>
				</g>
			</g>
			<g>
				<g>
					<g>
						<g>
							<g>
								<polygon fill-rule="evenodd" clip-rule="evenodd" fill="#F7D581" points="454.1,443.1 450.5,441.9 448.2,445 447.5,441.2 
									443.7,440.8 446.6,438.3 445,434.8 448.6,436 450.9,432.9 451.7,436.7 455.5,437.1 452.6,439.6 								"/>
								<polygon fill-rule="evenodd" clip-rule="evenodd" fill="#F7D581" points="412.9,453 407.9,451.3 404.7,455.6 403.7,450.4 
									398.4,449.8 402.4,446.3 400.2,441.4 405.3,443.1 408.4,438.8 409.5,444.1 414.8,444.6 410.8,448.2 								"/>
								<polygon fill-rule="evenodd" clip-rule="evenodd" fill="#F7D581" points="425.6,409.1 423.1,408.3 421.5,410.4 421,407.8 
									418.4,407.5 420.4,405.8 419.3,403.4 421.8,404.2 423.3,402.1 423.9,404.7 426.5,405 424.5,406.7 								"/>
							</g>
							<g>
								<polygon fill-rule="evenodd" clip-rule="evenodd" fill="#F7D581" points="515.7,268.1 514.8,271.9 518,273.9 514.3,274.9 
									514.2,278.7 511.5,276.1 508.1,277.9 509.1,274.1 505.8,272.1 509.5,271.1 509.6,267.3 512.4,269.9 								"/>
								<polygon fill-rule="evenodd" clip-rule="evenodd" fill="#F7D581" points="528.7,308.5 527.4,313.7 531.9,316.5 526.8,317.9 
									526.6,323.2 522.8,319.5 518.1,322 519.4,316.9 514.9,314 520.1,312.6 520.2,307.3 524,311 								"/>
								<polygon fill-rule="evenodd" clip-rule="evenodd" fill="#F7D581" points="484,299.2 483.3,301.8 485.6,303.1 483,303.9 
									482.9,306.5 481,304.6 478.7,305.9 479.4,303.3 477.1,301.9 479.7,301.2 479.8,298.6 481.7,300.4 								"/>
							</g>
							<g>
								<polygon fill-rule="evenodd" clip-rule="evenodd" fill="#F7D581" points="332.8,305.1 329.7,302.9 326.6,305.2 327,301.3 
									323.5,299.8 327,298.3 326.6,294.5 329.7,296.7 332.8,294.4 332.4,298.2 335.9,299.8 332.4,301.3 								"/>
								<polygon fill-rule="evenodd" clip-rule="evenodd" fill="#F7D581" points="290.5,302.4 286.2,299.3 281.9,302.4 282.5,297.1 
									277.6,295 282.4,292.9 281.8,287.6 286.1,290.7 290.4,287.5 289.9,292.8 294.8,294.9 289.9,297.1 								"/>
								<polygon fill-rule="evenodd" clip-rule="evenodd" fill="#F7D581" points="315.6,264.2 313.4,262.6 311.3,264.2 311.6,261.6 
									309.2,260.5 311.6,259.5 311.3,256.8 313.4,258.4 315.5,256.8 315.3,259.4 317.7,260.5 315.3,261.6 								"/>
							</g>
						</g>
						<g>
							<g>
								<path fill="#F47E14" d="M407.3,258.8c0,0-0.2-1.9-0.4-4.8c-0.2-2.9-0.4-6.7-0.7-10.6c-0.1-1.9-0.3-3.8-0.4-5.6
									c0-1.8,0.2-3.5,0.4-4.9c0.4-2.9,1-4.8,1-4.8h0.3c0,0,0.7,1.9,1,4.8c0.2,1.4,0.3,3.1,0.4,4.9c0,1.8-0.3,3.7-0.4,5.6
									c-0.2,3.8-0.4,7.7-0.7,10.6c-0.2,2.9-0.4,4.8-0.4,4.8H407.3z"/>
								<path fill="#F47E14" d="M453.1,277.6c0,0,1.1-1.3,2.8-3.1c1.7-1.9,4.1-4.3,6.4-6.8c1.2-1.2,2.3-2.5,3.4-3.6
									c1.2-1.1,2.4-2,3.4-2.7c2.1-1.4,3.8-2.1,3.8-2.1l0.2,0.2c0,0-0.8,1.6-2.4,3.6c-0.8,1-1.8,2.1-2.9,3.2c-1.2,1-2.6,2-3.9,3.1
									c-2.6,2.1-5.2,4.3-7.3,5.8c-2,1.6-3.4,2.6-3.4,2.6L453.1,277.6z"/>
								<path fill="#F47E14" d="M365.9,277.8c0,0-1.4-1-3.4-2.6c-2-1.5-4.6-3.7-7.3-5.8c-1.3-1.1-2.7-2-3.9-3.1
									c-1.2-1.1-2.1-2.2-2.9-3.2c-1.6-2-2.4-3.6-2.4-3.6l0.2-0.2c0,0,1.7,0.7,3.8,2.1c1.1,0.7,2.3,1.6,3.4,2.7
									c1.1,1.1,2.2,2.4,3.4,3.6c2.3,2.4,4.7,4.9,6.4,6.8c1.7,1.9,2.8,3.1,2.8,3.1L365.9,277.8z"/>
								<path fill="#E2E2E2" d="M381.8,260.5c0,0-2.4-4.1-4.5-8.4c-0.5-1.1-1.2-2.1-1.6-3.1c-0.4-1-0.7-2-0.8-2.9
									c-0.3-1.8-0.1-3.1-0.1-3.1l0.3-0.1c0,0,1.1,0.8,2.1,2.4c0.5,0.7,1,1.6,1.5,2.7c0.4,1,0.6,2.2,1,3.3c1.4,4.5,2.6,9.1,2.6,9.1
									L381.8,260.5z"/>
								<path fill="#E2E2E2" d="M435.4,260.4c0,0,1.1-4.6,2.6-9.1c0.3-1.1,0.6-2.3,1-3.3c0.4-1,0.9-1.9,1.5-2.7
									c1-1.5,2.1-2.4,2.1-2.4l0.3,0.1c0,0,0.2,1.3-0.1,3.1c-0.1,0.9-0.4,1.9-0.8,2.9c-0.4,1-1.1,2-1.6,3.1
									c-2.1,4.2-4.5,8.4-4.5,8.4L435.4,260.4z"/>
							</g>
							<g>
								<path fill="#F47E14" d="M296.4,387.6c0,0-1.8,0.8-4.4,1.9c-2.7,1.1-6.2,2.5-9.8,4c-1.8,0.7-3.5,1.5-5.2,2.1
									c-1.7,0.6-3.3,1-4.8,1.2c-2.8,0.6-4.9,0.6-4.9,0.6l-0.1-0.3c0,0,1.6-1.2,4.2-2.5c1.3-0.6,2.8-1.3,4.5-1.9
									c1.7-0.5,3.6-0.9,5.5-1.5c3.7-1,7.4-2.1,10.2-2.7c2.8-0.7,4.7-1.2,4.7-1.2L296.4,387.6z"/>
								<path fill="#F47E14" d="M299.7,338.1c0,0-1.6-0.7-3.9-1.7c-2.3-1-5.4-2.5-8.4-3.9c-1.5-0.7-3.1-1.3-4.5-2.1
									c-1.4-0.8-2.6-1.6-3.6-2.4c-2-1.5-3.2-2.9-3.2-2.9l0.1-0.3c0,0,1.8,0.2,4.2,1.1c1.2,0.4,2.6,1,4,1.8
									c1.4,0.8,2.7,1.8,4.2,2.7c2.8,1.8,5.7,3.6,7.8,5c2.1,1.4,3.5,2.4,3.5,2.4L299.7,338.1z"/>
								<path fill="#F47E14" d="M327.6,420.7c0,0-0.5,1.6-1.4,4c-0.8,2.4-2,5.6-3.2,8.7c-0.6,1.6-1.1,3.2-1.7,4.7
									c-0.6,1.4-1.4,2.7-2.1,3.8c-1.4,2.2-2.7,3.4-2.7,3.4l-0.3-0.1c0,0,0.1-1.8,0.8-4.3c0.3-1.2,0.8-2.6,1.4-4.1
									c0.7-1.4,1.6-2.9,2.3-4.4c1.6-3,3.1-6,4.4-8.2c1.2-2.2,2.1-3.7,2.1-3.7L327.6,420.7z"/>
								<path fill="#E2E2E2" d="M306.2,411.1c0,0-3.2,3.6-6.5,6.9c-0.8,0.8-1.6,1.8-2.4,2.5c-0.8,0.7-1.7,1.3-2.5,1.7
									c-1.6,0.9-2.9,1.1-2.9,1.1l-0.2-0.2c0,0,0.5-1.3,1.6-2.7c0.5-0.7,1.2-1.5,2.1-2.2c0.9-0.7,1.9-1.3,2.9-2
									c3.8-2.8,7.8-5.3,7.8-5.3L306.2,411.1z"/>
								<path fill="#E2E2E2" d="M289,360.3c0,0-4.7,0.4-9.5,0.5c-1.2,0-2.4,0.2-3.5,0.2c-1.1-0.1-2.1-0.3-3-0.5
									c-1.7-0.5-2.9-1.2-2.9-1.2l0-0.3c0,0,1.2-0.6,3-0.9c0.9-0.1,1.9-0.2,3-0.2c1.1,0.1,2.3,0.4,3.4,0.6c4.7,0.6,9.4,1.6,9.4,1.6
									L289,360.3z"/>
							</g>
							<g>
								<path fill="#F47E14" d="M523.3,385.8c0,0,1.6,0.2,4,0.6c2.4,0.3,5.6,0.9,8.8,1.4c1.6,0.3,3.2,0.4,4.7,0.7
									c1.5,0.3,2.8,0.8,4,1.2c2.3,0.8,3.8,1.7,3.8,1.7l-0.1,0.2c0,0-1.7,0.2-4.1,0c-1.2-0.1-2.6-0.3-4.1-0.6
									c-1.5-0.4-3-0.9-4.6-1.3c-3.1-0.9-6.2-1.7-8.6-2.4c-2.3-0.7-3.9-1.2-3.9-1.2L523.3,385.8z"/>
								<path fill="#F47E14" d="M499.5,420.1c0,0,0.8,1.2,2.1,2.9c1.2,1.7,2.8,4.1,4.4,6.5c0.8,1.2,1.7,2.3,2.4,3.4
									c0.7,1.1,1.2,2.3,1.6,3.3c0.8,2,1,3.5,1,3.5l-0.2,0.1c0,0-1.2-0.9-2.5-2.6c-0.7-0.8-1.4-1.8-2.1-3c-0.6-1.2-1.2-2.5-1.8-3.7
									c-1.3-2.5-2.6-5.1-3.5-7c-0.9-1.9-1.5-3.2-1.5-3.2L499.5,420.1z"/>
								<path fill="#F47E14" d="M515,348.5c0,0,1.1-0.9,2.7-2.3c1.6-1.4,3.9-3.1,6.1-4.9c1.1-0.9,2.2-1.9,3.2-2.6
									c1.1-0.8,2.2-1.4,3.1-1.8c1.9-1,3.4-1.3,3.4-1.3l0.1,0.2c0,0-0.8,1.3-2.4,2.7c-0.8,0.7-1.7,1.6-2.8,2.3
									c-1.1,0.7-2.4,1.4-3.6,2.1c-2.4,1.5-4.8,3-6.7,4c-1.8,1.1-3.1,1.8-3.1,1.8L515,348.5z"/>
								<path fill="#E2E2E2" d="M526.4,364.6c0,0,1-0.3,2.4-0.7c1.4-0.4,3.4-0.9,5.3-1.4c1-0.2,1.9-0.6,2.8-0.8
									c0.9-0.1,1.8-0.2,2.6-0.1c1.5,0.1,2.6,0.4,2.6,0.4l0,0.2c0,0-0.9,0.7-2.3,1.3c-0.7,0.3-1.5,0.6-2.5,0.7
									c-0.9,0.1-1.9,0.1-2.9,0.2c-2,0.1-4,0.3-5.5,0.4c-1.5,0.1-2.5,0.1-2.5,0.1L526.4,364.6z"/>
								<path fill="#E2E2E2" d="M516.8,408.7c0,0,0.9,0.4,2.2,1.1c1.3,0.7,3.1,1.7,4.8,2.6c0.9,0.5,1.8,0.9,2.6,1.4
									c0.8,0.5,1.4,1.1,1.9,1.7c1.1,1.1,1.6,2.1,1.6,2.1l-0.1,0.2c0,0-1.1-0.1-2.5-0.7c-0.7-0.3-1.5-0.7-2.3-1.2
									c-0.8-0.5-1.5-1.3-2.2-1.9c-1.5-1.3-3.1-2.5-4.2-3.5c-1.1-1-1.9-1.7-1.9-1.7L516.8,408.7z"/>
							</g>
						</g>
					</g>
					<g>
						<g>
							<g>
								<g opacity="0.15">
									<path fill="#4C210C" d="M453.1,302.9l-9.3-9.8c-1.2-1.3-3.2-1.3-4.5-0.1l-4.1,3.9c-2.6-1.6-5.3-2.8-8.1-3.7l0.3-5.6
										c0.1-1.8-1.3-3.2-3-3.3l-13.5-0.6c-1.8-0.1-3.2,1.3-3.3,3l-0.2,5.3c-3.4,0.7-6.8,1.8-10,3.4l-3.4-3.6
										c-1.2-1.3-3.2-1.3-4.5-0.1l-9.8,9.3c-1.3,1.2-1.3,3.2-0.1,4.5l2.8,3c-1.9,2.9-3.5,5.9-4.6,9.1l-3.7-0.2
										c-1.8-0.1-3.2,1.3-3.3,3l-0.6,13.5c-0.1,1.8,1.3,3.2,3,3.3l2.8,0.1c0.7,4.1,2,8.1,4,11.9l-1.8,1.7
										c-1.3,1.2-1.3,3.2-0.1,4.5l9.3,9.8c1.2,1.3,3.2,1.3,4.5,0.1l1.5-1.4c3.3,2.1,6.8,3.7,10.5,4.8l-0.1,2.1
										c-0.1,1.7,1.3,3.2,3,3.3l13.5,0.6c1.7,0.1,3.2-1.3,3.3-3l0.1-2.4c4-0.9,8-2.5,11.6-4.7l1.9,2c1.2,1.3,3.2,1.3,4.5,0.1
										l9.8-9.3c1.3-1.2,1.3-3.2,0.1-4.5l-2.5-2.6c1.7-3,3-6.2,3.8-9.5l4.1,0.2c1.7,0.1,3.2-1.3,3.3-3l0.6-13.5
										c0.1-1.7-1.3-3.2-3-3.3l-4.9-0.2c-0.9-3.4-2.2-6.7-4-9.8l3.8-3.6C454.3,306.2,454.3,304.2,453.1,302.9z M427.1,319.3
										c6.3,6.7,6,17.2-0.6,23.5c-6.7,6.3-17.2,6.1-23.5-0.6c-6.3-6.7-6.1-17.2,0.6-23.5C410.2,312.4,420.7,312.6,427.1,319.3z"/>
									<path fill="#4C210C" d="M398,346.9l-8-10.9c-1-1.4-3-1.7-4.4-0.7l-4.5,3.3c-2.4-1.9-4.9-3.4-7.6-4.7l1-5.5
										c0.3-1.7-0.9-3.4-2.6-3.7l-13.3-2.3c-1.7-0.3-3.4,0.9-3.7,2.6l-0.9,5.2c-3.5,0.2-7,0.9-10.4,2.1l-2.9-4
										c-1-1.4-3-1.7-4.4-0.7l-10.9,8c-1.4,1-1.7,3-0.7,4.4l2.4,3.3c-2.3,2.6-4.2,5.4-5.7,8.4l-3.6-0.6c-1.7-0.3-3.4,0.9-3.7,2.6
										l-2.3,13.3c-0.3,1.7,0.9,3.4,2.6,3.7l2.8,0.5c0.2,4.1,1,8.3,2.5,12.3l-2,1.4c-1.4,1-1.7,3-0.7,4.4l8,10.9
										c1,1.4,3,1.7,4.4,0.7l1.7-1.2c3,2.5,6.3,4.6,9.8,6.1l-0.4,2c-0.3,1.7,0.9,3.4,2.6,3.7l13.3,2.3c1.7,0.3,3.4-0.9,3.7-2.6
										l0.4-2.4c4.1-0.4,8.2-1.5,12.1-3.2l1.6,2.2c1,1.4,3,1.7,4.4,0.7l10.9-8c1.4-1,1.7-3,0.7-4.4l-2.1-2.9
										c2.1-2.8,3.7-5.8,5-8.9l4,0.7c1.7,0.3,3.4-0.9,3.7-2.6l2.3-13.3c0.3-1.7-0.9-3.4-2.6-3.7l-4.8-0.8
										c-0.4-3.5-1.4-6.9-2.7-10.3l4.2-3.1C398.7,350.3,399,348.3,398,346.9z M373.8,357.1c6.9,9.4,4.9,22.7-4.6,29.7
										c-9.5,6.9-22.7,4.9-29.7-4.6c-6.9-9.5-4.9-22.7,4.6-29.7C353.6,345.6,366.8,347.7,373.8,357.1z"/>
									<path fill="#4C210C" d="M516.5,381l-2.3-6.8c-0.3-0.9-1.2-1.3-2.1-1l-2.8,1c-0.9-1.3-1.9-2.5-3.1-3.5l1.4-2.6
										c0.4-0.8,0.1-1.8-0.7-2.3l-6.3-3.3c-0.8-0.4-1.9-0.1-2.3,0.7l-1.3,2.5c-1.8-0.5-3.7-0.6-5.6-0.6l-0.8-2.5
										c-0.3-0.9-1.3-1.3-2.1-1.1l-6.8,2.3c-0.9,0.3-1.3,1.2-1,2.1l0.7,2.1c-1.6,0.9-3,2.1-4.2,3.3l-1.7-0.9
										c-0.8-0.4-1.8-0.1-2.3,0.7l-3.3,6.3c-0.4,0.8-0.1,1.8,0.7,2.3l1.3,0.7c-0.6,2.1-0.8,4.3-0.7,6.6l-1.2,0.4
										c-0.9,0.3-1.4,1.2-1.1,2.1l2.3,6.8c0.3,0.9,1.2,1.4,2.1,1l1-0.4c1.1,1.7,2.4,3.3,4,4.6l-0.5,1c-0.4,0.8-0.1,1.9,0.7,2.3
										l6.3,3.3c0.8,0.4,1.8,0.1,2.3-0.7l0.6-1.1c2.1,0.5,4.4,0.6,6.6,0.3l0.5,1.4c0.3,0.9,1.2,1.3,2.1,1l6.8-2.3
										c0.9-0.3,1.3-1.2,1-2.1l-0.6-1.8c1.5-1.1,2.8-2.3,3.9-3.7l1.9,1c0.8,0.4,1.8,0.1,2.3-0.7l3.3-6.3c0.4-0.8,0.1-1.9-0.7-2.3
										l-2.3-1.2c0.3-1.8,0.4-3.7,0.2-5.6l2.6-0.9C516.4,382.8,516.8,381.9,516.5,381z M502.7,382.3c2,5.8-1.2,12.2-7,14.2
										c-5.9,2-12.2-1.1-14.2-7c-2-5.9,1.1-12.2,7-14.2C494.4,373.3,500.7,376.5,502.7,382.3z"/>
								</g>
								<g>
									<g>
										<path fill="#ADC9C9" d="M451.5,298l-9.3-9.8c-1.2-1.3-3.2-1.3-4.5-0.1l-4.1,3.9c-2.6-1.6-5.3-2.8-8.1-3.7l0.3-5.6
											c0.1-1.8-1.3-3.2-3-3.3l-13.5-0.6c-1.8-0.1-3.2,1.3-3.3,3l-0.2,5.3c-3.4,0.7-6.8,1.8-10,3.4l-3.4-3.6
											c-1.2-1.3-3.2-1.3-4.5-0.1l-9.8,9.3c-1.3,1.2-1.3,3.2-0.1,4.5l2.8,3c-1.9,2.9-3.5,5.9-4.6,9.1l-3.7-0.2
											c-1.8-0.1-3.2,1.3-3.3,3l-0.6,13.5c-0.1,1.8,1.3,3.2,3,3.3l2.8,0.1c0.7,4.1,2,8.1,4,11.9l-1.8,1.7
											c-1.3,1.2-1.3,3.2-0.1,4.5l9.3,9.8c1.2,1.3,3.2,1.3,4.5,0.1l1.5-1.4c3.3,2.1,6.8,3.7,10.5,4.8l-0.1,2.1
											c-0.1,1.7,1.3,3.2,3,3.3l13.5,0.6c1.7,0.1,3.2-1.3,3.3-3l0.1-2.4c4-0.9,8-2.5,11.6-4.7l1.9,2c1.2,1.3,3.2,1.3,4.5,0.1
											l9.8-9.3c1.3-1.2,1.3-3.2,0.1-4.5l-2.5-2.6c1.7-3,3-6.2,3.8-9.5l4.1,0.2c1.7,0.1,3.2-1.3,3.3-3l0.6-13.5
											c0.1-1.7-1.3-3.2-3-3.3l-4.9-0.2c-0.9-3.4-2.2-6.7-4-9.8l3.8-3.6C452.7,301.3,452.7,299.3,451.5,298z M425.4,314.4
											c6.3,6.7,6,17.2-0.6,23.5c-6.7,6.3-17.2,6.1-23.5-0.6c-6.3-6.7-6.1-17.2,0.6-23.5C408.6,307.4,419.1,307.7,425.4,314.4z"
											/>
										<path fill="#DFEFEF" d="M396.4,342l-8-10.9c-1-1.4-3-1.7-4.4-0.7l-4.5,3.3c-2.4-1.9-4.9-3.4-7.6-4.7l1-5.5
											c0.3-1.7-0.9-3.4-2.6-3.7l-13.3-2.3c-1.7-0.3-3.4,0.9-3.7,2.6l-0.9,5.2c-3.5,0.2-7,0.9-10.4,2.1l-2.9-4
											c-1-1.4-3-1.7-4.4-0.7l-10.9,8c-1.4,1-1.7,3-0.7,4.4l2.4,3.3c-2.3,2.6-4.2,5.4-5.7,8.4l-3.6-0.6c-1.7-0.3-3.4,0.9-3.7,2.6
											l-2.3,13.3c-0.3,1.7,0.9,3.4,2.6,3.7l2.8,0.5c0.2,4.1,1,8.3,2.5,12.3l-2,1.4c-1.4,1-1.7,3-0.7,4.4l8,10.9
											c1,1.4,3,1.7,4.4,0.7l1.7-1.2c3,2.5,6.3,4.6,9.8,6.1l-0.4,2c-0.3,1.7,0.9,3.4,2.6,3.7l13.3,2.3c1.7,0.3,3.4-0.9,3.7-2.6
											l0.4-2.4c4.1-0.4,8.2-1.5,12.1-3.2l1.6,2.2c1,1.4,3,1.7,4.4,0.7l10.9-8c1.4-1,1.7-3,0.7-4.4l-2.1-2.9
											c2.1-2.8,3.7-5.8,5-8.9l4,0.7c1.7,0.3,3.4-0.9,3.7-2.6l2.3-13.3c0.3-1.7-0.9-3.4-2.6-3.7l-4.8-0.8
											c-0.4-3.5-1.4-6.9-2.7-10.3l4.2-3.1C397.1,345.4,397.4,343.4,396.4,342z M372.1,352.2c6.9,9.4,4.9,22.7-4.6,29.7
											c-9.5,6.9-22.7,4.9-29.7-4.6c-6.9-9.5-4.9-22.7,4.6-29.7C351.9,340.7,365.2,342.8,372.1,352.2z"/>
										<path fill="#DFEFEF" d="M514.9,376.1l-2.3-6.8c-0.3-0.9-1.2-1.3-2.1-1l-2.8,1c-0.9-1.3-1.9-2.5-3.1-3.5l1.4-2.6
											c0.4-0.8,0.1-1.8-0.7-2.3l-6.3-3.3c-0.8-0.4-1.9-0.1-2.3,0.7l-1.3,2.5c-1.8-0.5-3.7-0.6-5.6-0.6l-0.8-2.5
											c-0.3-0.9-1.3-1.3-2.1-1.1l-6.8,2.3c-0.9,0.3-1.3,1.2-1,2.1l0.7,2.1c-1.6,0.9-3,2.1-4.2,3.3l-1.7-0.9
											c-0.8-0.4-1.8-0.1-2.3,0.7l-3.3,6.3c-0.4,0.8-0.1,1.8,0.7,2.3l1.3,0.7c-0.6,2.1-0.8,4.3-0.7,6.6l-1.2,0.4
											c-0.9,0.3-1.4,1.2-1.1,2.1l2.3,6.8c0.3,0.9,1.2,1.4,2.1,1l1-0.4c1.1,1.7,2.4,3.3,4,4.6l-0.5,1c-0.4,0.8-0.1,1.9,0.7,2.3
											l6.3,3.3c0.8,0.4,1.8,0.1,2.3-0.7l0.6-1.1c2.1,0.5,4.4,0.6,6.6,0.3l0.5,1.4c0.3,0.9,1.2,1.3,2.1,1l6.8-2.3
											c0.9-0.3,1.3-1.2,1-2.1l-0.6-1.8c1.5-1.1,2.8-2.3,3.9-3.7l1.9,1c0.8,0.4,1.8,0.1,2.3-0.7l3.3-6.3c0.4-0.8,0.1-1.9-0.7-2.3
											l-2.3-1.2c0.3-1.8,0.4-3.7,0.2-5.6l2.6-0.9C514.7,377.9,515.2,377,514.9,376.1z M501.1,377.4c2,5.8-1.2,12.2-7,14.2
											c-5.9,2-12.2-1.1-14.2-7c-2-5.9,1.1-12.2,7-14.2C492.7,368.4,499.1,371.5,501.1,377.4z"/>
									</g>
								</g>
							</g>
							<g>
								<circle fill="#DFEFEF" cx="413" cy="326.9" r="15.8"/>
								<circle fill-rule="evenodd" clip-rule="evenodd" fill="#47B2BA" cx="413" cy="326.1" r="8.7"/>
							</g>
						</g>
						<g>
							<g>
								<path fill="#4B8A8C" d="M355.5,387c-7.6,0-14.3-3.3-18.3-9.1c-3.5-5.1-4.8-11.1-3.6-17c1.2-6,5-11.4,10.6-15.3l52.1-31.5
									c6.1-4.3,12.3-6.6,17.8-6.6c5.7,0,10.4,2.5,13.7,7.3c3.5,5,4.3,10.6,2.4,16.2c-1.8,5.1-5.8,10-11.6,14.1l-47.1,36.7
									C366.6,385.2,361.1,387,355.5,387z M414.1,310.7c-4.8,0-10.3,2.1-16,6L346,348.3c-4.8,3.3-8.1,8.1-9.1,13.2
									c-1,5,0,10.2,3,14.5c3.4,4.9,9.1,7.7,15.6,7.7c4.9,0,9.7-1.6,14-4.5l47.2-36.7c5.3-3.7,8.9-8,10.5-12.5
									c1.6-4.6,0.9-9.1-2-13.3C422.5,312.7,418.8,310.7,414.1,310.7z"/>
							</g>
							<g>
								<path fill="#4B8A8C" d="M491.2,394.2c-4.3,0-9.1-1.8-13.9-5.1L403,340.9c-9.6-7.7-9.5-18.9-4.4-26.2l0.2-0.3
									c2.8-4,8.3-6.5,14.4-6.5c4.4,0,8.5,1.3,12,3.7l68.3,53.3c9.2,6.5,12.5,15.5,8.5,23.4l-0.2,0.3l-0.7,0.9
									C498.7,392.6,495.3,394.2,491.2,394.2z M401.5,316.2l-0.2,0.3c-4.1,5.8-4.7,15.1,3.6,21.7l74.3,48.1c4.2,3,8.4,4.6,12,4.6
									c3.1,0,5.5-1.1,7.3-3.4l0.6-0.8c3.1-6.4,0.3-13.6-7.6-19.2l-68.3-53.3c-3.6-2.5-7.4-3.1-10-3.1
									C408.2,311.2,403.7,313.2,401.5,316.2z"/>
							</g>
						</g>
					</g>
				</g>
			</g>
		</g>
	</g>
</g>
</svg>
