<?xml version="1.0" encoding="utf-8"?>
<!-- Generator: Adobe Illustrator 19.1.0, SVG Export Plug-In . SVG Version: 6.00 Build 0)  -->
<svg version="1.1" id="Layer_1" xmlns="http://www.w3.org/2000/svg" xmlns:xlink="http://www.w3.org/1999/xlink" x="0px" y="0px"
	 viewBox="-29 354.4 536.4 133.5" enable-background="new -29 354.4 536.4 133.5" xml:space="preserve">
<g>
	<g>
		<path fill="#FF6666" d="M13.8,411.8v20.3c0,4.4-3,7.5-7.2,7.5s-7.2-3.1-7.2-7.5v-15.4c0-5.4-2.5-7.9-6.3-7.9
			c-3.7,0-6.5,2.4-6.6,7.5v15.9c0,4.4-3,7.5-7.2,7.5s-7.3-3.1-7.3-7.6v-44.3c0-4.3,3-7.4,7.2-7.4s7.2,3.1,7.2,7.4v13
			c2.8-3.7,7.1-5.8,11.9-5.8C7.1,395,13.8,401.3,13.8,411.8z"/>
		<path fill="#FF6666" d="M55.4,414.8v18.1c0,4-2.7,6.8-6.5,6.8c-2.7,0-4.9-1.4-5.9-3.7c-3.2,2.9-7.6,4.1-12,4.1
			c-9.9,0-15.8-5.3-15.8-13.1c0-7.8,6.4-13.6,16.3-13.6c3.6,0,6.8,0.8,9.4,2.2v-0.9c0-4.3-3.4-7.1-8-7.1c-2.3,0-4,0.5-6,1.3
			c-0.9,0.4-2.2,0.8-3.1,0.8c-3.3,0-5.6-2.3-5.6-5.7c0-2.3,1.4-4.3,3.4-5.5c1.4-0.8,5.6-3.4,14.3-3.4
			C47.8,395,55.4,402.4,55.4,414.8z M41.3,426.3c0-2.6-2.4-4.6-5.9-4.6s-5.8,2-5.8,4.6s2.3,4.6,5.8,4.6S41.3,428.9,41.3,426.3z"/>
		<path fill="#FF6666" d="M103.2,417.3c0,12.7-9.3,22.8-20.4,22.8c-4.3,0-7.9-1.5-10.6-4.1v9.5c0,4.4-3,7.5-7.2,7.5
			s-7.2-3.1-7.2-7.5v-43.2c0-4.1,2.7-6.9,6.7-6.9c3.5,0,6,2.3,6.6,5.5c3.3-4,7.5-5.9,12.3-5.9C94.1,395,103.2,404.6,103.2,417.3z
			 M88.7,417.5c0-4.8-3.5-8.8-8.4-8.8s-8.4,3.9-8.4,8.8c0,4.8,3.5,8.8,8.4,8.8S88.7,422.4,88.7,417.5z"/>
		<path fill="#FF6666" d="M150.5,417.3c0,12.7-9.3,22.8-20.4,22.8c-4.3,0-7.9-1.5-10.6-4.1v9.5c0,4.4-3,7.5-7.2,7.5
			s-7.2-3.1-7.2-7.5v-43.2c0-4.1,2.7-6.9,6.7-6.9c3.5,0,6,2.3,6.6,5.5c3.3-4,7.5-5.9,12.3-5.9C141.4,395,150.5,404.6,150.5,417.3z
			 M136,417.5c0-4.8-3.5-8.8-8.4-8.8s-8.4,3.9-8.4,8.8c0,4.8,3.5,8.8,8.4,8.8S136,422.4,136,417.5z"/>
		<path fill="#FF6666" d="M154.3,439.5c1.6,0,3.1,0.6,4.4,0.6c2.9,0,3.7-1.7,3.7-1.7L150,407.1c-0.6-1.4-1-3-1-4.1
			c0-4.5,3.1-7.6,7.5-7.6c3.6,0,5.9,2.4,7.1,6.2l6.4,19.9l6.6-20.5c1.2-3.6,3.6-5.6,6.8-5.6c4.1,0,7.1,3,7.1,7.1
			c0,1-0.2,2.4-0.8,3.7l-13.4,33.5c-3.7,9.2-8.5,13.8-17.3,13.8c-2.5,0-5-0.8-6.6-1.5c-2.3-1.1-4.2-3.2-4.2-6.2
			C148.3,441.9,150.8,439.5,154.3,439.5z"/>
	</g>
	<path fill="#FF6666" d="M233.2,383.4v53.3c0,1.7-1.1,2.9-2.7,2.9c-1.7,0-2.8-1.3-2.8-2.9v-6.5c-3.5,6.1-9.6,9.9-16.7,9.9
		c-11.3,0-20.4-9.5-20.4-22c0-12.4,9.3-22.3,20.7-22.3c6.8,0,12.6,3.5,16,9v-21.4c0-1.8,1.2-3.1,3.1-3.1
		C232,380.3,233.2,381.6,233.2,383.4z M227.6,417.9c0-9.3-6.8-16.3-15.5-16.3c-8.8,0-15.5,7-15.5,16.3c0,9.3,6.7,16.4,15.5,16.4
		C220.8,434.3,227.6,427.2,227.6,417.9z"/>
	<path fill="#FF6666" d="M273.7,399.4v37.3c0,1.7-1.1,2.9-2.8,2.9c-1.6,0-2.7-1.3-2.7-2.9l-0.2-6c-3.1,6.3-8.8,9.4-15.3,9.4
		c-8.7,0-16-6.3-16-19.4v-21.3c0-1.9,1.2-3.2,3.1-3.2c1.8,0,3,1.3,3,3.2v19.2c0,11.1,5.6,15.6,11.7,15.6c7.1,0,13.2-4.6,13.2-16.9
		v-17.9c0-1.9,1.2-3.2,3-3.2C272.5,396.2,273.7,397.5,273.7,399.4z"/>
	<path fill="#FF6666" d="M298.9,395.8c7.3,0,11.7,3.4,13.7,5.2c1,0.8,1.5,1.8,1.5,2.7c0,1.7-1.1,2.9-2.8,2.9c-0.6,0-1.4-0.3-2-0.9
		c-1.6-1.4-5.1-4-10.5-4c-8.8,0-15.6,7-15.6,16.3c0,9.3,6.8,16.4,15.6,16.4c6,0,9.5-3.2,10.9-4.6c0.6-0.5,1.2-0.8,2-0.8
		c1.5,0,2.7,1.3,2.7,2.8c0,1-0.6,1.9-1.4,2.6c-1.9,1.9-6.7,5.8-14.4,5.8c-12.2,0-21.5-9.5-21.5-22
		C277.2,405.7,286.7,395.8,298.9,395.8z"/>
	<path fill="#FF6666" d="M317.2,383.4c0-1.8,1.2-3.1,3.1-3.1c1.8,0,3,1.3,3,3.1v32.3l22-18.4c0.6-0.7,1.4-1.2,2.3-1.2
		c1.6,0,2.7,1.2,2.7,2.8c0,0.9-0.4,1.8-1,2.3l-19,14.9l20.5,18.3c0.6,0.7,1,1.5,1,2.3c0,1.7-1.2,2.9-2.9,2.9c-1,0-1.9-0.5-2.6-1.3
		l-23.1-21.2v19.4c0,1.9-1.2,3.2-3,3.2c-1.9,0-3.1-1.3-3.1-3.2v-53.1H317.2z"/>
	<path fill="#FF6666" d="M195.6,450.1c1.8,0,2.9,0.8,3.2,1.1c0.2,0.1,0.3,0.3,0.3,0.5c0,0.3-0.2,0.5-0.5,0.5c-0.1,0-0.3-0.1-0.4-0.2
		c-0.2-0.2-1.1-1-2.6-1c-2.3,0-4,1.8-4,4.2s1.7,4.2,4,4.2c1.5,0,2.3-0.7,2.7-1.1c0.1-0.1,0.2-0.2,0.4-0.2c0.3,0,0.5,0.2,0.5,0.5
		c0,0.2-0.1,0.3-0.2,0.4c-0.4,0.4-1.4,1.3-3.4,1.3c-2.9,0-5.1-2.3-5.1-5.2S192.7,450.1,195.6,450.1z"/>
	<path fill="#FF6666" d="M213.9,450.1c2.9,0,5.1,2.3,5.1,5.2s-2.2,5.2-5.1,5.2s-5.1-2.3-5.1-5.2S211,450.1,213.9,450.1z
		 M213.8,459.5c2.3,0,4-1.8,4-4.2s-1.7-4.2-4-4.2s-4,1.8-4,4.2C209.9,457.7,211.6,459.5,213.8,459.5z"/>
	<path fill="#FF6666" d="M228.5,450.9c0-0.5,0.3-0.8,0.7-0.8c0.3,0,0.5,0.1,0.6,0.4l5.8,8.1v-7.9c0-0.3,0.2-0.5,0.5-0.5
		s0.5,0.2,0.5,0.5v9c0,0.4-0.3,0.7-0.6,0.7c-0.3,0-0.5-0.2-0.6-0.4l-5.9-8.1v8c0,0.3-0.2,0.5-0.5,0.5s-0.5-0.2-0.5-0.5V450.9z"/>
	<path fill="#FF6666" d="M246.8,458.4c0.2,0,0.3,0.1,0.4,0.2c0.3,0.3,1.2,0.9,2.6,0.9c1.2,0,2-0.8,2-1.7c0-1-0.6-1.7-2.6-2.4
		c-1.5-0.5-2.6-1.4-2.6-2.7c0-1.5,1.2-2.6,3.1-2.6c1.5,0,2.3,0.6,2.7,0.9c0.2,0.1,0.3,0.3,0.3,0.5c0,0.3-0.2,0.5-0.5,0.5
		c-0.1,0-0.3-0.1-0.4-0.2c-0.3-0.2-1-0.8-2.1-0.8c-1.4,0-2,0.8-2,1.6c0,0.9,0.6,1.5,2.2,2c1.8,0.6,3,1.5,3,3.1s-1.2,2.8-3.3,2.8
		c-1.8,0-2.8-0.8-3.2-1.2c-0.1-0.1-0.2-0.3-0.2-0.4C246.3,458.6,246.5,458.4,246.8,458.4z"/>
	<path fill="#FF6666" d="M270.4,450.7v5.5c0,2.5-1.7,4.2-4,4.2s-3.9-1.7-3.9-4.2v-5.6c0-0.3,0.2-0.6,0.6-0.6c0.3,0,0.5,0.2,0.5,0.6
		v5.6c0,1.9,1.2,3.2,2.8,3.2c1.6,0,2.8-1.3,2.8-3.2v-5.6c0-0.3,0.2-0.5,0.5-0.5C270.2,450.2,270.4,450.4,270.4,450.7z"/>
	<path fill="#FF6666" d="M280,450.7c0-0.3,0.2-0.5,0.5-0.5s0.5,0.2,0.5,0.5v8.6h5c0.3,0,0.5,0.2,0.5,0.5c0,0.3-0.2,0.5-0.5,0.5h-5.6
		c-0.3,0-0.5-0.2-0.5-0.6v-9H280z"/>
	<path fill="#FF6666" d="M302.7,450.7c0,0.3-0.2,0.5-0.5,0.5h-2.8v8.6c0,0.3-0.2,0.6-0.5,0.6s-0.5-0.2-0.5-0.6v-8.6h-2.8
		c-0.3,0-0.5-0.2-0.5-0.5c0-0.3,0.2-0.5,0.5-0.5h6.8C302.5,450.3,302.7,450.5,302.7,450.7z"/>
	<path fill="#FF6666" d="M314.6,450.8v9.1c0,0.3-0.2,0.6-0.6,0.6c-0.3,0-0.6-0.2-0.6-0.6v-9.1c0-0.3,0.2-0.6,0.6-0.6
		C314.3,450.2,314.6,450.4,314.6,450.8z"/>
	<path fill="#FF6666" d="M324.1,450.9c0-0.5,0.3-0.8,0.7-0.8c0.3,0,0.5,0.1,0.6,0.4l5.8,8.1v-7.9c0-0.3,0.2-0.5,0.5-0.5
		s0.5,0.2,0.5,0.5v9c0,0.4-0.3,0.7-0.6,0.7c-0.3,0-0.5-0.2-0.6-0.4l-5.9-8.1v8c0,0.3-0.2,0.5-0.5,0.5s-0.5-0.2-0.5-0.5V450.9z"/>
	<path fill="#FF6666" d="M342,455.3c0-2.9,2.2-5.2,5.1-5.2c1.7,0,2.8,0.8,3.2,1.1c0.1,0.1,0.3,0.3,0.3,0.5c0,0.3-0.2,0.5-0.5,0.5
		c-0.1,0-0.3,0-0.3-0.1c-0.3-0.3-1.2-1-2.6-1c-2.3,0-4,1.8-4,4.2s1.7,4.2,4,4.2c1.9,0,3.4-1.3,3.7-3.3h-3.3c-0.3,0-0.4-0.2-0.4-0.4
		c0-0.2,0.2-0.4,0.4-0.4h4c0.3,0,0.5,0.2,0.5,0.5c0,2.5-2.2,4.7-4.8,4.7C344.2,460.5,342,458.3,342,455.3z"/>
</g>
<g>
	<g>
		<g>
			<path fill="#F0ECEA" d="M367.5,474.3c0,0-0.3,0.2-0.9,0.6c-0.3,0.2-0.6,0.5-0.9,0.8c-0.3,0.3-0.7,0.7-0.9,1.1
				c-0.3,0.4-0.3,0.8-0.2,1.1c0.1,0.3,0.6,0.7,1.1,1c0.5,0.3,1.2,0.6,1.8,0.9c0.7,0.3,1.4,0.5,2.1,0.7c2.9,0.9,5.9,1.7,8.1,2.3
				c1.1,0.3,2.1,0.6,2.7,0.9c0.7,0.2,1,0.4,1,0.4s-1.6,0.2-4,0c-0.6,0-1.2-0.1-1.9-0.1c-0.7-0.1-1.4-0.1-2.1-0.3
				c-0.7-0.1-1.5-0.3-2.2-0.4c-0.8-0.2-1.5-0.4-2.3-0.6c-0.8-0.2-1.5-0.5-2.3-0.9c-0.7-0.4-1.5-0.7-2.1-1.2s-1.3-1.2-1.6-2.2
				c-0.1-0.5-0.1-1,0.1-1.4c0.2-0.4,0.4-0.7,0.7-1c0.5-0.5,1-0.8,1.5-1c0.5-0.2,0.9-0.4,1.2-0.5
				C367.1,474.4,367.5,474.3,367.5,474.3z"/>
		</g>
		<g>
			<path fill="#DFD9D6" d="M459.4,484.2c-2.2,0.3-4.5,0.6-6.7,0.8c-2.3,0.2-4.5,0.4-6.8,0.6l-6.8,0.5c-2.3,0.1-4.5,0.2-6.8,0.4v-2.2
				l3.3-0.1v2.4l-9.4-0.1c-3.1-0.1-6.3-0.2-9.5-0.3s-6.3-0.3-9.4-0.6c-3.1-0.3-6.3-0.5-9.4-0.9s-6.3-0.8-9.4-1.4
				c-1.6-0.3-3.1-0.6-4.7-1c-1.5-0.4-3.1-0.7-4.6-1.2c-1.5-0.4-3-0.9-4.5-1.4c-0.4-0.1-0.7-0.3-1.1-0.4c-0.4-0.2-0.8-0.3-1.1-0.5
				c-0.7-0.4-1.5-0.8-2.1-1.6c-0.3-0.4-0.3-1.2,0-1.6s0.6-0.7,1-0.9c0.7-0.4,1.5-0.7,2.2-1c1.5-0.5,3.1-0.8,4.6-1.1
				c-1.5,0.4-3,1-4.4,1.6c-0.7,0.3-1.4,0.7-2,1.1c-0.3,0.2-0.5,0.5-0.6,0.7c-0.1,0.3-0.1,0.4,0.1,0.6c0.3,0.4,1,0.8,1.7,1
				c0.3,0.1,0.7,0.2,1,0.4l1.1,0.3c1.5,0.4,3,0.8,4.6,1.1c3,0.6,6.1,1.2,9.2,1.6c1.5,0.2,3.1,0.4,4.6,0.6c1.5,0.2,3.1,0.3,4.7,0.5
				c3.1,0.3,6.2,0.6,9.3,0.8l4.7,0.3l4.7,0.3c3.1,0.2,6.3,0.3,9.4,0.4l9.4,0.4v2.4l-3.3-0.1v-2.2H446L459.4,484.2z"/>
		</g>
		<g>
			<path fill="#DFD9D6" d="M493.2,472c0,0,0.5,0.1,1.5,0.3c0.5,0.1,1,0.3,1.6,0.6c0.6,0.3,1.3,0.6,2,1.2c0.3,0.3,0.7,0.7,1,1.2
				s0.3,1.4,0,2c-0.6,1.2-1.6,1.8-2.5,2.3c-1,0.5-2,0.9-3,1.3c-1,0.3-2.1,0.6-3.1,0.9c-1.1,0.3-2.1,0.5-3.1,0.7
				c-1,0.2-2.1,0.4-3.1,0.6c-1,0.2-2,0.3-2.9,0.4s-1.8,0.2-2.6,0.3c-3.2,0.3-5.4,0.2-5.4,0.2s2.1-0.6,5.2-1.4
				c1.6-0.4,3.4-0.8,5.3-1.3c1-0.2,2-0.5,3-0.8c1-0.2,2-0.5,3.1-0.8c1-0.3,2.1-0.5,3-0.8c1-0.3,1.9-0.6,2.8-1
				c0.8-0.4,1.6-0.9,1.9-1.3c0.1-0.2,0.2-0.4,0.1-0.6c-0.1-0.3-0.2-0.6-0.5-0.8c-0.5-0.5-1-1-1.5-1.3c-0.5-0.4-1-0.7-1.4-0.9
				C493.7,472.3,493.2,472,493.2,472z"/>
		</g>
		<g>
			<path fill="#F0ECEA" d="M501.4,473.7c0,0,0.4,0.1,1,0.4c0.3,0.1,0.7,0.3,1.1,0.6c0.4,0.2,0.9,0.6,1.4,1c0.4,0.4,0.9,1.1,0.9,2
				s-0.6,1.6-1.1,2.2c-0.6,0.6-1.3,1-2,1.5c-0.7,0.4-1.4,0.8-2.2,1.1c-0.7,0.3-1.5,0.6-2.2,0.9s-1.5,0.6-2.2,0.8
				c-0.7,0.2-1.4,0.4-2.1,0.5c-0.7,0.1-1.3,0.2-1.9,0.3c-2.4,0.3-4,0.1-4,0.1v-0.2c0,0,0.4-0.2,1-0.5c0.3-0.1,0.7-0.3,1.2-0.5
				c0.5-0.2,1-0.4,1.5-0.6c0.6-0.2,1.2-0.4,1.8-0.6c0.6-0.2,1.3-0.4,2-0.6c0.7-0.2,1.4-0.4,2.2-0.5c0.7-0.2,1.5-0.4,2.2-0.7
				c0.7-0.2,1.4-0.5,2.1-0.8c0.7-0.3,1.3-0.7,1.8-1.1c0.5-0.4,0.9-0.9,1-1.4s-0.2-1-0.5-1.5c-0.7-0.9-1.6-1.4-2.1-1.7
				c-0.6-0.3-0.9-0.5-0.9-0.5V473.7z"/>
		</g>
	</g>
	<g>
		<path fill="#FFDD30" d="M495.7,412.3c-4.1-2.6-12.2,2.1-19.1,7.9c0.3,0.1,0.5,0.2,0.8,0.3c0.5,0.2,0.9,0.4,1.4,0.6
			c0.5,0.2,0.9,0.4,1.4,0.7c0.2,0.1,0.5,0.2,0.7,0.4c0.2,0.1,0.4,0.3,0.7,0.4c0.4,0.2,0.9,0.5,1.3,0.8c0.4,0.2,0.8,0.5,1.2,0.8
			c0.2,0.1,0.4,0.2,0.5,0.4c0.2,0.1,0.3,0.2,0.5,0.4c0.3,0.2,0.6,0.4,0.8,0.6c0.2,0.2,0.4,0.4,0.6,0.5c0.3,0.3,0.5,0.5,0.5,0.5
			s-0.2-0.2-0.6-0.4c-0.2-0.1-0.4-0.3-0.6-0.5c-0.3-0.2-0.6-0.4-0.9-0.6c-0.2-0.1-0.3-0.2-0.5-0.3s-0.4-0.2-0.6-0.3
			c-0.4-0.2-0.8-0.5-1.2-0.7c-0.4-0.2-0.9-0.4-1.3-0.6c-0.2-0.1-0.5-0.2-0.7-0.3s-0.5-0.2-0.7-0.3c-0.5-0.2-0.9-0.4-1.4-0.5
			c-0.5-0.2-0.9-0.3-1.4-0.5c-0.5-0.1-0.9-0.3-1.3-0.4h-0.1c-7.4-1.6-15.7-2.3-23.7-2.6c-6.5,6.5-15.9,10.5-26.5,10.5
			c-7.2,0-13.7-1.8-19-5c-0.1,0-0.2-0.1-0.4-0.2c-0.1-0.1-0.3-0.1-0.5-0.2c-0.2-0.1-0.4-0.2-0.7-0.3c-0.2-0.1-0.5-0.2-0.8-0.4
			c-0.3-0.1-0.6-0.3-0.8-0.4c-0.6-0.3-1.2-0.6-1.8-1c-0.5-0.3-0.9-0.6-1.4-0.9c-0.1,0.9-0.7,1.9-2.3,2.5c-3,1-5.8,2.1-8.1,3.5
			c-12.7,6.3-16.1,12.4-14.7,25.7c1.1,10.6,3.4,17.7,8.7,22.4c9.7,3.1,46.3,12.4,103.2-0.2c8.5-4.9,12.6-11.5,14.7-17.8l0,0
			C508.1,439.9,500,415.3,495.7,412.3z"/>
		<path fill="#FFDD30" d="M443.6,363c-0.4-2.8-1-4.9-1.8-5.8c-3.2-3.5-12.2-1.1-20.4,2.6c-18.2,3-26.3,19.6-28.4,37.4
			c-2,17.9,12.7,31.7,32.4,31.6c19.1,0,34.4-13.1,35.7-30C462.3,383.4,455.2,369.4,443.6,363z"/>
		<path fill="#E9B008" d="M443.6,363c11.6,6.4,13.5,21.8,12.5,33.5c-1.4,16.9-16.6,30-35.7,30c-5,0-9.7-0.9-13.9-2.5
			c5.3,3.2,11.8,5,18.9,5c19.1,0,34.4-13.1,35.7-30C462.3,383.4,455.2,369.4,443.6,363"/>
		<path fill="#E9B008" d="M420.6,368.4c0,0,0.1-0.2,0.4-0.5c0.3-0.3,0.8-0.6,1.4-1c0.3-0.2,0.7-0.4,1.1-0.5c0.4-0.2,0.8-0.3,1.3-0.4
			c0.5-0.1,0.9-0.2,1.5-0.2c0.3,0,0.5,0,0.8,0s0.5,0,0.8,0.1c0.5,0.1,1,0.3,1.5,0.5c0.5,0.2,0.9,0.5,1.3,0.9
			c0.2,0.2,0.4,0.3,0.5,0.5c0.1,0.2,0.3,0.4,0.4,0.5c0.2,0.4,0.4,0.7,0.5,1.1c0.1,0.3,0.2,0.6,0.2,0.9c0,0.3,0.1,0.5,0.1,0.7
			c0,0.4,0,0.6,0,0.6s-0.2-0.2-0.4-0.5c-0.1-0.2-0.3-0.3-0.5-0.5c-0.2-0.2-0.4-0.4-0.6-0.6c-0.2-0.2-0.5-0.5-0.7-0.7
			c-0.1-0.1-0.1-0.1-0.2-0.2c-0.1,0-0.1-0.1-0.2-0.1s-0.1-0.1-0.2-0.1s-0.1-0.1-0.2-0.1c-0.1-0.1-0.3-0.2-0.5-0.3
			c-0.1,0-0.2-0.1-0.2-0.1c-0.1,0-0.2-0.1-0.2-0.1c-0.3-0.1-0.7-0.2-1-0.3c-0.4-0.1-0.7-0.1-1.1-0.1s-0.8,0-1.2,0
			c-0.4,0-0.8,0-1.1,0.1c-0.4,0-0.7,0.1-1,0.1C421.5,368.3,420.6,368.4,420.6,368.4z"/>
		<path fill="#FFE86D" d="M438.2,355.5c-1.4-0.2-10.5,2.2-16.8,5c-18.2,3.1-26.4,19.7-28.4,37.6c-0.1,1-0.2,1.9-0.2,2.8
			c0.1,8.4,4,15.6,10.2,20.6c-4.4-5.4-6.7-12.4-5.8-20.1c2.1-17.9,10.2-34.5,28.4-37.6c6.3-2.8,13-4.9,17.3-4.1
			C442.6,358.6,442.3,356,438.2,355.5z"/>
		<path fill="#FFE364" d="M438.2,355.5c-1.4-0.2-10.5,2.2-16.8,5c-18.2,3.1-26.4,19.7-28.4,37.6c-0.1,1-0.2,1.9-0.2,2.8
			c0.1,8.4,4,15.6,10.2,20.6c-4.4-5.4-6.7-12.4-5.8-20.1c2.1-17.9,10.2-34.5,28.4-37.6c6.3-2.8,13-4.9,17.3-4.1
			C442.6,358.6,442.3,356,438.2,355.5z"/>
		<g>
			<g>
				<path fill="#FFFFFF" d="M411.2,381.2c-2.3,4.6-6.6,7.2-9.6,5.9c-3-1.4-3.5-6.2-1.1-10.8s6.6-7.2,9.6-5.9
					C413,371.8,413.5,376.6,411.2,381.2z"/>
				<g>
					<path fill="#E9B008" d="M411.2,381.2c0,0-0.1,0.2-0.3,0.5c-0.2,0.3-0.4,0.8-0.8,1.3c-0.7,1.1-2,2.6-4,3.8c-1,0.6-2.3,1-3.7,0.8
						c-1.4-0.1-2.7-1.2-3.4-2.6c-0.3-0.7-0.5-1.5-0.6-2.2c-0.1-0.8,0-1.6,0-2.3c0.2-1.6,0.7-3.1,1.4-4.5c0.4-0.6,0.8-1.3,1.2-2
						c0.5-0.6,1-1.2,1.5-1.8c1.1-1.1,2.4-1.9,3.9-2.3c0.7-0.2,1.5-0.3,2.2-0.2s1.4,0.4,2,0.8c1.2,0.9,1.6,2.2,1.8,3.3
						c0.3,2.3-0.2,4.2-0.6,5.5c-0.2,0.6-0.4,1.1-0.6,1.4C411.3,381.1,411.2,381.2,411.2,381.2z M411.1,381.2c0,0,0.1-0.2,0.2-0.5
						c0.2-0.3,0.4-0.8,0.6-1.4c0.4-1.2,0.9-3.1,0.5-5.4c-0.2-1.1-0.7-2.3-1.8-3.1c-0.5-0.4-1.2-0.6-1.8-0.7c-0.7-0.1-1.4,0-2,0.2
						c-1.4,0.4-2.6,1.3-3.6,2.3c-1,1.1-1.9,2.3-2.6,3.6c-0.7,1.3-1.2,2.8-1.4,4.3c-0.2,1.5-0.1,3,0.4,4.3c0.5,1.3,1.7,2.3,3,2.5
						c1.3,0.2,2.5-0.2,3.5-0.7c2-1.1,3.2-2.6,4-3.7c0.4-0.5,0.6-1,0.8-1.3C411.1,381.4,411.1,381.2,411.1,381.2z"/>
				</g>
			</g>
			<path fill="#1C1D1C" d="M403,378.7c1-2,3.2-3,4.9-2.2c1.7,0.8,2.3,3,1.2,5s-3.2,3-4.9,2.2C402.6,383,402,380.7,403,378.7z"/>
			<path fill="#5B5959" d="M408,376.5c-0.5-0.3-1.1-0.3-1.7-0.2c0.4,0,0.7,0.1,1,0.3c1.7,0.8,2.3,3,1.2,5c-0.7,1.4-1.9,2.2-3.2,2.4
				c1.5,0.1,3.1-0.8,3.9-2.5C410.2,379.6,409.7,377.3,408,376.5z"/>
			<path fill="#FFFFFF" d="M407.8,377.6c0.2-0.5,0.8-0.7,1.2-0.5c0.4,0.2,0.5,0.7,0.3,1.2s-0.8,0.7-1.2,0.5
				C407.7,378.6,407.6,378.1,407.8,377.6z"/>
		</g>
		<g>
			<g>
				<path fill="#FFFFFF" d="M428.7,386c-2.9,5.6-8.9,8.4-13.3,6.3s-5.6-8.3-2.7-13.9c2.9-5.6,8.9-8.4,13.3-6.3
					C430.5,374.3,431.7,380.5,428.7,386z"/>
				<g>
					<path fill="#E9B008" d="M428.8,386.1c0,0-0.1,0.2-0.4,0.6c-0.2,0.4-0.6,1-1.1,1.7c-0.5,0.7-1.3,1.5-2.2,2.2
						c-0.9,0.8-2.1,1.5-3.6,2c-1.4,0.5-3.1,0.7-4.8,0.3c-0.8-0.2-1.7-0.6-2.4-1.1c-0.7-0.5-1.4-1.2-1.9-2c-1-1.6-1.4-3.6-1.3-5.5
						c0.1-2,0.7-3.9,1.6-5.7c1-1.7,2.2-3.4,3.8-4.6c1.5-1.2,3.4-2.1,5.2-2.3c0.9-0.1,1.9-0.1,2.8,0.1c0.9,0.2,1.7,0.6,2.4,1
						c1.4,1,2.4,2.4,2.9,3.8s0.6,2.8,0.6,4c-0.1,1.2-0.3,2.3-0.5,3.1c-0.3,0.8-0.5,1.5-0.7,1.9C428.9,385.8,428.8,386.1,428.8,386.1
						z M428.7,386c0,0,0.1-0.2,0.3-0.6c0.2-0.4,0.5-1.1,0.7-1.9c0.3-0.8,0.4-1.9,0.5-3.1c0-1.2-0.1-2.6-0.6-4
						c-0.5-1.4-1.5-2.7-2.9-3.6c-0.8-0.4-1.5-0.7-2.4-0.9c-0.8-0.1-1.7-0.2-2.6,0c-1.8,0.3-3.5,1.2-4.9,2.3c-0.7,0.6-1.4,1.3-2,2
						s-1.1,1.5-1.6,2.4c-0.9,1.6-1.5,3.5-1.6,5.4c-0.1,0.9,0,1.9,0.2,2.8c0.2,0.9,0.5,1.7,0.9,2.5c0.4,0.8,1,1.4,1.7,1.9
						s1.5,0.9,2.2,1.1c1.6,0.5,3.2,0.3,4.6-0.1s2.6-1.1,3.5-1.9c0.9-0.8,1.7-1.5,2.2-2.2s0.9-1.2,1.2-1.6
						C428.6,386.2,428.7,386,428.7,386z"/>
				</g>
			</g>
			<g>
				<path fill="#1C1D1C" d="M417.5,381.2c1.3-2.4,4.4-3.4,6.9-2.2c2.5,1.2,3.6,4.1,2.3,6.6c-1.3,2.4-4.4,3.4-6.9,2.2
					C417.3,386.5,416.3,383.6,417.5,381.2z"/>
			</g>
			<g>
				<path fill="#5B5959" d="M424.4,379c-1-0.5-2-0.6-3.1-0.5c0.7,0,1.3,0.2,2,0.5c2.5,1.2,3.6,4.1,2.3,6.6c-0.8,1.5-2.2,2.4-3.9,2.6
					c2,0.1,4-0.9,4.9-2.7C428,383.1,427,380.2,424.4,379z"/>
			</g>
			<path fill="#FFFFFF" d="M423.7,380.1c0.3-0.6,1.1-0.8,1.7-0.5c0.6,0.3,0.9,1,0.6,1.6s-1.1,0.8-1.7,0.5
				C423.6,381.4,423.3,380.7,423.7,380.1z"/>
		</g>
		<path fill="#FFDD30" d="M422.8,394.6c-0.8,2.7-7.2,3.3-14.2,1.4c-7.1-1.9-12.1-5.6-11.3-8.2c0.8-2.7,7.2-3.3,14.2-1.4
			C418.6,388.3,423.6,392,422.8,394.6z"/>
		<path fill="#FFE364" d="M397.3,387.8c-0.3,1.1,0.4,2.4,1.9,3.7c0.5-2.1,1.2-4.1,2-6C399,385.8,397.6,386.6,397.3,387.8z"/>
		<g>
			<path fill="#FFDD30" d="M502.2,450.5c-0.4,5.3-2,11.8-8.4,16.2c-5.8,4.6-15.2,6.4-23.1,7c-24.9,2-28.5-1-33.4-17.2
				c-1.5-4.9-0.3-12.4,5.8-17c5.6-4.9,16.7-7,24.9-7.5c8.2-1.1,19.6-1.3,26,2.5C500.8,438,502.6,445.2,502.2,450.5z"/>
		</g>
		<path fill="#E9B008" d="M502.3,448.6c0-0.1,0-0.1,0-0.2c0-0.3,0-0.6-0.1-0.9v-0.1l0,0c-0.1-0.7-0.2-1.4-0.3-2l0,0c0,0,0,0,0-0.1
			s0-0.2-0.1-0.3l0,0v-0.1c0-0.2-0.1-0.3-0.1-0.5c0-0.2-0.1-0.3-0.1-0.5c0-0.1-0.1-0.3-0.1-0.4c-0.1-0.3-0.2-0.6-0.3-0.9
			c0-0.1-0.1-0.2-0.1-0.4c-0.1-0.2-0.2-0.4-0.2-0.6c0-0.1-0.1-0.2-0.1-0.3c-0.2-0.3-0.3-0.7-0.5-1l0,0c-0.3-0.5-0.6-1-1-1.4l0,0
			c-1.2-1.7-2.9-3.2-5.1-4.2c-3.8-2.3-9.5-3.1-15.2-3.2c4.9,0.2,9.7,1.1,13.1,3.1c2.6,1.3,4.5,3.2,5.8,5.3c0,0,0,0-0.1,0
			c-5.8,4.6-15.2,6.4-23.1,7c-8.8,0.7-14.9,0.8-19.3-0.1c4.6,1.4,11.3,1.5,21.5,0.6c7.3-0.6,16-2.2,21.8-6.1
			c0.8,1.8,1.3,3.7,1.5,5.5c-0.6,0.6-1.3,1.1-2.1,1.7c-5.8,4.6-15.2,6.4-23.1,7c-8.8,0.7-14.9,0.8-19.3-0.1
			c4.6,1.4,11.3,1.5,21.5,0.6c7.8-0.6,17.2-2.4,23-7c-0.4,2.9-1.3,6.1-3.1,9c-5.8,3.9-14.4,5.4-21.7,6c-8.8,0.7-14.9,0.8-19.3-0.1
			c4.6,1.4,11.3,1.5,21.5,0.6c5.6-0.5,12-1.5,17.3-3.7c-0.8,0.8-1.7,1.6-2.8,2.4c-5.8,4.6-15.2,6.4-23.1,7
			c-17,1.4-24.1,0.4-28.4-5.5c3.6,7.6,8.8,9.8,22.5,9.3l0,0c0.5,0,1.1,0,1.7-0.1c0.1,0,0.2,0,0.3,0c0.5,0,1-0.1,1.5-0.1
			c0.2,0,0.3,0,0.5,0c0.5,0,1-0.1,1.5-0.1c0.2,0,0.3,0,0.5,0c0.7,0,1.3-0.1,2-0.2c7.9-0.6,17.3-2.4,23.1-7c3.8-2.6,5.9-6,7.1-9.4
			l0,0l0,0c0.1-0.3,0.2-0.5,0.2-0.8v-0.1c0.1-0.3,0.1-0.5,0.2-0.8l0,0c0.1-0.3,0.1-0.5,0.2-0.8c0,0,0,0,0-0.1
			c0.1-0.3,0.1-0.5,0.2-0.8l0,0l0,0c0.2-1.2,0.4-2.4,0.5-3.5c0-0.3,0-0.6,0-0.9c0-0.1,0-0.2,0-0.3
			C502.3,449.1,502.3,448.9,502.3,448.6z"/>
		<g>
			<path fill="#FFE364" d="M438,457.2c-1.5-4.9-0.3-12.4,5.8-17c5.6-4.9,16.7-7,24.9-7.5c3.4-0.5,7.4-0.8,11.4-0.7
				c2.9-0.1,5.8,0.1,8.5,0.4c-6.3-1.6-14.4-1.3-20.6-0.4c-8.2,0.5-19.3,2.6-24.9,7.5c-6.1,4.6-7.3,12-5.8,17c2,6.7,3.8,11.1,7,13.9
				C441.5,467.6,439.9,463.4,438,457.2z"/>
		</g>
		<path fill="#A05B49" d="M425.9,407c0,0-1.7,3.7-7.4,6.5c-8.7,4.2-23.7,7.1-33.8-1.5C384.7,412,421.8,407.5,425.9,407z"/>
		<path fill="#FF674C" d="M405.9,386.6c-3.3,0.7-8.9,2.3-11.9,1c-1.5-0.6-2.8-2.4-4.2-3.3c-2.2-1.3-4.7-2.2-7.3-1.3
			c-11.1,3.7-1.2,16.5,3.2,20.7c-2.9,0.8-5.4,3.3-3.3,6.2c1.2,1.7,3.5,2.8,5.4,3.5c6.1,2.2,13.3,1.1,19.4-0.3
			c5.4-1.2,10.5-3.3,15.7-5.1c1.7-0.6,3.1-1.1,3.1-1.1s1.6-4.3,1-5.4C421.8,396.5,412.7,389.1,405.9,386.6z"/>
		<path fill="#A05B49" d="M423.9,405.7c-4.2,1.5-9.2,1.6-13.4,0.1c-6.1-2.3-10.8-8.2-14.7-13.2c-1.9-2.5-4.2-6.2-7.1-7.6
			c-5-2.4-10.7,0.8-10.2,6.4c0.5,5.2,4.5,8.1,7.1,12.3c-2.3,1.3-2.3,3.4-0.8,5.4c1.7,2.2,4.5,2.9,7.2,3.1
			C402.8,413.1,413.9,409.3,423.9,405.7z"/>
		<path fill="#FF9176" d="M385.6,403.7c-2.3,1.3-2.3,3.4-0.8,5.4c1.7,2.2,4.5,2.9,7.2,3.1c10.8,1,22-2.8,32-6.4
			c-0.2,0.1-0.5,0.1-0.7,0.2c-9.6,3.5-20.3,6.9-30.6,6c-2.6-0.2-5.4-0.9-7.1-3.1C384,406.9,383.3,405,385.6,403.7"/>
		<g>
			<path fill="#B07261" d="M393.7,403.9c-3.5-0.7-5-0.7-6.6,0.2c-2.7,1.4-4.2,10.9,26.9,3.4C413.6,407.6,412.5,407.6,393.7,403.9z"
				/>
		</g>
		<path fill="#FF9176" d="M426.4,402.8c0.2-0.1,0.5-0.2,0.6-0.3c0-0.4,0-0.7-0.1-0.9c-3.1-3.1-7.7-7.1-12.4-10.3
			c-0.7-0.4-1.3-0.9-2-1.3c0,0,3.6,3.1,3.8,3.3c0.2,0.1,0.3,0.3,0.5,0.4s0.3,0.3,0.5,0.4s0.3,0.3,0.5,0.4c0.2,0.1,0.3,0.3,0.5,0.4
			s0.3,0.3,0.5,0.4s0.3,0.3,0.5,0.4s0.3,0.3,0.5,0.4c0.2,0.1,0.3,0.3,0.5,0.4c0.3,0.3,0.6,0.5,0.9,0.8c0.3,0.3,0.6,0.5,0.9,0.8
			c0.3,0.3,0.6,0.5,0.9,0.8s0.6,0.5,0.8,0.8c0.2,0.2,0.4,0.4,0.6,0.5c0.2,0.1,0.4,0.4,0.5,0.6c0.2,0.2,0.4,0.4,0.5,0.6
			c0.2,0.2,0.3,0.4,0.5,0.6h-0.1h-0.1h-0.1h-0.1c-0.2,0.1-0.3,0.1-0.5,0.2c-0.2,0-0.3,0.1-0.5,0.1s-0.3,0.1-0.5,0.1
			s-0.3,0.1-0.5,0.1s-0.3,0.1-0.5,0.1s-0.3,0.1-0.5,0.1s-0.3,0.1-0.5,0.1s-0.3,0-0.5,0.1c-0.1,0-0.2,0-0.3,0s-0.2,0-0.3,0
			c-0.1,0-0.2,0-0.3,0c-0.1,0-0.2,0-0.3,0h-0.1h-0.1H420h-0.1c-0.3,0-0.6,0-1,0c-0.3,0-0.6,0-1,0c-0.3,0-0.6,0-1-0.1
			c-0.3,0-0.6-0.1-1-0.1c-0.1,0-0.2,0-0.2,0c-0.1,0-0.2,0-0.2,0c-0.1,0-0.2,0-0.2,0c-0.1,0-0.2,0-0.2,0c-0.1,0-0.2,0-0.2,0
			c-0.1,0-0.2,0-0.2,0c-0.1,0-0.2,0-0.2,0c-0.1,0-0.2,0-0.2,0c-0.2,0-0.3-0.1-0.5-0.1s-0.3-0.1-0.5-0.1s-0.3-0.1-0.5-0.1
			s-0.3-0.1-0.5-0.1s-0.3-0.1-0.5-0.1c-0.2-0.1-0.3-0.1-0.5-0.2c-0.2-0.1-0.3-0.1-0.5-0.2s-0.3-0.1-0.5-0.2
			c-0.2-0.1-0.3-0.1-0.5-0.2s-0.3-0.1-0.5-0.2s-0.3-0.1-0.4-0.2c-0.1-0.1-0.3-0.1-0.4-0.2s-0.3-0.1-0.4-0.2s-0.3-0.1-0.4-0.2
			c-0.1-0.1-0.3-0.1-0.4-0.2s-0.3-0.2-0.4-0.2c-0.1-0.1-0.3-0.2-0.4-0.2c-0.1-0.1-0.3-0.2-0.4-0.2c-0.1-0.1-0.3-0.2-0.4-0.3
			c-0.1-0.1-0.3-0.2-0.4-0.3c-0.1-0.1-0.3-0.2-0.4-0.3s-0.3-0.2-0.4-0.3c-0.1-0.1-0.3-0.2-0.4-0.3s-0.3-0.2-0.4-0.3
			s-0.3-0.2-0.4-0.3c-0.1-0.1-0.3-0.2-0.4-0.3s-0.3-0.2-0.4-0.3c-0.1-0.1-0.3-0.2-0.4-0.3c-0.1-0.1-0.2-0.1-0.3-0.2
			c-0.1-0.1-0.2-0.1-0.3-0.2c-0.1-0.1-0.2-0.1-0.3-0.2c-0.1-0.1-0.2-0.1-0.3-0.2c0.7,0.6,1.3,1.1,2,1.7c0.7,0.6,1.4,1.1,2.2,1.7
			c0.8,0.6,1.5,1.1,2.3,1.6s1.6,1,2.5,1.5s1.8,0.9,2.7,1.2c0.9,0.3,1.8,0.6,2.7,0.7c0.9,0.2,1.8,0.3,2.6,0.3c0.8,0,1.7,0,2.5,0
			c0.9-0.1,1.8-0.2,2.7-0.3c0.8-0.2,1.6-0.3,2.2-0.5C425.4,403.1,425.9,402.9,426.4,402.8z"/>
		<path fill="#FF9176" d="M396.7,390.9c0.2,0.2,0.3,0.4,0.5,0.6c0.2,0.2,0.3,0.4,0.4,0.5c0.1,0.1,0.1,0.2,0.2,0.2
			c0.1,0.1,0.1,0.1,0.2,0.2c0.1,0.1,0.1,0.1,0.2,0.2c0,0.1,0.1,0.1,0.1,0.2l0.1,0.1l0.1,0.1c0,0,0,0,0,0.1l0,0l0,0c0,0,0,0,0-0.1
			v-0.1c0,0,0-0.1-0.1-0.1c0-0.1-0.1-0.1-0.1-0.2s-0.1-0.1-0.1-0.2c0-0.1-0.1-0.2-0.1-0.2c0-0.1-0.1-0.2-0.2-0.3
			c-0.1-0.1-0.1-0.2-0.2-0.3s-0.1-0.2-0.2-0.3s-0.1-0.2-0.2-0.3c-0.1-0.1-0.2-0.2-0.2-0.3c-0.1-0.1-0.2-0.2-0.3-0.3
			c-0.1-0.1-0.2-0.2-0.3-0.3c-0.1-0.1-0.2-0.2-0.3-0.3c-0.1-0.1-0.2-0.2-0.3-0.3c-0.1-0.1-0.2-0.2-0.3-0.3c-0.1-0.1-0.2-0.2-0.3-0.3
			s-0.2-0.2-0.3-0.3c-0.1-0.1-0.2-0.2-0.3-0.3c-0.1-0.1-0.2-0.2-0.3-0.3c-0.1-0.1-0.2-0.2-0.3-0.2c-0.1-0.1-0.2-0.1-0.3-0.2
			c-0.1,0-0.1-0.1-0.2-0.1c-0.2-0.1-0.5-0.3-0.7-0.5c-0.1-0.1-0.2-0.1-0.3-0.2c-0.1-0.1-0.2-0.1-0.3-0.1c-0.1,0-0.1,0-0.1,0
			s0,0,0.1,0.1c0.1,0,0.1,0.1,0.2,0.2c0.1,0.1,0.2,0.2,0.3,0.3c0.1,0.1,0.3,0.2,0.4,0.4c0.2,0.1,0.3,0.3,0.5,0.5
			c0.2,0.2,0.4,0.3,0.6,0.5c0.2,0.2,0.4,0.4,0.6,0.6c0.2,0.2,0.4,0.4,0.6,0.6c0.2,0.2,0.4,0.4,0.6,0.6
			C396.3,390.5,396.5,390.7,396.7,390.9z"/>
		<path fill="#E9B008" d="M405.1,367.4c0,0,0.1-0.2,0.2-0.5c0.2-0.3,0.5-0.7,0.9-1.1s1-0.8,1.7-1.2c0.2-0.1,0.4-0.2,0.6-0.2
			c0.2-0.1,0.4-0.1,0.6-0.2c0.4-0.1,0.9-0.1,1.3-0.1c0.2,0,0.5,0,0.7,0.1c0.2,0,0.4,0.1,0.7,0.2c0.2,0.1,0.4,0.1,0.6,0.2
			c0.1,0,0.2,0.1,0.3,0.1c0.1,0.1,0.2,0.1,0.3,0.2c0.2,0.1,0.3,0.2,0.5,0.3s0.3,0.2,0.4,0.4c0.1,0.1,0.2,0.3,0.3,0.4
			c0.1,0.1,0.2,0.3,0.3,0.4c0.2,0.3,0.3,0.5,0.4,0.7s0.2,0.4,0.2,0.6c0.1,0.3,0.1,0.5,0.1,0.5s-0.2-0.1-0.5-0.3
			c-0.1-0.1-0.3-0.2-0.5-0.3s-0.4-0.2-0.6-0.4c-0.1-0.1-0.2-0.1-0.3-0.2c-0.1,0-0.1-0.1-0.2-0.1s-0.1-0.1-0.2-0.1
			c-0.1-0.1-0.2-0.1-0.4-0.2c-0.1,0-0.3-0.1-0.4-0.1c-0.3-0.1-0.5-0.1-0.8-0.2c-0.1,0-0.3,0-0.4-0.1c-0.1,0-0.3,0-0.4,0
			c-0.3,0-0.6,0-0.9,0s-0.6,0.1-0.9,0.1c-0.6,0.1-1.2,0.3-1.7,0.4C405.8,367.2,405.1,367.4,405.1,367.4z"/>
		<path fill="#E9B008" d="M470.5,477.6l5.5-1.3l3.7-4.5c-40.4,9.8-73.1,7.2-83.8,5.9C410.7,480.6,436.1,483.1,470.5,477.6z"/>
		<path fill="#E9B008" d="M495.7,412.3c4.8,7.1,4.6,27-1,41.5l0,0c-2.4,7.1-7.4,14.7-18.3,19.6c-6.6,3.4-15.1,5.4-23.9,6.5
			c10.4-1,21.9-2.7,34.4-5.4c8.5-4.9,12.6-11.5,14.7-17.8l0,0C508.9,434.2,498.8,414.8,495.7,412.3z"/>
		<g>
			<path fill="#FFE364" d="M481.3,420.2c0.5,0.2,0.9,0.4,1.4,0.7c0.2,0.1,0.5,0.2,0.7,0.4c0.2,0.1,0.4,0.3,0.7,0.4
				c0.3,0.2,0.6,0.4,0.9,0.5c4.2-3.4,8.8-6.4,12.6-7.5c-0.7-1.1-1.3-1.9-1.9-2.3c-1.3-0.8-3-0.9-4.9-0.5c-3.7,1.5-7.8,4.3-11.6,7.5
				c0.3,0.1,0.5,0.2,0.8,0.3C480.4,419.8,480.9,420,481.3,420.2z"/>
			<path fill="#FFE364" d="M389.8,476.4c0.3,0.1,0.6,0.1,0.9,0.2c-4.9-4.7-7-11.7-8.1-21.8c-1.4-13.3,2-19.4,14.7-25.7
				c2.4-1.4,5.1-2.5,8.1-3.5c0.9-0.3,1.4-0.8,1.8-1.2c-0.3-0.2-0.6-0.3-0.8-0.5c-0.1,0-0.2-0.1-0.4-0.2c-0.1-0.1-0.3-0.1-0.5-0.2
				c-0.2-0.1-0.4-0.2-0.7-0.3c-0.2-0.1-0.5-0.2-0.8-0.4c-0.3-0.1-0.6-0.3-0.8-0.4c-0.5-0.3-1.1-0.6-1.7-0.9
				c-0.3,0.3-0.7,0.5-1.2,0.7c-3,1-5.8,2.1-8.1,3.5c-12.7,6.3-16.1,12.4-14.7,25.7C378.8,464.1,381.8,471.7,389.8,476.4z"/>
		</g>
	</g>
</g>
</svg>
