<?xml version="1.0" encoding="utf-8"?>
<!-- Generator: Adobe Illustrator 19.1.0, SVG Export Plug-In . SVG Version: 6.00 Build 0)  -->
<svg version="1.1" id="Layer_1" xmlns="http://www.w3.org/2000/svg" xmlns:xlink="http://www.w3.org/1999/xlink" x="512px" y="512px"
	 viewBox="0 0 595.3 841.9" style="enable-background:new 0 0 595.3 841.9;" xml:space="preserve">
<g>
	<g>
		<g>
			<path class="st0" d="M228.5,474.9c0,0-0.3,0.2-0.9,0.6c-0.3,0.2-0.6,0.5-0.9,0.8c-0.3,0.3-0.7,0.7-0.9,1.1
				c-0.3,0.4-0.3,0.8-0.2,1.1c0.1,0.3,0.6,0.7,1.1,1c0.5,0.3,1.2,0.6,1.8,0.9c0.7,0.3,1.4,0.5,2.1,0.7c2.9,0.9,5.9,1.7,8.1,2.3
				c1.1,0.3,2.1,0.6,2.7,0.9c0.7,0.2,1,0.4,1,0.4s-1.6,0.2-4,0c-0.6,0-1.2-0.1-1.9-0.1c-0.7-0.1-1.4-0.1-2.1-0.3
				c-0.7-0.1-1.5-0.3-2.2-0.4c-0.8-0.2-1.5-0.4-2.3-0.6c-0.8-0.2-1.5-0.5-2.3-0.9c-0.7-0.4-1.5-0.7-2.1-1.2s-1.3-1.2-1.6-2.2
				c-0.1-0.5-0.1-1,0.1-1.4c0.2-0.4,0.4-0.7,0.7-1c0.5-0.5,1-0.8,1.5-1c0.5-0.2,0.9-0.4,1.2-0.5C228.1,475,228.5,474.9,228.5,474.9z
				"/>
		</g>
		<g>
			<path class="st0" d="M320.4,484.8c-2.2,0.3-4.5,0.6-6.7,0.8c-2.3,0.2-4.5,0.4-6.8,0.6l-6.8,0.5c-2.3,0.1-4.5,0.2-6.8,0.4v-2.2
				l3.3-0.1v2.4l-9.4-0.1c-3.1-0.1-6.3-0.2-9.5-0.3s-6.3-0.3-9.4-0.6c-3.1-0.3-6.3-0.5-9.4-0.9s-6.3-0.8-9.4-1.4
				c-1.6-0.3-3.1-0.6-4.7-1c-1.5-0.4-3.1-0.7-4.6-1.2c-1.5-0.4-3-0.9-4.5-1.4c-0.4-0.1-0.7-0.3-1.1-0.4c-0.4-0.2-0.8-0.3-1.1-0.5
				c-0.7-0.4-1.5-0.8-2.1-1.6c-0.3-0.4-0.3-1.2,0-1.6s0.6-0.7,1-0.9c0.7-0.4,1.5-0.7,2.2-1c1.5-0.5,3.1-0.8,4.6-1.1
				c-1.5,0.4-3,1-4.4,1.6c-0.7,0.3-1.4,0.7-2,1.1c-0.3,0.2-0.5,0.5-0.6,0.7c-0.1,0.3-0.1,0.4,0.1,0.6c0.3,0.4,1,0.8,1.7,1
				c0.3,0.1,0.7,0.2,1,0.4l1.1,0.3c1.5,0.4,3,0.8,4.6,1.1c3,0.6,6.1,1.2,9.2,1.6c1.5,0.2,3.1,0.4,4.6,0.6c1.5,0.2,3.1,0.3,4.7,0.5
				c3.1,0.3,6.2,0.6,9.3,0.8l4.7,0.3l4.7,0.3c3.1,0.2,6.3,0.3,9.4,0.4l9.4,0.4v2.4l-3.3-0.1V485H307L320.4,484.8z"/>
		</g>
		<g>
			<path class="st0" d="M354.2,472.6c0,0,0.5,0.1,1.5,0.3c0.5,0.1,1,0.3,1.6,0.6c0.6,0.3,1.3,0.6,2,1.2c0.3,0.3,0.7,0.7,1,1.2
				s0.3,1.4,0,2c-0.6,1.2-1.6,1.8-2.5,2.3c-1,0.5-2,0.9-3,1.3c-1,0.3-2.1,0.6-3.1,0.9c-1.1,0.3-2.1,0.5-3.1,0.7
				c-1,0.2-2.1,0.4-3.1,0.6c-1,0.2-2,0.3-2.9,0.4s-1.8,0.2-2.6,0.3c-3.2,0.3-5.4,0.2-5.4,0.2s2.1-0.6,5.2-1.4
				c1.6-0.4,3.4-0.8,5.3-1.3c1-0.2,2-0.5,3-0.8c1-0.2,2-0.5,3.1-0.8c1-0.3,2.1-0.5,3-0.8c1-0.3,1.9-0.6,2.8-1
				c0.8-0.4,1.6-0.9,1.9-1.3c0.1-0.2,0.2-0.4,0.1-0.6c-0.1-0.3-0.2-0.6-0.5-0.8c-0.5-0.5-1-1-1.5-1.3c-0.5-0.4-1-0.7-1.4-0.9
				C354.7,472.9,354.2,472.6,354.2,472.6z"/>
		</g>
		<g>
			<path class="st0" d="M362.4,474.3c0,0,0.4,0.1,1,0.4c0.3,0.1,0.7,0.3,1.1,0.6c0.4,0.2,0.9,0.6,1.4,1c0.4,0.4,0.9,1.1,0.9,2
				s-0.6,1.6-1.1,2.2c-0.6,0.6-1.3,1-2,1.5c-0.7,0.4-1.4,0.8-2.2,1.1c-0.7,0.3-1.5,0.6-2.2,0.9s-1.5,0.6-2.2,0.8
				c-0.7,0.2-1.4,0.4-2.1,0.5c-0.7,0.1-1.3,0.2-1.9,0.3c-2.4,0.3-4,0.1-4,0.1v-0.2c0,0,0.4-0.2,1-0.5c0.3-0.1,0.7-0.3,1.2-0.5
				c0.5-0.2,1-0.4,1.5-0.6c0.6-0.2,1.2-0.4,1.8-0.6c0.6-0.2,1.3-0.4,2-0.6c0.7-0.2,1.4-0.4,2.2-0.5c0.7-0.2,1.5-0.4,2.2-0.7
				c0.7-0.2,1.4-0.5,2.1-0.8c0.7-0.3,1.3-0.7,1.8-1.1c0.5-0.4,0.9-0.9,1-1.4s-0.2-1-0.5-1.5c-0.7-0.9-1.6-1.4-2.1-1.7
				c-0.6-0.3-0.9-0.5-0.9-0.5V474.3z"/>
		</g>
	</g>
	<g>
		<path class="st0" d="M356.7,412.9c-4.1-2.6-12.2,2.1-19.1,7.9c0.3,0.1,0.5,0.2,0.8,0.3c0.5,0.2,0.9,0.4,1.4,0.6
			c0.5,0.2,0.9,0.4,1.4,0.7c0.2,0.1,0.5,0.2,0.7,0.4c0.2,0.1,0.4,0.3,0.7,0.4c0.4,0.2,0.9,0.5,1.3,0.8c0.4,0.2,0.8,0.5,1.2,0.8
			c0.2,0.1,0.4,0.2,0.5,0.4c0.2,0.1,0.3,0.2,0.5,0.4c0.3,0.2,0.6,0.4,0.8,0.6c0.2,0.2,0.4,0.4,0.6,0.5c0.3,0.3,0.5,0.5,0.5,0.5
			s-0.2-0.2-0.6-0.4c-0.2-0.1-0.4-0.3-0.6-0.5c-0.3-0.2-0.6-0.4-0.9-0.6c-0.2-0.1-0.3-0.2-0.5-0.3s-0.4-0.2-0.6-0.3
			c-0.4-0.2-0.8-0.5-1.2-0.7c-0.4-0.2-0.9-0.4-1.3-0.6c-0.2-0.1-0.5-0.2-0.7-0.3s-0.5-0.2-0.7-0.3c-0.5-0.2-0.9-0.4-1.4-0.5
			c-0.5-0.2-0.9-0.3-1.4-0.5c-0.5-0.1-0.9-0.3-1.3-0.4h-0.1c-7.4-1.6-15.7-2.3-23.7-2.6c-6.5,6.5-15.9,10.5-26.5,10.5
			c-7.2,0-13.7-1.8-19-5c-0.1,0-0.2-0.1-0.4-0.2c-0.1-0.1-0.3-0.1-0.5-0.2c-0.2-0.1-0.4-0.2-0.7-0.3c-0.2-0.1-0.5-0.2-0.8-0.4
			c-0.3-0.1-0.6-0.3-0.8-0.4c-0.6-0.3-1.2-0.6-1.8-1c-0.5-0.3-0.9-0.6-1.4-0.9c-0.1,0.9-0.7,1.9-2.3,2.5c-3,1-5.8,2.1-8.1,3.5
			c-12.7,6.3-16.1,12.4-14.7,25.7c1.1,10.6,3.4,17.7,8.7,22.4c9.7,3.1,46.3,12.4,103.2-0.2c8.5-4.9,12.6-11.5,14.7-17.8l0,0
			C369.1,440.5,361,415.9,356.7,412.9z"/>
		<path class="st0" d="M304.6,363.6c-0.4-2.8-1-4.9-1.8-5.8c-3.2-3.5-12.2-1.1-20.4,2.6c-18.2,3-26.3,19.6-28.4,37.4
			c-2,17.9,12.7,31.7,32.4,31.6c19.1,0,34.4-13.1,35.7-30C323.3,384,316.2,370,304.6,363.6z"/>
		<path class="st0" d="M304.6,363.6c11.6,6.4,13.5,21.8,12.5,33.5c-1.4,16.9-16.6,30-35.7,30c-5,0-9.7-0.9-13.9-2.5
			c5.3,3.2,11.8,5,18.9,5c19.1,0,34.4-13.1,35.7-30C323.3,384,316.2,370,304.6,363.6"/>
		<path class="st0" d="M281.6,369c0,0,0.1-0.2,0.4-0.5c0.3-0.3,0.8-0.6,1.4-1c0.3-0.2,0.7-0.4,1.1-0.5c0.4-0.2,0.8-0.3,1.3-0.4
			c0.5-0.1,0.9-0.2,1.5-0.2c0.3,0,0.5,0,0.8,0s0.5,0,0.8,0.1c0.5,0.1,1,0.3,1.5,0.5c0.5,0.2,0.9,0.5,1.3,0.9
			c0.2,0.2,0.4,0.3,0.5,0.5c0.1,0.2,0.3,0.4,0.4,0.5c0.2,0.4,0.4,0.7,0.5,1.1c0.1,0.3,0.2,0.6,0.2,0.9c0,0.3,0.1,0.5,0.1,0.7
			c0,0.4,0,0.6,0,0.6s-0.2-0.2-0.4-0.5c-0.1-0.2-0.3-0.3-0.5-0.5c-0.2-0.2-0.4-0.4-0.6-0.6c-0.2-0.2-0.5-0.5-0.7-0.7
			c-0.1-0.1-0.1-0.1-0.2-0.2c-0.1,0-0.1-0.1-0.2-0.1s-0.1-0.1-0.2-0.1s-0.1-0.1-0.2-0.1c-0.1-0.1-0.3-0.2-0.5-0.3
			c-0.1,0-0.2-0.1-0.2-0.1c-0.1,0-0.2-0.1-0.2-0.1c-0.3-0.1-0.7-0.2-1-0.3c-0.4-0.1-0.7-0.1-1.1-0.1s-0.8,0-1.2,0
			c-0.4,0-0.8,0-1.1,0.1c-0.4,0-0.7,0.1-1,0.1C282.5,368.9,281.6,369,281.6,369z"/>
		<path class="st0" d="M299.2,356.1c-1.4-0.2-10.5,2.2-16.8,5c-18.2,3.1-26.4,19.7-28.4,37.6c-0.1,1-0.2,1.9-0.2,2.8
			c0.1,8.4,4,15.6,10.2,20.6c-4.4-5.4-6.7-12.4-5.8-20.1c2.1-17.9,10.2-34.5,28.4-37.6c6.3-2.8,13-4.9,17.3-4.1
			C303.6,359.2,303.3,356.6,299.2,356.1z"/>
		<path class="st0" d="M299.2,356.1c-1.4-0.2-10.5,2.2-16.8,5c-18.2,3.1-26.4,19.7-28.4,37.6c-0.1,1-0.2,1.9-0.2,2.8
			c0.1,8.4,4,15.6,10.2,20.6c-4.4-5.4-6.7-12.4-5.8-20.1c2.1-17.9,10.2-34.5,28.4-37.6c6.3-2.8,13-4.9,17.3-4.1
			C303.6,359.2,303.3,356.6,299.2,356.1z"/>
		<g>
			<g>
				<path class="st0" d="M272.2,381.8c-2.3,4.6-6.6,7.2-9.6,5.9c-3-1.4-3.5-6.2-1.1-10.8s6.6-7.2,9.6-5.9
					C274,372.4,274.5,377.2,272.2,381.8z"/>
				<g>
					<path class="st0" d="M272.2,381.8c0,0-0.1,0.2-0.3,0.5c-0.2,0.3-0.4,0.8-0.8,1.3c-0.7,1.1-2,2.6-4,3.8c-1,0.6-2.3,1-3.7,0.8
						c-1.4-0.1-2.7-1.2-3.4-2.6c-0.3-0.7-0.5-1.5-0.6-2.2c-0.1-0.8,0-1.6,0-2.3c0.2-1.6,0.7-3.1,1.4-4.5c0.4-0.6,0.8-1.3,1.2-2
						c0.5-0.6,1-1.2,1.5-1.8c1.1-1.1,2.4-1.9,3.9-2.3c0.7-0.2,1.5-0.3,2.2-0.2s1.4,0.4,2,0.8c1.2,0.9,1.6,2.2,1.8,3.3
						c0.3,2.3-0.2,4.2-0.6,5.5c-0.2,0.6-0.4,1.1-0.6,1.4C272.3,381.7,272.2,381.8,272.2,381.8z M272.1,381.8c0,0,0.1-0.2,0.2-0.5
						c0.2-0.3,0.4-0.8,0.6-1.4c0.4-1.2,0.9-3.1,0.5-5.4c-0.2-1.1-0.7-2.3-1.8-3.1c-0.5-0.4-1.2-0.6-1.8-0.7c-0.7-0.1-1.4,0-2,0.2
						c-1.4,0.4-2.6,1.3-3.6,2.3c-1,1.1-1.9,2.3-2.6,3.6c-0.7,1.3-1.2,2.8-1.4,4.3c-0.2,1.5-0.1,3,0.4,4.3c0.5,1.3,1.7,2.3,3,2.5
						c1.3,0.2,2.5-0.2,3.5-0.7c2-1.1,3.2-2.6,4-3.7c0.4-0.5,0.6-1,0.8-1.3C272.1,382,272.1,381.8,272.1,381.8z"/>
				</g>
			</g>
			<path class="st0" d="M264,379.3c1-2,3.2-3,4.9-2.2c1.7,0.8,2.3,3,1.2,5s-3.2,3-4.9,2.2C263.6,383.6,263,381.3,264,379.3z"/>
			<path class="st0" d="M269,377.1c-0.5-0.3-1.1-0.3-1.7-0.2c0.4,0,0.7,0.1,1,0.3c1.7,0.8,2.3,3,1.2,5c-0.7,1.4-1.9,2.2-3.2,2.4
				c1.5,0.1,3.1-0.8,3.9-2.5C271.2,380.2,270.7,377.9,269,377.1z"/>
			<path class="st0" d="M268.8,378.2c0.2-0.5,0.8-0.7,1.2-0.5c0.4,0.2,0.5,0.7,0.3,1.2s-0.8,0.7-1.2,0.5
				C268.7,379.2,268.6,378.7,268.8,378.2z"/>
		</g>
		<g>
			<g>
				<path class="st0" d="M289.7,386.6c-2.9,5.6-8.9,8.4-13.3,6.3s-5.6-8.3-2.7-13.9c2.9-5.6,8.9-8.4,13.3-6.3
					C291.5,374.9,292.7,381.1,289.7,386.6z"/>
				<g>
					<path class="st0" d="M289.8,386.7c0,0-0.1,0.2-0.4,0.6c-0.2,0.4-0.6,1-1.1,1.7c-0.5,0.7-1.3,1.5-2.2,2.2
						c-0.9,0.8-2.1,1.5-3.6,2c-1.4,0.5-3.1,0.7-4.8,0.3c-0.8-0.2-1.7-0.6-2.4-1.1c-0.7-0.5-1.4-1.2-1.9-2c-1-1.6-1.4-3.6-1.3-5.5
						c0.1-2,0.7-3.9,1.6-5.7c1-1.7,2.2-3.4,3.8-4.6c1.5-1.2,3.4-2.1,5.2-2.3c0.9-0.1,1.9-0.1,2.8,0.1c0.9,0.2,1.7,0.6,2.4,1
						c1.4,1,2.4,2.4,2.9,3.8s0.6,2.8,0.6,4c-0.1,1.2-0.3,2.3-0.5,3.1c-0.3,0.8-0.5,1.5-0.7,1.9C289.9,386.4,289.8,386.7,289.8,386.7
						z M289.7,386.6c0,0,0.1-0.2,0.3-0.6c0.2-0.4,0.5-1.1,0.7-1.9c0.3-0.8,0.4-1.9,0.5-3.1c0-1.2-0.1-2.6-0.6-4
						c-0.5-1.4-1.5-2.7-2.9-3.6c-0.8-0.4-1.5-0.7-2.4-0.9c-0.8-0.1-1.7-0.2-2.6,0c-1.8,0.3-3.5,1.2-4.9,2.3c-0.7,0.6-1.4,1.3-2,2
						s-1.1,1.5-1.6,2.4c-0.9,1.6-1.5,3.5-1.6,5.4c-0.1,0.9,0,1.9,0.2,2.8c0.2,0.9,0.5,1.7,0.9,2.5c0.4,0.8,1,1.4,1.7,1.9
						s1.5,0.9,2.2,1.1c1.6,0.5,3.2,0.3,4.6-0.1s2.6-1.1,3.5-1.9c0.9-0.8,1.7-1.5,2.2-2.2s0.9-1.2,1.2-1.6
						C289.6,386.8,289.7,386.6,289.7,386.6z"/>
				</g>
			</g>
			<g>
				<path class="st0" d="M278.5,381.8c1.3-2.4,4.4-3.4,6.9-2.2c2.5,1.2,3.6,4.1,2.3,6.6c-1.3,2.4-4.4,3.4-6.9,2.2
					C278.3,387.1,277.3,384.2,278.5,381.8z"/>
			</g>
			<g>
				<path class="st0" d="M285.4,379.6c-1-0.5-2-0.6-3.1-0.5c0.7,0,1.3,0.2,2,0.5c2.5,1.2,3.6,4.1,2.3,6.6c-0.8,1.5-2.2,2.4-3.9,2.6
					c2,0.1,4-0.9,4.9-2.7C289,383.7,288,380.8,285.4,379.6z"/>
			</g>
			<path class="st0" d="M284.7,380.7c0.3-0.6,1.1-0.8,1.7-0.5c0.6,0.3,0.9,1,0.6,1.6s-1.1,0.8-1.7,0.5
				C284.6,382,284.3,381.3,284.7,380.7z"/>
		</g>
		<path class="st0" d="M283.8,395.2c-0.8,2.7-7.2,3.3-14.2,1.4c-7.1-1.9-12.1-5.6-11.3-8.2c0.8-2.7,7.2-3.3,14.2-1.4
			C279.6,388.9,284.6,392.6,283.8,395.2z"/>
		<path class="st0" d="M258.3,388.4c-0.3,1.1,0.4,2.4,1.9,3.7c0.5-2.1,1.2-4.1,2-6C260,386.4,258.6,387.2,258.3,388.4z"/>
		<g>
			<path class="st0" d="M363.2,451.1c-0.4,5.3-2,11.8-8.4,16.2c-5.8,4.6-15.2,6.4-23.1,7c-24.9,2-28.5-1-33.4-17.2
				c-1.5-4.9-0.3-12.4,5.8-17c5.6-4.9,16.7-7,24.9-7.5c8.2-1.1,19.6-1.3,26,2.5C361.8,438.6,363.6,445.8,363.2,451.1z"/>
		</g>
		<path class="st0" d="M363.3,449.2c0-0.1,0-0.1,0-0.2c0-0.3,0-0.6-0.1-0.9V448l0,0c-0.1-0.7-0.2-1.4-0.3-2l0,0c0,0,0,0,0-0.1
			s0-0.2-0.1-0.3l0,0v-0.1c0-0.2-0.1-0.3-0.1-0.5c0-0.2-0.1-0.3-0.1-0.5c0-0.1-0.1-0.3-0.1-0.4c-0.1-0.3-0.2-0.6-0.3-0.9
			c0-0.1-0.1-0.2-0.1-0.4c-0.1-0.2-0.2-0.4-0.2-0.6c0-0.1-0.1-0.2-0.1-0.3c-0.2-0.3-0.3-0.7-0.5-1l0,0c-0.3-0.5-0.6-1-1-1.4l0,0
			c-1.2-1.7-2.9-3.2-5.1-4.2c-3.8-2.3-9.5-3.1-15.2-3.2c4.9,0.2,9.7,1.1,13.1,3.1c2.6,1.3,4.5,3.2,5.8,5.3c0,0,0,0-0.1,0
			c-5.8,4.6-15.2,6.4-23.1,7c-8.8,0.7-14.9,0.8-19.3-0.1c4.6,1.4,11.3,1.5,21.5,0.6c7.3-0.6,16-2.2,21.8-6.1
			c0.8,1.8,1.3,3.7,1.5,5.5c-0.6,0.6-1.3,1.1-2.1,1.7c-5.8,4.6-15.2,6.4-23.1,7c-8.8,0.7-14.9,0.8-19.3-0.1
			c4.6,1.4,11.3,1.5,21.5,0.6c7.8-0.6,17.2-2.4,23-7c-0.4,2.9-1.3,6.1-3.1,9c-5.8,3.9-14.4,5.4-21.7,6c-8.8,0.7-14.9,0.8-19.3-0.1
			c4.6,1.4,11.3,1.5,21.5,0.6c5.6-0.5,12-1.5,17.3-3.7c-0.8,0.8-1.7,1.6-2.8,2.4c-5.8,4.6-15.2,6.4-23.1,7
			c-17,1.4-24.1,0.4-28.4-5.5c3.6,7.6,8.8,9.8,22.5,9.3l0,0c0.5,0,1.1,0,1.7-0.1c0.1,0,0.2,0,0.3,0c0.5,0,1-0.1,1.5-0.1
			c0.2,0,0.3,0,0.5,0c0.5,0,1-0.1,1.5-0.1c0.2,0,0.3,0,0.5,0c0.7,0,1.3-0.1,2-0.2c7.9-0.6,17.3-2.4,23.1-7c3.8-2.6,5.9-6,7.1-9.4
			l0,0l0,0c0.1-0.3,0.2-0.5,0.2-0.8v-0.1c0.1-0.3,0.1-0.5,0.2-0.8l0,0c0.1-0.3,0.1-0.5,0.2-0.8c0,0,0,0,0-0.1
			c0.1-0.3,0.1-0.5,0.2-0.8l0,0l0,0c0.2-1.2,0.4-2.4,0.5-3.5c0-0.3,0-0.6,0-0.9c0-0.1,0-0.2,0-0.3
			C363.3,449.7,363.3,449.5,363.3,449.2z"/>
		<g>
			<path class="st0" d="M299,457.8c-1.5-4.9-0.3-12.4,5.8-17c5.6-4.9,16.7-7,24.9-7.5c3.4-0.5,7.4-0.8,11.4-0.7
				c2.9-0.1,5.8,0.1,8.5,0.4c-6.3-1.6-14.4-1.3-20.6-0.4c-8.2,0.5-19.3,2.6-24.9,7.5c-6.1,4.6-7.3,12-5.8,17c2,6.7,3.8,11.1,7,13.9
				C302.5,468.2,300.9,464,299,457.8z"/>
		</g>
		<path class="st0" d="M286.9,407.6c0,0-1.7,3.7-7.4,6.5c-8.7,4.2-23.7,7.1-33.8-1.5C245.7,412.6,282.8,408.1,286.9,407.6z"/>
		<path class="st0" d="M266.9,387.2c-3.3,0.7-8.9,2.3-11.9,1c-1.5-0.6-2.8-2.4-4.2-3.3c-2.2-1.3-4.7-2.2-7.3-1.3
			c-11.1,3.7-1.2,16.5,3.2,20.7c-2.9,0.8-5.4,3.3-3.3,6.2c1.2,1.7,3.5,2.8,5.4,3.5c6.1,2.2,13.3,1.1,19.4-0.3
			c5.4-1.2,10.5-3.3,15.7-5.1c1.7-0.6,3.1-1.1,3.1-1.1s1.6-4.3,1-5.4C282.8,397.1,273.7,389.7,266.9,387.2z"/>
		<path class="st0" d="M284.9,406.3c-4.2,1.5-9.2,1.6-13.4,0.1c-6.1-2.3-10.8-8.2-14.7-13.2c-1.9-2.5-4.2-6.2-7.1-7.6
			c-5-2.4-10.7,0.8-10.2,6.4c0.5,5.2,4.5,8.1,7.1,12.3c-2.3,1.3-2.3,3.4-0.8,5.4c1.7,2.2,4.5,2.9,7.2,3.1
			C263.8,413.7,274.9,409.9,284.9,406.3z"/>
		<path class="st0" d="M246.6,404.3c-2.3,1.3-2.3,3.4-0.8,5.4c1.7,2.2,4.5,2.9,7.2,3.1c10.8,1,22-2.8,32-6.4
			c-0.2,0.1-0.5,0.1-0.7,0.2c-9.6,3.5-20.3,6.9-30.6,6c-2.6-0.2-5.4-0.9-7.1-3.1C245,407.5,244.3,405.6,246.6,404.3"/>
		<g>
			<path class="st0" d="M254.7,404.5c-3.5-0.7-5-0.7-6.6,0.2c-2.7,1.4-4.2,10.9,26.9,3.4C274.6,408.2,273.5,408.2,254.7,404.5z"/>
		</g>
		<path class="st0" d="M287.4,403.4c0.2-0.1,0.5-0.2,0.6-0.3c0-0.4,0-0.7-0.1-0.9c-3.1-3.1-7.7-7.1-12.4-10.3
			c-0.7-0.4-1.3-0.9-2-1.3c0,0,3.6,3.1,3.8,3.3c0.2,0.1,0.3,0.3,0.5,0.4s0.3,0.3,0.5,0.4s0.3,0.3,0.5,0.4c0.2,0.1,0.3,0.3,0.5,0.4
			s0.3,0.3,0.5,0.4s0.3,0.3,0.5,0.4s0.3,0.3,0.5,0.4c0.2,0.1,0.3,0.3,0.5,0.4c0.3,0.3,0.6,0.5,0.9,0.8c0.3,0.3,0.6,0.5,0.9,0.8
			c0.3,0.3,0.6,0.5,0.9,0.8s0.6,0.5,0.8,0.8c0.2,0.2,0.4,0.4,0.6,0.5c0.2,0.1,0.4,0.4,0.5,0.6c0.2,0.2,0.4,0.4,0.5,0.6
			c0.2,0.2,0.3,0.4,0.5,0.6h-0.1h-0.1h-0.1h-0.1c-0.2,0.1-0.3,0.1-0.5,0.2c-0.2,0-0.3,0.1-0.5,0.1s-0.3,0.1-0.5,0.1
			s-0.3,0.1-0.5,0.1s-0.3,0.1-0.5,0.1s-0.3,0.1-0.5,0.1s-0.3,0.1-0.5,0.1s-0.3,0-0.5,0.1c-0.1,0-0.2,0-0.3,0s-0.2,0-0.3,0
			c-0.1,0-0.2,0-0.3,0c-0.1,0-0.2,0-0.3,0h-0.1h-0.1H281h-0.1c-0.3,0-0.6,0-1,0c-0.3,0-0.6,0-1,0c-0.3,0-0.6,0-1-0.1
			c-0.3,0-0.6-0.1-1-0.1c-0.1,0-0.2,0-0.2,0c-0.1,0-0.2,0-0.2,0c-0.1,0-0.2,0-0.2,0c-0.1,0-0.2,0-0.2,0c-0.1,0-0.2,0-0.2,0
			c-0.1,0-0.2,0-0.2,0c-0.1,0-0.2,0-0.2,0c-0.1,0-0.2,0-0.2,0c-0.2,0-0.3-0.1-0.5-0.1s-0.3-0.1-0.5-0.1s-0.3-0.1-0.5-0.1
			s-0.3-0.1-0.5-0.1s-0.3-0.1-0.5-0.1c-0.2-0.1-0.3-0.1-0.5-0.2c-0.2-0.1-0.3-0.1-0.5-0.2s-0.3-0.1-0.5-0.2
			c-0.2-0.1-0.3-0.1-0.5-0.2s-0.3-0.1-0.5-0.2s-0.3-0.1-0.4-0.2c-0.1-0.1-0.3-0.1-0.4-0.2s-0.3-0.1-0.4-0.2s-0.3-0.1-0.4-0.2
			c-0.1-0.1-0.3-0.1-0.4-0.2s-0.3-0.2-0.4-0.2c-0.1-0.1-0.3-0.2-0.4-0.2c-0.1-0.1-0.3-0.2-0.4-0.2c-0.1-0.1-0.3-0.2-0.4-0.3
			c-0.1-0.1-0.3-0.2-0.4-0.3c-0.1-0.1-0.3-0.2-0.4-0.3s-0.3-0.2-0.4-0.3c-0.1-0.1-0.3-0.2-0.4-0.3s-0.3-0.2-0.4-0.3
			s-0.3-0.2-0.4-0.3c-0.1-0.1-0.3-0.2-0.4-0.3s-0.3-0.2-0.4-0.3c-0.1-0.1-0.3-0.2-0.4-0.3c-0.1-0.1-0.2-0.1-0.3-0.2
			c-0.1-0.1-0.2-0.1-0.3-0.2c-0.1-0.1-0.2-0.1-0.3-0.2c-0.1-0.1-0.2-0.1-0.3-0.2c0.7,0.6,1.3,1.1,2,1.7c0.7,0.6,1.4,1.1,2.2,1.7
			c0.8,0.6,1.5,1.1,2.3,1.6s1.6,1,2.5,1.5s1.8,0.9,2.7,1.2c0.9,0.3,1.8,0.6,2.7,0.7c0.9,0.2,1.8,0.3,2.6,0.3c0.8,0,1.7,0,2.5,0
			c0.9-0.1,1.8-0.2,2.7-0.3c0.8-0.2,1.6-0.3,2.2-0.5C286.4,403.7,286.9,403.5,287.4,403.4z"/>
		<path class="st0" d="M257.7,391.5c0.2,0.2,0.3,0.4,0.5,0.6c0.2,0.2,0.3,0.4,0.4,0.5c0.1,0.1,0.1,0.2,0.2,0.2
			c0.1,0.1,0.1,0.1,0.2,0.2c0.1,0.1,0.1,0.1,0.2,0.2c0,0.1,0.1,0.1,0.1,0.2l0.1,0.1l0.1,0.1c0,0,0,0,0,0.1l0,0l0,0c0,0,0,0,0-0.1
			v-0.1c0,0,0-0.1-0.1-0.1c0-0.1-0.1-0.1-0.1-0.2s-0.1-0.1-0.1-0.2c0-0.1-0.1-0.2-0.1-0.2c0-0.1-0.1-0.2-0.2-0.3
			c-0.1-0.1-0.1-0.2-0.2-0.3s-0.1-0.2-0.2-0.3s-0.1-0.2-0.2-0.3c-0.1-0.1-0.2-0.2-0.2-0.3c-0.1-0.1-0.2-0.2-0.3-0.3
			c-0.1-0.1-0.2-0.2-0.3-0.3c-0.1-0.1-0.2-0.2-0.3-0.3c-0.1-0.1-0.2-0.2-0.3-0.3c-0.1-0.1-0.2-0.2-0.3-0.3c-0.1-0.1-0.2-0.2-0.3-0.3
			s-0.2-0.2-0.3-0.3c-0.1-0.1-0.2-0.2-0.3-0.3c-0.1-0.1-0.2-0.2-0.3-0.3c-0.1-0.1-0.2-0.2-0.3-0.2c-0.1-0.1-0.2-0.1-0.3-0.2
			c-0.1,0-0.1-0.1-0.2-0.1c-0.2-0.1-0.5-0.3-0.7-0.5c-0.1-0.1-0.2-0.1-0.3-0.2c-0.1-0.1-0.2-0.1-0.3-0.1c-0.1,0-0.1,0-0.1,0
			s0,0,0.1,0.1c0.1,0,0.1,0.1,0.2,0.2c0.1,0.1,0.2,0.2,0.3,0.3c0.1,0.1,0.3,0.2,0.4,0.4c0.2,0.1,0.3,0.3,0.5,0.5
			c0.2,0.2,0.4,0.3,0.6,0.5c0.2,0.2,0.4,0.4,0.6,0.6c0.2,0.2,0.4,0.4,0.6,0.6c0.2,0.2,0.4,0.4,0.6,0.6
			C257.3,391.1,257.5,391.3,257.7,391.5z"/>
		<path class="st0" d="M266.1,368c0,0,0.1-0.2,0.2-0.5c0.2-0.3,0.5-0.7,0.9-1.1s1-0.8,1.7-1.2c0.2-0.1,0.4-0.2,0.6-0.2
			c0.2-0.1,0.4-0.1,0.6-0.2c0.4-0.1,0.9-0.1,1.3-0.1c0.2,0,0.5,0,0.7,0.1c0.2,0,0.4,0.1,0.7,0.2c0.2,0.1,0.4,0.1,0.6,0.2
			c0.1,0,0.2,0.1,0.3,0.1c0.1,0.1,0.2,0.1,0.3,0.2c0.2,0.1,0.3,0.2,0.5,0.3s0.3,0.2,0.4,0.4c0.1,0.1,0.2,0.3,0.3,0.4
			c0.1,0.1,0.2,0.3,0.3,0.4c0.2,0.3,0.3,0.5,0.4,0.7s0.2,0.4,0.2,0.6c0.1,0.3,0.1,0.5,0.1,0.5s-0.2-0.1-0.5-0.3
			c-0.1-0.1-0.3-0.2-0.5-0.3s-0.4-0.2-0.6-0.4c-0.1-0.1-0.2-0.1-0.3-0.2c-0.1,0-0.1-0.1-0.2-0.1s-0.1-0.1-0.2-0.1
			c-0.1-0.1-0.2-0.1-0.4-0.2c-0.1,0-0.3-0.1-0.4-0.1c-0.3-0.1-0.5-0.1-0.8-0.2c-0.1,0-0.3,0-0.4-0.1c-0.1,0-0.3,0-0.4,0
			c-0.3,0-0.6,0-0.9,0s-0.6,0.1-0.9,0.1c-0.6,0.1-1.2,0.3-1.7,0.4C266.8,367.8,266.1,368,266.1,368z"/>
		<path class="st0" d="M331.5,478.2l5.5-1.3l3.7-4.5c-40.4,9.8-73.1,7.2-83.8,5.9C271.7,481.2,297.1,483.7,331.5,478.2z"/>
		<path class="st0" d="M356.7,412.9c4.8,7.1,4.6,27-1,41.5l0,0c-2.4,7.1-7.4,14.7-18.3,19.6c-6.6,3.4-15.1,5.4-23.9,6.5
			c10.4-1,21.9-2.7,34.4-5.4c8.5-4.9,12.6-11.5,14.7-17.8l0,0C369.9,434.8,359.8,415.4,356.7,412.9z"/>
		<g>
			<path class="st0" d="M342.3,420.8c0.5,0.2,0.9,0.4,1.4,0.7c0.2,0.1,0.5,0.2,0.7,0.4c0.2,0.1,0.4,0.3,0.7,0.4
				c0.3,0.2,0.6,0.4,0.9,0.5c4.2-3.4,8.8-6.4,12.6-7.5c-0.7-1.1-1.3-1.9-1.9-2.3c-1.3-0.8-3-0.9-4.9-0.5c-3.7,1.5-7.8,4.3-11.6,7.5
				c0.3,0.1,0.5,0.2,0.8,0.3C341.4,420.4,341.9,420.6,342.3,420.8z"/>
			<path class="st0" d="M250.8,477c0.3,0.1,0.6,0.1,0.9,0.2c-4.9-4.7-7-11.7-8.1-21.8c-1.4-13.3,2-19.4,14.7-25.7
				c2.4-1.4,5.1-2.5,8.1-3.5c0.9-0.3,1.4-0.8,1.8-1.2c-0.3-0.2-0.6-0.3-0.8-0.5c-0.1,0-0.2-0.1-0.4-0.2c-0.1-0.1-0.3-0.1-0.5-0.2
				c-0.2-0.1-0.4-0.2-0.7-0.3c-0.2-0.1-0.5-0.2-0.8-0.4c-0.3-0.1-0.6-0.3-0.8-0.4c-0.5-0.3-1.1-0.6-1.7-0.9
				c-0.3,0.3-0.7,0.5-1.2,0.7c-3,1-5.8,2.1-8.1,3.5c-12.7,6.3-16.1,12.4-14.7,25.7C239.8,464.7,242.8,472.3,250.8,477z"/>
		</g>
	</g>
</g>
</svg>
