<?xml version="1.0" encoding="utf-8"?>
<!-- Generator: Adobe Illustrator 19.1.0, SVG Export Plug-In . SVG Version: 6.00 Build 0)  -->
<svg version="1.1" id="Isolation_Mode" xmlns="http://www.w3.org/2000/svg" xmlns:xlink="http://www.w3.org/1999/xlink" x="0px"
	 y="0px" viewBox="0 0 165.4 151.4" enable-background="new 0 0 165.4 151.4" xml:space="preserve">
<g>
	<g opacity="0.2">
		<g>
			<path fill="#746E00" d="M6.4,136.6c0,0-0.4,0.3-1,0.7c-0.3,0.2-0.7,0.5-1,0.9c-0.4,0.3-0.8,0.8-1.1,1.2c-0.3,0.5-0.4,0.9-0.2,1.2
				c0.2,0.3,0.6,0.7,1.2,1.1c0.6,0.4,1.3,0.7,2.1,1c0.8,0.3,1.6,0.6,2.4,0.8c0.8,0.3,1.6,0.5,2.5,0.7c0.8,0.2,1.6,0.5,2.4,0.7
				c1.6,0.5,3,0.9,4.3,1.2c1.3,0.4,2.3,0.7,3.1,1c0.7,0.3,1.2,0.4,1.2,0.4s-1.8,0.2-4.5,0c-0.7,0-1.4-0.1-2.2-0.2
				c-0.8-0.1-1.6-0.2-2.4-0.3c-0.8-0.1-1.7-0.3-2.5-0.5c-0.9-0.2-1.7-0.4-2.6-0.7c-0.9-0.3-1.7-0.6-2.6-1c-0.8-0.4-1.7-0.8-2.4-1.4
				c-0.7-0.6-1.5-1.3-1.8-2.4c-0.1-0.5-0.1-1.2,0.1-1.6c0.2-0.5,0.5-0.8,0.8-1.1c0.6-0.6,1.1-0.9,1.7-1.1c0.5-0.3,1-0.4,1.4-0.5
				C6,136.6,6.4,136.6,6.4,136.6z"/>
		</g>
		<g>
			<path fill="#746E00" d="M110.5,147.8c-2.5,0.4-5.1,0.7-7.6,1c-2.5,0.3-5.1,0.5-7.7,0.7l-7.7,0.5c-2.6,0.2-5.1,0.3-7.7,0.4l0-2.5
				l3.7-0.1l0,2.7l-10.7-0.1c-3.6-0.1-7.1-0.2-10.7-0.3c-3.6-0.1-7.1-0.4-10.7-0.7c-3.6-0.3-7.1-0.6-10.7-1.1
				c-3.5-0.5-7.1-0.9-10.6-1.6c-1.8-0.3-3.5-0.7-5.3-1.1c-1.7-0.4-3.5-0.8-5.2-1.3c-1.7-0.5-3.4-1-5.1-1.6c-0.5-0.2-0.8-0.3-1.3-0.5
				c-0.4-0.2-0.9-0.4-1.3-0.6c-0.8-0.4-1.7-0.9-2.4-1.9c-0.1-0.3-0.3-0.6-0.3-0.9c0-0.3,0.1-0.7,0.3-0.9c0.3-0.5,0.7-0.8,1.1-1.1
				c0.8-0.5,1.7-0.8,2.5-1.1c1.7-0.6,3.5-0.9,5.2-1.2c-1.7,0.5-3.4,1.1-5,1.8c-0.8,0.4-1.6,0.8-2.2,1.3c-0.3,0.3-0.6,0.5-0.7,0.8
				c-0.1,0.3-0.1,0.5,0.1,0.7c0.4,0.5,1.2,0.9,1.9,1.2c0.4,0.2,0.8,0.3,1.2,0.4l1.3,0.4c1.7,0.4,3.4,0.9,5.2,1.2
				c1.7,0.4,3.5,0.7,5.2,1c1.7,0.3,3.5,0.6,5.2,0.8c1.8,0.2,3.5,0.5,5.3,0.7c1.8,0.2,3.5,0.4,5.3,0.6c3.5,0.3,7,0.6,10.6,0.9
				c1.8,0.1,3.5,0.2,5.3,0.3l5.3,0.3l5.3,0.3l5.3,0.2l10.6,0.4l0,2.7l-3.7-0.1l0-2.5l15.3,0L110.5,147.8z"/>
		</g>
		<g>
			<path fill="#746E00" d="M148.7,134c0,0,0.6,0.1,1.7,0.4c0.5,0.1,1.2,0.3,1.9,0.6c0.7,0.3,1.5,0.7,2.3,1.3
				c0.4,0.3,0.8,0.7,1.1,1.4c0.3,0.6,0.3,1.5,0,2.2c-0.7,1.4-1.8,2-2.9,2.6c-1.1,0.6-2.2,1-3.4,1.4c-1.2,0.4-2.3,0.7-3.5,1
				c-1.2,0.3-2.4,0.6-3.6,0.8c-1.2,0.2-2.3,0.4-3.5,0.6c-1.1,0.2-2.2,0.3-3.3,0.5c-1,0.1-2,0.2-2.9,0.3c-1.8,0.1-3.3,0.2-4.4,0.2
				c-1.1,0-1.7,0-1.7,0s2.4-0.7,5.9-1.6c1.8-0.4,3.8-0.9,6-1.5c1.1-0.3,2.2-0.5,3.4-0.9c1.1-0.3,2.3-0.6,3.5-0.9
				c1.1-0.3,2.3-0.6,3.4-0.9c1.1-0.3,2.2-0.7,3.1-1.1c0.9-0.4,1.8-1,2.1-1.5c0.2-0.2,0.2-0.4,0.1-0.7c-0.1-0.3-0.3-0.6-0.5-0.9
				c-0.5-0.6-1.2-1.1-1.7-1.5c-0.6-0.4-1.1-0.8-1.6-1C149.2,134.2,148.7,134,148.7,134z"/>
		</g>
		<g>
			<path fill="#746E00" d="M157.9,135.8c0,0,0.4,0.1,1.2,0.4c0.4,0.1,0.8,0.4,1.3,0.6c0.5,0.3,1,0.6,1.5,1.1c0.5,0.5,1,1.3,1,2.3
				c0,1-0.6,1.8-1.3,2.5c-0.7,0.6-1.4,1.2-2.2,1.6c-0.8,0.5-1.6,0.9-2.5,1.3c-0.8,0.4-1.7,0.7-2.5,1.1c-0.8,0.3-1.7,0.6-2.5,0.9
				c-0.8,0.2-1.6,0.4-2.4,0.6c-0.8,0.2-1.5,0.3-2.2,0.3c-1.3,0.2-2.5,0.2-3.3,0.2c-0.8,0-1.3,0-1.3,0l0-0.2c0,0,0.4-0.2,1.1-0.5
				c0.4-0.2,0.8-0.3,1.3-0.5c0.5-0.2,1.1-0.4,1.7-0.6c0.6-0.2,1.3-0.4,2-0.7c0.7-0.2,1.5-0.5,2.3-0.7c0.8-0.2,1.6-0.4,2.5-0.6
				c0.8-0.2,1.7-0.5,2.5-0.7c0.8-0.3,1.6-0.6,2.4-1c0.8-0.4,1.5-0.8,2.1-1.2c0.6-0.5,1-1,1.1-1.6c0.1-0.6-0.2-1.2-0.6-1.6
				c-0.8-1-1.8-1.5-2.4-1.9c-0.7-0.4-1.1-0.6-1.1-0.6L157.9,135.8z"/>
		</g>
	</g>
	<g>
		<path fill="#FFDD30" d="M151.6,66.4c-4.7-2.9-13.8,2.4-21.7,8.9c0.3,0.1,0.6,0.2,0.9,0.3c0.5,0.2,1,0.4,1.6,0.7
			c0.5,0.2,1.1,0.5,1.6,0.8c0.3,0.1,0.5,0.3,0.8,0.4c0.3,0.1,0.5,0.3,0.8,0.4c0.5,0.3,1,0.6,1.5,0.9c0.5,0.3,0.9,0.6,1.3,0.9
			c0.2,0.1,0.4,0.3,0.6,0.4c0.2,0.1,0.4,0.3,0.5,0.4c0.3,0.3,0.7,0.5,0.9,0.7c0.3,0.2,0.5,0.4,0.7,0.6c0.4,0.3,0.6,0.5,0.6,0.5
			s-0.2-0.2-0.6-0.5c-0.2-0.1-0.4-0.3-0.7-0.5c-0.3-0.2-0.6-0.4-1-0.6c-0.2-0.1-0.4-0.2-0.6-0.4c-0.2-0.1-0.4-0.2-0.6-0.4
			c-0.4-0.2-0.9-0.5-1.4-0.8c-0.5-0.2-1-0.5-1.5-0.7c-0.3-0.1-0.5-0.2-0.8-0.4c-0.3-0.1-0.5-0.2-0.8-0.3c-0.5-0.2-1.1-0.4-1.6-0.6
			c-0.5-0.2-1.1-0.4-1.6-0.5c-0.5-0.2-1-0.3-1.5-0.4c-0.1,0-0.1,0-0.2,0c-8.4-1.8-17.8-2.6-26.8-2.9c-7.4,7.3-18,11.9-30,11.9
			c-8.1,0-15.5-2-21.5-5.6c-0.1,0-0.2-0.1-0.5-0.2c-0.2-0.1-0.4-0.1-0.6-0.2c-0.2-0.1-0.5-0.2-0.7-0.3c-0.3-0.1-0.6-0.3-0.9-0.4
			c-0.3-0.1-0.6-0.3-1-0.5c-0.7-0.3-1.4-0.7-2-1.1c-0.5-0.3-1.1-0.7-1.6-1c-0.1,1-0.7,2.1-2.6,2.8c-3.4,1.1-6.5,2.4-9.2,3.9
			c-14.4,7.1-18.2,14.1-16.6,29.1c1.3,11.9,3.8,20,9.9,25.4c11,3.5,52.3,14,116.8-0.2c9.6-5.5,14.3-13,16.7-20.1l0,0
			C165.6,97.6,156.4,69.7,151.6,66.4z"/>
		<g>
			<path fill="#FFE364" d="M135.3,75.4c0.5,0.2,1.1,0.5,1.6,0.8c0.3,0.1,0.5,0.3,0.8,0.4c0.3,0.1,0.5,0.3,0.8,0.4
				c0.4,0.2,0.7,0.4,1,0.6c4.8-3.9,10-7.2,14.3-8.5c-0.8-1.3-1.5-2.2-2.1-2.6c-1.5-0.9-3.4-1-5.6-0.5c-4.1,1.7-8.9,4.9-13.2,8.5
				c0.3,0.1,0.6,0.2,0.9,0.3C134.2,74.9,134.8,75.1,135.3,75.4z"/>
			<path fill="#FFE364" d="M31.8,138.9c0.3,0.1,0.7,0.2,1,0.2c-5.5-5.4-8-13.2-9.2-24.7c-1.6-15.1,2.2-22,16.6-29.1
				c2.7-1.5,5.8-2.8,9.2-3.9c1-0.4,1.6-0.9,2-1.4c-0.3-0.2-0.6-0.3-0.9-0.5c-0.1,0-0.2-0.1-0.5-0.2c-0.2-0.1-0.4-0.1-0.6-0.2
				c-0.2-0.1-0.5-0.2-0.7-0.3c-0.3-0.1-0.6-0.3-0.9-0.4c-0.3-0.1-0.6-0.3-1-0.5c-0.6-0.3-1.3-0.7-1.9-1.1c-0.4,0.3-0.8,0.6-1.4,0.8
				c-3.4,1.1-6.5,2.4-9.2,3.9C20,88.7,16.2,95.6,17.8,110.7C19.3,125,22.7,133.7,31.8,138.9z"/>
		</g>
		<path fill="#FFDD30" d="M92.5,10.6c-0.4-3.2-1.1-5.6-2-6.6C87,0,76.8,2.7,67.5,6.9c-20.6,3.5-29.8,22.3-32.2,42.5
			C33,69.6,49.7,85.2,72,85.2c21.6,0,39-14.8,40.4-33.9C113.7,33.7,105.7,17.9,92.5,10.6z"/>
		<path fill="#E9B008" d="M92.5,10.6c13.2,7.3,15.3,24.7,14.2,37.9c-1.6,19.1-18.8,33.9-40.4,33.9c-5.7,0-11-1-15.7-2.8
			c6,3.6,13.3,5.6,21.4,5.6c21.6,0,39-14.8,40.4-33.9C113.7,33.7,105.7,17.9,92.5,10.6"/>
		<path fill="#E9B008" d="M66.5,16.7c0,0,0.2-0.2,0.5-0.5c0.3-0.3,0.9-0.7,1.6-1.1c0.4-0.2,0.8-0.4,1.2-0.6c0.4-0.2,0.9-0.3,1.4-0.5
			c0.5-0.1,1.1-0.2,1.7-0.2c0.3,0,0.6,0,0.9,0c0.3,0,0.6,0.1,0.9,0.1c0.6,0.1,1.2,0.3,1.7,0.6c0.5,0.3,1,0.6,1.4,1
			c0.2,0.2,0.4,0.4,0.6,0.6c0.2,0.2,0.3,0.4,0.4,0.6c0.3,0.4,0.4,0.8,0.6,1.2c0.1,0.4,0.2,0.7,0.3,1.1c0.1,0.3,0.1,0.6,0.1,0.8
			c0,0.5,0,0.7,0,0.7s-0.2-0.2-0.5-0.6c-0.1-0.2-0.3-0.4-0.5-0.6c-0.2-0.2-0.4-0.5-0.7-0.7c-0.3-0.2-0.5-0.5-0.8-0.7
			c-0.1-0.1-0.1-0.1-0.2-0.2c-0.1-0.1-0.2-0.1-0.2-0.2c-0.1-0.1-0.2-0.1-0.2-0.2c-0.1-0.1-0.2-0.1-0.2-0.2c-0.2-0.1-0.3-0.2-0.5-0.3
			c-0.1-0.1-0.2-0.1-0.3-0.1c-0.1,0-0.2-0.1-0.3-0.1c-0.4-0.1-0.8-0.3-1.2-0.3c-0.4-0.1-0.8-0.1-1.3-0.2c-0.4,0-0.9,0-1.3,0
			c-0.4,0-0.9,0-1.3,0.1c-0.4,0-0.8,0.1-1.2,0.1C67.6,16.6,66.5,16.7,66.5,16.7z"/>
		<path fill="#FFE96D" d="M86.5,2.1c-1.6-0.2-11.9,2.5-19,5.7c-20.6,3.5-29.8,22.3-32.2,42.5c-0.1,1.1-0.2,2.2-0.2,3.2
			c0.1,9.5,4.5,17.6,11.6,23.3c-5-6.1-7.5-14-6.5-22.7c2.3-20.2,11.6-39,32.2-42.5C79.5,8.4,87.1,6.1,91.9,7
			C91.5,5.6,91.1,2.7,86.5,2.1z"/>
		<path fill="#FFE364" d="M86.5,2.1c-1.6-0.2-11.9,2.5-19,5.7c-20.6,3.5-29.8,22.3-32.2,42.5c-0.1,1.1-0.2,2.2-0.2,3.2
			c0.1,9.5,4.5,17.6,11.6,23.3c-5-6.1-7.5-14-6.5-22.7c2.3-20.2,11.6-39,32.2-42.5C79.5,8.4,87.1,6.1,91.9,7
			C91.5,5.6,91.1,2.7,86.5,2.1z"/>
		<g>
			<g>
				<path fill="#FFFFFF" d="M55.9,31.2c-2.6,5.2-7.5,8.2-10.8,6.6c-3.3-1.5-3.9-7-1.3-12.2c2.6-5.2,7.5-8.2,10.8-6.6
					C58,20.6,58.5,26,55.9,31.2z"/>
				<g>
					<path fill="#E9B008" d="M55.9,31.2c0,0-0.1,0.2-0.3,0.5c-0.2,0.4-0.5,0.9-0.9,1.5c-0.8,1.2-2.2,3-4.5,4.3
						c-1.1,0.6-2.6,1.2-4.1,1c-0.4,0-0.8-0.2-1.2-0.3c-0.4-0.2-0.7-0.3-1.1-0.6c-0.7-0.5-1.2-1.2-1.6-2c-0.4-0.8-0.6-1.6-0.7-2.5
						c-0.1-0.9-0.1-1.8,0-2.6c0.2-1.8,0.8-3.5,1.6-5.1c0.2-0.4,0.4-0.8,0.7-1.1c0.2-0.4,0.5-0.8,0.8-1.1c0.5-0.7,1.1-1.4,1.7-2
						c1.3-1.2,2.8-2.2,4.4-2.6c0.8-0.2,1.7-0.3,2.5-0.2c0.8,0.1,1.6,0.5,2.2,0.9c1.3,1,1.8,2.5,2.1,3.7c0.4,2.6-0.2,4.8-0.7,6.2
						c-0.3,0.7-0.5,1.3-0.7,1.6C56,31,55.9,31.2,55.9,31.2z M55.9,31.2c0,0,0.1-0.2,0.3-0.6c0.2-0.4,0.4-0.9,0.6-1.6
						c0.2-0.7,0.5-1.6,0.6-2.6c0.1-1,0.2-2.2-0.1-3.5c-0.3-1.2-0.8-2.6-2-3.5c-0.6-0.4-1.3-0.7-2.1-0.8c-0.8-0.1-1.5,0-2.3,0.3
						c-1.5,0.5-2.9,1.4-4.1,2.6c-1.2,1.2-2.2,2.6-3,4.1c-0.8,1.5-1.3,3.2-1.6,4.8c-0.2,1.7-0.1,3.4,0.5,4.8c0.6,1.5,1.9,2.6,3.4,2.8
						c1.4,0.2,2.8-0.2,4-0.8c2.3-1.2,3.7-2.9,4.5-4.1c0.4-0.6,0.7-1.1,0.9-1.5C55.8,31.4,55.9,31.2,55.9,31.2z"/>
				</g>
			</g>
			<path fill="#1D1E1C" d="M46.7,28.4c1.1-2.3,3.6-3.4,5.6-2.5c1.9,0.9,2.5,3.4,1.4,5.7S50,35,48.1,34.1S45.5,30.7,46.7,28.4z"/>
			<path fill="#5B5959" d="M52.3,25.9c-0.6-0.3-1.3-0.4-2-0.3c0.4,0,0.8,0.1,1.2,0.3c1.9,0.9,2.5,3.4,1.4,5.7
				c-0.8,1.5-2.2,2.5-3.6,2.7c1.7,0.1,3.5-1,4.4-2.8C54.8,29.4,54.2,26.8,52.3,25.9z"/>
			<path fill="#FFFFFF" d="M52.1,27.2c0.3-0.5,0.9-0.8,1.3-0.6c0.5,0.2,0.6,0.8,0.3,1.4c-0.3,0.5-0.9,0.8-1.3,0.6
				C52,28.3,51.8,27.7,52.1,27.2z"/>
		</g>
		<g>
			<g>
				<path fill="#FFFFFF" d="M75.8,36.7c-3.3,6.3-10.1,9.5-15.1,7.1s-6.4-9.4-3.1-15.7c3.3-6.3,10.1-9.5,15.1-7.1
					S79.1,30.4,75.8,36.7z"/>
				<g>
					<path fill="#E9B008" d="M75.8,36.7c0,0-0.1,0.2-0.4,0.7c-0.3,0.5-0.7,1.1-1.3,1.9c-0.6,0.8-1.4,1.7-2.5,2.5
						c-1.1,0.9-2.4,1.7-4,2.2c-1.6,0.5-3.5,0.8-5.4,0.3c-1-0.2-1.9-0.7-2.7-1.3c-0.8-0.6-1.6-1.4-2.1-2.3c-1.1-1.8-1.6-4.1-1.5-6.3
						c0.1-2.2,0.8-4.5,1.8-6.5c1.1-2,2.5-3.8,4.3-5.2c1.7-1.4,3.8-2.3,5.9-2.6c1.1-0.2,2.1-0.1,3.1,0.1c1,0.2,1.9,0.6,2.8,1.1
						c1.6,1.1,2.7,2.7,3.3,4.3c0.6,1.6,0.7,3.2,0.6,4.6c-0.1,1.4-0.3,2.6-0.6,3.5c-0.3,0.9-0.6,1.7-0.8,2.1
						C75.9,36.4,75.8,36.7,75.8,36.7z M75.7,36.7c0,0,0.1-0.3,0.3-0.7c0.2-0.5,0.5-1.2,0.8-2.1c0.3-0.9,0.5-2.1,0.6-3.5
						c0-1.4-0.1-2.9-0.7-4.5c-0.3-0.8-0.7-1.5-1.3-2.2c-0.5-0.7-1.2-1.3-2-1.8c-0.9-0.5-1.7-0.8-2.7-1c-1-0.2-2-0.2-2.9,0
						c-2,0.4-3.9,1.3-5.6,2.6c-0.8,0.7-1.6,1.4-2.3,2.3c-0.7,0.8-1.2,1.7-1.8,2.7c-1,1.9-1.7,4-1.8,6.1c-0.1,1.1,0,2.1,0.2,3.1
						c0.2,1,0.6,2,1.1,2.8c0.5,0.9,1.2,1.6,1.9,2.2c0.8,0.6,1.6,1,2.5,1.3c1.8,0.5,3.7,0.3,5.2-0.1c1.6-0.5,2.9-1.3,4-2.1
						c1.1-0.9,1.9-1.7,2.5-2.5c0.6-0.8,1-1.4,1.3-1.9C75.6,36.9,75.7,36.7,75.7,36.7z"/>
				</g>
			</g>
			<g>
				<path fill="#1D1E1C" d="M63.1,31.2c1.4-2.7,4.9-3.8,7.8-2.5s4,4.7,2.6,7.4c-1.4,2.7-4.9,3.8-7.8,2.5
					C62.8,37.2,61.6,33.9,63.1,31.2z"/>
			</g>
			<g>
				<path fill="#5B5959" d="M70.9,28.7c-1.1-0.5-2.3-0.7-3.5-0.5c0.8,0,1.5,0.2,2.2,0.6c2.9,1.4,4,4.7,2.6,7.4
					c-0.9,1.7-2.5,2.7-4.4,3c2.3,0.1,4.5-1,5.6-3C74.9,33.4,73.8,30.1,70.9,28.7z"/>
			</g>
			<path fill="#FFFFFF" d="M70,30c0.4-0.7,1.2-0.9,1.9-0.6c0.7,0.3,1,1.2,0.6,1.8s-1.2,0.9-1.9,0.6C70,31.5,69.7,30.7,70,30z"/>
		</g>
		<path fill="#FFDD30" d="M69.1,46.4c-0.9,3-8.1,3.7-16.1,1.6s-13.7-6.3-12.8-9.3c0.9-3,8.1-3.7,16.1-1.6S70,43.4,69.1,46.4z"/>
		<path fill="#FFE364" d="M40.2,38.6c-0.4,1.3,0.4,2.7,2.1,4.2c0.6-2.3,1.4-4.6,2.2-6.8C42.2,36.4,40.6,37.3,40.2,38.6z"/>
		<g>
			<path fill="#FFDD30" d="M158.9,109.7c-0.5,6-2.3,13.3-9.5,18.3c-6.6,5.2-17.2,7.2-26.1,7.9c-28.2,2.3-32.3-1.1-37.8-19.5
				c-1.7-5.6-0.3-14,6.6-19.2c6.4-5.5,18.9-7.9,28.2-8.5c9.3-1.3,22.2-1.5,29.4,2.8C157.3,95.5,159.4,103.7,158.9,109.7z"/>
		</g>
		<path fill="#E9B008" d="M159,107.5c0-0.1,0-0.2,0-0.2c0-0.3,0-0.7-0.1-1c0,0,0-0.1,0-0.1c0,0,0,0,0,0c-0.1-0.8-0.2-1.5-0.3-2.3
			c0,0,0,0,0-0.1c0,0,0,0,0-0.1c0-0.1,0-0.2-0.1-0.3c0,0,0,0,0,0c0-0.1,0-0.1,0-0.2c0-0.2-0.1-0.4-0.1-0.6c-0.1-0.2-0.1-0.4-0.2-0.6
			c0-0.2-0.1-0.3-0.2-0.5c-0.1-0.4-0.2-0.7-0.4-1.1c-0.1-0.1-0.1-0.3-0.2-0.4c-0.1-0.2-0.2-0.4-0.3-0.6c-0.1-0.1-0.1-0.2-0.2-0.4
			c-0.2-0.4-0.4-0.7-0.6-1.1c0,0,0,0,0,0c-0.3-0.6-0.7-1.1-1.1-1.6c0,0,0,0,0,0c-1.4-1.9-3.3-3.6-5.7-4.8
			c-4.3-2.6-10.7-3.5-17.1-3.6c5.6,0.3,11,1.3,14.8,3.5c3,1.5,5.1,3.6,6.6,6c0,0,0,0-0.1,0c-6.6,5.2-17.2,7.2-26.1,7.9
			c-9.9,0.8-16.8,0.9-21.9-0.1c5.2,1.6,12.7,1.6,24.3,0.7c8.3-0.7,18.1-2.5,24.7-6.9c0.9,2,1.5,4.2,1.7,6.2
			c-0.7,0.7-1.5,1.3-2.3,1.9c-6.6,5.2-17.2,7.2-26.1,7.9c-9.9,0.8-16.8,0.9-21.9-0.1c5.2,1.6,12.7,1.6,24.3,0.7
			c8.9-0.7,19.5-2.7,26.1-7.9c-0.5,3.3-1.4,6.9-3.5,10.2c-6.6,4.4-16.3,6.1-24.6,6.8c-9.9,0.8-16.8,0.9-21.9-0.1
			c5.2,1.6,12.7,1.6,24.3,0.7c6.3-0.5,13.6-1.7,19.6-4.2c-0.9,1-2,1.9-3.2,2.7c-6.6,5.2-17.2,7.2-26.1,7.9
			c-19.2,1.6-27.2,0.5-32.1-6.2c4.1,8.6,9.9,11.1,25.4,10.6c0,0,0,0,0,0c0.6,0,1.2-0.1,1.9-0.1c0.1,0,0.2,0,0.4,0
			c0.5,0,1.1-0.1,1.7-0.1c0.2,0,0.4,0,0.5,0c0.5,0,1.1-0.1,1.7-0.1c0.2,0,0.4,0,0.6,0c0.7-0.1,1.5-0.1,2.3-0.2
			c8.9-0.7,19.6-2.8,26.1-7.9c4.3-3,6.7-6.8,8-10.6l0,0l0,0c0.1-0.3,0.2-0.6,0.3-0.8c0-0.1,0-0.1,0-0.2c0.1-0.3,0.2-0.6,0.2-0.9
			c0,0,0,0,0,0c0.1-0.3,0.1-0.6,0.2-0.9c0,0,0-0.1,0-0.1c0.1-0.3,0.1-0.6,0.2-0.9l0,0v0c0.3-1.4,0.4-2.7,0.5-4c0-0.3,0-0.7,0.1-1
			c0-0.1,0-0.2,0-0.3C159,108.1,159,107.8,159,107.5z"/>
		<g>
			<path fill="#FFE364" d="M86.2,117.2c-1.7-5.6-0.3-14,6.6-19.2c6.4-5.5,18.9-7.9,28.2-8.5c3.9-0.5,8.4-0.9,12.9-0.8
				c3.2-0.1,6.5,0.1,9.6,0.5c-7.2-1.8-16.3-1.4-23.3-0.5c-9.3,0.6-21.8,2.9-28.2,8.5c-6.9,5.2-8.3,13.6-6.6,19.2
				c2.3,7.6,4.3,12.6,7.9,15.7C90.3,129,88.4,124.2,86.2,117.2z"/>
		</g>
		<g>
			<defs>
				<path id="SVGID_1_" d="M159.7,111.5c-2.1,9.3-7.2,20.5-22.2,27.3c-13.9,7.2-35.1,8.8-52.6,8.7c-55.4-0.4-62.8-6.3-70-35.9
					c-2.2-9,2.2-22,16.6-29.1c13.6-7.7,38.5-9.6,56.7-9.2c18.4-0.7,43.6,0.9,56.9,8.6C159.4,89.1,161.8,102.2,159.7,111.5z"/>
			</defs>
			<clipPath id="SVGID_2_">
				<use xlink:href="#SVGID_1_"  overflow="visible"/>
			</clipPath>
		</g>
		<path fill="#A05B49" d="M72.6,60.4c0,0-1.9,4.2-8.4,7.3c-9.8,4.7-26.9,8-38.2-1.7C25.9,66.1,68,61,72.6,60.4z"/>
		<path fill="#FF674C" d="M49.9,37.3c-3.7,0.8-10,2.6-13.5,1.1c-1.6-0.7-3.2-2.7-4.8-3.7c-2.5-1.5-5.4-2.5-8.3-1.5
			c-12.5,4.2-1.3,18.7,3.6,23.5c-3.3,0.9-6.1,3.8-3.8,7.1c1.4,2,3.9,3.2,6.2,4c6.9,2.5,15,1.2,21.9-0.3c6.1-1.3,11.9-3.7,17.8-5.7
			c1.9-0.7,3.5-1.2,3.5-1.2s1.8-4.8,1.1-6.1C67.9,48.5,57.6,40.2,49.9,37.3z"/>
		<path fill="#A05B49" d="M70.3,59c-4.7,1.7-10.4,1.8-15.1,0.1c-6.9-2.6-12.2-9.3-16.6-14.9c-2.2-2.8-4.8-7-8.1-8.6
			c-5.7-2.7-12.1,0.9-11.6,7.2c0.5,5.9,5.1,9.2,8,13.9c-2.6,1.5-2.6,3.9-0.9,6.1c1.9,2.5,5.1,3.2,8.1,3.5C46.4,67.3,59,63.1,70.3,59
			z"/>
		<path fill="#FF9176" d="M26.9,56.7c-2.6,1.5-2.6,3.9-0.9,6.1c1.9,2.5,5.1,3.2,8.1,3.5C46.4,67.3,59,63.1,70.3,59
			c-0.3,0.1-0.5,0.2-0.8,0.2c-10.9,3.9-22.9,7.8-34.6,6.8c-3-0.3-6.1-1-8.1-3.5C25.1,60.3,24.3,58.1,26.9,56.7"/>
		<g>
			<path fill="#B07261" d="M36.1,56.9c-4-0.8-5.7-0.8-7.4,0.2c-3,1.6-4.7,12.4,30.5,3.9C58.6,61.1,57.4,61.1,36.1,56.9z"/>
		</g>
		<path fill="#FF9176" d="M73.1,55.6c0.3-0.1,0.5-0.2,0.7-0.3c0-0.4,0-0.7-0.2-1c-3.5-3.5-8.8-8-14-11.7c-0.7-0.5-1.5-1-2.2-1.5
			c0,0,4.1,3.5,4.3,3.7c0.2,0.1,0.4,0.3,0.5,0.4c0.2,0.1,0.4,0.3,0.5,0.4s0.4,0.3,0.5,0.4c0.2,0.1,0.4,0.3,0.5,0.4
			c0.2,0.1,0.4,0.3,0.5,0.4c0.2,0.1,0.4,0.3,0.5,0.4c0.2,0.1,0.4,0.3,0.5,0.4c0.2,0.1,0.3,0.3,0.5,0.4c0.3,0.3,0.7,0.6,1,0.9
			c0.3,0.3,0.7,0.6,1,0.9c0.3,0.3,0.7,0.6,1,0.9c0.3,0.3,0.6,0.6,1,0.9c0.2,0.2,0.4,0.4,0.6,0.6c0.2,0.2,0.4,0.4,0.6,0.6
			c0.2,0.2,0.4,0.4,0.6,0.6c0.2,0.2,0.4,0.4,0.5,0.6c0,0-0.1,0-0.1,0c0,0-0.1,0-0.1,0c0,0-0.1,0-0.1,0c0,0-0.1,0-0.1,0
			c-0.2,0.1-0.4,0.1-0.5,0.2c-0.2,0.1-0.4,0.1-0.5,0.2c-0.2,0.1-0.4,0.1-0.5,0.1c-0.2,0-0.4,0.1-0.5,0.1c-0.2,0-0.4,0.1-0.5,0.1
			c-0.2,0-0.4,0.1-0.5,0.1c-0.2,0-0.4,0.1-0.5,0.1c-0.2,0-0.4,0.1-0.5,0.1c-0.1,0-0.3,0-0.4,0s-0.3,0-0.4,0c-0.1,0-0.3,0-0.4,0
			c-0.1,0-0.3,0-0.4,0c-0.1,0-0.1,0-0.2,0c-0.1,0-0.1,0-0.2,0c-0.1,0-0.1,0-0.2,0s-0.1,0-0.2,0c-0.4,0-0.7,0-1.1,0
			c-0.4,0-0.7,0-1.1,0c-0.4,0-0.7,0-1.1-0.1c-0.4,0-0.7-0.1-1.1-0.1c-0.1,0-0.2,0-0.3,0c-0.1,0-0.2,0-0.3,0c-0.1,0-0.2,0-0.3,0
			c-0.1,0-0.2,0-0.3,0c-0.1,0-0.2,0-0.3-0.1c-0.1,0-0.2,0-0.3-0.1c-0.1,0-0.2,0-0.3-0.1c-0.1,0-0.2,0-0.3-0.1
			c-0.2,0-0.4-0.1-0.5-0.1c-0.2,0-0.4-0.1-0.5-0.1c-0.2,0-0.4-0.1-0.5-0.1c-0.2-0.1-0.4-0.1-0.5-0.2c-0.2-0.1-0.4-0.1-0.5-0.2
			c-0.2-0.1-0.3-0.1-0.5-0.2c-0.2-0.1-0.3-0.1-0.5-0.2c-0.2-0.1-0.3-0.1-0.5-0.2c-0.2-0.1-0.3-0.1-0.5-0.2c-0.2-0.1-0.3-0.1-0.5-0.2
			c-0.2-0.1-0.3-0.1-0.5-0.2c-0.2-0.1-0.3-0.2-0.5-0.2c-0.2-0.1-0.3-0.2-0.5-0.2c-0.2-0.1-0.3-0.2-0.5-0.2c-0.2-0.1-0.3-0.2-0.5-0.3
			s-0.3-0.2-0.5-0.3c-0.2-0.1-0.3-0.2-0.5-0.3c-0.2-0.1-0.3-0.2-0.5-0.3c-0.2-0.1-0.3-0.2-0.5-0.3c-0.2-0.1-0.3-0.2-0.5-0.3
			c-0.2-0.1-0.3-0.2-0.5-0.3c-0.2-0.1-0.3-0.2-0.5-0.3c-0.2-0.1-0.3-0.2-0.5-0.3c-0.2-0.1-0.3-0.2-0.5-0.3c-0.2-0.1-0.3-0.2-0.5-0.3
			c-0.2-0.1-0.3-0.2-0.5-0.3c-0.2-0.1-0.3-0.2-0.5-0.3c-0.2-0.1-0.3-0.2-0.5-0.3c-0.1-0.1-0.2-0.2-0.3-0.2c-0.1-0.1-0.2-0.2-0.3-0.2
			c-0.1-0.1-0.2-0.2-0.3-0.2c-0.1-0.1-0.2-0.2-0.3-0.2c0.7,0.6,1.5,1.3,2.3,1.9c0.8,0.6,1.6,1.3,2.5,1.9c0.9,0.6,1.7,1.2,2.6,1.8
			c0.9,0.6,1.8,1.2,2.8,1.7c1,0.6,2,1,3,1.4c1,0.4,2,0.6,3,0.8c1,0.2,2,0.3,2.9,0.3c1,0,1.9,0,2.8,0c1.1-0.1,2.1-0.2,3-0.4
			c0.9-0.2,1.8-0.4,2.5-0.6C72,56,72.6,55.8,73.1,55.6z"/>
		<path fill="#FF9176" d="M39.5,42.2c0.2,0.2,0.4,0.4,0.6,0.6c0.2,0.2,0.3,0.4,0.5,0.6c0.1,0.1,0.2,0.2,0.2,0.3
			c0.1,0.1,0.1,0.2,0.2,0.2c0.1,0.1,0.1,0.1,0.2,0.2c0.1,0.1,0.1,0.1,0.1,0.2c0,0.1,0.1,0.1,0.1,0.1c0,0,0.1,0.1,0.1,0.1
			c0,0,0,0,0.1,0.1c0,0,0,0,0,0s0,0,0,0c0,0,0,0,0-0.1c0,0,0-0.1-0.1-0.1c0,0,0-0.1-0.1-0.2c0-0.1-0.1-0.1-0.1-0.2
			c0-0.1-0.1-0.2-0.1-0.2c0-0.1-0.1-0.2-0.1-0.3c-0.1-0.1-0.1-0.2-0.2-0.3c-0.1-0.1-0.1-0.2-0.2-0.3c-0.1-0.1-0.1-0.2-0.2-0.3
			c-0.1-0.1-0.2-0.2-0.2-0.3c-0.1-0.1-0.2-0.2-0.3-0.4c-0.1-0.1-0.2-0.2-0.3-0.4c-0.1-0.1-0.2-0.2-0.3-0.4c-0.1-0.1-0.2-0.2-0.3-0.4
			c-0.1-0.1-0.2-0.2-0.3-0.4c-0.1-0.1-0.2-0.2-0.3-0.3c-0.1-0.1-0.2-0.2-0.3-0.3c-0.1-0.1-0.2-0.2-0.4-0.3s-0.2-0.2-0.4-0.3
			c-0.1-0.1-0.2-0.2-0.4-0.3c-0.1-0.1-0.2-0.2-0.3-0.3c-0.1-0.1-0.2-0.2-0.3-0.2c-0.1,0-0.1-0.1-0.2-0.1c-0.3-0.1-0.6-0.3-0.8-0.5
			c-0.1-0.1-0.3-0.2-0.4-0.2c-0.1-0.1-0.2-0.1-0.3-0.2c-0.1,0-0.1-0.1-0.1-0.1s0,0,0.1,0.1s0.1,0.1,0.3,0.2c0.1,0.1,0.2,0.2,0.4,0.3
			c0.1,0.1,0.3,0.3,0.5,0.4c0.2,0.2,0.4,0.3,0.6,0.5c0.2,0.2,0.4,0.4,0.6,0.6c0.2,0.2,0.4,0.4,0.7,0.6c0.2,0.2,0.4,0.4,0.7,0.7
			c0.2,0.2,0.4,0.5,0.6,0.7C39.1,41.7,39.3,41.9,39.5,42.2z"/>
		<path fill="#E9B008" d="M49,15.6c0,0,0.1-0.2,0.3-0.5c0.2-0.3,0.5-0.8,1-1.2c0.5-0.5,1.1-0.9,1.9-1.3c0.2-0.1,0.4-0.2,0.6-0.2
			c0.2-0.1,0.5-0.1,0.7-0.2c0.5-0.1,1-0.2,1.5-0.1c0.3,0,0.5,0,0.8,0.1c0.3,0,0.5,0.1,0.7,0.2c0.2,0.1,0.5,0.2,0.7,0.3
			c0.1,0.1,0.2,0.1,0.3,0.2c0.1,0.1,0.2,0.1,0.3,0.2c0.2,0.1,0.4,0.3,0.5,0.4c0.2,0.1,0.3,0.3,0.5,0.4c0.1,0.1,0.3,0.3,0.4,0.4
			c0.1,0.2,0.2,0.3,0.3,0.4c0.2,0.3,0.3,0.6,0.4,0.8c0.1,0.2,0.2,0.5,0.2,0.7c0.1,0.4,0.1,0.6,0.1,0.6s-0.2-0.1-0.5-0.3
			c-0.2-0.1-0.4-0.2-0.6-0.3c-0.2-0.1-0.5-0.3-0.7-0.4c-0.1-0.1-0.3-0.1-0.4-0.2c-0.1,0-0.1-0.1-0.2-0.1c-0.1,0-0.1-0.1-0.2-0.1
			c-0.1-0.1-0.3-0.1-0.4-0.2c-0.1-0.1-0.3-0.1-0.4-0.2c-0.3-0.1-0.6-0.2-0.9-0.2c-0.2,0-0.3,0-0.5-0.1c-0.2,0-0.3,0-0.5,0
			c-0.3,0-0.6,0-1,0c-0.3,0-0.7,0.1-1,0.2c-0.7,0.1-1.3,0.3-1.9,0.5C49.8,15.3,49,15.6,49,15.6z"/>
		<path fill="#E9B008" d="M123,140.3l6.2-1.4l4.2-5.1c-45.8,11.1-82.7,8.1-94.8,6.7C55.3,143.7,84.1,146.6,123,140.3z"/>
		<path fill="#E9B008" d="M151.6,66.4c5.4,8,5.2,30.6-1.1,46.9l0,0c-2.8,8-8.4,16.7-20.8,22.2c-7.5,3.9-17.1,6.1-27.1,7.3
			c11.8-1.1,24.8-3,38.9-6.1c9.6-5.5,14.3-13,16.7-20.1l0,0C166.5,91.2,155.1,69.3,151.6,66.4z"/>
	</g>
</g>
</svg>
