<?xml version="1.0" encoding="utf-8"?>
<!-- Generator: Adobe Illustrator 19.1.0, SVG Export Plug-In . SVG Version: 6.00 Build 0)  -->
<svg version="1.1" id="Layer_1" xmlns="http://www.w3.org/2000/svg" xmlns:xlink="http://www.w3.org/1999/xlink" x="0px" y="0px"
	 viewBox="-29 354.4 385 133.5" style="enable-background:new -29 354.4 385 133.5;" xml:space="preserve">
<style type="text/css">
	.st0{fill:#FF6666;}
</style>
<g>
	<g>
		<path class="st0" d="M13.8,411.8v20.3c0,4.4-3,7.5-7.2,7.5s-7.2-3.1-7.2-7.5v-15.4c0-5.4-2.5-7.9-6.3-7.9c-3.7,0-6.5,2.4-6.6,7.5
			v15.9c0,4.4-3,7.5-7.2,7.5s-7.3-3.1-7.3-7.6v-44.3c0-4.3,3-7.4,7.2-7.4s7.2,3.1,7.2,7.4v13c2.8-3.7,7.1-5.8,11.9-5.8
			C7.1,395,13.8,401.3,13.8,411.8z"/>
		<path class="st0" d="M55.4,414.8v18.1c0,4-2.7,6.8-6.5,6.8c-2.7,0-4.9-1.4-5.9-3.7c-3.2,2.9-7.6,4.1-12,4.1
			c-9.9,0-15.8-5.3-15.8-13.1c0-7.8,6.4-13.6,16.3-13.6c3.6,0,6.8,0.8,9.4,2.2v-0.9c0-4.3-3.4-7.1-8-7.1c-2.3,0-4,0.5-6,1.3
			c-0.9,0.4-2.2,0.8-3.1,0.8c-3.3,0-5.6-2.3-5.6-5.7c0-2.3,1.4-4.3,3.4-5.5c1.4-0.8,5.6-3.4,14.3-3.4
			C47.8,395,55.4,402.4,55.4,414.8z M41.3,426.3c0-2.6-2.4-4.6-5.9-4.6s-5.8,2-5.8,4.6s2.3,4.6,5.8,4.6S41.3,428.9,41.3,426.3z"/>
		<path class="st0" d="M103.2,417.3c0,12.7-9.3,22.8-20.4,22.8c-4.3,0-7.9-1.5-10.6-4.1v9.5c0,4.4-3,7.5-7.2,7.5s-7.2-3.1-7.2-7.5
			v-43.2c0-4.1,2.7-6.9,6.7-6.9c3.5,0,6,2.3,6.6,5.5c3.3-4,7.5-5.9,12.3-5.9C94.1,395,103.2,404.6,103.2,417.3z M88.7,417.5
			c0-4.8-3.5-8.8-8.4-8.8s-8.4,3.9-8.4,8.8c0,4.8,3.5,8.8,8.4,8.8S88.7,422.4,88.7,417.5z"/>
		<path class="st0" d="M150.5,417.3c0,12.7-9.3,22.8-20.4,22.8c-4.3,0-7.9-1.5-10.6-4.1v9.5c0,4.4-3,7.5-7.2,7.5s-7.2-3.1-7.2-7.5
			v-43.2c0-4.1,2.7-6.9,6.7-6.9c3.5,0,6,2.3,6.6,5.5c3.3-4,7.5-5.9,12.3-5.9C141.4,395,150.5,404.6,150.5,417.3z M136,417.5
			c0-4.8-3.5-8.8-8.4-8.8s-8.4,3.9-8.4,8.8c0,4.8,3.5,8.8,8.4,8.8S136,422.4,136,417.5z"/>
		<path class="st0" d="M154.3,439.5c1.6,0,3.1,0.6,4.4,0.6c2.9,0,3.7-1.7,3.7-1.7L150,407.1c-0.6-1.4-1-3-1-4.1
			c0-4.5,3.1-7.6,7.5-7.6c3.6,0,5.9,2.4,7.1,6.2l6.4,19.9l6.6-20.5c1.2-3.6,3.6-5.6,6.8-5.6c4.1,0,7.1,3,7.1,7.1
			c0,1-0.2,2.4-0.8,3.7l-13.4,33.5c-3.7,9.2-8.5,13.8-17.3,13.8c-2.5,0-5-0.8-6.6-1.5c-2.3-1.1-4.2-3.2-4.2-6.2
			C148.3,441.9,150.8,439.5,154.3,439.5z"/>
	</g>
	<path class="st0" d="M233.2,383.4v53.3c0,1.7-1.1,2.9-2.7,2.9c-1.7,0-2.8-1.3-2.8-2.9v-6.5c-3.5,6.1-9.6,9.9-16.7,9.9
		c-11.3,0-20.4-9.5-20.4-22c0-12.4,9.3-22.3,20.7-22.3c6.8,0,12.6,3.5,16,9v-21.4c0-1.8,1.2-3.1,3.1-3.1
		C232,380.3,233.2,381.6,233.2,383.4z M227.6,417.9c0-9.3-6.8-16.3-15.5-16.3c-8.8,0-15.5,7-15.5,16.3c0,9.3,6.7,16.4,15.5,16.4
		C220.8,434.3,227.6,427.2,227.6,417.9z"/>
	<path class="st0" d="M273.7,399.4v37.3c0,1.7-1.1,2.9-2.8,2.9c-1.6,0-2.7-1.3-2.7-2.9l-0.2-6c-3.1,6.3-8.8,9.4-15.3,9.4
		c-8.7,0-16-6.3-16-19.4v-21.3c0-1.9,1.2-3.2,3.1-3.2c1.8,0,3,1.3,3,3.2v19.2c0,11.1,5.6,15.6,11.7,15.6c7.1,0,13.2-4.6,13.2-16.9
		v-17.9c0-1.9,1.2-3.2,3-3.2C272.5,396.2,273.7,397.5,273.7,399.4z"/>
	<path class="st0" d="M298.9,395.8c7.3,0,11.7,3.4,13.7,5.2c1,0.8,1.5,1.8,1.5,2.7c0,1.7-1.1,2.9-2.8,2.9c-0.6,0-1.4-0.3-2-0.9
		c-1.6-1.4-5.1-4-10.5-4c-8.8,0-15.6,7-15.6,16.3c0,9.3,6.8,16.4,15.6,16.4c6,0,9.5-3.2,10.9-4.6c0.6-0.5,1.2-0.8,2-0.8
		c1.5,0,2.7,1.3,2.7,2.8c0,1-0.6,1.9-1.4,2.6c-1.9,1.9-6.7,5.8-14.4,5.8c-12.2,0-21.5-9.5-21.5-22
		C277.2,405.7,286.7,395.8,298.9,395.8z"/>
	<path class="st0" d="M317.2,383.4c0-1.8,1.2-3.1,3.1-3.1c1.8,0,3,1.3,3,3.1v32.3l22-18.4c0.6-0.7,1.4-1.2,2.3-1.2
		c1.6,0,2.7,1.2,2.7,2.8c0,0.9-0.4,1.8-1,2.3l-19,14.9l20.5,18.3c0.6,0.7,1,1.5,1,2.3c0,1.7-1.2,2.9-2.9,2.9c-1,0-1.9-0.5-2.6-1.3
		l-23.1-21.2v19.4c0,1.9-1.2,3.2-3,3.2c-1.9,0-3.1-1.3-3.1-3.2v-53.1H317.2z"/>
	<path class="st0" d="M195.6,450.1c1.8,0,2.9,0.8,3.2,1.1c0.2,0.1,0.3,0.3,0.3,0.5c0,0.3-0.2,0.5-0.5,0.5c-0.1,0-0.3-0.1-0.4-0.2
		c-0.2-0.2-1.1-1-2.6-1c-2.3,0-4,1.8-4,4.2s1.7,4.2,4,4.2c1.5,0,2.3-0.7,2.7-1.1c0.1-0.1,0.2-0.2,0.4-0.2c0.3,0,0.5,0.2,0.5,0.5
		c0,0.2-0.1,0.3-0.2,0.4c-0.4,0.4-1.4,1.3-3.4,1.3c-2.9,0-5.1-2.3-5.1-5.2S192.7,450.1,195.6,450.1z"/>
	<path class="st0" d="M213.9,450.1c2.9,0,5.1,2.3,5.1,5.2s-2.2,5.2-5.1,5.2s-5.1-2.3-5.1-5.2S211,450.1,213.9,450.1z M213.8,459.5
		c2.3,0,4-1.8,4-4.2s-1.7-4.2-4-4.2s-4,1.8-4,4.2C209.9,457.7,211.6,459.5,213.8,459.5z"/>
	<path class="st0" d="M228.5,450.9c0-0.5,0.3-0.8,0.7-0.8c0.3,0,0.5,0.1,0.6,0.4l5.8,8.1v-7.9c0-0.3,0.2-0.5,0.5-0.5
		s0.5,0.2,0.5,0.5v9c0,0.4-0.3,0.7-0.6,0.7c-0.3,0-0.5-0.2-0.6-0.4l-5.9-8.1v8c0,0.3-0.2,0.5-0.5,0.5s-0.5-0.2-0.5-0.5V450.9z"/>
	<path class="st0" d="M246.8,458.4c0.2,0,0.3,0.1,0.4,0.2c0.3,0.3,1.2,0.9,2.6,0.9c1.2,0,2-0.8,2-1.7c0-1-0.6-1.7-2.6-2.4
		c-1.5-0.5-2.6-1.4-2.6-2.7c0-1.5,1.2-2.6,3.1-2.6c1.5,0,2.3,0.6,2.7,0.9c0.2,0.1,0.3,0.3,0.3,0.5c0,0.3-0.2,0.5-0.5,0.5
		c-0.1,0-0.3-0.1-0.4-0.2c-0.3-0.2-1-0.8-2.1-0.8c-1.4,0-2,0.8-2,1.6c0,0.9,0.6,1.5,2.2,2c1.8,0.6,3,1.5,3,3.1s-1.2,2.8-3.3,2.8
		c-1.8,0-2.8-0.8-3.2-1.2c-0.1-0.1-0.2-0.3-0.2-0.4C246.3,458.6,246.5,458.4,246.8,458.4z"/>
	<path class="st0" d="M270.4,450.7v5.5c0,2.5-1.7,4.2-4,4.2s-3.9-1.7-3.9-4.2v-5.6c0-0.3,0.2-0.6,0.6-0.6c0.3,0,0.5,0.2,0.5,0.6v5.6
		c0,1.9,1.2,3.2,2.8,3.2c1.6,0,2.8-1.3,2.8-3.2v-5.6c0-0.3,0.2-0.5,0.5-0.5C270.2,450.2,270.4,450.4,270.4,450.7z"/>
	<path class="st0" d="M280,450.7c0-0.3,0.2-0.5,0.5-0.5s0.5,0.2,0.5,0.5v8.6h5c0.3,0,0.5,0.2,0.5,0.5c0,0.3-0.2,0.5-0.5,0.5h-5.6
		c-0.3,0-0.5-0.2-0.5-0.6v-9H280z"/>
	<path class="st0" d="M302.7,450.7c0,0.3-0.2,0.5-0.5,0.5h-2.8v8.6c0,0.3-0.2,0.6-0.5,0.6s-0.5-0.2-0.5-0.6v-8.6h-2.8
		c-0.3,0-0.5-0.2-0.5-0.5c0-0.3,0.2-0.5,0.5-0.5h6.8C302.5,450.3,302.7,450.5,302.7,450.7z"/>
	<path class="st0" d="M314.6,450.8v9.1c0,0.3-0.2,0.6-0.6,0.6c-0.3,0-0.6-0.2-0.6-0.6v-9.1c0-0.3,0.2-0.6,0.6-0.6
		C314.3,450.2,314.6,450.4,314.6,450.8z"/>
	<path class="st0" d="M324.1,450.9c0-0.5,0.3-0.8,0.7-0.8c0.3,0,0.5,0.1,0.6,0.4l5.8,8.1v-7.9c0-0.3,0.2-0.5,0.5-0.5
		s0.5,0.2,0.5,0.5v9c0,0.4-0.3,0.7-0.6,0.7c-0.3,0-0.5-0.2-0.6-0.4l-5.9-8.1v8c0,0.3-0.2,0.5-0.5,0.5s-0.5-0.2-0.5-0.5V450.9z"/>
	<path class="st0" d="M342,455.3c0-2.9,2.2-5.2,5.1-5.2c1.7,0,2.8,0.8,3.2,1.1c0.1,0.1,0.3,0.3,0.3,0.5c0,0.3-0.2,0.5-0.5,0.5
		c-0.1,0-0.3,0-0.3-0.1c-0.3-0.3-1.2-1-2.6-1c-2.3,0-4,1.8-4,4.2s1.7,4.2,4,4.2c1.9,0,3.4-1.3,3.7-3.3h-3.3c-0.3,0-0.4-0.2-0.4-0.4
		c0-0.2,0.2-0.4,0.4-0.4h4c0.3,0,0.5,0.2,0.5,0.5c0,2.5-2.2,4.7-4.8,4.7C344.2,460.5,342,458.3,342,455.3z"/>
</g>
</svg>
