<?xml version="1.0" encoding="utf-8"?>
<!-- Generator: Adobe Illustrator 19.1.0, SVG Export Plug-In . SVG Version: 6.00 Build 0)  -->
<svg version="1.1" id="Layer_1" xmlns="http://www.w3.org/2000/svg" xmlns:xlink="http://www.w3.org/1999/xlink" x="0px" y="0px"
	 viewBox="0 0 143 131.2" style="enable-background:new 0 0 143 131.2;" xml:space="preserve">
<g>
	<g>
		<g>
			<path d="M4.7,118.8c0,0-0.3,0.2-0.9,0.6c-0.3,0.2-0.6,0.5-0.9,0.8s-0.7,0.7-0.9,1.1c-0.3,0.4-0.3,0.8-0.2,1.1
				c0.1,0.3,0.6,0.7,1.1,1s1.2,0.6,1.8,0.9c0.7,0.3,1.4,0.5,2.1,0.7c2.9,0.9,5.9,1.7,8.1,2.3c1.1,0.3,2.1,0.6,2.7,0.9
				c0.7,0.2,1,0.4,1,0.4s-1.6,0.2-4,0c-0.6,0-1.2-0.1-1.9-0.1c-0.7-0.1-1.4-0.1-2.1-0.3c-0.7-0.1-1.5-0.3-2.2-0.4
				c-0.8-0.2-1.5-0.4-2.3-0.6c-0.8-0.2-1.5-0.5-2.3-0.9c-0.7-0.4-1.5-0.7-2.1-1.2s-1.3-1.2-1.6-2.2c-0.1-0.5-0.1-1,0.1-1.4
				s0.4-0.7,0.7-1c0.5-0.5,1-0.8,1.5-1s0.9-0.4,1.2-0.5C4.3,118.9,4.7,118.8,4.7,118.8z"/>
		</g>
		<g>
			<path d="M96.6,128.7c-2.2,0.3-4.5,0.6-6.7,0.8c-2.3,0.2-4.5,0.4-6.8,0.6l-6.8,0.5c-2.3,0.1-4.5,0.2-6.8,0.4v-2.2l3.3-0.1v2.4
				l-9.4-0.1c-3.1-0.1-6.3-0.2-9.5-0.3s-6.3-0.3-9.4-0.6s-6.3-0.5-9.4-0.9s-6.3-0.8-9.4-1.4c-1.6-0.3-3.1-0.6-4.7-1
				c-1.5-0.4-3.1-0.7-4.6-1.2c-1.5-0.4-3-0.9-4.5-1.4c-0.4-0.1-0.7-0.3-1.1-0.4c-0.4-0.2-0.8-0.3-1.1-0.5c-0.7-0.4-1.5-0.8-2.1-1.6
				c-0.3-0.4-0.3-1.2,0-1.6s0.6-0.7,1-0.9c0.7-0.4,1.5-0.7,2.2-1c1.5-0.5,3.1-0.8,4.6-1.1c-1.5,0.4-3,1-4.4,1.6
				c-0.7,0.3-1.4,0.7-2,1.1c-0.3,0.2-0.5,0.5-0.6,0.7c-0.1,0.3-0.1,0.4,0.1,0.6c0.3,0.4,1,0.8,1.7,1c0.3,0.1,0.7,0.2,1,0.4l1.1,0.3
				c1.5,0.4,3,0.8,4.6,1.1c3,0.6,6.1,1.2,9.2,1.6c1.5,0.2,3.1,0.4,4.6,0.6s3.1,0.3,4.7,0.5c3.1,0.3,6.2,0.6,9.3,0.8l4.7,0.3l4.7,0.3
				c3.1,0.2,6.3,0.3,9.4,0.4l9.4,0.4v2.4l-3.3-0.1v-2.2h13.6L96.6,128.7z"/>
		</g>
		<g>
			<path d="M130.4,116.5c0,0,0.5,0.1,1.5,0.3c0.5,0.1,1,0.3,1.6,0.6c0.6,0.3,1.3,0.6,2,1.2c0.3,0.3,0.7,0.7,1,1.2s0.3,1.4,0,2
				c-0.6,1.2-1.6,1.8-2.5,2.3c-1,0.5-2,0.9-3,1.3c-1,0.3-2.1,0.6-3.1,0.9c-1.1,0.3-2.1,0.5-3.1,0.7c-1,0.2-2.1,0.4-3.1,0.6
				c-1,0.2-2,0.3-2.9,0.4c-0.9,0.1-1.8,0.2-2.6,0.3c-3.2,0.3-5.4,0.2-5.4,0.2s2.1-0.6,5.2-1.4c1.6-0.4,3.4-0.8,5.3-1.3
				c1-0.2,2-0.5,3-0.8c1-0.2,2-0.5,3.1-0.8c1-0.3,2.1-0.5,3-0.8c1-0.3,1.9-0.6,2.8-1c0.8-0.4,1.6-0.9,1.9-1.3
				c0.1-0.2,0.2-0.4,0.1-0.6c-0.1-0.3-0.2-0.6-0.5-0.8c-0.5-0.5-1-1-1.5-1.3c-0.5-0.4-1-0.7-1.4-0.9
				C130.9,116.8,130.4,116.5,130.4,116.5z"/>
		</g>
		<g>
			<path d="M138.6,118.2c0,0,0.4,0.1,1,0.4c0.3,0.1,0.7,0.3,1.1,0.6c0.4,0.2,0.9,0.6,1.4,1c0.4,0.4,0.9,1.1,0.9,2s-0.6,1.6-1.1,2.2
				c-0.6,0.6-1.3,1-2,1.5c-0.7,0.4-1.4,0.8-2.2,1.1c-0.7,0.3-1.5,0.6-2.2,0.9c-0.7,0.3-1.5,0.6-2.2,0.8s-1.4,0.4-2.1,0.5
				c-0.7,0.1-1.3,0.2-1.9,0.3c-2.4,0.3-4,0.1-4,0.1v-0.2c0,0,0.4-0.2,1-0.5c0.3-0.1,0.7-0.3,1.2-0.5s1-0.4,1.5-0.6
				c0.6-0.2,1.2-0.4,1.8-0.6c0.6-0.2,1.3-0.4,2-0.6s1.4-0.4,2.2-0.5c0.7-0.2,1.5-0.4,2.2-0.7c0.7-0.2,1.4-0.5,2.1-0.8
				c0.7-0.3,1.3-0.7,1.8-1.1s0.9-0.9,1-1.4s-0.2-1-0.5-1.5c-0.7-0.9-1.6-1.4-2.1-1.7c-0.6-0.3-0.9-0.5-0.9-0.5V118.2z"/>
		</g>
	</g>
	<g>
		<path d="M132.9,56.8c-4.1-2.6-12.2,2.1-19.1,7.9c0.3,0.1,0.5,0.2,0.8,0.3c0.5,0.2,0.9,0.4,1.4,0.6s0.9,0.4,1.4,0.7
			c0.2,0.1,0.5,0.2,0.7,0.4c0.2,0.1,0.4,0.3,0.7,0.4c0.4,0.2,0.9,0.5,1.3,0.8c0.4,0.2,0.8,0.5,1.2,0.8c0.2,0.1,0.4,0.2,0.5,0.4
			c0.2,0.1,0.3,0.2,0.5,0.4c0.3,0.2,0.6,0.4,0.8,0.6s0.4,0.4,0.6,0.5c0.3,0.3,0.5,0.5,0.5,0.5s-0.2-0.2-0.6-0.4
			c-0.2-0.1-0.4-0.3-0.6-0.5c-0.3-0.2-0.6-0.4-0.9-0.6c-0.2-0.1-0.3-0.2-0.5-0.3c-0.2-0.1-0.4-0.2-0.6-0.3c-0.4-0.2-0.8-0.5-1.2-0.7
			c-0.4-0.2-0.9-0.4-1.3-0.6c-0.2-0.1-0.5-0.2-0.7-0.3c-0.2-0.1-0.5-0.2-0.7-0.3c-0.5-0.2-0.9-0.4-1.4-0.5c-0.5-0.2-0.9-0.3-1.4-0.5
			c-0.5-0.1-0.9-0.3-1.3-0.4h-0.1c-7.4-1.6-15.7-2.3-23.7-2.6c-6.5,6.5-15.9,10.5-26.5,10.5c-7.2,0-13.7-1.8-19-5
			c-0.1,0-0.2-0.1-0.4-0.2c-0.1-0.1-0.3-0.1-0.5-0.2s-0.4-0.2-0.7-0.3c-0.2-0.1-0.5-0.2-0.8-0.4c-0.3-0.1-0.6-0.3-0.8-0.4
			c-0.6-0.3-1.2-0.6-1.8-1c-0.5-0.3-0.9-0.6-1.4-0.9c-0.1,0.9-0.7,1.9-2.3,2.5c-3,1-5.8,2.1-8.1,3.5c-12.7,6.3-16.1,12.4-14.7,25.7
			c1.1,10.6,3.4,17.7,8.7,22.4c9.7,3.1,46.3,12.4,103.2-0.2c8.5-4.9,12.6-11.5,14.7-17.8l0,0C145.3,84.4,137.2,59.8,132.9,56.8z"/>
		<path d="M80.8,7.5c-0.4-2.8-1-4.9-1.8-5.8c-3.2-3.5-12.2-1.1-20.4,2.6c-18.2,3-26.3,19.6-28.4,37.4c-2,17.9,12.7,31.7,32.4,31.6
			c19.1,0,34.4-13.1,35.7-30C99.5,27.9,92.4,13.9,80.8,7.5z"/>
		<path d="M80.8,7.5C92.4,13.9,94.3,29.3,93.3,41c-1.4,16.9-16.6,30-35.7,30c-5,0-9.7-0.9-13.9-2.5c5.3,3.2,11.8,5,18.9,5
			c19.1,0,34.4-13.1,35.7-30C99.5,27.9,92.4,13.9,80.8,7.5"/>
		<path d="M57.8,12.9c0,0,0.1-0.2,0.4-0.5s0.8-0.6,1.4-1c0.3-0.2,0.7-0.4,1.1-0.5c0.4-0.2,0.8-0.3,1.3-0.4c0.5-0.1,0.9-0.2,1.5-0.2
			c0.3,0,0.5,0,0.8,0s0.5,0,0.8,0.1c0.5,0.1,1,0.3,1.5,0.5s0.9,0.5,1.3,0.9c0.2,0.2,0.4,0.3,0.5,0.5s0.3,0.4,0.4,0.5
			c0.2,0.4,0.4,0.7,0.5,1.1c0.1,0.3,0.2,0.6,0.2,0.9c0,0.3,0.1,0.5,0.1,0.7c0,0.4,0,0.6,0,0.6s-0.2-0.2-0.4-0.5
			c-0.1-0.2-0.3-0.3-0.5-0.5s-0.4-0.4-0.6-0.6c-0.2-0.2-0.5-0.5-0.7-0.7c-0.1-0.1-0.1-0.1-0.2-0.2c-0.1,0-0.1-0.1-0.2-0.1
			s-0.1-0.1-0.2-0.1s-0.1-0.1-0.2-0.1c-0.1-0.1-0.3-0.2-0.5-0.3c-0.1,0-0.2-0.1-0.2-0.1c-0.1,0-0.2-0.1-0.2-0.1
			c-0.3-0.1-0.7-0.2-1-0.3c-0.4-0.1-0.7-0.1-1.1-0.1s-0.8,0-1.2,0c-0.4,0-0.8,0-1.1,0.1c-0.4,0-0.7,0.1-1,0.1
			C58.7,12.8,57.8,12.9,57.8,12.9z"/>
		<path d="M75.4,0C74-0.2,64.9,2.2,58.6,5C40.4,8.1,32.2,24.7,30.2,42.6c-0.1,1-0.2,1.9-0.2,2.8C30.1,53.8,34,61,40.2,66
			c-4.4-5.4-6.7-12.4-5.8-20.1C36.5,28,44.6,11.4,62.8,8.3c6.3-2.8,13-4.9,17.3-4.1C79.8,3.1,79.5,0.5,75.4,0z"/>
		<path d="M75.4,0C74-0.2,64.9,2.2,58.6,5C40.4,8.1,32.2,24.7,30.2,42.6c-0.1,1-0.2,1.9-0.2,2.8C30.1,53.8,34,61,40.2,66
			c-4.4-5.4-6.7-12.4-5.8-20.1C36.5,28,44.6,11.4,62.8,8.3c6.3-2.8,13-4.9,17.3-4.1C79.8,3.1,79.5,0.5,75.4,0z"/>
		<g>
			<g>
				<path d="M48.4,25.7c-2.3,4.6-6.6,7.2-9.6,5.9c-3-1.4-3.5-6.2-1.1-10.8s6.6-7.2,9.6-5.9C50.2,16.3,50.7,21.1,48.4,25.7z"/>
				<g>
					<path d="M48.4,25.7c0,0-0.1,0.2-0.3,0.5c-0.2,0.3-0.4,0.8-0.8,1.3c-0.7,1.1-2,2.6-4,3.8c-1,0.6-2.3,1-3.7,0.8
						c-1.4-0.1-2.7-1.2-3.4-2.6c-0.3-0.7-0.5-1.5-0.6-2.2c-0.1-0.8,0-1.6,0-2.3c0.2-1.6,0.7-3.1,1.4-4.5c0.4-0.6,0.8-1.3,1.2-2
						c0.5-0.6,1-1.2,1.5-1.8c1.1-1.1,2.4-1.9,3.9-2.3c0.7-0.2,1.5-0.3,2.2-0.2s1.4,0.4,2,0.8c1.2,0.9,1.6,2.2,1.8,3.3
						c0.3,2.3-0.2,4.2-0.6,5.5c-0.2,0.6-0.4,1.1-0.6,1.4C48.5,25.6,48.4,25.7,48.4,25.7z M48.3,25.7c0,0,0.1-0.2,0.2-0.5
						c0.2-0.3,0.4-0.8,0.6-1.4c0.4-1.2,0.9-3.1,0.5-5.4c-0.2-1.1-0.7-2.3-1.8-3.1c-0.5-0.4-1.2-0.6-1.8-0.7c-0.7-0.1-1.4,0-2,0.2
						c-1.4,0.4-2.6,1.3-3.6,2.3c-1,1.1-1.9,2.3-2.6,3.6c-0.7,1.3-1.2,2.8-1.4,4.3c-0.2,1.5-0.1,3,0.4,4.3s1.7,2.3,3,2.5
						s2.5-0.2,3.5-0.7c2-1.1,3.2-2.6,4-3.7c0.4-0.5,0.6-1,0.8-1.3C48.3,25.9,48.3,25.7,48.3,25.7z"/>
				</g>
			</g>
			<path d="M40.2,23.2c1-2,3.2-3,4.9-2.2s2.3,3,1.2,5s-3.2,3-4.9,2.2C39.8,27.5,39.2,25.2,40.2,23.2z"/>
			<path d="M45.2,21c-0.5-0.3-1.1-0.3-1.7-0.2c0.4,0,0.7,0.1,1,0.3c1.7,0.8,2.3,3,1.2,5c-0.7,1.4-1.9,2.2-3.2,2.4
				c1.5,0.1,3.1-0.8,3.9-2.5C47.4,24.1,46.9,21.8,45.2,21z"/>
			<path d="M45,22.1c0.2-0.5,0.8-0.7,1.2-0.5s0.5,0.7,0.3,1.2s-0.8,0.7-1.2,0.5S44.8,22.6,45,22.1z"/>
		</g>
		<g>
			<g>
				<path d="M65.9,30.5c-2.9,5.6-8.9,8.4-13.3,6.3s-5.6-8.3-2.7-13.9s8.9-8.4,13.3-6.3C67.7,18.8,68.9,25,65.9,30.5z"/>
				<g>
					<path d="M66,30.6c0,0-0.1,0.2-0.4,0.6c-0.2,0.4-0.6,1-1.1,1.7s-1.3,1.5-2.2,2.2c-0.9,0.8-2.1,1.5-3.6,2
						c-1.4,0.5-3.1,0.7-4.8,0.3c-0.8-0.2-1.7-0.6-2.4-1.1c-0.7-0.5-1.4-1.2-1.9-2c-1-1.6-1.4-3.6-1.3-5.5c0.1-2,0.7-3.9,1.6-5.7
						c1-1.7,2.2-3.4,3.8-4.6c1.5-1.2,3.4-2.1,5.2-2.3c0.9-0.1,1.9-0.1,2.8,0.1s1.7,0.6,2.4,1c1.4,1,2.4,2.4,2.9,3.8s0.6,2.8,0.6,4
						c-0.1,1.2-0.3,2.3-0.5,3.1c-0.3,0.8-0.5,1.5-0.7,1.9C66.1,30.3,66,30.6,66,30.6z M65.9,30.5c0,0,0.1-0.2,0.3-0.6
						c0.2-0.4,0.5-1.1,0.7-1.9c0.3-0.8,0.4-1.9,0.5-3.1c0-1.2-0.1-2.6-0.6-4s-1.5-2.7-2.9-3.6c-0.8-0.4-1.5-0.7-2.4-0.9
						c-0.8-0.1-1.7-0.2-2.6,0c-1.8,0.3-3.5,1.2-4.9,2.3c-0.7,0.6-1.4,1.3-2,2s-1.1,1.5-1.6,2.4c-0.9,1.6-1.5,3.5-1.6,5.4
						c-0.1,0.9,0,1.9,0.2,2.8c0.2,0.9,0.5,1.7,0.9,2.5s1,1.4,1.7,1.9s1.5,0.9,2.2,1.1c1.6,0.5,3.2,0.3,4.6-0.1
						c1.4-0.4,2.6-1.1,3.5-1.9c0.9-0.8,1.7-1.5,2.2-2.2s0.9-1.2,1.2-1.6C65.8,30.7,65.9,30.5,65.9,30.5z"/>
				</g>
			</g>
			<g>
				<path d="M54.7,25.7c1.3-2.4,4.4-3.4,6.9-2.2c2.5,1.2,3.6,4.1,2.3,6.6c-1.3,2.4-4.4,3.4-6.9,2.2C54.5,31,53.5,28.1,54.7,25.7z"/>
			</g>
			<g>
				<path d="M61.6,23.5c-1-0.5-2-0.6-3.1-0.5c0.7,0,1.3,0.2,2,0.5c2.5,1.2,3.6,4.1,2.3,6.6c-0.8,1.5-2.2,2.4-3.9,2.6
					c2,0.1,4-0.9,4.9-2.7C65.2,27.6,64.2,24.7,61.6,23.5z"/>
			</g>
			<path d="M60.9,24.6c0.3-0.6,1.1-0.8,1.7-0.5s0.9,1,0.6,1.6s-1.1,0.8-1.7,0.5C60.8,25.9,60.5,25.2,60.9,24.6z"/>
		</g>
		<path d="M60,39.1c-0.8,2.7-7.2,3.3-14.2,1.4c-7.1-1.9-12.1-5.6-11.3-8.2c0.8-2.7,7.2-3.3,14.2-1.4C55.8,32.8,60.8,36.5,60,39.1z"
			/>
		<path d="M34.5,32.3c-0.3,1.1,0.4,2.4,1.9,3.7c0.5-2.1,1.2-4.1,2-6C36.2,30.3,34.8,31.1,34.5,32.3z"/>
		<g>
			<path d="M139.4,95c-0.4,5.3-2,11.8-8.4,16.2c-5.8,4.6-15.2,6.4-23.1,7c-24.9,2-28.5-1-33.4-17.2c-1.5-4.9-0.3-12.4,5.8-17
				c5.6-4.9,16.7-7,24.9-7.5c8.2-1.1,19.6-1.3,26,2.5C138,82.5,139.8,89.7,139.4,95z"/>
		</g>
		<path d="M139.5,93.1c0-0.1,0-0.1,0-0.2c0-0.3,0-0.6-0.1-0.9v-0.1l0,0c-0.1-0.7-0.2-1.4-0.3-2l0,0c0,0,0,0,0-0.1s0-0.2-0.1-0.3l0,0
			v-0.1c0-0.2-0.1-0.3-0.1-0.5s-0.1-0.3-0.1-0.5c0-0.1-0.1-0.3-0.1-0.4c-0.1-0.3-0.2-0.6-0.3-0.9c0-0.1-0.1-0.2-0.1-0.4
			c-0.1-0.2-0.2-0.4-0.2-0.6c0-0.1-0.1-0.2-0.1-0.3c-0.2-0.3-0.3-0.7-0.5-1l0,0c-0.3-0.5-0.6-1-1-1.4l0,0c-1.2-1.7-2.9-3.2-5.1-4.2
			c-3.8-2.3-9.5-3.1-15.2-3.2c4.9,0.2,9.7,1.1,13.1,3.1c2.6,1.3,4.5,3.2,5.8,5.3c0,0,0,0-0.1,0c-5.8,4.6-15.2,6.4-23.1,7
			c-8.8,0.7-14.9,0.8-19.3-0.1c4.6,1.4,11.3,1.5,21.5,0.6c7.3-0.6,16-2.2,21.8-6.1c0.8,1.8,1.3,3.7,1.5,5.5
			c-0.6,0.6-1.3,1.1-2.1,1.7c-5.8,4.6-15.2,6.4-23.1,7c-8.8,0.7-14.9,0.8-19.3-0.1c4.6,1.4,11.3,1.5,21.5,0.6c7.8-0.6,17.2-2.4,23-7
			c-0.4,2.9-1.3,6.1-3.1,9c-5.8,3.9-14.4,5.4-21.7,6c-8.8,0.7-14.9,0.8-19.3-0.1c4.6,1.4,11.3,1.5,21.5,0.6c5.6-0.5,12-1.5,17.3-3.7
			c-0.8,0.8-1.7,1.6-2.8,2.4c-5.8,4.6-15.2,6.4-23.1,7c-17,1.4-24.1,0.4-28.4-5.5c3.6,7.6,8.8,9.8,22.5,9.3l0,0c0.5,0,1.1,0,1.7-0.1
			c0.1,0,0.2,0,0.3,0c0.5,0,1-0.1,1.5-0.1c0.2,0,0.3,0,0.5,0c0.5,0,1-0.1,1.5-0.1c0.2,0,0.3,0,0.5,0c0.7,0,1.3-0.1,2-0.2
			c7.9-0.6,17.3-2.4,23.1-7c3.8-2.6,5.9-6,7.1-9.4l0,0l0,0c0.1-0.3,0.2-0.5,0.2-0.8v-0.1c0.1-0.3,0.1-0.5,0.2-0.8l0,0
			c0.1-0.3,0.1-0.5,0.2-0.8c0,0,0,0,0-0.1c0.1-0.3,0.1-0.5,0.2-0.8l0,0l0,0c0.2-1.2,0.4-2.4,0.5-3.5c0-0.3,0-0.6,0-0.9
			c0-0.1,0-0.2,0-0.3C139.5,93.6,139.5,93.4,139.5,93.1z"/>
		<g>
			<path d="M75.2,101.7c-1.5-4.9-0.3-12.4,5.8-17c5.6-4.9,16.7-7,24.9-7.5c3.4-0.5,7.4-0.8,11.4-0.7c2.9-0.1,5.8,0.1,8.5,0.4
				c-6.3-1.6-14.4-1.3-20.6-0.4C97,77,85.9,79.1,80.3,84c-6.1,4.6-7.3,12-5.8,17c2,6.7,3.8,11.1,7,13.9
				C78.7,112.1,77.1,107.9,75.2,101.7z"/>
		</g>
		<path d="M63.1,51.5c0,0-1.7,3.7-7.4,6.5C47,62.2,32,65.1,21.9,56.5C21.9,56.5,59,52,63.1,51.5z"/>
		<path d="M43.1,31.1c-3.3,0.7-8.9,2.3-11.9,1c-1.5-0.6-2.8-2.4-4.2-3.3c-2.2-1.3-4.7-2.2-7.3-1.3C8.6,31.2,18.5,44,22.9,48.2
			c-2.9,0.8-5.4,3.3-3.3,6.2c1.2,1.7,3.5,2.8,5.4,3.5c6.1,2.2,13.3,1.1,19.4-0.3c5.4-1.2,10.5-3.3,15.7-5.1c1.7-0.6,3.1-1.1,3.1-1.1
			s1.6-4.3,1-5.4C59,41,49.9,33.6,43.1,31.1z"/>
		<path d="M61.1,50.2c-4.2,1.5-9.2,1.6-13.4,0.1C41.6,48,36.9,42.1,33,37.1c-1.9-2.5-4.2-6.2-7.1-7.6c-5-2.4-10.7,0.8-10.2,6.4
			c0.5,5.2,4.5,8.1,7.1,12.3c-2.3,1.3-2.3,3.4-0.8,5.4c1.7,2.2,4.5,2.9,7.2,3.1C40,57.6,51.1,53.8,61.1,50.2z"/>
		<path d="M22.8,48.2c-2.3,1.3-2.3,3.4-0.8,5.4c1.7,2.2,4.5,2.9,7.2,3.1c10.8,1,22-2.8,32-6.4c-0.2,0.1-0.5,0.1-0.7,0.2
			c-9.6,3.5-20.3,6.9-30.6,6c-2.6-0.2-5.4-0.9-7.1-3.1C21.2,51.4,20.5,49.5,22.8,48.2"/>
		<g>
			<path d="M30.9,48.4c-3.5-0.7-5-0.7-6.6,0.2C21.6,50,20.1,59.5,51.2,52C50.8,52.1,49.7,52.1,30.9,48.4z"/>
		</g>
		<path d="M63.6,47.3c0.2-0.1,0.5-0.2,0.6-0.3c0-0.4,0-0.7-0.1-0.9C61,43,56.4,39,51.7,35.8c-0.7-0.4-1.3-0.9-2-1.3
			c0,0,3.6,3.1,3.8,3.3c0.2,0.1,0.3,0.3,0.5,0.4c0.2,0.1,0.3,0.3,0.5,0.4c0.2,0.1,0.3,0.3,0.5,0.4c0.2,0.1,0.3,0.3,0.5,0.4
			c0.2,0.1,0.3,0.3,0.5,0.4c0.2,0.1,0.3,0.3,0.5,0.4c0.2,0.1,0.3,0.3,0.5,0.4c0.2,0.1,0.3,0.3,0.5,0.4c0.3,0.3,0.6,0.5,0.9,0.8
			s0.6,0.5,0.9,0.8s0.6,0.5,0.9,0.8s0.6,0.5,0.8,0.8c0.2,0.2,0.4,0.4,0.6,0.5s0.4,0.4,0.5,0.6c0.2,0.2,0.4,0.4,0.5,0.6
			c0.2,0.2,0.3,0.4,0.5,0.6H63h-0.1h-0.1h-0.1c-0.2,0.1-0.3,0.1-0.5,0.2c-0.2,0-0.3,0.1-0.5,0.1s-0.3,0.1-0.5,0.1S60.9,47,60.7,47
			s-0.3,0.1-0.5,0.1s-0.3,0.1-0.5,0.1s-0.3,0.1-0.5,0.1s-0.3,0-0.5,0.1c-0.1,0-0.2,0-0.3,0s-0.2,0-0.3,0c-0.1,0-0.2,0-0.3,0
			c-0.1,0-0.2,0-0.3,0h-0.1h-0.1h-0.1h-0.1c-0.3,0-0.6,0-1,0c-0.3,0-0.6,0-1,0c-0.3,0-0.6,0-1-0.1c-0.3,0-0.6-0.1-1-0.1
			c-0.1,0-0.2,0-0.2,0c-0.1,0-0.2,0-0.2,0c-0.1,0-0.2,0-0.2,0c-0.1,0-0.2,0-0.2,0c-0.1,0-0.2,0-0.2,0c-0.1,0-0.2,0-0.2,0
			c-0.1,0-0.2,0-0.2,0c-0.1,0-0.2,0-0.2,0c-0.2,0-0.3-0.1-0.5-0.1S50.7,47,50.5,47s-0.3-0.1-0.5-0.1s-0.3-0.1-0.5-0.1
			s-0.3-0.1-0.5-0.1c-0.2-0.1-0.3-0.1-0.5-0.2c-0.2-0.1-0.3-0.1-0.5-0.2c-0.2-0.1-0.3-0.1-0.5-0.2C47.3,46,47.2,46,47,45.9
			c-0.2-0.1-0.3-0.1-0.5-0.2c-0.2-0.1-0.3-0.1-0.4-0.2c-0.1-0.1-0.3-0.1-0.4-0.2c-0.1-0.1-0.3-0.1-0.4-0.2C45.2,45,45,45,44.9,44.9
			c-0.1-0.1-0.3-0.1-0.4-0.2c-0.1-0.1-0.3-0.2-0.4-0.2c-0.1-0.1-0.3-0.2-0.4-0.2c-0.1-0.1-0.3-0.2-0.4-0.2c-0.1-0.1-0.3-0.2-0.4-0.3
			s-0.3-0.2-0.4-0.3s-0.3-0.2-0.4-0.3s-0.3-0.2-0.4-0.3s-0.3-0.2-0.4-0.3s-0.3-0.2-0.4-0.3s-0.3-0.2-0.4-0.3s-0.3-0.2-0.4-0.3
			s-0.3-0.2-0.4-0.3s-0.3-0.2-0.4-0.3S39.1,41,39,40.9c-0.1-0.1-0.2-0.1-0.3-0.2c-0.1-0.1-0.2-0.1-0.3-0.2c-0.1-0.1-0.2-0.1-0.3-0.2
			c0.7,0.6,1.3,1.1,2,1.7c0.7,0.6,1.4,1.1,2.2,1.7c0.8,0.6,1.5,1.1,2.3,1.6s1.6,1,2.5,1.5s1.8,0.9,2.7,1.2c0.9,0.3,1.8,0.6,2.7,0.7
			c0.9,0.2,1.8,0.3,2.6,0.3c0.8,0,1.7,0,2.5,0c0.9-0.1,1.8-0.2,2.7-0.3c0.8-0.2,1.6-0.3,2.2-0.5C62.6,47.6,63.1,47.4,63.6,47.3z"/>
		<path d="M33.9,35.4c0.2,0.2,0.3,0.4,0.5,0.6c0.2,0.2,0.3,0.4,0.4,0.5s0.1,0.2,0.2,0.2c0.1,0.1,0.1,0.1,0.2,0.2
			c0.1,0.1,0.1,0.1,0.2,0.2c0,0.1,0.1,0.1,0.1,0.2l0.1,0.1l0.1,0.1c0,0,0,0,0,0.1l0,0l0,0c0,0,0,0,0-0.1v-0.1c0,0,0-0.1-0.1-0.1
			c0-0.1-0.1-0.1-0.1-0.2c0-0.1-0.1-0.1-0.1-0.2c0-0.1-0.1-0.2-0.1-0.2c0-0.1-0.1-0.2-0.2-0.3s-0.1-0.2-0.2-0.3s-0.1-0.2-0.2-0.3
			s-0.1-0.2-0.2-0.3s-0.2-0.2-0.2-0.3c-0.1-0.1-0.2-0.2-0.3-0.3c-0.1-0.1-0.2-0.2-0.3-0.3c-0.1-0.1-0.2-0.2-0.3-0.3
			c-0.1-0.1-0.2-0.2-0.3-0.3c-0.1-0.1-0.2-0.2-0.3-0.3c-0.1-0.1-0.2-0.2-0.3-0.3s-0.2-0.2-0.3-0.3c-0.1-0.1-0.2-0.2-0.3-0.3
			c-0.1-0.1-0.2-0.2-0.3-0.3c-0.1-0.1-0.2-0.2-0.3-0.2c-0.1-0.1-0.2-0.1-0.3-0.2c-0.1,0-0.1-0.1-0.2-0.1c-0.2-0.1-0.5-0.3-0.7-0.5
			c-0.1-0.1-0.2-0.1-0.3-0.2c-0.1-0.1-0.2-0.1-0.3-0.1c-0.1,0-0.1,0-0.1,0s0,0,0.1,0.1c0.1,0,0.1,0.1,0.2,0.2
			c0.1,0.1,0.2,0.2,0.3,0.3c0.1,0.1,0.3,0.2,0.4,0.4c0.2,0.1,0.3,0.3,0.5,0.5s0.4,0.3,0.6,0.5s0.4,0.4,0.6,0.6
			c0.2,0.2,0.4,0.4,0.6,0.6c0.2,0.2,0.4,0.4,0.6,0.6C33.5,35,33.7,35.2,33.9,35.4z"/>
		<path d="M42.3,11.9c0,0,0.1-0.2,0.2-0.5c0.2-0.3,0.5-0.7,0.9-1.1c0.4-0.4,1-0.8,1.7-1.2c0.2-0.1,0.4-0.2,0.6-0.2
			c0.2-0.1,0.4-0.1,0.6-0.2c0.4-0.1,0.9-0.1,1.3-0.1c0.2,0,0.5,0,0.7,0.1c0.2,0,0.4,0.1,0.7,0.2C49.2,9,49.4,9,49.6,9.1
			c0.1,0,0.2,0.1,0.3,0.1c0.1,0.1,0.2,0.1,0.3,0.2c0.2,0.1,0.3,0.2,0.5,0.3s0.3,0.2,0.4,0.4c0.1,0.1,0.2,0.3,0.3,0.4
			c0.1,0.1,0.2,0.3,0.3,0.4c0.2,0.3,0.3,0.5,0.4,0.7s0.2,0.4,0.2,0.6c0.1,0.3,0.1,0.5,0.1,0.5s-0.2-0.1-0.5-0.3
			c-0.1-0.1-0.3-0.2-0.5-0.3s-0.4-0.2-0.6-0.4c-0.1-0.1-0.2-0.1-0.3-0.2c-0.1,0-0.1-0.1-0.2-0.1s-0.1-0.1-0.2-0.1
			c-0.1-0.1-0.2-0.1-0.4-0.2c-0.1,0-0.3-0.1-0.4-0.1c-0.3-0.1-0.5-0.1-0.8-0.2c-0.1,0-0.3,0-0.4-0.1c-0.1,0-0.3,0-0.4,0
			c-0.3,0-0.6,0-0.9,0s-0.6,0.1-0.9,0.1c-0.6,0.1-1.2,0.3-1.7,0.4C43,11.7,42.3,11.9,42.3,11.9z"/>
		<path d="M107.7,122.1l5.5-1.3l3.7-4.5c-40.4,9.8-73.1,7.2-83.8,5.9C47.9,125.1,73.3,127.6,107.7,122.1z"/>
		<path d="M132.9,56.8c4.8,7.1,4.6,27-1,41.5l0,0c-2.4,7.1-7.4,14.7-18.3,19.6c-6.6,3.4-15.1,5.4-23.9,6.5c10.4-1,21.9-2.7,34.4-5.4
			c8.5-4.9,12.6-11.5,14.7-17.8l0,0C146.1,78.7,136,59.3,132.9,56.8z"/>
		<g>
			<path d="M118.5,64.7c0.5,0.2,0.9,0.4,1.4,0.7c0.2,0.1,0.5,0.2,0.7,0.4c0.2,0.1,0.4,0.3,0.7,0.4c0.3,0.2,0.6,0.4,0.9,0.5
				c4.2-3.4,8.8-6.4,12.6-7.5c-0.7-1.1-1.3-1.9-1.9-2.3c-1.3-0.8-3-0.9-4.9-0.5c-3.7,1.5-7.8,4.3-11.6,7.5c0.3,0.1,0.5,0.2,0.8,0.3
				C117.6,64.3,118.1,64.5,118.5,64.7z"/>
			<path d="M27,120.9c0.3,0.1,0.6,0.1,0.9,0.2c-4.9-4.7-7-11.7-8.1-21.8c-1.4-13.3,2-19.4,14.7-25.7c2.4-1.4,5.1-2.5,8.1-3.5
				c0.9-0.3,1.4-0.8,1.8-1.2c-0.3-0.2-0.6-0.3-0.8-0.5c-0.1,0-0.2-0.1-0.4-0.2c-0.1-0.1-0.3-0.1-0.5-0.2s-0.4-0.2-0.7-0.3
				c-0.2-0.1-0.5-0.2-0.8-0.4c-0.3-0.1-0.6-0.3-0.8-0.4c-0.5-0.3-1.1-0.6-1.7-0.9c-0.3,0.3-0.7,0.5-1.2,0.7c-3,1-5.8,2.1-8.1,3.5
				c-12.7,6.3-16.1,12.4-14.7,25.7C16,108.6,19,116.2,27,120.9z"/>
		</g>
	</g>
</g>
</svg>
