<?xml version="1.0" encoding="iso-8859-1"?>
<!-- Generator: Adobe Illustrator 19.0.0, SVG Export Plug-In . SVG Version: 6.00 Build 0)  -->
<svg version="1.1" id="Layer_1" xmlns="http://www.w3.org/2000/svg" xmlns:xlink="http://www.w3.org/1999/xlink" x="0px" y="0px"
	 viewBox="0 0 511.999 511.999" style="enable-background:new 0 0 511.999 511.999;" xml:space="preserve">
<g>
	<g>
		<path d="M255.999,0c-71.086,0-128.918,57.833-128.918,128.918c0,48.412,26.829,90.671,66.396,112.707v211.951
			c0,4.672,1.969,9.127,5.422,12.272l45.924,41.824c3.167,2.885,7.172,4.327,11.177,4.327c4.005,0,8.01-1.442,11.177-4.327
			l45.924-41.824c3.454-3.145,5.422-7.6,5.422-12.272v-18.949c0-4.402-1.75-8.624-4.861-11.737l-15.27-15.27l14.96-14.96
			c6.482-6.482,6.482-16.992,0-23.474l-14.959-14.96l14.959-14.96c6.482-6.482,6.482-16.992,0-23.474l-14.959-14.96l15.27-15.27
			c3.113-3.113,4.861-7.335,4.861-11.737v-32.2c39.565-22.036,66.395-64.294,66.395-112.707C384.918,57.833,327.085,0,255.999,0z
			 M285.324,266.95l-22.145,22.146c-6.481,6.482-6.481,16.992,0,23.474l14.959,14.96l-14.959,14.96
			c-6.482,6.482-6.482,16.992,0,23.474l14.959,14.96l-14.959,14.96c-6.482,6.481-6.482,16.992,0,23.474l22.145,22.145v4.741
			l-29.325,26.707l-29.325-26.707V254.494c9.671,2.253,19.801,3.343,29.325,3.343c9.48,0,19.608-1.079,29.325-3.343V266.95z
			 M255.999,224.639c-52.774,0-95.721-42.934-95.721-95.721c0-52.78,42.94-95.721,95.721-95.721s95.721,42.94,95.721,95.721
			C351.72,181.695,308.783,224.639,255.999,224.639z"/>
	</g>
</g>
<g>
	<g>
		<circle cx="255.999" cy="75.846" r="27.665"/>
	</g>
</g>
<g>
</g>
<g>
</g>
<g>
</g>
<g>
</g>
<g>
</g>
<g>
</g>
<g>
</g>
<g>
</g>
<g>
</g>
<g>
</g>
<g>
</g>
<g>
</g>
<g>
</g>
<g>
</g>
<g>
</g>
</svg>
