<?xml version="1.0" encoding="utf-8"?>
<!-- Generator: Adobe Illustrator 19.1.0, SVG Export Plug-In . SVG Version: 6.00 Build 0)  -->
<svg version="1.1" id="Layer_1" xmlns="http://www.w3.org/2000/svg" xmlns:xlink="http://www.w3.org/1999/xlink" x="0px" y="0px"
	 viewBox="0 0 467.7 467.7" enable-background="new 0 0 467.7 467.7" xml:space="preserve">
<g>
	<g>
		<g>
			<path fill="#F5F5F5" d="M288.1,235.1c-6.1,0-11-5-11-11.1V94.3c0-3.7-1.1-3.9-4.8-3.9h-77.6c-3.7,0-10.6,0.6-10.6,3.9V224
				c0,6.1-4.4,11.1-10.5,11.1c-6.1,0-10.5-5-10.5-11.1V94.3c0-15.3,15.1-27.9,31.6-27.9h77.6c15.8,0,26.8,12.1,26.8,27.9V224
				C299.1,230.1,294.2,235.1,288.1,235.1z"/>
		</g>
		<path fill="#FECC38" d="M253.3,362.4h-40.7l7.8-56.9c-8-4.5-13.4-14.1-13.4-23.9c0-14.5,11.7-26.7,26.2-26.7
			c14.5,0,26.2,11.5,26.2,25.9c0,10-5.6,20.7-13.9,25.2L253.3,362.4z M143.5,224.4c-18,0-27.4,5.8-27.4,23.8v113.9
			c0,18,9.4,38.3,27.4,38.3h179c18,0,28.6-20.3,28.6-38.3V248.2c0-18-10.7-23.8-28.6-23.8H143.5z"/>
	</g>
	<g>
		<g>
			<polygon fill="#F5F5F5" points="422.1,335.7 409.9,350.2 383.1,335.7 383.1,207.4 422.1,207.4 			"/>
			<g>
				<polygon fill="#E7E7E7" points="436.1,303.9 436.1,293.4 421.5,285 436.1,276.6 436.1,266 421.6,257.6 436.1,249.2 436.1,208.4 
					409.6,208.1 409.1,208.1 409.1,349.9 409.8,350.2 436.1,335.7 436.1,321 421.3,312.4 				"/>
			</g>
		</g>
		<path fill="#F5F5F5" d="M466.8,170.7c0,31.8-25.8,57.5-57.5,57.5s-57.5-25.8-57.5-57.5s25.8-57.5,57.5-57.5
			S466.8,138.9,466.8,170.7z M409.2,126.9c-11.5,0-20.8,9.3-20.8,20.8s9.3,20.8,20.8,20.8c11.5,0,20.8-9.3,20.8-20.8
			S420.7,126.9,409.2,126.9z"/>
	</g>
	<g>
		<g>
			<polygon fill="#F5F5F5" points="46.1,335.7 58.4,350.2 85.1,335.7 85.1,207.4 46.1,207.4 			"/>
			<g>
				<polygon fill="#E7E7E7" points="32.1,303.9 32.1,293.4 46.7,285 32.1,276.6 32.1,266 46.6,257.6 32.1,249.2 32.1,208.4 
					59.1,208.1 60.1,208.1 60.1,349.9 58.9,350.2 32.1,335.7 32.1,321 46.9,312.4 				"/>
			</g>
		</g>
		<path fill="#F5F5F5" d="M58.5,113.1c31.8,0,57.5,25.8,57.5,57.5s-25.8,57.5-57.5,57.5S1,202.4,1,170.7S26.7,113.1,58.5,113.1z
			 M37.7,147.7c0,11.5,9.3,20.8,20.8,20.8c11.5,0,20.8-9.3,20.8-20.8s-9.3-20.8-20.8-20.8C47,126.9,37.7,136.2,37.7,147.7z"/>
	</g>
</g>
</svg>
