<?xml version="1.0" encoding="utf-8"?>
<!-- Generator: Adobe Illustrator 19.1.0, SVG Export Plug-In . SVG Version: 6.00 Build 0)  -->
<svg version="1.1" id="Layer_1" xmlns="http://www.w3.org/2000/svg" xmlns:xlink="http://www.w3.org/1999/xlink" x="0px" y="0px"
	 viewBox="0 0 226.8 226.8" enable-background="new 0 0 226.8 226.8" xml:space="preserve">
<g>
	<path fill="#FFFFFF" d="M112.8,168.7l-0.8-1c-1.7-1.7-3.7-3-5.7-3.9l0-57.1c2.1-0.9,4-2.2,5.7-3.9l0.8-1c6.8-7.7,6.5-19.4-0.8-26.8
		c-2.1-2.1-4.7-3.6-7.4-4.6v18.5c0,1-0.2,1.9-0.6,2.7c-1,2.3-3.3,3.8-5.9,3.8c-1.8,0-3.5-0.7-4.6-1.9c-0.5-0.5-1-1.2-1.3-1.9
		c-0.4-0.8-0.6-1.7-0.6-2.7l0-18.5c-2.7,0.9-5.2,2.4-7.4,4.6c-7.4,7.4-7.6,19.1-0.8,26.8l0.8,1c1.7,1.7,3.7,3,5.7,3.9v57.1
		c-2.1,0.9-4,2.2-5.7,3.9l-0.8,1c-6.8,7.7-6.5,19.4,0.8,26.8c2.1,2.1,4.7,3.6,7.4,4.6l0-18.5c0-1,0.2-1.9,0.6-2.7
		c1-2.3,3.3-3.8,5.9-3.8c1.8,0,3.5,0.7,4.6,1.9c0.6,0.5,1,1.2,1.3,1.9c0.4,0.8,0.6,1.7,0.6,2.7l0,18.5c2.7-0.9,5.2-2.4,7.4-4.6
		C119.3,188.2,119.5,176.5,112.8,168.7z"/>
</g>
<path fill="#C6C6C6" d="M157.1,128.6c0.6,2.2,1.5,4.4,2.7,6.4l-3.2,4.1c-1.1,1.3-0.9,3.2,0.3,4.4l5.6,5.6c1.2,1.2,3.1,1.3,4.4,0.3
	l4.1-3.2c2.1,1.2,4.3,2.1,6.6,2.8l0.6,5.2c0.2,1.7,1.6,3,3.3,3h7.9c1.7,0,3.1-1.3,3.3-3l0.6-5c2.5-0.6,4.9-1.6,7.1-2.9l3.9,3.1
	c1.3,1.1,3.2,0.9,4.4-0.3l5.6-5.6c1.2-1.2,1.3-3.1,0.3-4.4l-3.1-3.9c1.3-2.2,2.3-4.5,2.9-7l4.7-0.5c1.7-0.2,3-1.6,3-3.3v-7.9
	c0-1.7-1.3-3.1-3-3.3l-4.6-0.5c-0.6-2.4-1.6-4.7-2.8-6.9l2.9-3.6c1.1-1.3,0.9-3.2-0.3-4.4l-5.6-5.6c-1.2-1.2-3.1-1.3-4.4-0.3
	l-3.5,2.8c-2.3-1.3-4.7-2.4-7.3-3l-0.5-4.5c-0.2-1.7-1.6-3-3.3-3h-7.9c-1.7,0-3.1,1.3-3.3,3l-0.5,4.5c-2.6,0.7-5.1,1.8-7.4,3.1
	l-3.6-2.9c-1.3-1.1-3.2-0.9-4.4,0.3l-5.6,5.6c-1.2,1.2-1.3,3.1-0.3,4.4l3,3.8c-1.2,2.2-2.1,4.5-2.8,7l-4.9,0.6c-1.7,0.2-3,1.6-3,3.3
	v7.9c0,1.7,1.3,3.1,3,3.3L157.1,128.6z M185.7,107.3c7.2,0,13.1,5.9,13.1,13.1c0,7.2-5.9,13.1-13.1,13.1c-7.2,0-13.1-5.9-13.1-13.1
	C172.6,113.1,178.5,107.3,185.7,107.3z"/>
<path fill="#FFFFFF" d="M73.9,118.9l-4.2-3.5c-1.3-1.1-3.2-1-4.4,0.1l-2.3,2.2c-1.9-0.9-4-1.6-6.1-2l-0.6-3.2
	c-0.3-1.6-1.9-2.8-3.5-2.6l-5.4,0.5c-1.7,0.1-3,1.5-3,3.2l-0.1,3.2c-2.1,0.8-4.1,1.8-5.9,3.1l-2.8-1.8c-1.4-0.9-3.3-0.7-4.4,0.6
	l-3.5,4.2c-1.1,1.3-1,3.2,0.1,4.4l2.4,2.6c-0.8,1.9-1.4,3.8-1.8,5.9l-3.4,0.7c-1.6,0.3-2.8,1.9-2.6,3.5l0.5,5.4c0.1,1.7,1.5,3,3.2,3
	l3.7,0.1c0.7,1.8,1.6,3.5,2.6,5l-2.1,3.1c-0.9,1.4-0.7,3.3,0.6,4.4l4.2,3.5c1.3,1.1,3.2,1,4.4-0.1l2.7-2.6c1.8,0.8,3.7,1.5,5.6,1.8
	l0.8,3.7c0.3,1.6,1.9,2.8,3.5,2.6l5.4-0.5c1.7-0.1,3-1.5,3-3.2l0.1-3.7c2-0.7,3.9-1.7,5.6-2.8l3,2c1.4,0.9,3.3,0.7,4.4-0.6l3.5-4.2
	c1.1-1.3,1-3.2-0.1-4.4l-2.4-2.6c0.9-1.9,1.5-3.9,1.9-5.9l3.3-0.7c1.6-0.3,2.8-1.9,2.6-3.5l-0.5-5.4c-0.1-1.7-1.5-3-3.2-3l-3.3-0.1
	c-0.7-1.9-1.6-3.8-2.8-5.5l1.8-2.7C75.5,121.8,75.2,119.9,73.9,118.9z M53.5,150.3c-5.9,0.5-11.1-3.9-11.5-9.8
	c-0.5-5.9,3.9-11.1,9.7-11.5c5.9-0.5,11.1,3.9,11.5,9.8C63.7,144.6,59.3,149.8,53.5,150.3z"/>
<path fill="#C6C6C6" d="M56.3,60.8l-4.2-3.5c-1.3-1.1-3.2-1-4.4,0.1l-2.3,2.2c-1.9-0.9-4-1.6-6.1-2l-0.6-3.2
	c-0.3-1.6-1.9-2.8-3.5-2.6l-5.4,0.5c-1.7,0.1-3,1.5-3,3.2l-0.1,3.2c-2.1,0.8-4.1,1.8-5.9,3.1l-2.8-1.8c-1.4-0.9-3.3-0.7-4.4,0.6
	l-3.5,4.2c-1.1,1.3-1,3.2,0.1,4.4l2.4,2.6c-0.8,1.9-1.4,3.8-1.8,5.9l-3.4,0.7c-1.6,0.3-2.8,1.9-2.6,3.5l0.5,5.4c0.1,1.7,1.5,3,3.2,3
	l3.7,0.1c0.7,1.8,1.6,3.5,2.6,5l-2.1,3.1c-0.9,1.4-0.7,3.3,0.6,4.4l4.2,3.5c1.3,1.1,3.2,1,4.4-0.1l2.7-2.6c1.8,0.8,3.7,1.5,5.6,1.8
	l0.8,3.7c0.3,1.6,1.9,2.8,3.5,2.6l5.4-0.5c1.7-0.1,3-1.5,3-3.2l0.1-3.7c2-0.7,3.9-1.7,5.6-2.8l3,2c1.4,0.9,3.3,0.7,4.4-0.6l3.5-4.2
	c1.1-1.3,1-3.2-0.1-4.4L56.9,92c0.9-1.9,1.5-3.9,1.9-5.9l3.3-0.7c1.6-0.3,2.8-1.9,2.6-3.5l-0.5-5.4c-0.1-1.7-1.5-3-3.2-3l-3.3-0.1
	c-0.7-1.9-1.6-3.8-2.8-5.5l1.8-2.7C57.8,63.7,57.6,61.8,56.3,60.8z M35.8,92.2c-5.9,0.5-11.1-3.9-11.5-9.8
	c-0.5-5.9,3.9-11.1,9.7-11.5c5.9-0.5,11.1,3.9,11.5,9.8C46,86.5,41.7,91.7,35.8,92.2z"/>
<path fill="#FFFFFF" d="M142.7,55.3c-1.7,0.2-2.9,1.6-3,3.3l0,3.3c0,1.7,1.2,3.1,2.9,3.3l2.5,0.3c0.4,1.5,1,2.9,1.7,4.3l-1.6,2
	c-1.1,1.3-1,3.2,0.2,4.4l2.3,2.4c1.2,1.2,3.1,1.3,4.4,0.3l2-1.5c1.4,0.8,2.9,1.5,4.4,1.9l0.3,2.5c0.2,1.7,1.6,2.9,3.3,3l3.3,0
	c1.7,0,3.1-1.2,3.3-2.9l0.3-2.4c1.7-0.4,3.3-1,4.8-1.9l1.9,1.5c1.3,1.1,3.2,1,4.4-0.2l2.4-2.3c1.2-1.2,1.3-3.1,0.3-4.4l-1.4-1.8
	c0.9-1.5,1.5-3,2-4.6l2.2-0.2c1.7-0.2,3-1.6,3-3.3l0-3.3c0-1.7-1.2-3.1-2.9-3.3l-2.1-0.3c-0.4-1.6-1-3.2-1.8-4.6l1.3-1.6
	c1.1-1.3,1-3.2-0.2-4.4l-2.3-2.4c-1.2-1.2-3.1-1.3-4.4-0.3l-1.6,1.2c-1.5-0.9-3.1-1.6-4.8-2.1l-0.2-2.1c-0.2-1.7-1.6-2.9-3.3-3
	l-3.3,0c-1.7,0-3.1,1.2-3.3,2.9l-0.3,2.1c-1.7,0.4-3.4,1.1-5,2l-1.7-1.3c-1.3-1.1-3.2-1-4.4,0.2l-2.4,2.4c-1.2,1.2-1.3,3.1-0.3,4.4
	l1.4,1.8c-0.8,1.5-1.5,3-1.9,4.6L142.7,55.3z M164.3,51.5c4.8,0.1,8.7,4,8.6,8.8c-0.1,4.8-4,8.7-8.8,8.6c-4.8-0.1-8.7-4-8.6-8.8
	C155.6,55.3,159.5,51.5,164.3,51.5z"/>
<path fill="#FFFFFF" d="M58.7,43.4c-1.4,0.1-2.6,1.4-2.6,2.8l0,2.9c0,1.5,1.1,2.7,2.5,2.9l2.1,0.3c0.4,1.3,0.9,2.5,1.5,3.7l-1.4,1.7
	c-0.9,1.1-0.8,2.8,0.2,3.8l2,2.1c1,1,2.7,1.2,3.8,0.3l1.7-1.3c1.2,0.7,2.5,1.3,3.8,1.7l0.2,2.2c0.1,1.4,1.4,2.6,2.8,2.6l2.9,0
	c1.5,0,2.7-1.1,2.9-2.5l0.3-2.1c1.4-0.4,2.8-0.9,4.1-1.6l1.6,1.3c1.1,0.9,2.8,0.8,3.8-0.2l2.1-2c1-1,1.2-2.7,0.3-3.8l-1.2-1.6
	c0.8-1.3,1.3-2.6,1.7-4l1.9-0.2c1.4-0.1,2.6-1.4,2.6-2.8l0-2.9c0-1.5-1.1-2.7-2.5-2.9L94,43.4c-0.4-1.4-0.9-2.8-1.6-4l1.2-1.4
	c0.9-1.1,0.8-2.8-0.2-3.8l-2-2.1c-1-1-2.7-1.2-3.8-0.3l-1.4,1.1c-1.3-0.8-2.7-1.4-4.2-1.8l-0.2-1.8c-0.1-1.4-1.4-2.6-2.8-2.6l-2.9,0
	c-1.5,0-2.7,1.1-2.9,2.5L73,30.9c-1.5,0.4-3,1-4.3,1.8l-1.4-1.2c-1.1-0.9-2.8-0.8-3.8,0.2l-2.1,2c-1,1-1.2,2.7-0.3,3.8l1.2,1.6
	c-0.7,1.3-1.3,2.6-1.6,4L58.7,43.4z M77.4,40.1c4.2,0,7.5,3.5,7.5,7.6c0,4.2-3.5,7.5-7.6,7.5c-4.2,0-7.5-3.5-7.5-7.6
	C69.8,43.4,73.2,40,77.4,40.1z"/>
<g>
	<rect x="132.8" y="95.3" fill="#FFFFFF" width="5.2" height="52"/>
	<polygon fill="#FFFFFF" points="140.9,86.2 138.3,71.8 132.6,71.8 129.8,86.2 129.8,86.2 129.8,96.4 140.9,96.4 140.9,86.2 	"/>
	<path fill="#FECC38" d="M143.7,195.8c0,1.2-1,2.2-2.2,2.2h-12.4c-1.2,0-2.2-1-2.2-2.2v-34c0-1.2,0.1-3.2,0.2-4.4l2-21.3
		c0.1-1.2,1.2-2.2,2.4-2.2h7.8c1.2,0,2.3,1,2.4,2.2l1.8,21.9c0.1,1.2,0.2,3.2,0.2,4.4V195.8z"/>
	<path fill="#FECC38" d="M146.3,137.5c0,1.2-1,2.2-2.2,2.2h-17.5c-1.2,0-2.2-1-2.2-2.2v-1.6c0-1.2,1-2.2,2.2-2.2h17.5
		c1.2,0,2.2,1,2.2,2.2V137.5z"/>
</g>
</svg>
