<svg xmlns="http://www.w3.org/2000/svg" xmlns:xlink="http://www.w3.org/1999/xlink" preserveAspectRatio="xMidYMid" width="46.955" height="46.987" viewBox="0 0 47.938 47.97">
  <defs>
    <style>
      .cls-1 {
        fill: #000;
        filter: url(#color-overlay-1);
        fill-rule: evenodd;
      }
    </style>

    <filter id="color-overlay-1" filterUnits="userSpaceOnUse">
      <feFlood flood-color="#fff"/>
      <feComposite operator="in" in2="SourceGraphic"/>
      <feBlend in2="SourceGraphic" result="solidFill"/>
    </filter>
  </defs>
  <path d="M25.899,36.776 L35.725,46.602 C36.038,46.915 36.038,47.420 35.725,47.733 C35.569,47.888 35.365,47.967 35.160,47.967 C34.956,47.967 34.751,47.888 34.595,47.733 L24.768,37.906 L24.768,45.569 C24.768,46.011 24.410,46.368 23.969,46.368 C23.528,46.368 23.170,46.011 23.170,45.569 L23.170,37.906 L13.343,47.733 C13.187,47.888 12.982,47.967 12.778,47.967 C12.573,47.967 12.368,47.888 12.213,47.733 C11.900,47.420 11.900,46.915 12.213,46.602 L22.039,36.776 L-0.012,36.776 L-0.012,3.202 L23.170,3.202 L23.170,0.804 C23.170,0.362 23.528,0.005 23.969,0.005 C24.410,0.005 24.768,0.362 24.768,0.804 L24.768,3.202 L47.950,3.202 L47.950,36.776 L25.899,36.776 ZM46.351,4.801 L1.586,4.801 L1.586,35.177 L46.351,35.177 L46.351,4.801 ZM4.784,7.199 L11.978,7.199 C12.420,7.199 12.778,7.556 12.778,7.998 C12.778,8.440 12.420,8.797 11.978,8.797 L4.784,8.797 C4.343,8.797 3.985,8.440 3.985,7.998 C3.985,7.556 4.343,7.199 4.784,7.199 ZM4.784,10.396 L16.775,10.396 C17.216,10.396 17.574,10.754 17.574,11.196 C17.574,11.638 17.216,11.995 16.775,11.995 L4.784,11.995 C4.343,11.995 3.985,11.638 3.985,11.196 C3.985,10.754 4.343,10.396 4.784,10.396 ZM4.784,13.594 L16.775,13.594 C17.216,13.594 17.574,13.951 17.574,14.393 C17.574,14.835 17.216,15.193 16.775,15.193 L4.784,15.193 C4.343,15.193 3.985,14.835 3.985,14.393 C3.985,13.951 4.343,13.594 4.784,13.594 ZM9.580,24.785 C9.958,24.785 10.314,24.863 10.650,24.983 L12.176,23.457 C12.056,23.121 11.978,22.764 11.978,22.387 C11.978,20.624 13.412,19.189 15.176,19.189 C16.939,19.189 18.373,20.624 18.373,22.387 C18.373,22.764 18.296,23.121 18.176,23.457 L19.702,24.983 C20.038,24.863 20.394,24.785 20.771,24.785 C21.363,24.785 21.910,24.957 22.385,25.238 L28.163,19.460 C28.043,19.124 27.966,18.767 27.966,18.390 C27.966,16.627 29.400,15.193 31.163,15.193 C32.927,15.193 34.361,16.627 34.361,18.390 C34.361,18.767 34.283,19.124 34.163,19.460 L38.087,23.384 C38.423,23.264 38.780,23.186 39.157,23.186 C40.920,23.186 42.354,24.620 42.354,26.384 C42.354,28.147 40.920,29.581 39.157,29.581 C37.394,29.581 35.960,28.147 35.960,26.384 C35.960,25.587 36.263,24.866 36.748,24.305 L33.242,20.800 C32.681,21.284 31.960,21.587 31.163,21.587 C30.366,21.587 29.645,21.284 29.085,20.800 L23.516,26.368 C23.797,26.844 23.969,27.391 23.969,27.982 C23.969,29.746 22.535,31.180 20.771,31.180 C19.008,31.180 17.574,29.746 17.574,27.982 C17.574,27.185 17.878,26.464 18.361,25.904 L17.254,24.797 C16.694,25.281 15.973,25.584 15.176,25.584 C14.379,25.584 13.658,25.281 13.097,24.797 L11.990,25.904 C12.474,26.464 12.778,27.185 12.778,27.982 C12.778,29.746 11.344,31.180 9.580,31.180 C7.817,31.180 6.383,29.746 6.383,27.982 C6.383,26.219 7.817,24.785 9.580,24.785 ZM39.157,27.982 C40.039,27.982 40.756,27.266 40.756,26.384 C40.756,25.502 40.039,24.785 39.157,24.785 C38.275,24.785 37.558,25.502 37.558,26.384 C37.558,27.266 38.275,27.982 39.157,27.982 ZM31.163,19.989 C32.045,19.989 32.762,19.272 32.762,18.390 C32.762,17.508 32.045,16.791 31.163,16.791 C30.282,16.791 29.564,17.508 29.564,18.390 C29.564,19.272 30.282,19.989 31.163,19.989 ZM20.771,29.581 C21.653,29.581 22.370,28.864 22.370,27.982 C22.370,27.101 21.653,26.384 20.771,26.384 C19.890,26.384 19.173,27.101 19.173,27.982 C19.173,28.864 19.890,29.581 20.771,29.581 ZM15.176,23.986 C16.057,23.986 16.775,23.268 16.775,22.387 C16.775,21.505 16.057,20.788 15.176,20.788 C14.294,20.788 13.577,21.505 13.577,22.387 C13.577,23.268 14.294,23.986 15.176,23.986 ZM9.580,29.581 C10.462,29.581 11.179,28.864 11.179,27.982 C11.179,27.101 10.462,26.384 9.580,26.384 C8.699,26.384 7.982,27.101 7.982,27.982 C7.982,28.864 8.699,29.581 9.580,29.581 Z" class="cls-1"/>
</svg>
