<?xml version="1.0" encoding="utf-8"?>
<!-- Generator: Adobe Illustrator 19.1.0, SVG Export Plug-In . SVG Version: 6.00 Build 0)  -->
<svg version="1.1" id="Capa_1" xmlns="http://www.w3.org/2000/svg" xmlns:xlink="http://www.w3.org/1999/xlink" x="0px" y="0px"
	 viewBox="-41 192.7 511.6 456.8" style="enable-background:new -41 192.7 511.6 456.8;" xml:space="preserve">
<g>
	<path d="M-25.9,443C5,519.8,88.2,558.1,224,558.1h64v73.1c0,5,1.8,9.2,5.4,12.9c3.6,3.6,7.9,5.4,12.8,5.4c5,0,9.2-1.8,12.9-5.4
		l146.2-146.2c3.6-3.6,5.4-7.9,5.4-12.9c0-4.9-1.8-9.2-5.4-12.8L319,326c-3.6-3.6-7.9-5.4-12.9-5.4c-4.9,0-9.2,1.8-12.8,5.4
		c-3.6,3.6-5.4,7.9-5.4,12.8v73.1h-64c-18.6,0-35.3-0.6-50.1-1.7c-14.7-1.1-29.4-3.2-44-6.1c-14.6-3-27.2-7-38-12.1
		c-10.8-5.1-20.8-11.8-30.1-19.8c-9.3-8.1-16.9-17.7-22.8-28.8C33,332.1,28.4,319,25.1,303.7c-3.3-15.2-5-32.5-5-51.7
		c0-10.5,0.5-22.2,1.4-35.1c0-1.1,0.2-3.4,0.7-6.7c0.5-3.3,0.7-5.9,0.7-7.6c0-2.9-0.8-5.2-2.4-7.1c-1.6-1.9-3.9-2.9-6.7-2.9
		c-3,0-5.7,1.6-8,4.9c-1.3,1.7-2.6,3.8-3.7,6.3c-1.1,2.5-2.4,5.3-3.9,8.6c-1.4,3.2-2.4,5.5-3,6.8C-28.9,273.5-41,316.4-41,348
		C-41,385.9-36,417.5-25.9,443z"/>
</g>
</svg>
