<?xml version="1.0" encoding="utf-8"?>
<!-- Generator: Adobe Illustrator 19.1.0, SVG Export Plug-In . SVG Version: 6.00 Build 0)  -->
<svg version="1.1" id="Layer_1" xmlns="http://www.w3.org/2000/svg" xmlns:xlink="http://www.w3.org/1999/xlink" x="0px" y="0px"
	 viewBox="173 201.8 941 439.2" style="enable-background:new 173 201.8 941 439.2;" xml:space="preserve">
<style type="text/css">
	.st0{opacity:0.3;fill-opacity:0;stroke:#FFFFFF;stroke-width:6;stroke-linejoin:round;enable-background:new    ;}
</style>
<path class="st0" d="M289.3,358.3l-51.9,0.2c0.8-12.1,4.8-22.5,12.1-31.3c7.3-8.8,20.5-17.7,39.6-26.7l-23.6-43.9
	c-31,13.6-52.9,29.3-65.8,47c-12.7,17.7-19.1,41.8-19,72.3l0.3,82.9l108.5-0.3L289.3,358.3z M415.7,357.9l-51.9,0.2
	c0.8-12.1,4.8-22.5,12.1-31.3c7.3-8.8,20.5-17.7,39.6-26.7l-23.6-43.9c-31,13.6-52.9,29.3-65.8,47c-12.7,17.7-19.1,41.8-19,72.3
	l0.3,82.9l108.5-0.3L415.7,357.9z"/>
<path class="st0" d="M997.7,484.5l51.9-0.2c-0.8,12.1-4.8,22.5-12.1,31.3c-7.3,8.8-20.5,17.7-39.6,26.7l23.6,43.9
	c31-13.6,52.9-29.3,65.8-47c12.7-17.7,19.1-41.8,19-72.3l-0.3-82.9l-108.5,0.3L997.7,484.5z M871.3,484.9l51.9-0.2
	c-0.8,12.1-4.8,22.5-12.1,31.3c-7.3,8.8-20.5,17.7-39.6,26.7l23.6,43.9c31-13.6,52.9-29.3,65.8-47c12.7-17.7,19.1-41.8,19-72.3
	l-0.3-82.9l-108.5,0.3L871.3,484.9z"/>
</svg>
