<?xml version="1.0" encoding="utf-8"?>
<!-- Generator: Adobe Illustrator 19.1.0, SVG Export Plug-In . SVG Version: 6.00 Build 0)  -->
<svg version="1.1" id="Layer_1" xmlns="http://www.w3.org/2000/svg" xmlns:xlink="http://www.w3.org/1999/xlink" x="0px" y="0px"
	 viewBox="173 268.9 941 305" enable-background="new 173 268.9 941 305" xml:space="preserve">
<path opacity="0.3" fill-opacity="0" stroke="#FFFFFF" stroke-width="6" stroke-linejoin="round" enable-background="new    " d="
	M299.1,319.9l-51.6-5.9c2.2-11.9,7.4-21.8,15.7-29.7c8.3-7.9,22.4-15.2,42.4-21.9l-18.3-46.4c-32.4,9.9-56,22.9-70.8,39
	c-14.7,16.1-23.8,39.3-27.3,69.6l-9.4,82.4l107.8,12.4L299.1,319.9z M424.7,334.3l-51.6-5.9c2.2-11.9,7.4-21.8,15.7-29.7
	c8.3-7.9,22.4-15.2,42.4-21.9l-18.3-46.4c-32.4,9.9-56,22.9-70.8,39c-14.7,16.1-23.8,39.3-27.3,69.6l-9.4,82.4l107.8,12.4
	L424.7,334.3z"/>
<path opacity="0.3" fill-opacity="0" stroke="#FFFFFF" stroke-width="6" stroke-linejoin="round" enable-background="new    " d="
	M987.9,527.9l51.6,5.9c-2.2,11.9-7.4,21.8-15.7,29.7c-8.3,7.9-22.4,15.2-42.4,21.9l18.3,46.4c32.4-9.9,56-22.9,70.8-39
	c14.7-16.1,23.8-39.3,27.3-69.6l9.4-82.4l-107.8-12.4L987.9,527.9z M862.3,513.5l51.6,5.9c-2.2,11.9-7.4,21.8-15.7,29.7
	c-8.3,7.9-22.4,15.2-42.4,21.9l18.3,46.4c32.4-9.9,56-22.9,70.8-39c14.7-16.1,23.8-39.3,27.3-69.6l9.4-82.4l-107.8-12.4L862.3,513.5
	z"/>
</svg>
