<?xml version="1.0" encoding="utf-8"?>
<!-- Generator: Adobe Illustrator 19.1.0, SVG Export Plug-In . SVG Version: 6.00 Build 0)  -->
<svg version="1.1" id="Layer_1" xmlns="http://www.w3.org/2000/svg" xmlns:xlink="http://www.w3.org/1999/xlink" x="0px" y="0px"
	 viewBox="0 0 418.7 165.3" enable-background="new 0 0 418.7 165.3" xml:space="preserve">
<g opacity="0.2">
	<g>
		<g>
			<g>
				<g>
					<path d="M90.7,63.4c0,0.7,0,0.6,0,0.9c0,1.1-1.8,1.5-1.8,2.8c0,1.3,0.2,1.7,1.7,1.7c1.5,0,4,0,4,0s2.5,0,4,0
						c1.5,0,1.7-0.4,1.7-1.7c0-1.3-1.8-1.7-1.8-2.8c0-0.3,0-0.2,0-0.9c0-0.9,1.8-1.4,1.8-2.5c0-1.3,0-19.4,0-22.5
						c0-3.1-1.8-3.9-5.7-3.9c-3.9,0-5.7,0.7-5.7,3.9c0,3.1,0,21.2,0,22.5C88.9,62,90.7,62.5,90.7,63.4z"/>
					<g>
						<path d="M97.1,37.7c0-0.5,0.4-1,1-1h0.1c0.5,0,1,0.4,1,1V59c0,0.5-0.4,1-1,1h-0.1c-0.5,0-1-0.4-1-1V37.7z"/>
						<path d="M93.7,37.7c0-0.5,0.4-1,1-1h0.1c0.5,0,1,0.4,1,1V59c0,0.5-0.4,1-1,1h-0.1c-0.5,0-1-0.4-1-1V37.7z"/>
						<path d="M90.1,37.7c0-0.5,0.4-1,1-1h0.1c0.5,0,1,0.4,1,1V59c0,0.5-0.4,1-1,1h-0.1c-0.5,0-1-0.4-1-1V37.7z"/>
					</g>
					<polygon points="95.7,112.1 95.7,66.5 93.6,66.5 93.6,112.1 91.9,114 93.4,120.8 94.6,120.8 95.9,120.8 97.3,114 					"/>
				</g>
				<path d="M88.5,67c0-0.8,0.7-1.5,1.5-1.5h9.2c0.8,0,1.5,0.7,1.5,1.5v0.4c0,0.8-0.7,1.5-1.5,1.5H90c-0.8,0-1.5-0.7-1.5-1.5V67z"/>
			</g>
			<g>
				<g>
					<path d="M71.7,62.3c0,0.8,0,0.7,0,1c0,1.3-2.2,1.8-2.2,3.3c0,1.5,0.2,2,2,2c1.8,0,4.8,0,4.8,0s2.9,0,4.8,0s2-0.5,2-2
						c0-1.5-2.2-2-2.2-3.3c0-0.3,0-0.2,0-1c0-1.1,2.2-1.7,2.2-2.9c0-1.6,0-23.1,0-26.9s-2.1-4.6-6.8-4.6c-4.7,0-6.8,0.9-6.8,4.6
						s0,25.3,0,26.9C69.6,60.6,71.7,61.2,71.7,62.3z"/>
					<g>
						<path d="M79.3,31.6c0-0.7,0.5-1.2,1.2-1.2h0.1c0.7,0,1.2,0.5,1.2,1.2v25.4c0,0.7-0.5,1.2-1.2,1.2h-0.1c-0.7,0-1.2-0.5-1.2-1.2
							V31.6z"/>
						<path d="M75.3,31.6c0-0.7,0.5-1.2,1.2-1.2h0.1c0.7,0,1.2,0.5,1.2,1.2v25.4c0,0.7-0.5,1.2-1.2,1.2h-0.1c-0.7,0-1.2-0.5-1.2-1.2
							V31.6z"/>
						<path d="M71,31.6c0-0.7,0.5-1.2,1.2-1.2h0.1c0.7,0,1.2,0.5,1.2,1.2v25.4c0,0.7-0.5,1.2-1.2,1.2h-0.1c-0.7,0-1.2-0.5-1.2-1.2
							V31.6z"/>
					</g>
					<polygon points="77.6,120.4 77.6,66 75.2,66 75.2,120.4 73.2,122.7 74.9,130.8 76.4,130.8 77.9,130.8 79.6,122.7 					"/>
				</g>
				<path d="M69.1,66.6c0-1,0.8-1.8,1.8-1.8h11c1,0,1.8,0.8,1.8,1.8v0.5c0,1-0.8,1.8-1.8,1.8h-11c-1,0-1.8-0.8-1.8-1.8V66.6z"/>
			</g>
			<g>
				<g>
					<path d="M21.5,59.1c0,1.2,0,1.1,0,1.5c0,1.9-3.2,2.7-3.2,4.9c0,2.2,0.3,3,3,3s7.1,0,7.1,0s4.3,0,7.1,0c2.7,0,3-0.8,3-3
						c0-2.2-3.2-3-3.2-4.9c0-0.5,0-0.3,0-1.5c0-1.7,3.2-2.5,3.2-4.4c0-2.3,0-34.3,0-39.9c0-5.6-3.1-6.8-10.1-6.8s-10.1,1.3-10.1,6.8
						c0,5.6,0,37.6,0,39.9C18.3,56.6,21.5,57.4,21.5,59.1z"/>
					<g>
						<path d="M32.8,13.6c0-1,0.8-1.8,1.8-1.8h0.1c1,0,1.8,0.8,1.8,1.8v37.7c0,1-0.8,1.8-1.8,1.8h-0.1c-1,0-1.8-0.8-1.8-1.8V13.6z"
							/>
						<path d="M26.8,13.6c0-1,0.8-1.8,1.8-1.8h0.1c1,0,1.8,0.8,1.8,1.8v37.7c0,1-0.8,1.8-1.8,1.8h-0.1c-1,0-1.8-0.8-1.8-1.8V13.6z"
							/>
						<path d="M20.4,13.6c0-1,0.8-1.8,1.8-1.8h0.1c1,0,1.8,0.8,1.8,1.8v37.7c0,1-0.8,1.8-1.8,1.8h-0.1c-1,0-1.8-0.8-1.8-1.8V13.6z"
							/>
					</g>
					<polygon points="30.3,145.1 30.3,64.5 26.6,64.5 26.6,145.1 23.7,148.6 26.2,160.6 28.4,160.6 30.7,160.6 33.2,148.6 					"/>
				</g>
				<path d="M17.7,65.4c0-1.5,1.2-2.6,2.6-2.6h16.3c1.5,0,2.6,1.2,2.6,2.6v0.8c0,1.5-1.2,2.6-2.6,2.6H20.3c-1.5,0-2.6-1.2-2.6-2.6
					V65.4z"/>
			</g>
			<g>
				<g>
					<path d="M47.7,60.3c0,1.1,0,0.9,0,1.3c0,1.6-2.8,2.3-2.8,4.3c0,1.9,0.3,2.6,2.7,2.6s6.2,0,6.2,0s3.8,0,6.2,0s2.7-0.7,2.7-2.6
						c0-1.9-2.8-2.7-2.8-4.3c0-0.4,0-0.3,0-1.3c0-1.5,2.8-2.2,2.8-3.8c0-2,0-30.1,0-34.9c0-4.9-2.7-6-8.8-6c-6.1,0-8.8,1.1-8.8,6
						c0,4.9,0,32.9,0,34.9C44.9,58.1,47.7,58.8,47.7,60.3z"/>
					<g>
						<path d="M57.6,20.4c0-0.9,0.7-1.5,1.5-1.5h0.1c0.9,0,1.5,0.7,1.5,1.5v33.1c0,0.9-0.7,1.5-1.5,1.5h-0.1c-0.9,0-1.5-0.7-1.5-1.5
							V20.4z"/>
						<path d="M52.3,20.4c0-0.9,0.7-1.5,1.5-1.5H54c0.9,0,1.5,0.7,1.5,1.5v33.1c0,0.9-0.7,1.5-1.5,1.5h-0.1c-0.9,0-1.5-0.7-1.5-1.5
							V20.4z"/>
						<path d="M46.8,20.4c0-0.9,0.7-1.5,1.5-1.5h0.1c0.9,0,1.5,0.7,1.5,1.5v33.1c0,0.9-0.7,1.5-1.5,1.5h-0.1c-0.9,0-1.5-0.7-1.5-1.5
							V20.4z"/>
					</g>
					<polygon points="55.4,129.7 55.4,65 52.2,65 52.2,129.7 49.6,132.7 51.8,143.3 53.8,143.3 55.7,143.3 57.9,132.7 					"/>
				</g>
				<path d="M44.3,65.8c0-1.3,1-2.3,2.3-2.3h14.3c1.3,0,2.3,1,2.3,2.3v0.7c0,1.3-1,2.3-2.3,2.3H46.6c-1.3,0-2.3-1-2.3-2.3V65.8z"/>
			</g>
		</g>
		<g>
			<path d="M112.1,87.8c0,1.6-1.3,2.9-2.9,2.9H7.1c-1.6,0-2.9-1.3-2.9-2.9V71.7c0-1.6,1.3-2.9,2.9-2.9h102.1c1.6,0,2.9,1.3,2.9,2.9
				V87.8z"/>
		</g>
	</g>
	<g>
		<g>
			<g>
				<g>
					<path d="M126.3,102c-2.5,4.5-2.6,6.4-2.6,6.4l8.3-2.9l9.3,1c0,0-0.8-2.8-3.3-4.9c-2.3-2-2.2-3.6-2.2-6.7V28.1
						c0-2.7,0.6-6.1,1.8-7.9h-5.5h-5.5c1.2,1.9,1.8,5.3,1.8,7.9v66.7C128.1,97.9,127.9,99.1,126.3,102z"/>
					<path d="M130.2,29.1c0-0.9,0.8-1.7,1.7-1.7l0,0c0.9,0,1.7,0.8,1.7,1.7v62.1c0,0.9-0.8,1.7-1.7,1.7l0,0c-0.9,0-1.7-0.8-1.7-1.7
						V29.1z"/>
					<path d="M130.2,118.9l-2.1-8.9c0,0,0.4-1.5,4.6-2.1c4.1-0.6,4.9,0.9,4.9,0.9l2.1,8.1c0,0,2.7-5.1,1.6-9.7c-1.2-5-5-6.8-10.5-6
						c-5.5,0.8-7.8,5.9-7.1,9.2C124.4,113.7,126.7,116.2,130.2,118.9z"/>
					<path d="M131.9,22.7c4,0,7.3-3.3,7.3-7.3S135.9,8,131.9,8c-4,0-7.3,3.3-7.3,7.3S127.9,22.7,131.9,22.7z M129.4,11h5l2.5,4.3
						l-2.5,4.3h-5l-2.5-4.3L129.4,11z"/>
				</g>
			</g>
			<g>
				
				<g>
					<circle cx="131.9" cy="12.3" r="1.3"/>
				</g>
			</g>
		</g>
		<g>
			<g>
				<g>
					<path d="M153.9,123.3c-3.1,5.6-3.2,7.8-3.2,7.8l10.1-3.5l11.4,1.2c0,0-1-3.4-4.1-6.1c-2.8-2.4-2.7-4.4-2.7-8.3V32.6
						c0-3.3,0.8-7.5,2.2-9.7h-6.8H154c1.4,2.3,2.2,6.5,2.2,9.7v81.9C156.2,118.3,155.9,119.8,153.9,123.3z"/>
					<path d="M158.7,33.9c0-1.1,0.9-2.1,2.1-2.1l0,0c1.1,0,2.1,0.9,2.1,2.1v76.1c0,1.1-0.9,2.1-2.1,2.1l0,0c-1.1,0-2.1-0.9-2.1-2.1
						V33.9z"/>
					<path d="M158.7,144.1l-2.5-11c0,0,0.6-1.8,5.6-2.5c5-0.7,6.1,1.1,6.1,1.1l2.6,9.9c0,0,3.3-6.2,2-11.9
						c-1.5-6.2-6.1-8.4-12.9-7.4c-6.8,0.9-9.6,7.2-8.7,11.3C151.6,137.7,154.4,140.7,158.7,144.1z"/>
					<path d="M160.8,26c5,0,9-4,9-9s-4-9-9-9c-5,0-9,4-9,9S155.8,26,160.8,26z M157.7,11.7h6.1l3,5.3l-3,5.3h-6.1l-3-5.3L157.7,11.7
						z"/>
				</g>
			</g>
			<g>
				
				<g>
					<circle cx="160.8" cy="13.1" r="1.3"/>
				</g>
			</g>
		</g>
		<g>
			<g>
				<path d="M202.6,112.4l-5-10.6l-6.3-0.3l14.2-7.8C205.4,93.7,210.4,104.9,202.6,112.4z"/>
				<path d="M180.2,102.7c0,5.6,6.9,11.1,14.3,12.7l-4.3-10.9l6.8-5.4l12.8-5.1l-2.5-5.8l-1.7,0.5c0,0-3.5-5.8-4.2-7.9
					c-0.7-2.1-0.5-11.1-0.5-16V14l0,0c-0.2-3.3-3-6-6.3-6c-3.5,0-6.4,2.8-6.4,6.4l2.8,58.4c0,5.1-0.4,9.5-4.5,15.8
					C182.4,94.9,180.2,97.2,180.2,102.7z M190.4,14.4c0-2.3,1.8-4.1,4.1-4.1c2.3,0,4.1,1.8,4.1,4.1c0,2.3-1.8,4.1-4.1,4.1
					C192.3,18.5,190.4,16.7,190.4,14.4z"/>
				<path d="M194.5,18.5c-2.1,0-3.9-1.6-4.1-3.7l3.3,63c0,1.2,1,2.2,2.2,2.2c1.2,0,2.2-1,2.2-2.2l0.6-63.4
					C198.7,16.7,196.8,18.5,194.5,18.5z"/>
				<path d="M180.2,102.7c0,5.6,6.9,11.1,14.3,12.7l-4.3-10.9l6.8-5.4l12.8-5.1l-2.5-5.8l-26.2,9.2
					C180.5,99,180.2,100.6,180.2,102.7z"/>
				<path d="M194,87.7c-0.1-0.3,0-0.7,0.4-0.9l4.6-1.7c0.3-0.1,0.7,0,0.9,0.4l1.7,4.6c0.1,0.3,0,0.7-0.4,0.9l-4.6,1.7
					c-0.3,0.1-0.7,0-0.9-0.4L194,87.7z"/>
				<g>
					<path d="M198.3,86.9c-0.1-0.3,0-0.7,0.4-0.8l0,0c0.3-0.1,0.7,0,0.8,0.4l1.2,3.2c0.1,0.3,0,0.7-0.4,0.8l0,0
						c-0.3,0.1-0.7,0-0.8-0.4L198.3,86.9z"/>
					<path d="M196.6,87.5c-0.1-0.3,0-0.7,0.4-0.8l0,0c0.3-0.1,0.7,0,0.8,0.4l1.2,3.2c0.1,0.3,0,0.7-0.4,0.8l0,0
						c-0.3,0.1-0.7,0-0.8-0.4L196.6,87.5z"/>
					<path d="M194.9,88.2c-0.1-0.3,0-0.7,0.4-0.8l0,0c0.3-0.1,0.7,0,0.8,0.4l1.2,3.2c0.1,0.3,0,0.7-0.4,0.8l0,0
						c-0.3,0.1-0.7,0-0.8-0.4L194.9,88.2z"/>
				</g>
			</g>
			<g>
				<g>
					<circle cx="194.6" cy="11.6" r="1.3"/>
				</g>
			</g>
		</g>
	</g>
	<g>
		<g>
			<g>
				<rect x="382.4" y="62.6" width="4.3" height="5.2"/>
				<rect x="390" y="62.6" width="4.3" height="5.2"/>
				<g>
					<path d="M394.2,56.3c0.5-0.9,0.8-2,0.8-3.1c0-3.7-3-6.7-6.7-6.7c-0.2,0-0.4,0-0.6,0l0.2-0.2V34.6l-0.8-0.6l0.5-0.3l-0.9-0.6
						l0.6-0.5l-0.9-0.5l0.9-0.5l-0.6-0.5l0.9-0.6l-0.5-0.3l0.8-0.6V22h-1.6c-5.9,20.3-5.5,27.8-5.5,27.8h1.7c-0.6,1-0.9,2.1-0.9,3.4
						c0,3.7,3,6.7,6.7,6.7c0.3,0,0.6,0,0.9-0.1v0.9v3.1l1.4,1.1l4.6-2.3v-6.2L394.2,56.3z"/>
				</g>
				<g>
					<path d="M390.3,22h-1.6v7.5l0.8,0.6l-0.5,0.3l0.9,0.6l-0.6,0.5l0.9,0.5l-0.9,0.5l0.6,0.5l-0.9,0.6l0.5,0.3l-0.8,0.6v11.3
						c2.7,0.1,5,1.7,6.2,4h0.9C395.8,49.8,396.2,42.3,390.3,22z"/>
				</g>
				<path d="M402.5,95.4c-2.7-17.5-6.9-28.9-6.9-28.9h-6.3c9.7,41.4,5.5,67.2,5.5,70.7c0,3.5,4.3,6.1,6.1,1.1
					C402.6,133.3,405.2,113,402.5,95.4z"/>
				<path opacity="0.6" d="M394.7,137.2c0,1.7,1,3.2,2.2,3.7c0.8-0.3,1.5-1.2,2-2.6c1.8-5,4.4-25.3,1.7-42.9
					c-2.7-17.5-6.9-28.9-6.9-28.9h-4.5C399,108,394.7,133.7,394.7,137.2z"/>
				<path d="M374.2,95.4c2.7-17.5,6.9-28.9,6.9-28.9h6.3c-9.7,41.4-5.5,67.2-5.5,70.7c0,3.5-4.3,6.1-6.1,1.1
					C374,133.3,371.5,113,374.2,95.4z"/>
				<path opacity="0.6" d="M375.9,138.3c0.5,1.4,1.2,2.2,2,2.6c1.2-0.5,2.2-2,2.2-3.7c0-3.5-4.3-29.3,5.5-70.7h-4.5
					c0,0-4.3,11.4-6.9,28.9C371.5,113,374,133.3,375.9,138.3z"/>
				<path d="M381.5,56.4l-0.1,0v6.2l4.6,2.3l1.4-1.1v-3.1v0C384.8,60.3,382.6,58.7,381.5,56.4z"/>
				<path d="M388.3,48.1c-2.8,0-5.1,2.3-5.1,5.1s2.3,5.1,5.1,5.1s5.1-2.3,5.1-5.1S391.1,48.1,388.3,48.1z M388.3,56.4
					c-1.8,0-3.2-1.4-3.2-3.2s1.4-3.2,3.2-3.2c1.8,0,3.2,1.4,3.2,3.2S390.1,56.4,388.3,56.4z"/>
			</g>
		</g>
		<g>
			<g>
				<path d="M353,5.1c-2.6,0-13.1,0-14.5,0c-1.3,0-2,3.4-8.4,3.4c-4.4,0-6.8-2.4-6.8-2.4v11.6c0,0,2.2-1.1,6.8-1.1
					c2.6,0,4.3,0.7,5.4,1.4v9.4c0,1.4,1.2,2.6,2.6,2.6h10.7c1.4,0,2.6-1.2,2.6-2.6c0,0,0-10.6,0-10.9c0.8-1.2,2.5-2.4,6-2.4
					c7.7,0,12.8,7.7,12.8,10.2h1.7C372.1,8.3,355.6,5.1,353,5.1z"/>
				<rect x="338.9" y="28.5" width="9.1" height="41.2"/>
				<path d="M352,138.5c0,1.4-1.2,2.6-2.6,2.6h-12c-1.4,0-2.6-1.2-2.6-2.6l0.9-68.3c0-1.4,1.2-2.6,2.6-2.6h10.3
					c1.4,0,2.6,1.2,2.6,2.6L352,138.5z"/>
				<path d="M330.2,16.5c2.6,0,4.3,0.7,5.4,1.4v9.4c0,1.4,1.2,2.6,2.6,2.6h10.7c1.4,0,2.6-1.2,2.6-2.6c0,0,0-10.6,0-10.9
					c0.8-1.2,2.5-2.4,6-2.4c7.7,0,12.8,7.7,12.8,10.2h1c-0.2-3.4-2.1-12.9-18.3-12.9c0,0-4.2,4.8-11.4,4.8c-7.2,0-9-3.6-18.3-3.6
					v5.1C323.3,17.7,325.6,16.5,330.2,16.5z"/>
				<path d="M325.4,17.4c0,1.4-1.2,2.6-2.6,2.6h-7.1c-1.4,0-2.6-1.2-2.6-2.6V7.6c0-1.4,1.2-2.6,2.6-2.6h7.1c1.4,0,2.6,1.2,2.6,2.6
					V17.4z"/>
				<path d="M313.1,12.1v5.3c0,1.4,1.2,2.6,2.6,2.6h7.1c1.4,0,2.6-1.2,2.6-2.6v-5.9C319.7,13,315.7,12.8,313.1,12.1z"/>
				<rect x="340.1" y="67.6" opacity="0.6" width="6.6" height="73.5"/>
			</g>
		</g>
		<g>
			<path d="M415.3,95.2c0,1.6-1.3,2.9-2.9,2.9h-94.7c-1.6,0-2.9-1.3-2.9-2.9V79.1c0-1.6,1.3-2.9,2.9-2.9h94.7c1.6,0,2.9,1.3,2.9,2.9
				V95.2z"/>
		</g>
	</g>
	<g>
		<g>
			<g>
				<g>
					<path d="M289.1,56.5c-0.4-1.3-0.8-2-2.4-2.4c-1.5-0.4-4.1-4-3-8c1-4.1,2.3-9.6,2.3-13.9c0-4.3,0-18.1,0-18.1
						c0-3.9-3.2-7.1-7.1-7.1s-7.1,3.2-7.1,7.1c0,0,0,13.7,0,18.1c0,4.3,1.3,9.9,2.3,13.9c1,4.1-1.5,7.6-3,8c-1.5,0.4-2,1.1-2.4,2.4
						c-0.4,1.3-1.3,7.4-1.3,7.4h11.4h11.4C290.3,64,289.4,57.8,289.1,56.5z M278.9,16.8c-1.5,0-2.8-1.2-2.8-2.8
						c0-1.5,1.2-2.8,2.8-2.8c1.5,0,2.8,1.2,2.8,2.8C281.7,15.6,280.4,16.8,278.9,16.8z"/>
					<path d="M287,58c-0.3-1.3-0.6-2-1.9-2.5c-1.2-0.4-3.2-4-2.4-8.1c0.8-4.1,1.8-9.7,1.8-14.1c0-4.4,0-18.3,0-18.3
						c0-4-2.5-7.2-5.6-7.2s-5.6,3.2-5.6,7.2c0,0,0,13.9,0,18.3c0,4.4,1,10,1.8,14.1c0.8,4.1-1.2,7.7-2.4,8.1
						c-1.2,0.4-1.6,1.1-1.9,2.5c-0.3,1.3-1,7.6-1,7.6h9.1h9.1C288,65.5,287.3,59.3,287,58z M278.9,16.8c-1.5,0-2.8-1.2-2.8-2.8
						c0-1.5,1.2-2.8,2.8-2.8c1.5,0,2.8,1.2,2.8,2.8C281.7,15.6,280.4,16.8,278.9,16.8z"/>
					<path d="M288.5,62.9h-9.6h-9.6c0,0-3.7,6.3-3.7,13.9c0,7.6,0,29.1,0,29.1l0.2-0.4l0.3,0.4l0.3-0.3l0.5,0.3l0.4-0.7l0.3,0.7h0.7
						l0.7-0.5l0.2,0.5h0.3l0.4-0.5l0.3,0.5h0.4l0.4-0.4l0.3,0.4h0.4l0.3-0.2l0.3,0.2h0.2l0.2-0.4l0.4,0.4l0.4-0.7l0.3,0.7l0.5-0.5
						l0.5,0.5h0.2l0.5-0.5l0.4,0.5h0.3l0.3-0.3l0.4,0.3l0.5-0.4l0.3,0.4h0.3l0.3-0.5l0.5,0.5l0.3-0.6l0.5,0.6l0.5-0.5l0.4,0.5h0.4
						l0.3-2.6l0.3,2.6h0.3l0.2-0.4l0.2,0.4h0.3l0.4-0.6l0.6,0.6h0.3l0.3-0.4l0.4,0.4h0.3l0.3-0.7l0.4,0.7h0.3l0.3-3.4l0.5,3.4h0.3
						l0.3-0.5l0.4,0.5h0.3l0.3-0.5l0.5,0.5h0.2l0.6-0.4l0.3,0.4l0.4-0.4l0.3,0.4h0.3l0.4-0.6l0.2,0.6l0.3-0.5l0.3,0.5
						c0,0,0-21.5,0-29.1C292.2,69.2,288.5,62.9,288.5,62.9z"/>
					<polygon points="271.5,106 271.6,78.3 271.6,106 					"/>
					<polygon points="267.6,106 267.7,76.7 267.7,106 					"/>
					<polygon points="268.1,106 268.2,78.3 268.2,106 					"/>
					<polygon points="270.4,106 270.5,76.7 270.5,106 					"/>
					<polygon points="272.5,106 272.6,77.3 272.6,106 					"/>
					<polygon points="275,106 275.2,77.7 275.2,106 					"/>
					<polygon points="276.2,106 276.3,75.7 276.3,106 					"/>
					<polygon points="277.8,106 277.9,79 277.9,106 					"/>
					<polygon points="280.6,106 280.8,77.3 280.8,106 					"/>
					<polygon points="282.3,106 282.5,77.3 282.5,106 					"/>
					<polygon points="283.6,106 283.7,78.3 283.7,106 					"/>
					<polygon points="284.7,106 284.8,76.2 284.8,106 					"/>
					<polygon points="285.8,106 285.9,78.3 285.9,106 					"/>
					<polygon points="286.9,106 287,75.7 287,106 					"/>
					<polygon points="287.9,106 288,78.3 288,106 					"/>
					<polygon points="288.9,106 289,77.3 289,106 					"/>
					<polygon points="290.8,106 290.9,76.7 290.9,106 					"/>
					<polygon points="281.7,106 281.8,78.3 281.8,106 					"/>
					<polygon points="267.8,61.8 266.7,69.2 291.1,69.2 290,61.8 					"/>
					<polygon points="267.3,65.6 290.6,65.6 290.3,64.2 267.5,64.2 					"/>
					<polygon points="290.2,62.9 290,61.8 267.8,61.8 267.7,62.9 					"/>
					<g>
						<circle cx="270.4" cy="67.6" r="0.6"/>
						<circle cx="276.1" cy="67.6" r="0.6"/>
						<circle cx="281.7" cy="67.6" r="0.6"/>
						<circle cx="287.4" cy="67.6" r="0.6"/>
					</g>
				</g>
			</g>
			<g>
				<g>
					<circle cx="278.9" cy="12.7" r="1.3"/>
				</g>
			</g>
		</g>
		<g>
			<g>
				<g>
					<path d="M253.9,70.6c-0.5-1.7-1-2.6-3-3.1s-5.2-5.1-3.9-10.3c1.3-5.2,3-12.3,3-17.9c0-5.6,0-23.2,0-23.2c0-5-4.1-9.1-9.1-9.1
						s-9.1,4.1-9.1,9.1c0,0,0,17.6,0,23.2c0,5.6,1.6,12.7,3,17.9c1.3,5.2-1.9,9.7-3.9,10.3c-2,0.6-2.6,1.4-3,3.1
						c-0.5,1.7-1.6,9.6-1.6,9.6h14.6h14.6C255.5,80.2,254.3,72.3,253.9,70.6z M240.8,19.6c-2,0-3.5-1.6-3.5-3.5s1.6-3.5,3.5-3.5
						s3.5,1.6,3.5,3.5S242.8,19.6,240.8,19.6z"/>
					<path d="M251.2,72.5c-0.4-1.7-0.8-2.6-2.4-3.2c-1.6-0.6-4.1-5.2-3.1-10.5c1.1-5.3,2.4-12.5,2.4-18.2c0-5.7,0-23.5,0-23.5
						c0-5.1-3.2-9.2-7.2-9.2s-7.2,4.1-7.2,9.2c0,0,0,17.9,0,23.5c0,5.7,1.3,12.9,2.4,18.2c1.1,5.3-1.5,9.9-3.1,10.5
						c-1.6,0.6-2,1.4-2.4,3.2c-0.4,1.7-1.3,9.7-1.3,9.7h11.7h11.7C252.5,82.2,251.6,74.2,251.2,72.5z M240.8,19.6
						c-2,0-3.5-1.6-3.5-3.5s1.6-3.5,3.5-3.5s3.5,1.6,3.5,3.5S242.8,19.6,240.8,19.6z"/>
					<path d="M253.2,78.9h-12.4h-12.4c0,0-4.7,8.1-4.7,17.9s0,29.5,0,29.5l0.3-0.5l0.4,0.5l0.3-0.4l0.7,0.4l0.5-0.9l0.4,0.9h0.9
						l0.9-0.7l0.3,0.7h0.4l0.6-0.7l0.4,0.7h0.6l0.5-0.5l0.4,0.5h0.5l0.4-0.3l0.3,0.3h0.3l0.3-0.6l0.6,0.6l0.5-0.8l0.4,0.8l0.7-0.7
						l0.6,0.7h0.3l0.6-0.7l0.5,0.7h0.3l0.4-0.4l0.5,0.4l0.6-0.5l0.3,0.5h0.4l0.4-0.7l0.6,0.7l0.4-0.8l0.6,0.8l0.6-0.6l0.5,0.6h0.5
						l0.4-3.3l0.3,3.3h0.4l0.2-0.6l0.2,0.6h0.4l0.5-0.7l0.8,0.7h0.4l0.4-0.5l0.6,0.5h0.4l0.4-0.9l0.6,0.9h0.4l0.4-4.4l0.6,4.4h0.4
						l0.4-0.6l0.5,0.6h0.3l0.4-0.7l0.6,0.7h0.3l0.8-0.5l0.4,0.5l0.6-0.5l0.3,0.5h0.4l0.5-0.8l0.3,0.8l0.3-0.7l0.4,0.7
						c0,0,0-19.7,0-29.5S253.2,78.9,253.2,78.9z"/>
					<polygon points="231.2,126.2 231.4,98.6 231.4,126.2 					"/>
					<polygon points="226.2,126.2 226.4,96.5 226.4,126.2 					"/>
					<polygon points="226.9,126.2 227.1,98.6 227.1,126.2 					"/>
					<polygon points="229.8,126.2 230,96.5 230,126.2 					"/>
					<polygon points="232.5,126.2 232.7,97.3 232.7,126.2 					"/>
					<polygon points="235.9,126.2 236,97.8 236,126.2 					"/>
					<polygon points="237.4,126.2 237.5,95.3 237.5,126.2 					"/>
					<polygon points="239.4,126.2 239.6,99.6 239.6,126.2 					"/>
					<polygon points="243,126.2 243.2,97.3 243.2,126.2 					"/>
					<polygon points="245.2,126.2 245.4,97.3 245.4,126.2 					"/>
					<polygon points="246.8,126.2 247,98.6 247,126.2 					"/>
					<polygon points="248.2,126.2 248.4,95.9 248.4,126.2 					"/>
					<polygon points="249.6,126.2 249.8,98.6 249.8,126.2 					"/>
					<polygon points="251.1,126.2 251.3,95.3 251.3,126.2 					"/>
					<polygon points="252.3,126.2 252.5,98.6 252.5,126.2 					"/>
					<polygon points="253.6,126.2 253.8,97.3 253.8,126.2 					"/>
					<polygon points="256.1,126.2 256.2,96.5 256.2,126.2 					"/>
					<polygon points="244.3,126.2 244.5,98.6 244.5,126.2 					"/>
					<polygon points="226.6,77.4 225.2,87 256.5,87 255,77.4 					"/>
					<polygon points="225.9,82.3 255.8,82.3 255.5,80.5 226.1,80.5 					"/>
					<polygon points="255.3,78.9 255,77.4 226.6,77.4 226.4,78.9 					"/>
					<g>
						<circle cx="229.9" cy="84.9" r="0.8"/>
						<circle cx="237.2" cy="84.9" r="0.8"/>
						<circle cx="244.5" cy="84.9" r="0.8"/>
						<circle cx="251.7" cy="84.9" r="0.8"/>
					</g>
				</g>
			</g>
			<g>
				
				<g>
					<circle cx="240.9" cy="13.9" r="1.3"/>
				</g>
			</g>
		</g>
	</g>
</g>
<g>
	<g>
		<g>
			<g>
				<path fill="#E9B008" d="M90.7,61.4c0,0.7,0,0.6,0,0.9c0,1.1-1.8,1.5-1.8,2.8c0,1.3,0.2,1.7,1.7,1.7c1.5,0,4,0,4,0s2.5,0,4,0
					c1.5,0,1.7-0.4,1.7-1.7c0-1.3-1.8-1.7-1.8-2.8c0-0.3,0-0.2,0-0.9c0-0.9,1.8-1.4,1.8-2.5c0-1.3,0-19.4,0-22.5
					c0-3.1-1.8-3.9-5.7-3.9c-3.9,0-5.7,0.7-5.7,3.9c0,3.1,0,21.2,0,22.5C88.9,60,90.7,60.5,90.7,61.4z"/>
				<g>
					<path fill="#FFDD30" d="M97.1,35.7c0-0.5,0.4-1,1-1h0.1c0.5,0,1,0.4,1,1V57c0,0.5-0.4,1-1,1h-0.1c-0.5,0-1-0.4-1-1V35.7z"/>
					<path fill="#FFDD30" d="M93.7,35.7c0-0.5,0.4-1,1-1h0.1c0.5,0,1,0.4,1,1V57c0,0.5-0.4,1-1,1h-0.1c-0.5,0-1-0.4-1-1V35.7z"/>
					<path fill="#FFDD30" d="M90.1,35.7c0-0.5,0.4-1,1-1h0.1c0.5,0,1,0.4,1,1V57c0,0.5-0.4,1-1,1h-0.1c-0.5,0-1-0.4-1-1V35.7z"/>
				</g>
				<polygon fill="#D2CFD0" points="95.7,110.1 95.7,64.5 93.6,64.5 93.6,110.1 91.9,112 93.4,118.8 94.6,118.8 95.9,118.8 
					97.3,112 				"/>
			</g>
			<path fill="#FFDD30" d="M88.5,65c0-0.8,0.7-1.5,1.5-1.5h9.2c0.8,0,1.5,0.7,1.5,1.5v0.4c0,0.8-0.7,1.5-1.5,1.5H90
				c-0.8,0-1.5-0.7-1.5-1.5V65z"/>
		</g>
		<g>
			<g>
				<path fill="#E9B008" d="M71.7,60.3c0,0.8,0,0.7,0,1c0,1.3-2.2,1.8-2.2,3.3c0,1.5,0.2,2,2,2c1.8,0,4.8,0,4.8,0s2.9,0,4.8,0
					s2-0.5,2-2c0-1.5-2.2-2-2.2-3.3c0-0.3,0-0.2,0-1c0-1.1,2.2-1.7,2.2-2.9c0-1.6,0-23.1,0-26.9s-2.1-4.6-6.8-4.6
					c-4.7,0-6.8,0.9-6.8,4.6s0,25.3,0,26.9C69.6,58.6,71.7,59.2,71.7,60.3z"/>
				<g>
					<path fill="#FFDD30" d="M79.3,29.6c0-0.7,0.5-1.2,1.2-1.2h0.1c0.7,0,1.2,0.5,1.2,1.2v25.4c0,0.7-0.5,1.2-1.2,1.2h-0.1
						c-0.7,0-1.2-0.5-1.2-1.2V29.6z"/>
					<path fill="#FFDD30" d="M75.3,29.6c0-0.7,0.5-1.2,1.2-1.2h0.1c0.7,0,1.2,0.5,1.2,1.2v25.4c0,0.7-0.5,1.2-1.2,1.2h-0.1
						c-0.7,0-1.2-0.5-1.2-1.2V29.6z"/>
					<path fill="#FFDD30" d="M71,29.6c0-0.7,0.5-1.2,1.2-1.2h0.1c0.7,0,1.2,0.5,1.2,1.2v25.4c0,0.7-0.5,1.2-1.2,1.2h-0.1
						c-0.7,0-1.2-0.5-1.2-1.2V29.6z"/>
				</g>
				<polygon fill="#D2CFD0" points="77.6,118.4 77.6,64 75.2,64 75.2,118.4 73.2,120.7 74.9,128.8 76.4,128.8 77.9,128.8 
					79.6,120.7 				"/>
			</g>
			<path fill="#FFDD30" d="M69.1,64.6c0-1,0.8-1.8,1.8-1.8h11c1,0,1.8,0.8,1.8,1.8v0.5c0,1-0.8,1.8-1.8,1.8h-11
				c-1,0-1.8-0.8-1.8-1.8V64.6z"/>
		</g>
		<g>
			<g>
				<path fill="#FF674C" d="M21.5,57.1c0,1.2,0,1.1,0,1.5c0,1.9-3.2,2.7-3.2,4.9c0,2.2,0.3,3,3,3s7.1,0,7.1,0s4.3,0,7.1,0
					c2.7,0,3-0.8,3-3c0-2.2-3.2-3-3.2-4.9c0-0.5,0-0.3,0-1.5c0-1.7,3.2-2.5,3.2-4.4c0-2.3,0-34.3,0-39.9c0-5.6-3.1-6.8-10.1-6.8
					s-10.1,1.3-10.1,6.8c0,5.6,0,37.6,0,39.9C18.3,54.6,21.5,55.4,21.5,57.1z"/>
				<g>
					<path fill="#FFB099" d="M32.8,11.6c0-1,0.8-1.8,1.8-1.8h0.1c1,0,1.8,0.8,1.8,1.8v37.7c0,1-0.8,1.8-1.8,1.8h-0.1
						c-1,0-1.8-0.8-1.8-1.8V11.6z"/>
					<path fill="#FFB099" d="M26.8,11.6c0-1,0.8-1.8,1.8-1.8h0.1c1,0,1.8,0.8,1.8,1.8v37.7c0,1-0.8,1.8-1.8,1.8h-0.1
						c-1,0-1.8-0.8-1.8-1.8V11.6z"/>
					<path fill="#FFB099" d="M20.4,11.6c0-1,0.8-1.8,1.8-1.8h0.1c1,0,1.8,0.8,1.8,1.8v37.7c0,1-0.8,1.8-1.8,1.8h-0.1
						c-1,0-1.8-0.8-1.8-1.8V11.6z"/>
				</g>
				<polygon fill="#D2CFD0" points="30.3,143.1 30.3,62.5 26.6,62.5 26.6,143.1 23.7,146.6 26.2,158.6 28.4,158.6 30.7,158.6 
					33.2,146.6 				"/>
			</g>
			<path fill="#FFB099" d="M17.7,63.4c0-1.5,1.2-2.6,2.6-2.6h16.3c1.5,0,2.6,1.2,2.6,2.6v0.8c0,1.5-1.2,2.6-2.6,2.6H20.3
				c-1.5,0-2.6-1.2-2.6-2.6V63.4z"/>
		</g>
		<g>
			<g>
				<path fill="#FF674C" d="M47.7,58.3c0,1.1,0,0.9,0,1.3c0,1.6-2.8,2.3-2.8,4.3c0,1.9,0.3,2.6,2.7,2.6s6.2,0,6.2,0s3.8,0,6.2,0
					s2.7-0.7,2.7-2.6c0-1.9-2.8-2.7-2.8-4.3c0-0.4,0-0.3,0-1.3c0-1.5,2.8-2.2,2.8-3.8c0-2,0-30.1,0-34.9c0-4.9-2.7-6-8.8-6
					c-6.1,0-8.8,1.1-8.8,6c0,4.9,0,32.9,0,34.9C44.9,56.1,47.7,56.8,47.7,58.3z"/>
				<g>
					<path fill="#FFB099" d="M57.6,18.4c0-0.9,0.7-1.5,1.5-1.5h0.1c0.9,0,1.5,0.7,1.5,1.5v33.1c0,0.9-0.7,1.5-1.5,1.5h-0.1
						c-0.9,0-1.5-0.7-1.5-1.5V18.4z"/>
					<path fill="#FFB099" d="M52.3,18.4c0-0.9,0.7-1.5,1.5-1.5H54c0.9,0,1.5,0.7,1.5,1.5v33.1c0,0.9-0.7,1.5-1.5,1.5h-0.1
						c-0.9,0-1.5-0.7-1.5-1.5V18.4z"/>
					<path fill="#FFB099" d="M46.8,18.4c0-0.9,0.7-1.5,1.5-1.5h0.1c0.9,0,1.5,0.7,1.5,1.5v33.1c0,0.9-0.7,1.5-1.5,1.5h-0.1
						c-0.9,0-1.5-0.7-1.5-1.5V18.4z"/>
				</g>
				<polygon fill="#D2CFD0" points="55.4,127.7 55.4,63 52.2,63 52.2,127.7 49.6,130.7 51.8,141.3 53.8,141.3 55.7,141.3 
					57.9,130.7 				"/>
			</g>
			<path fill="#FFB099" d="M44.3,63.8c0-1.3,1-2.3,2.3-2.3h14.3c1.3,0,2.3,1,2.3,2.3v0.7c0,1.3-1,2.3-2.3,2.3H46.6
				c-1.3,0-2.3-1-2.3-2.3V63.8z"/>
		</g>
	</g>
	<g>
		<path fill="#A05B49" d="M112.1,85.8c0,1.6-1.3,2.9-2.9,2.9H7.1c-1.6,0-2.9-1.3-2.9-2.9V69.7c0-1.6,1.3-2.9,2.9-2.9h102.1
			c1.6,0,2.9,1.3,2.9,2.9V85.8z"/>
	</g>
</g>
<g>
	<g>
		<g>
			<g>
				<path fill="#ADA7AA" d="M126.3,100c-2.5,4.5-2.6,6.4-2.6,6.4l8.3-2.9l9.3,1c0,0-0.8-2.8-3.3-4.9c-2.3-2-2.2-3.6-2.2-6.7V26.1
					c0-2.7,0.6-6.1,1.8-7.9h-5.5h-5.5c1.2,1.9,1.8,5.3,1.8,7.9v66.7C128.1,95.9,127.9,97.1,126.3,100z"/>
				<path fill="#D2CFD0" d="M130.2,27.1c0-0.9,0.8-1.7,1.7-1.7l0,0c0.9,0,1.7,0.8,1.7,1.7v62.1c0,0.9-0.8,1.7-1.7,1.7l0,0
					c-0.9,0-1.7-0.8-1.7-1.7V27.1z"/>
				<path fill="#D2CFD0" d="M130.2,116.9l-2.1-8.9c0,0,0.4-1.5,4.6-2.1c4.1-0.6,4.9,0.9,4.9,0.9l2.1,8.1c0,0,2.7-5.1,1.6-9.7
					c-1.2-5-5-6.8-10.5-6c-5.5,0.8-7.8,5.9-7.1,9.2C124.4,111.7,126.7,114.2,130.2,116.9z"/>
				<path fill="#D2CFD0" d="M131.9,20.7c4,0,7.3-3.3,7.3-7.3S135.9,6,131.9,6c-4,0-7.3,3.3-7.3,7.3S127.9,20.7,131.9,20.7z M129.4,9
					h5l2.5,4.3l-2.5,4.3h-5l-2.5-4.3L129.4,9z"/>
			</g>
		</g>
		<g>
			
			<g>
				<circle fill="#A05B49" cx="131.9" cy="10.3" r="1.3"/>
			</g>
		</g>
	</g>
	<g>
		<g>
			<g>
				<path fill="#ADA7AA" d="M153.9,121.3c-3.1,5.6-3.2,7.8-3.2,7.8l10.1-3.5l11.4,1.2c0,0-1-3.4-4.1-6.1c-2.8-2.4-2.7-4.4-2.7-8.3
					V30.6c0-3.3,0.8-7.5,2.2-9.7h-6.8H154c1.4,2.3,2.2,6.5,2.2,9.7v81.9C156.2,116.3,155.9,117.8,153.9,121.3z"/>
				<path fill="#D2CFD0" d="M158.7,31.9c0-1.1,0.9-2.1,2.1-2.1l0,0c1.1,0,2.1,0.9,2.1,2.1v76.1c0,1.1-0.9,2.1-2.1,2.1l0,0
					c-1.1,0-2.1-0.9-2.1-2.1V31.9z"/>
				<path fill="#D2CFD0" d="M158.7,142.1l-2.5-11c0,0,0.6-1.8,5.6-2.5c5-0.7,6.1,1.1,6.1,1.1l2.6,9.9c0,0,3.3-6.2,2-11.9
					c-1.5-6.2-6.1-8.4-12.9-7.4c-6.8,0.9-9.6,7.2-8.7,11.3C151.6,135.7,154.4,138.7,158.7,142.1z"/>
				<path fill="#D2CFD0" d="M160.8,24c5,0,9-4,9-9s-4-9-9-9c-5,0-9,4-9,9S155.8,24,160.8,24z M157.7,9.7h6.1l3,5.3l-3,5.3h-6.1
					l-3-5.3L157.7,9.7z"/>
			</g>
		</g>
		<g>
			<g>
				<circle fill="#A05B49" cx="160.8" cy="11.1" r="1.3"/>
			</g>
		</g>
	</g>
	<g>
		<g>
			<path fill="#ADA7AA" d="M202.6,110.4l-5-10.6l-6.3-0.3l14.2-7.8C205.4,91.7,210.4,102.9,202.6,110.4z"/>
			<path fill="#ADA7AA" d="M180.2,100.7c0,5.6,6.9,11.1,14.3,12.7l-4.3-10.9l6.8-5.4l12.8-5.1l-2.5-5.8l-1.7,0.5
				c0,0-3.5-5.8-4.2-7.9c-0.7-2.1-0.5-11.1-0.5-16V12l0,0c-0.2-3.3-3-6-6.3-6c-3.5,0-6.4,2.8-6.4,6.4l2.8,58.4
				c0,5.1-0.4,9.5-4.5,15.8C182.4,92.9,180.2,95.2,180.2,100.7z M190.4,12.4c0-2.3,1.8-4.1,4.1-4.1c2.3,0,4.1,1.8,4.1,4.1
				c0,2.3-1.8,4.1-4.1,4.1C192.3,16.5,190.4,14.7,190.4,12.4z"/>
			<path fill="#D2CFD0" d="M194.5,16.5c-2.1,0-3.9-1.6-4.1-3.7l3.3,63c0,1.2,1,2.2,2.2,2.2c1.2,0,2.2-1,2.2-2.2l0.6-63.4
				C198.7,14.7,196.8,16.5,194.5,16.5z"/>
			<path fill="#D2CFD0" d="M180.2,100.7c0,5.6,6.9,11.1,14.3,12.7l-4.3-10.9l6.8-5.4l12.8-5.1l-2.5-5.8l-26.2,9.2
				C180.5,97,180.2,98.6,180.2,100.7z"/>
			<path fill="#413B3C" d="M194,85.7c-0.1-0.3,0-0.7,0.4-0.9l4.6-1.7c0.3-0.1,0.7,0,0.9,0.4l1.7,4.6c0.1,0.3,0,0.7-0.4,0.9l-4.6,1.7
				c-0.3,0.1-0.7,0-0.9-0.4L194,85.7z"/>
			<g>
				<path fill="#D2CFD0" d="M198.3,84.9c-0.1-0.3,0-0.7,0.4-0.8l0,0c0.3-0.1,0.7,0,0.8,0.4l1.2,3.2c0.1,0.3,0,0.7-0.4,0.8l0,0
					c-0.3,0.1-0.7,0-0.8-0.4L198.3,84.9z"/>
				<path fill="#D2CFD0" d="M196.6,85.5c-0.1-0.3,0-0.7,0.4-0.8l0,0c0.3-0.1,0.7,0,0.8,0.4l1.2,3.2c0.1,0.3,0,0.7-0.4,0.8l0,0
					c-0.3,0.1-0.7,0-0.8-0.4L196.6,85.5z"/>
				<path fill="#D2CFD0" d="M194.9,86.2c-0.1-0.3,0-0.7,0.4-0.8l0,0c0.3-0.1,0.7,0,0.8,0.4l1.2,3.2c0.1,0.3,0,0.7-0.4,0.8l0,0
					c-0.3,0.1-0.7,0-0.8-0.4L194.9,86.2z"/>
			</g>
		</g>
		<g>
			
			<g>
				<circle fill="#A05B49" cx="194.6" cy="9.6" r="1.3"/>
			</g>
		</g>
	</g>
</g>
<g>
	<g>
		<g>
			<rect x="382.4" y="60.6" fill="#413B3C" width="4.3" height="5.2"/>
			<rect x="390" y="60.6" fill="#413B3C" width="4.3" height="5.2"/>
			<g>
				<path fill="#D2CFD0" d="M394.2,54.3c0.5-0.9,0.8-2,0.8-3.1c0-3.7-3-6.7-6.7-6.7c-0.2,0-0.4,0-0.6,0l0.2-0.2V32.6l-0.8-0.6
					l0.5-0.3l-0.9-0.6l0.6-0.5l-0.9-0.5l0.9-0.5l-0.6-0.5l0.9-0.6l-0.5-0.3l0.8-0.6V20h-1.6c-5.9,20.3-5.5,27.8-5.5,27.8h1.7
					c-0.6,1-0.9,2.1-0.9,3.4c0,3.7,3,6.7,6.7,6.7c0.3,0,0.6,0,0.9-0.1v0.9v3.1l1.4,1.1l4.6-2.3v-6.2L394.2,54.3z"/>
			</g>
			<g>
				<path fill="#D2CFD0" d="M390.3,20h-1.6v7.5l0.8,0.6l-0.5,0.3l0.9,0.6l-0.6,0.5l0.9,0.5l-0.9,0.5l0.6,0.5l-0.9,0.6l0.5,0.3
					l-0.8,0.6v11.3c2.7,0.1,5,1.7,6.2,4h0.9C395.8,47.8,396.2,40.3,390.3,20z"/>
			</g>
			<path fill="#FF674C" d="M402.5,93.4c-2.7-17.5-6.9-28.9-6.9-28.9h-6.3c9.7,41.4,5.5,67.2,5.5,70.7c0,3.5,4.3,6.1,6.1,1.1
				C402.6,131.3,405.2,111,402.5,93.4z"/>
			<path opacity="0.6" fill="#FFA289" d="M394.7,135.2c0,1.7,1,3.2,2.2,3.7c0.8-0.3,1.5-1.2,2-2.6c1.8-5,4.4-25.3,1.7-42.9
				c-2.7-17.5-6.9-28.9-6.9-28.9h-4.5C399,106,394.7,131.7,394.7,135.2z"/>
			<path fill="#FF674C" d="M374.2,93.4c2.7-17.5,6.9-28.9,6.9-28.9h6.3c-9.7,41.4-5.5,67.2-5.5,70.7c0,3.5-4.3,6.1-6.1,1.1
				C374,131.3,371.5,111,374.2,93.4z"/>
			<path opacity="0.6" fill="#FFA289" d="M375.9,136.3c0.5,1.4,1.2,2.2,2,2.6c1.2-0.5,2.2-2,2.2-3.7c0-3.5-4.3-29.3,5.5-70.7h-4.5
				c0,0-4.3,11.4-6.9,28.9C371.5,111,374,131.3,375.9,136.3z"/>
			<path fill="#D2CFD0" d="M381.5,54.4l-0.1,0v6.2l4.6,2.3l1.4-1.1v-3.1v0C384.8,58.3,382.6,56.7,381.5,54.4z"/>
			<path fill="#413B3C" d="M388.3,46.1c-2.8,0-5.1,2.3-5.1,5.1s2.3,5.1,5.1,5.1s5.1-2.3,5.1-5.1S391.1,46.1,388.3,46.1z M388.3,54.4
				c-1.8,0-3.2-1.4-3.2-3.2s1.4-3.2,3.2-3.2c1.8,0,3.2,1.4,3.2,3.2S390.1,54.4,388.3,54.4z"/>
		</g>
	</g>
	<g>
		<g>
			<path fill="#D2CFD0" d="M353,3.1c-2.6,0-13.1,0-14.5,0c-1.3,0-2,3.4-8.4,3.4c-4.4,0-6.8-2.4-6.8-2.4v11.6c0,0,2.2-1.1,6.8-1.1
				c2.6,0,4.3,0.7,5.4,1.4v9.4c0,1.4,1.2,2.6,2.6,2.6h10.7c1.4,0,2.6-1.2,2.6-2.6c0,0,0-10.6,0-10.9c0.8-1.2,2.5-2.4,6-2.4
				c7.7,0,12.8,7.7,12.8,10.2h1.7C372.1,6.3,355.6,3.1,353,3.1z"/>
			<rect x="338.9" y="26.5" fill="#413B3C" width="9.1" height="41.2"/>
			<path fill="#FF674C" d="M352,136.5c0,1.4-1.2,2.6-2.6,2.6h-12c-1.4,0-2.6-1.2-2.6-2.6l0.9-68.3c0-1.4,1.2-2.6,2.6-2.6h10.3
				c1.4,0,2.6,1.2,2.6,2.6L352,136.5z"/>
			<path fill="#ADA7AA" d="M330.2,14.5c2.6,0,4.3,0.7,5.4,1.4v9.4c0,1.4,1.2,2.6,2.6,2.6h10.7c1.4,0,2.6-1.2,2.6-2.6
				c0,0,0-10.6,0-10.9c0.8-1.2,2.5-2.4,6-2.4c7.7,0,12.8,7.7,12.8,10.2h1c-0.2-3.4-2.1-12.9-18.3-12.9c0,0-4.2,4.8-11.4,4.8
				c-7.2,0-9-3.6-18.3-3.6v5.1C323.3,15.7,325.6,14.5,330.2,14.5z"/>
			<path fill="#D2CFD0" d="M325.4,15.4c0,1.4-1.2,2.6-2.6,2.6h-7.1c-1.4,0-2.6-1.2-2.6-2.6V5.6c0-1.4,1.2-2.6,2.6-2.6h7.1
				c1.4,0,2.6,1.2,2.6,2.6V15.4z"/>
			<path fill="#ADA7AA" d="M313.1,10.1v5.3c0,1.4,1.2,2.6,2.6,2.6h7.1c1.4,0,2.6-1.2,2.6-2.6V9.5C319.7,11,315.7,10.8,313.1,10.1z"
				/>
			<rect x="340.1" y="65.6" opacity="0.6" fill="#FFAB93" width="6.6" height="73.5"/>
		</g>
	</g>
	<g>
		<path fill="#A05B49" d="M415.3,93.2c0,1.6-1.3,2.9-2.9,2.9h-94.7c-1.6,0-2.9-1.3-2.9-2.9V77.1c0-1.6,1.3-2.9,2.9-2.9h94.7
			c1.6,0,2.9,1.3,2.9,2.9V93.2z"/>
	</g>
</g>
<g>
	<g>
		<g>
			<g>
				<path fill="#E9B008" d="M289.1,54.5c-0.4-1.3-0.8-2-2.4-2.4c-1.5-0.4-4.1-4-3-8c1-4.1,2.3-9.6,2.3-13.9c0-4.3,0-18.1,0-18.1
					c0-3.9-3.2-7.1-7.1-7.1s-7.1,3.2-7.1,7.1c0,0,0,13.7,0,18.1c0,4.3,1.3,9.9,2.3,13.9c1,4.1-1.5,7.6-3,8c-1.5,0.4-2,1.1-2.4,2.4
					c-0.4,1.3-1.3,7.4-1.3,7.4h11.4h11.4C290.3,62,289.4,55.8,289.1,54.5z M278.9,14.8c-1.5,0-2.8-1.2-2.8-2.8
					c0-1.5,1.2-2.8,2.8-2.8c1.5,0,2.8,1.2,2.8,2.8C281.7,13.6,280.4,14.8,278.9,14.8z"/>
				<path fill="#FFDD30" d="M287,56c-0.3-1.3-0.6-2-1.9-2.5c-1.2-0.4-3.2-4-2.4-8.1c0.8-4.1,1.8-9.7,1.8-14.1c0-4.4,0-18.3,0-18.3
					c0-4-2.5-7.2-5.6-7.2s-5.6,3.2-5.6,7.2c0,0,0,13.9,0,18.3c0,4.4,1,10,1.8,14.1c0.8,4.1-1.2,7.7-2.4,8.1
					c-1.2,0.4-1.6,1.1-1.9,2.5c-0.3,1.3-1,7.6-1,7.6h9.1h9.1C288,63.5,287.3,57.3,287,56z M278.9,14.8c-1.5,0-2.8-1.2-2.8-2.8
					c0-1.5,1.2-2.8,2.8-2.8c1.5,0,2.8,1.2,2.8,2.8C281.7,13.6,280.4,14.8,278.9,14.8z"/>
				<path fill="#1E1D1C" d="M288.5,60.9h-9.6h-9.6c0,0-3.7,6.3-3.7,13.9c0,7.6,0,29.1,0,29.1l0.2-0.4l0.3,0.4l0.3-0.3l0.5,0.3
					l0.4-0.7l0.3,0.7h0.7l0.7-0.5l0.2,0.5h0.3l0.4-0.5l0.3,0.5h0.4l0.4-0.4l0.3,0.4h0.4l0.3-0.2l0.3,0.2h0.2l0.2-0.4l0.4,0.4
					l0.4-0.7l0.3,0.7l0.5-0.5l0.5,0.5h0.2l0.5-0.5l0.4,0.5h0.3l0.3-0.3l0.4,0.3l0.5-0.4l0.3,0.4h0.3l0.3-0.5l0.5,0.5l0.3-0.6
					l0.5,0.6l0.5-0.5l0.4,0.5h0.4l0.3-2.6l0.3,2.6h0.3l0.2-0.4l0.2,0.4h0.3l0.4-0.6l0.6,0.6h0.3l0.3-0.4l0.4,0.4h0.3l0.3-0.7
					l0.4,0.7h0.3l0.3-3.4l0.5,3.4h0.3l0.3-0.5l0.4,0.5h0.3l0.3-0.5l0.5,0.5h0.2l0.6-0.4l0.3,0.4l0.4-0.4l0.3,0.4h0.3l0.4-0.6
					l0.2,0.6l0.3-0.5l0.3,0.5c0,0,0-21.5,0-29.1C292.2,67.2,288.5,60.9,288.5,60.9z"/>
				<polygon fill="#413B3C" points="271.5,104 271.6,76.3 271.6,104 				"/>
				<polygon fill="#413B3C" points="267.6,104 267.7,74.7 267.7,104 				"/>
				<polygon fill="#413B3C" points="268.1,104 268.2,76.3 268.2,104 				"/>
				<polygon fill="#413B3C" points="270.4,104 270.5,74.7 270.5,104 				"/>
				<polygon fill="#413B3C" points="272.5,104 272.6,75.3 272.6,104 				"/>
				<polygon fill="#413B3C" points="275,104 275.2,75.7 275.2,104 				"/>
				<polygon fill="#413B3C" points="276.2,104 276.3,73.7 276.3,104 				"/>
				<polygon fill="#413B3C" points="277.8,104 277.9,77 277.9,104 				"/>
				<polygon fill="#413B3C" points="280.6,104 280.8,75.3 280.8,104 				"/>
				<polygon fill="#413B3C" points="282.3,104 282.5,75.3 282.5,104 				"/>
				<polygon fill="#413B3C" points="283.6,104 283.7,76.3 283.7,104 				"/>
				<polygon fill="#413B3C" points="284.7,104 284.8,74.2 284.8,104 				"/>
				<polygon fill="#413B3C" points="285.8,104 285.9,76.3 285.9,104 				"/>
				<polygon fill="#413B3C" points="286.9,104 287,73.7 287,104 				"/>
				<polygon fill="#413B3C" points="287.9,104 288,76.3 288,104 				"/>
				<polygon fill="#413B3C" points="288.9,104 289,75.3 289,104 				"/>
				<polygon fill="#413B3C" points="290.8,104 290.9,74.7 290.9,104 				"/>
				<polygon fill="#413B3C" points="281.7,104 281.8,76.3 281.8,104 				"/>
				<polygon fill="#ADA7AA" points="267.8,59.8 266.7,67.2 291.1,67.2 290,59.8 				"/>
				<polygon fill="#D2CFD0" points="267.3,63.6 290.6,63.6 290.3,62.2 267.5,62.2 				"/>
				<polygon fill="#D2CFD0" points="290.2,60.9 290,59.8 267.8,59.8 267.7,60.9 				"/>
				<g>
					<circle fill="#D2CFD0" cx="270.4" cy="65.6" r="0.6"/>
					<circle fill="#D2CFD0" cx="276.1" cy="65.6" r="0.6"/>
					<circle fill="#D2CFD0" cx="281.7" cy="65.6" r="0.6"/>
					<circle fill="#D2CFD0" cx="287.4" cy="65.6" r="0.6"/>
				</g>
			</g>
		</g>
		<g>
			<g>
				<circle fill="#A05B49" cx="278.9" cy="10.7" r="1.3"/>
			</g>
		</g>
	</g>
	<g>
		<g>
			<g>
				<path fill="#E9B008" d="M253.9,68.6c-0.5-1.7-1-2.6-3-3.1c-2-0.6-5.2-5.1-3.9-10.3c1.3-5.2,3-12.3,3-17.9c0-5.6,0-23.2,0-23.2
					c0-5-4.1-9.1-9.1-9.1s-9.1,4.1-9.1,9.1c0,0,0,17.6,0,23.2c0,5.6,1.6,12.7,3,17.9c1.3,5.2-1.9,9.7-3.9,10.3c-2,0.6-2.6,1.4-3,3.1
					c-0.5,1.7-1.6,9.6-1.6,9.6h14.6h14.6C255.5,78.2,254.3,70.3,253.9,68.6z M240.8,17.6c-2,0-3.5-1.6-3.5-3.5s1.6-3.5,3.5-3.5
					s3.5,1.6,3.5,3.5S242.8,17.6,240.8,17.6z"/>
				<path fill="#FFDD30" d="M251.2,70.5c-0.4-1.7-0.8-2.6-2.4-3.2c-1.6-0.6-4.1-5.2-3.1-10.5c1.1-5.3,2.4-12.5,2.4-18.2
					c0-5.7,0-23.5,0-23.5c0-5.1-3.2-9.2-7.2-9.2s-7.2,4.1-7.2,9.2c0,0,0,17.9,0,23.5c0,5.7,1.3,12.9,2.4,18.2
					c1.1,5.3-1.5,9.9-3.1,10.5c-1.6,0.6-2,1.4-2.4,3.2c-0.4,1.7-1.3,9.7-1.3,9.7h11.7h11.7C252.5,80.2,251.6,72.2,251.2,70.5z
					 M240.8,17.6c-2,0-3.5-1.6-3.5-3.5s1.6-3.5,3.5-3.5s3.5,1.6,3.5,3.5S242.8,17.6,240.8,17.6z"/>
				<path fill="#1E1D1C" d="M253.2,76.9h-12.4h-12.4c0,0-4.7,8.1-4.7,17.9s0,29.5,0,29.5l0.3-0.5l0.4,0.5l0.3-0.4l0.7,0.4l0.5-0.9
					l0.4,0.9h0.9l0.9-0.7l0.3,0.7h0.4l0.6-0.7l0.4,0.7h0.6l0.5-0.5l0.4,0.5h0.5l0.4-0.3l0.3,0.3h0.3l0.3-0.6l0.6,0.6l0.5-0.8
					l0.4,0.8l0.7-0.7l0.6,0.7h0.3l0.6-0.7l0.5,0.7h0.3l0.4-0.4l0.5,0.4l0.6-0.5l0.3,0.5h0.4l0.4-0.7l0.6,0.7l0.4-0.8l0.6,0.8
					l0.6-0.6l0.5,0.6h0.5l0.4-3.3l0.3,3.3h0.4l0.2-0.6l0.2,0.6h0.4l0.5-0.7l0.8,0.7h0.4l0.4-0.5l0.6,0.5h0.4l0.4-0.9l0.6,0.9h0.4
					l0.4-4.4l0.6,4.4h0.4l0.4-0.6l0.5,0.6h0.3l0.4-0.7l0.6,0.7h0.3l0.8-0.5l0.4,0.5l0.6-0.5l0.3,0.5h0.4l0.5-0.8l0.3,0.8l0.3-0.7
					l0.4,0.7c0,0,0-19.7,0-29.5S253.2,76.9,253.2,76.9z"/>
				<polygon fill="#413B3C" points="231.2,124.2 231.4,96.6 231.4,124.2 				"/>
				<polygon fill="#413B3C" points="226.2,124.2 226.4,94.5 226.4,124.2 				"/>
				<polygon fill="#413B3C" points="226.9,124.2 227.1,96.6 227.1,124.2 				"/>
				<polygon fill="#413B3C" points="229.8,124.2 230,94.5 230,124.2 				"/>
				<polygon fill="#413B3C" points="232.5,124.2 232.7,95.3 232.7,124.2 				"/>
				<polygon fill="#413B3C" points="235.9,124.2 236,95.8 236,124.2 				"/>
				<polygon fill="#413B3C" points="237.4,124.2 237.5,93.3 237.5,124.2 				"/>
				<polygon fill="#413B3C" points="239.4,124.2 239.6,97.6 239.6,124.2 				"/>
				<polygon fill="#413B3C" points="243,124.2 243.2,95.3 243.2,124.2 				"/>
				<polygon fill="#413B3C" points="245.2,124.2 245.4,95.3 245.4,124.2 				"/>
				<polygon fill="#413B3C" points="246.8,124.2 247,96.6 247,124.2 				"/>
				<polygon fill="#413B3C" points="248.2,124.2 248.4,93.9 248.4,124.2 				"/>
				<polygon fill="#413B3C" points="249.6,124.2 249.8,96.6 249.8,124.2 				"/>
				<polygon fill="#413B3C" points="251.1,124.2 251.3,93.3 251.3,124.2 				"/>
				<polygon fill="#413B3C" points="252.3,124.2 252.5,96.6 252.5,124.2 				"/>
				<polygon fill="#413B3C" points="253.6,124.2 253.8,95.3 253.8,124.2 				"/>
				<polygon fill="#413B3C" points="256.1,124.2 256.2,94.5 256.2,124.2 				"/>
				<polygon fill="#413B3C" points="244.3,124.2 244.5,96.6 244.5,124.2 				"/>
				<polygon fill="#ADA7AA" points="226.6,75.4 225.2,85 256.5,85 255,75.4 				"/>
				<polygon fill="#D2CFD0" points="225.9,80.3 255.8,80.3 255.5,78.5 226.1,78.5 				"/>
				<polygon fill="#D2CFD0" points="255.3,76.9 255,75.4 226.6,75.4 226.4,76.9 				"/>
				<g>
					<circle fill="#D2CFD0" cx="229.9" cy="82.9" r="0.8"/>
					<circle fill="#D2CFD0" cx="237.2" cy="82.9" r="0.8"/>
					<circle fill="#D2CFD0" cx="244.5" cy="82.9" r="0.8"/>
					<circle fill="#D2CFD0" cx="251.7" cy="82.9" r="0.8"/>
				</g>
			</g>
		</g>
		<g>
			
			<g>
				<circle fill="#A05B49" cx="240.9" cy="11.9" r="1.3"/>
			</g>
		</g>
	</g>
</g>
</svg>
